%TF.GenerationSoftware,KiCad,Pcbnew,7.0.5-0*%
%TF.CreationDate,2023-07-12T10:20:26-04:00*%
%TF.ProjectId,stm32g431-mt6701-stspin233,73746d33-3267-4343-9331-2d6d74363730,rev?*%
%TF.SameCoordinates,Original*%
%TF.FileFunction,Copper,L1,Top*%
%TF.FilePolarity,Positive*%
%FSLAX46Y46*%
G04 Gerber Fmt 4.6, Leading zero omitted, Abs format (unit mm)*
G04 Created by KiCad (PCBNEW 7.0.5-0) date 2023-07-12 10:20:26*
%MOMM*%
%LPD*%
G01*
G04 APERTURE LIST*
G04 Aperture macros list*
%AMRoundRect*
0 Rectangle with rounded corners*
0 $1 Rounding radius*
0 $2 $3 $4 $5 $6 $7 $8 $9 X,Y pos of 4 corners*
0 Add a 4 corners polygon primitive as box body*
4,1,4,$2,$3,$4,$5,$6,$7,$8,$9,$2,$3,0*
0 Add four circle primitives for the rounded corners*
1,1,$1+$1,$2,$3*
1,1,$1+$1,$4,$5*
1,1,$1+$1,$6,$7*
1,1,$1+$1,$8,$9*
0 Add four rect primitives between the rounded corners*
20,1,$1+$1,$2,$3,$4,$5,0*
20,1,$1+$1,$4,$5,$6,$7,0*
20,1,$1+$1,$6,$7,$8,$9,0*
20,1,$1+$1,$8,$9,$2,$3,0*%
%AMRotRect*
0 Rectangle, with rotation*
0 The origin of the aperture is its center*
0 $1 length*
0 $2 width*
0 $3 Rotation angle, in degrees counterclockwise*
0 Add horizontal line*
21,1,$1,$2,0,0,$3*%
%AMFreePoly0*
4,1,19,0.500000,-0.750000,0.000000,-0.750000,0.000000,-0.744911,-0.071157,-0.744911,-0.207708,-0.704816,-0.327430,-0.627875,-0.420627,-0.520320,-0.479746,-0.390866,-0.500000,-0.250000,-0.500000,0.250000,-0.479746,0.390866,-0.420627,0.520320,-0.327430,0.627875,-0.207708,0.704816,-0.071157,0.744911,0.000000,0.744911,0.000000,0.750000,0.500000,0.750000,0.500000,-0.750000,0.500000,-0.750000,
$1*%
%AMFreePoly1*
4,1,19,0.000000,0.744911,0.071157,0.744911,0.207708,0.704816,0.327430,0.627875,0.420627,0.520320,0.479746,0.390866,0.500000,0.250000,0.500000,-0.250000,0.479746,-0.390866,0.420627,-0.520320,0.327430,-0.627875,0.207708,-0.704816,0.071157,-0.744911,0.000000,-0.744911,0.000000,-0.750000,-0.500000,-0.750000,-0.500000,0.750000,0.000000,0.750000,0.000000,0.744911,0.000000,0.744911,
$1*%
G04 Aperture macros list end*
%TA.AperFunction,SMDPad,CuDef*%
%ADD10RoundRect,0.140000X0.170000X-0.140000X0.170000X0.140000X-0.170000X0.140000X-0.170000X-0.140000X0*%
%TD*%
%TA.AperFunction,SMDPad,CuDef*%
%ADD11RoundRect,0.218750X-0.218750X-0.256250X0.218750X-0.256250X0.218750X0.256250X-0.218750X0.256250X0*%
%TD*%
%TA.AperFunction,SMDPad,CuDef*%
%ADD12RoundRect,0.150000X0.689429X-0.477297X-0.477297X0.689429X-0.689429X0.477297X0.477297X-0.689429X0*%
%TD*%
%TA.AperFunction,SMDPad,CuDef*%
%ADD13RoundRect,0.135000X-0.185000X0.135000X-0.185000X-0.135000X0.185000X-0.135000X0.185000X0.135000X0*%
%TD*%
%TA.AperFunction,SMDPad,CuDef*%
%ADD14RoundRect,0.135000X-0.135000X-0.185000X0.135000X-0.185000X0.135000X0.185000X-0.135000X0.185000X0*%
%TD*%
%TA.AperFunction,SMDPad,CuDef*%
%ADD15RoundRect,0.140000X-0.170000X0.140000X-0.170000X-0.140000X0.170000X-0.140000X0.170000X0.140000X0*%
%TD*%
%TA.AperFunction,SMDPad,CuDef*%
%ADD16RoundRect,0.135000X0.135000X0.185000X-0.135000X0.185000X-0.135000X-0.185000X0.135000X-0.185000X0*%
%TD*%
%TA.AperFunction,SMDPad,CuDef*%
%ADD17RoundRect,0.135000X0.185000X-0.135000X0.185000X0.135000X-0.185000X0.135000X-0.185000X-0.135000X0*%
%TD*%
%TA.AperFunction,SMDPad,CuDef*%
%ADD18RoundRect,0.150000X0.150000X-0.587500X0.150000X0.587500X-0.150000X0.587500X-0.150000X-0.587500X0*%
%TD*%
%TA.AperFunction,SMDPad,CuDef*%
%ADD19RoundRect,0.135000X0.226274X0.035355X0.035355X0.226274X-0.226274X-0.035355X-0.035355X-0.226274X0*%
%TD*%
%TA.AperFunction,ComponentPad*%
%ADD20C,5.600000*%
%TD*%
%TA.AperFunction,SMDPad,CuDef*%
%ADD21FreePoly0,180.000000*%
%TD*%
%TA.AperFunction,SMDPad,CuDef*%
%ADD22FreePoly1,180.000000*%
%TD*%
%TA.AperFunction,SMDPad,CuDef*%
%ADD23RoundRect,0.225000X0.250000X-0.225000X0.250000X0.225000X-0.250000X0.225000X-0.250000X-0.225000X0*%
%TD*%
%TA.AperFunction,SMDPad,CuDef*%
%ADD24R,1.500000X3.500000*%
%TD*%
%TA.AperFunction,SMDPad,CuDef*%
%ADD25RoundRect,0.135000X-0.226274X-0.035355X-0.035355X-0.226274X0.226274X0.035355X0.035355X0.226274X0*%
%TD*%
%TA.AperFunction,SMDPad,CuDef*%
%ADD26RoundRect,0.140000X-0.140000X-0.170000X0.140000X-0.170000X0.140000X0.170000X-0.140000X0.170000X0*%
%TD*%
%TA.AperFunction,SMDPad,CuDef*%
%ADD27RoundRect,0.218750X0.256250X-0.218750X0.256250X0.218750X-0.256250X0.218750X-0.256250X-0.218750X0*%
%TD*%
%TA.AperFunction,SMDPad,CuDef*%
%ADD28RoundRect,0.250000X-0.325000X-0.650000X0.325000X-0.650000X0.325000X0.650000X-0.325000X0.650000X0*%
%TD*%
%TA.AperFunction,ComponentPad*%
%ADD29R,1.000000X1.000000*%
%TD*%
%TA.AperFunction,ComponentPad*%
%ADD30O,1.000000X1.000000*%
%TD*%
%TA.AperFunction,SMDPad,CuDef*%
%ADD31RoundRect,0.218750X0.218750X0.256250X-0.218750X0.256250X-0.218750X-0.256250X0.218750X-0.256250X0*%
%TD*%
%TA.AperFunction,SMDPad,CuDef*%
%ADD32RoundRect,0.140000X-0.219203X-0.021213X-0.021213X-0.219203X0.219203X0.021213X0.021213X0.219203X0*%
%TD*%
%TA.AperFunction,SMDPad,CuDef*%
%ADD33RoundRect,0.135000X0.035355X-0.226274X0.226274X-0.035355X-0.035355X0.226274X-0.226274X0.035355X0*%
%TD*%
%TA.AperFunction,SMDPad,CuDef*%
%ADD34RoundRect,0.225000X0.225000X0.375000X-0.225000X0.375000X-0.225000X-0.375000X0.225000X-0.375000X0*%
%TD*%
%TA.AperFunction,SMDPad,CuDef*%
%ADD35RotRect,1.400000X1.200000X315.000000*%
%TD*%
%TA.AperFunction,SMDPad,CuDef*%
%ADD36RoundRect,0.150000X0.512500X0.150000X-0.512500X0.150000X-0.512500X-0.150000X0.512500X-0.150000X0*%
%TD*%
%TA.AperFunction,SMDPad,CuDef*%
%ADD37RoundRect,0.062500X-0.325000X-0.062500X0.325000X-0.062500X0.325000X0.062500X-0.325000X0.062500X0*%
%TD*%
%TA.AperFunction,SMDPad,CuDef*%
%ADD38RoundRect,0.062500X-0.062500X-0.325000X0.062500X-0.325000X0.062500X0.325000X-0.062500X0.325000X0*%
%TD*%
%TA.AperFunction,SMDPad,CuDef*%
%ADD39R,1.800000X1.800000*%
%TD*%
%TA.AperFunction,SMDPad,CuDef*%
%ADD40RoundRect,0.140000X0.219203X0.021213X0.021213X0.219203X-0.219203X-0.021213X-0.021213X-0.219203X0*%
%TD*%
%TA.AperFunction,SMDPad,CuDef*%
%ADD41RoundRect,0.250000X0.325000X0.650000X-0.325000X0.650000X-0.325000X-0.650000X0.325000X-0.650000X0*%
%TD*%
%TA.AperFunction,SMDPad,CuDef*%
%ADD42R,1.450000X0.600000*%
%TD*%
%TA.AperFunction,SMDPad,CuDef*%
%ADD43R,1.450000X0.300000*%
%TD*%
%TA.AperFunction,ComponentPad*%
%ADD44O,2.100000X1.000000*%
%TD*%
%TA.AperFunction,ComponentPad*%
%ADD45O,1.600000X1.000000*%
%TD*%
%TA.AperFunction,SMDPad,CuDef*%
%ADD46FreePoly0,315.000000*%
%TD*%
%TA.AperFunction,SMDPad,CuDef*%
%ADD47FreePoly1,315.000000*%
%TD*%
%TA.AperFunction,SMDPad,CuDef*%
%ADD48RoundRect,0.140000X-0.021213X0.219203X-0.219203X0.021213X0.021213X-0.219203X0.219203X-0.021213X0*%
%TD*%
%TA.AperFunction,SMDPad,CuDef*%
%ADD49RoundRect,0.218750X-0.026517X0.335876X-0.335876X0.026517X0.026517X-0.335876X0.335876X-0.026517X0*%
%TD*%
%TA.AperFunction,SMDPad,CuDef*%
%ADD50RoundRect,0.150000X-0.587500X-0.150000X0.587500X-0.150000X0.587500X0.150000X-0.587500X0.150000X0*%
%TD*%
%TA.AperFunction,SMDPad,CuDef*%
%ADD51R,4.000000X1.000000*%
%TD*%
%TA.AperFunction,SMDPad,CuDef*%
%ADD52RoundRect,0.062500X-0.220971X-0.309359X0.309359X0.220971X0.220971X0.309359X-0.309359X-0.220971X0*%
%TD*%
%TA.AperFunction,SMDPad,CuDef*%
%ADD53RoundRect,0.062500X0.220971X-0.309359X0.309359X-0.220971X-0.220971X0.309359X-0.309359X0.220971X0*%
%TD*%
%TA.AperFunction,SMDPad,CuDef*%
%ADD54RotRect,5.600000X5.600000X45.000000*%
%TD*%
%TA.AperFunction,SMDPad,CuDef*%
%ADD55R,1.000000X0.750000*%
%TD*%
%TA.AperFunction,SMDPad,CuDef*%
%ADD56C,1.000000*%
%TD*%
%TA.AperFunction,SMDPad,CuDef*%
%ADD57RoundRect,0.062500X-0.203293X-0.291682X0.291682X0.203293X0.203293X0.291682X-0.291682X-0.203293X0*%
%TD*%
%TA.AperFunction,SMDPad,CuDef*%
%ADD58RoundRect,0.062500X0.203293X-0.291682X0.291682X-0.203293X-0.203293X0.291682X-0.291682X0.203293X0*%
%TD*%
%TA.AperFunction,SMDPad,CuDef*%
%ADD59RotRect,1.700000X1.700000X45.000000*%
%TD*%
%TA.AperFunction,SMDPad,CuDef*%
%ADD60RotRect,1.000000X0.750000X135.000000*%
%TD*%
%TA.AperFunction,ComponentPad*%
%ADD61R,1.700000X1.700000*%
%TD*%
%TA.AperFunction,ComponentPad*%
%ADD62O,1.700000X1.700000*%
%TD*%
%TA.AperFunction,SMDPad,CuDef*%
%ADD63RoundRect,0.087500X-0.087500X0.912500X-0.087500X-0.912500X0.087500X-0.912500X0.087500X0.912500X0*%
%TD*%
%TA.AperFunction,ViaPad*%
%ADD64C,0.800000*%
%TD*%
%TA.AperFunction,Conductor*%
%ADD65C,0.250000*%
%TD*%
%TA.AperFunction,Conductor*%
%ADD66C,0.350000*%
%TD*%
%TA.AperFunction,Conductor*%
%ADD67C,0.500000*%
%TD*%
%TA.AperFunction,Conductor*%
%ADD68C,0.200000*%
%TD*%
G04 APERTURE END LIST*
%TA.AperFunction,EtchedComponent*%
%TO.C,JP601*%
G36*
X138200000Y-67050000D02*
G01*
X137700000Y-67050000D01*
X137700000Y-66450000D01*
X138200000Y-66450000D01*
X138200000Y-67050000D01*
G37*
%TD.AperFunction*%
%TA.AperFunction,EtchedComponent*%
%TO.C,JP701*%
G36*
X138150000Y-60900000D02*
G01*
X137650000Y-60900000D01*
X137650000Y-60300000D01*
X138150000Y-60300000D01*
X138150000Y-60900000D01*
G37*
%TD.AperFunction*%
%TD*%
D10*
%TO.P,C707,1*%
%TO.N,Vmot*%
X141250000Y-56880000D03*
%TO.P,C707,2*%
%TO.N,GND*%
X141250000Y-55920000D03*
%TD*%
D11*
%TO.P,D702,1,K*%
%TO.N,GND*%
X131412500Y-62750000D03*
%TO.P,D702,2,A*%
%TO.N,Net-(D702-A)*%
X132987500Y-62750000D03*
%TD*%
D12*
%TO.P,U101,1,D*%
%TO.N,/mcu/FDCAN1_TX*%
X116926975Y-71073026D03*
%TO.P,U101,2,GND*%
%TO.N,GND*%
X117825000Y-70175000D03*
%TO.P,U101,3,VCC*%
%TO.N,+3V3*%
X118723026Y-69276974D03*
%TO.P,U101,4,R*%
%TO.N,/mcu/FDCAN1_RX*%
X119621052Y-68378949D03*
%TO.P,U101,5,Vref*%
%TO.N,unconnected-(U101-Vref-Pad5)*%
X116120873Y-64878770D03*
%TO.P,U101,6,CANL*%
%TO.N,/CAN_L*%
X115222848Y-65776796D03*
%TO.P,U101,7,CANH*%
%TO.N,/CAN_H*%
X114324822Y-66674822D03*
%TO.P,U101,8,Rs*%
%TO.N,GND*%
X113426796Y-67572847D03*
%TD*%
D13*
%TO.P,R206,1*%
%TO.N,/mcu/USBD_M*%
X136075000Y-73965000D03*
%TO.P,R206,2*%
%TO.N,/mcu/USB_M*%
X136075000Y-74985000D03*
%TD*%
D14*
%TO.P,R303,1*%
%TO.N,Net-(D301-A)*%
X138155000Y-76025000D03*
%TO.P,R303,2*%
%TO.N,+3V3*%
X139175000Y-76025000D03*
%TD*%
D15*
%TO.P,C502,1*%
%TO.N,+3V3*%
X127050000Y-56520000D03*
%TO.P,C502,2*%
%TO.N,GND*%
X127050000Y-57480000D03*
%TD*%
D16*
%TO.P,R301,1*%
%TO.N,+3V3*%
X135335000Y-76925000D03*
%TO.P,R301,2*%
%TO.N,/mcu/~{MOT_SHDN}*%
X134315000Y-76925000D03*
%TD*%
D17*
%TO.P,R702,1*%
%TO.N,+3V3*%
X133200000Y-65010000D03*
%TO.P,R702,2*%
%TO.N,Net-(D702-A)*%
X133200000Y-63990000D03*
%TD*%
D18*
%TO.P,Q501,1,G*%
%TO.N,/display/TFT_BL*%
X122800000Y-58937500D03*
%TO.P,Q501,2,S*%
%TO.N,GND*%
X124700000Y-58937500D03*
%TO.P,Q501,3,D*%
%TO.N,/display/BL_K*%
X123750000Y-57062500D03*
%TD*%
D19*
%TO.P,R203,1*%
%TO.N,+3V3*%
X120356837Y-78681837D03*
%TO.P,R203,2*%
%TO.N,/mcu/RESET*%
X119635589Y-77960589D03*
%TD*%
D20*
%TO.P,H104,1,1*%
%TO.N,GND*%
X145075000Y-83875000D03*
%TD*%
D21*
%TO.P,JP601,1,A*%
%TO.N,/usb/USB_5V*%
X138600000Y-66750000D03*
D22*
%TO.P,JP601,2,B*%
%TO.N,+5V*%
X137300000Y-66750000D03*
%TD*%
D23*
%TO.P,C303,1*%
%TO.N,Vmot*%
X138000000Y-83400000D03*
%TO.P,C303,2*%
%TO.N,GND*%
X138000000Y-81850000D03*
%TD*%
D24*
%TO.P,J107,1,Pin_1*%
%TO.N,Vmot*%
X137974693Y-50137500D03*
%TO.P,J107,2,Pin_2*%
%TO.N,GND*%
X140474693Y-50137500D03*
%TD*%
D25*
%TO.P,R401,1*%
%TO.N,+3V3*%
X121014376Y-79339376D03*
%TO.P,R401,2*%
%TO.N,/encoder/~{ENC_CS}*%
X121735624Y-80060624D03*
%TD*%
D26*
%TO.P,C302,1*%
%TO.N,/motor driver/EN{slash}FAULT*%
X138160000Y-78050000D03*
%TO.P,C302,2*%
%TO.N,GND*%
X139120000Y-78050000D03*
%TD*%
D10*
%TO.P,C706,1*%
%TO.N,+3V3*%
X132175000Y-64980000D03*
%TO.P,C706,2*%
%TO.N,GND*%
X132175000Y-64020000D03*
%TD*%
D15*
%TO.P,C501,1*%
%TO.N,+3V3*%
X127050000Y-58495000D03*
%TO.P,C501,2*%
%TO.N,GND*%
X127050000Y-59455000D03*
%TD*%
D13*
%TO.P,R601,1*%
%TO.N,+3V3*%
X137100000Y-73975000D03*
%TO.P,R601,2*%
%TO.N,/mcu/USB_M*%
X137100000Y-74995000D03*
%TD*%
D27*
%TO.P,D301,1,K*%
%TO.N,/motor driver/EN{slash}FAULT*%
X136890000Y-77787500D03*
%TO.P,D301,2,A*%
%TO.N,Net-(D301-A)*%
X136890000Y-76212500D03*
%TD*%
D21*
%TO.P,JP701,1,A*%
%TO.N,Vmot*%
X138550000Y-60600000D03*
D22*
%TO.P,JP701,2,B*%
%TO.N,+5V*%
X137250000Y-60600000D03*
%TD*%
D28*
%TO.P,C701,1*%
%TO.N,Vmot*%
X133375000Y-82950000D03*
%TO.P,C701,2*%
%TO.N,GND*%
X136325000Y-82950000D03*
%TD*%
D29*
%TO.P,J201,1,NC*%
%TO.N,unconnected-(J201-NC-Pad1)*%
X116275000Y-85475000D03*
D30*
%TO.P,J201,2,NC*%
%TO.N,unconnected-(J201-NC-Pad2)*%
X116275000Y-84205000D03*
%TO.P,J201,3,VCC*%
%TO.N,+3V3*%
X117545000Y-85475000D03*
%TO.P,J201,4,JTMS/SWDIO*%
%TO.N,/mcu/SDIO*%
X117545000Y-84205000D03*
%TO.P,J201,5,GND*%
%TO.N,GND*%
X118815000Y-85475000D03*
%TO.P,J201,6,JCLK/SWCLK*%
%TO.N,/mcu/SWCLK*%
X118815000Y-84205000D03*
%TO.P,J201,7,GND*%
%TO.N,GND*%
X120085000Y-85475000D03*
%TO.P,J201,8,JTDO/SWO*%
%TO.N,unconnected-(J201-JTDO{slash}SWO-Pad8)*%
X120085000Y-84205000D03*
%TO.P,J201,9,JRCLK/NC*%
%TO.N,unconnected-(J201-JRCLK{slash}NC-Pad9)*%
X121355000Y-85475000D03*
%TO.P,J201,10,JTDI/NC*%
%TO.N,unconnected-(J201-JTDI{slash}NC-Pad10)*%
X121355000Y-84205000D03*
%TO.P,J201,11,GNDDetect*%
%TO.N,GND*%
X122625000Y-85475000D03*
%TO.P,J201,12,~{RST}*%
%TO.N,/mcu/RESET*%
X122625000Y-84205000D03*
%TO.P,J201,13,VCP_RX*%
%TO.N,/UART_TX*%
X123895000Y-85475000D03*
%TO.P,J201,14,VCP_TX*%
%TO.N,/UART_RX*%
X123895000Y-84205000D03*
%TD*%
D17*
%TO.P,R501,1*%
%TO.N,+3V3*%
X128075000Y-59510000D03*
%TO.P,R501,2*%
%TO.N,/display/~{TFT_CS}*%
X128075000Y-58490000D03*
%TD*%
D20*
%TO.P,H101,1,1*%
%TO.N,GND*%
X144950000Y-50650000D03*
%TD*%
D31*
%TO.P,D701,1,K*%
%TO.N,GND*%
X139962500Y-62750000D03*
%TO.P,D701,2,A*%
%TO.N,Net-(D701-A)*%
X138387500Y-62750000D03*
%TD*%
D32*
%TO.P,C205,1*%
%TO.N,/mcu/XOUT*%
X115696178Y-78996178D03*
%TO.P,C205,2*%
%TO.N,GND*%
X116375000Y-79675000D03*
%TD*%
D33*
%TO.P,R202,1*%
%TO.N,/mcu/DFU*%
X129439341Y-78231837D03*
%TO.P,R202,2*%
%TO.N,GND*%
X130160589Y-77510589D03*
%TD*%
D34*
%TO.P,D101,1,K*%
%TO.N,Vmot*%
X139625000Y-53175000D03*
%TO.P,D101,2,A*%
%TO.N,GND*%
X136325000Y-53175000D03*
%TD*%
D35*
%TO.P,Y201,1,1*%
%TO.N,/mcu/XOUT*%
X115433543Y-76712705D03*
%TO.P,Y201,2,2*%
%TO.N,GND*%
X116989178Y-78268340D03*
%TO.P,Y201,3,3*%
%TO.N,/mcu/XIN*%
X118191259Y-77066259D03*
%TO.P,Y201,4,4*%
%TO.N,GND*%
X116635624Y-75510624D03*
%TD*%
D36*
%TO.P,U601,1,IO1*%
%TO.N,/mcu/USB_M*%
X138700000Y-72695000D03*
%TO.P,U601,2,VN*%
%TO.N,GND*%
X138700000Y-71745000D03*
%TO.P,U601,3,IO2*%
%TO.N,/mcu/USB_P*%
X138700000Y-70795000D03*
%TO.P,U601,4,IO3*%
%TO.N,unconnected-(U601-IO3-Pad4)*%
X136425000Y-70795000D03*
%TO.P,U601,5,VP*%
%TO.N,+5V*%
X136425000Y-71745000D03*
%TO.P,U601,6,IO4*%
%TO.N,unconnected-(U601-IO4-Pad6)*%
X136425000Y-72695000D03*
%TD*%
D37*
%TO.P,U301,1,INU*%
%TO.N,/mcu/TIM1_CH1*%
X132427500Y-78837500D03*
%TO.P,U301,2,ENU*%
%TO.N,/mcu/TIM1_CH1N*%
X132427500Y-79337500D03*
%TO.P,U301,3,OUTU*%
%TO.N,/motor driver/MOT_U*%
X132427500Y-79837500D03*
%TO.P,U301,4,SENSEU*%
%TO.N,GND*%
X132427500Y-80337500D03*
D38*
%TO.P,U301,5,VS*%
%TO.N,Vmot*%
X133165000Y-81075000D03*
%TO.P,U301,6,GND*%
%TO.N,GND*%
X133665000Y-81075000D03*
%TO.P,U301,7,OUTV*%
%TO.N,/motor driver/MOT_V*%
X134165000Y-81075000D03*
%TO.P,U301,8,SENSEV*%
%TO.N,GND*%
X134665000Y-81075000D03*
D37*
%TO.P,U301,9,SENSEW*%
X135402500Y-80337500D03*
%TO.P,U301,10,OUTW*%
%TO.N,/motor driver/MOT_W*%
X135402500Y-79837500D03*
%TO.P,U301,11,INW*%
%TO.N,/mcu/TIM1_CH3*%
X135402500Y-79337500D03*
%TO.P,U301,12,ENW*%
%TO.N,/mcu/TIM1_CH3N*%
X135402500Y-78837500D03*
D38*
%TO.P,U301,13,EN/FAULT*%
%TO.N,/motor driver/EN{slash}FAULT*%
X134665000Y-78100000D03*
%TO.P,U301,14,STBY/RESET*%
%TO.N,/mcu/~{MOT_SHDN}*%
X134165000Y-78100000D03*
%TO.P,U301,15,INV*%
%TO.N,/mcu/TIM1_CH2*%
X133665000Y-78100000D03*
%TO.P,U301,16,ENV*%
%TO.N,/mcu/TIM1_CH2N*%
X133165000Y-78100000D03*
D39*
%TO.P,U301,17,GND*%
%TO.N,GND*%
X133915000Y-79587500D03*
%TD*%
D40*
%TO.P,C202,1*%
%TO.N,+3V3*%
X118514411Y-73389411D03*
%TO.P,C202,2*%
%TO.N,GND*%
X117835589Y-72710589D03*
%TD*%
D41*
%TO.P,C704,1*%
%TO.N,Vmot*%
X139450000Y-58050000D03*
%TO.P,C704,2*%
%TO.N,GND*%
X136500000Y-58050000D03*
%TD*%
D17*
%TO.P,R503,1*%
%TO.N,/display/TFT_BL*%
X126025000Y-59500000D03*
%TO.P,R503,2*%
%TO.N,GND*%
X126025000Y-58480000D03*
%TD*%
D32*
%TO.P,C204,1*%
%TO.N,+3V3*%
X129635589Y-75285589D03*
%TO.P,C204,2*%
%TO.N,GND*%
X130314411Y-75964411D03*
%TD*%
D15*
%TO.P,C705,1*%
%TO.N,Vmot*%
X141250000Y-57825000D03*
%TO.P,C705,2*%
%TO.N,GND*%
X141250000Y-58785000D03*
%TD*%
D41*
%TO.P,C703,1*%
%TO.N,Vmot*%
X139450000Y-55625000D03*
%TO.P,C703,2*%
%TO.N,GND*%
X136500000Y-55625000D03*
%TD*%
D17*
%TO.P,R204,1*%
%TO.N,/mcu/UCPD1_CC2*%
X139125000Y-69535000D03*
%TO.P,R204,2*%
%TO.N,GND*%
X139125000Y-68515000D03*
%TD*%
D32*
%TO.P,C101,1*%
%TO.N,+3V3*%
X121150000Y-66550000D03*
%TO.P,C101,2*%
%TO.N,GND*%
X121828822Y-67228822D03*
%TD*%
D42*
%TO.P,J601,A1,GND*%
%TO.N,GND*%
X140930000Y-74950000D03*
%TO.P,J601,A4,VBUS*%
%TO.N,/usb/USB_5V*%
X140930000Y-74150000D03*
D43*
%TO.P,J601,A5,CC1*%
%TO.N,/mcu/UCPD1_CC1*%
X140930000Y-72950000D03*
%TO.P,J601,A6,D+*%
%TO.N,/mcu/USB_P*%
X140930000Y-71950000D03*
%TO.P,J601,A7,D-*%
%TO.N,/mcu/USB_M*%
X140930000Y-71450000D03*
%TO.P,J601,A8,SBU1*%
%TO.N,unconnected-(J601-SBU1-PadA8)*%
X140930000Y-70450000D03*
D42*
%TO.P,J601,A9,VBUS*%
%TO.N,/usb/USB_5V*%
X140930000Y-69250000D03*
%TO.P,J601,A12,GND*%
%TO.N,GND*%
X140930000Y-68450000D03*
%TO.P,J601,B1,GND*%
X140930000Y-68450000D03*
%TO.P,J601,B4,VBUS*%
%TO.N,/usb/USB_5V*%
X140930000Y-69250000D03*
D43*
%TO.P,J601,B5,CC2*%
%TO.N,/mcu/UCPD1_CC2*%
X140930000Y-69950000D03*
%TO.P,J601,B6,D+*%
%TO.N,/mcu/USB_P*%
X140930000Y-70950000D03*
%TO.P,J601,B7,D-*%
%TO.N,/mcu/USB_M*%
X140930000Y-72450000D03*
%TO.P,J601,B8,SBU2*%
%TO.N,unconnected-(J601-SBU2-PadB8)*%
X140930000Y-73450000D03*
D42*
%TO.P,J601,B9,VBUS*%
%TO.N,/usb/USB_5V*%
X140930000Y-74150000D03*
%TO.P,J601,B12,GND*%
%TO.N,GND*%
X140930000Y-74950000D03*
D44*
%TO.P,J601,S1,SHIELD*%
X141845000Y-76020000D03*
D45*
X146025000Y-76020000D03*
D44*
X141845000Y-67380000D03*
D45*
X146025000Y-67380000D03*
%TD*%
D46*
%TO.P,J106,1,Pin_1*%
%TO.N,/CAN_L*%
X118965381Y-64715381D03*
D47*
%TO.P,J106,2,Pin_2*%
%TO.N,Net-(J106-Pin_2)*%
X119884619Y-65634619D03*
%TD*%
D48*
%TO.P,C401,1*%
%TO.N,+3V3*%
X126850000Y-64925000D03*
%TO.P,C401,2*%
%TO.N,GND*%
X126171178Y-65603822D03*
%TD*%
D20*
%TO.P,H102,1,1*%
%TO.N,GND*%
X111600000Y-50625000D03*
%TD*%
D49*
%TO.P,D201,1,K*%
%TO.N,GND*%
X128417436Y-77303742D03*
%TO.P,D201,2,A*%
%TO.N,Net-(D201-A)*%
X127303742Y-78417436D03*
%TD*%
D17*
%TO.P,R701,1*%
%TO.N,+5V*%
X138150000Y-65010000D03*
%TO.P,R701,2*%
%TO.N,Net-(D701-A)*%
X138150000Y-63990000D03*
%TD*%
D10*
%TO.P,C702,1*%
%TO.N,+5V*%
X139150000Y-64980000D03*
%TO.P,C702,2*%
%TO.N,GND*%
X139150000Y-64020000D03*
%TD*%
D40*
%TO.P,C203,1*%
%TO.N,+3V3*%
X125850000Y-68650000D03*
%TO.P,C203,2*%
%TO.N,GND*%
X125171178Y-67971178D03*
%TD*%
D20*
%TO.P,H103,1,1*%
%TO.N,GND*%
X111800000Y-83800000D03*
%TD*%
D50*
%TO.P,U701,1,GND*%
%TO.N,GND*%
X134742500Y-62770000D03*
%TO.P,U701,2,VOUT*%
%TO.N,+3V3*%
X134742500Y-64670000D03*
%TO.P,U701,3,VIN*%
%TO.N,+5V*%
X136617500Y-63720000D03*
%TD*%
D51*
%TO.P,J104,1,Pin_1*%
%TO.N,/CAN_H*%
X110825000Y-64000000D03*
%TO.P,J104,2,Pin_2*%
%TO.N,/CAN_L*%
X110825000Y-62000000D03*
%TO.P,J104,3,Pin_3*%
%TO.N,Vmot*%
X110825000Y-60000000D03*
%TO.P,J104,4,Pin_4*%
X110825000Y-58000000D03*
%TO.P,J104,5,Pin_5*%
%TO.N,GND*%
X110825000Y-56000000D03*
%TD*%
D25*
%TO.P,R201,1*%
%TO.N,Net-(U201-PA7)*%
X126185589Y-79085589D03*
%TO.P,R201,2*%
%TO.N,Net-(D201-A)*%
X126906837Y-79806837D03*
%TD*%
D10*
%TO.P,C602,1*%
%TO.N,/mcu/USB_P*%
X138125000Y-69505000D03*
%TO.P,C602,2*%
%TO.N,GND*%
X138125000Y-68545000D03*
%TD*%
D13*
%TO.P,R207,1*%
%TO.N,/mcu/USB_P*%
X137100000Y-68530000D03*
%TO.P,R207,2*%
%TO.N,/mcu/USBD_P*%
X137100000Y-69550000D03*
%TD*%
D32*
%TO.P,C201,1*%
%TO.N,+3V3*%
X128921178Y-75996178D03*
%TO.P,C201,2*%
%TO.N,GND*%
X129600000Y-76675000D03*
%TD*%
D48*
%TO.P,C207,1*%
%TO.N,/mcu/DFU*%
X128760589Y-78885589D03*
%TO.P,C207,2*%
%TO.N,GND*%
X128081767Y-79564411D03*
%TD*%
D40*
%TO.P,C208,1*%
%TO.N,/mcu/RESET*%
X119610624Y-79360624D03*
%TO.P,C208,2*%
%TO.N,GND*%
X118931802Y-78681802D03*
%TD*%
D52*
%TO.P,U201,1,VBAT*%
%TO.N,unconnected-(U201-VBAT-Pad1)*%
X120105366Y-74384225D03*
%TO.P,U201,2,PC13*%
%TO.N,/display/TFT_BL*%
X120458919Y-74737778D03*
%TO.P,U201,3,PC14*%
%TO.N,/display/TFT_DC*%
X120812473Y-75091332D03*
%TO.P,U201,4,PC15*%
%TO.N,/display/TFT_RESET*%
X121166026Y-75444885D03*
%TO.P,U201,5,PF0*%
%TO.N,/mcu/XOUT*%
X121519579Y-75798438D03*
%TO.P,U201,6,PF1*%
%TO.N,/mcu/XIN*%
X121873133Y-76151992D03*
%TO.P,U201,7,PG10*%
%TO.N,/mcu/RESET*%
X122226686Y-76505545D03*
%TO.P,U201,8,PA0*%
%TO.N,unconnected-(U201-PA0-Pad8)*%
X122580240Y-76859099D03*
%TO.P,U201,9,PA1*%
%TO.N,unconnected-(U201-PA1-Pad9)*%
X122933793Y-77212652D03*
%TO.P,U201,10,PA2*%
%TO.N,/UART_RX*%
X123287346Y-77566205D03*
%TO.P,U201,11,PA3*%
%TO.N,/UART_TX*%
X123640900Y-77919759D03*
%TO.P,U201,12,PA4*%
%TO.N,/encoder/~{ENC_CS}*%
X123994453Y-78273312D03*
D53*
%TO.P,U201,13,PA5*%
%TO.N,/encoder/ENC_SCK*%
X124966725Y-78273312D03*
%TO.P,U201,14,PA6*%
%TO.N,/encoder/ENC_CIPO*%
X125320278Y-77919759D03*
%TO.P,U201,15,PA7*%
%TO.N,Net-(U201-PA7)*%
X125673832Y-77566205D03*
%TO.P,U201,16,PC4*%
%TO.N,/mcu/DFU*%
X126027385Y-77212652D03*
%TO.P,U201,17,PB0*%
%TO.N,unconnected-(U201-PB0-Pad17)*%
X126380938Y-76859099D03*
%TO.P,U201,18,PB1*%
%TO.N,unconnected-(U201-PB1-Pad18)*%
X126734492Y-76505545D03*
%TO.P,U201,19,PB2*%
%TO.N,unconnected-(U201-PB2-Pad19)*%
X127088045Y-76151992D03*
%TO.P,U201,20,VREF+*%
%TO.N,+3V3*%
X127441599Y-75798438D03*
%TO.P,U201,21,VDDA*%
X127795152Y-75444885D03*
%TO.P,U201,22,PB10*%
%TO.N,unconnected-(U201-PB10-Pad22)*%
X128148705Y-75091332D03*
%TO.P,U201,23,VDD*%
%TO.N,+3V3*%
X128502259Y-74737778D03*
%TO.P,U201,24,PB11*%
%TO.N,/mcu/~{SPI3_CSn}*%
X128855812Y-74384225D03*
D52*
%TO.P,U201,25,PB12*%
%TO.N,/mcu/~{MOT_SHDN}*%
X128855812Y-73411953D03*
%TO.P,U201,26,PB13*%
%TO.N,/mcu/TIM1_CH1N*%
X128502259Y-73058400D03*
%TO.P,U201,27,PB14*%
%TO.N,/mcu/TIM1_CH2N*%
X128148705Y-72704846D03*
%TO.P,U201,28,PB15*%
%TO.N,/mcu/TIM1_CH3N*%
X127795152Y-72351293D03*
%TO.P,U201,29,PC6*%
%TO.N,unconnected-(U201-PC6-Pad29)*%
X127441599Y-71997740D03*
%TO.P,U201,30,PA8*%
%TO.N,/mcu/TIM1_CH1*%
X127088045Y-71644186D03*
%TO.P,U201,31,PA9*%
%TO.N,/mcu/TIM1_CH2*%
X126734492Y-71290633D03*
%TO.P,U201,32,PA10*%
%TO.N,/mcu/TIM1_CH3*%
X126380938Y-70937079D03*
%TO.P,U201,33,PA11*%
%TO.N,/mcu/USBD_M*%
X126027385Y-70583526D03*
%TO.P,U201,34,PA12*%
%TO.N,/mcu/USBD_P*%
X125673832Y-70229973D03*
%TO.P,U201,35,VDD*%
%TO.N,+3V3*%
X125320278Y-69876419D03*
%TO.P,U201,36,PA13*%
%TO.N,/mcu/SDIO*%
X124966725Y-69522866D03*
D53*
%TO.P,U201,37,PA14*%
%TO.N,/mcu/SWCLK*%
X123994453Y-69522866D03*
%TO.P,U201,38,PA15*%
%TO.N,/I2C_SCL*%
X123640900Y-69876419D03*
%TO.P,U201,39,PC10*%
%TO.N,/display/TFT_SCK*%
X123287346Y-70229973D03*
%TO.P,U201,40,PC11*%
%TO.N,/mcu/SPI3_CIPO*%
X122933793Y-70583526D03*
%TO.P,U201,41,PB3*%
%TO.N,/display/~{TFT_CS}*%
X122580240Y-70937079D03*
%TO.P,U201,42,PB4*%
%TO.N,unconnected-(U201-PB4-Pad42)*%
X122226686Y-71290633D03*
%TO.P,U201,43,PB5*%
%TO.N,/display/TFT_COPI*%
X121873133Y-71644186D03*
%TO.P,U201,44,PB6*%
%TO.N,unconnected-(U201-PB6-Pad44)*%
X121519579Y-71997740D03*
%TO.P,U201,45,PB7*%
%TO.N,/I2C_SDA*%
X121166026Y-72351293D03*
%TO.P,U201,46,PB8*%
%TO.N,/mcu/FDCAN1_RX*%
X120812473Y-72704846D03*
%TO.P,U201,47,PB9*%
%TO.N,/mcu/FDCAN1_TX*%
X120458919Y-73058400D03*
%TO.P,U201,48,VDD*%
%TO.N,+3V3*%
X120105366Y-73411953D03*
D54*
%TO.P,U201,49,VSS*%
%TO.N,GND*%
X124480589Y-73898089D03*
%TD*%
D10*
%TO.P,C304,1*%
%TO.N,Vmot*%
X131950000Y-84105000D03*
%TO.P,C304,2*%
%TO.N,GND*%
X131950000Y-83145000D03*
%TD*%
D25*
%TO.P,R101,1*%
%TO.N,Net-(J106-Pin_2)*%
X120414376Y-67264376D03*
%TO.P,R101,2*%
%TO.N,/CAN_H*%
X121135624Y-67985624D03*
%TD*%
D55*
%TO.P,SW201,1,1*%
%TO.N,/mcu/DFU*%
X125700000Y-82150000D03*
X131700000Y-82150000D03*
%TO.P,SW201,2,2*%
%TO.N,+3V3*%
X125700000Y-85900000D03*
X131700000Y-85900000D03*
%TD*%
D14*
%TO.P,R302,1*%
%TO.N,+3V3*%
X138155000Y-77050000D03*
%TO.P,R302,2*%
%TO.N,/motor driver/EN{slash}FAULT*%
X139175000Y-77050000D03*
%TD*%
D56*
%TO.P,TP701,1,1*%
%TO.N,+5V*%
X141875000Y-62800000D03*
%TD*%
%TO.P,TP702,1,1*%
%TO.N,+3V3*%
X130675000Y-64575000D03*
%TD*%
D26*
%TO.P,C301,1*%
%TO.N,/mcu/~{MOT_SHDN}*%
X134345000Y-75925000D03*
%TO.P,C301,2*%
%TO.N,GND*%
X135305000Y-75925000D03*
%TD*%
D17*
%TO.P,R205,1*%
%TO.N,GND*%
X139125000Y-74985000D03*
%TO.P,R205,2*%
%TO.N,/mcu/UCPD1_CC1*%
X139125000Y-73965000D03*
%TD*%
D57*
%TO.P,U401,1,NC*%
%TO.N,unconnected-(U401-NC-Pad1)*%
X126698026Y-67778814D03*
%TO.P,U401,2,NC*%
%TO.N,unconnected-(U401-NC-Pad2)*%
X127051580Y-68132367D03*
%TO.P,U401,3,NC*%
%TO.N,unconnected-(U401-NC-Pad3)*%
X127405133Y-68485920D03*
%TO.P,U401,4,NC*%
%TO.N,unconnected-(U401-NC-Pad4)*%
X127758686Y-68839474D03*
D58*
%TO.P,U401,5,PUSH*%
%TO.N,unconnected-(U401-PUSH-Pad5)*%
X128766314Y-68839474D03*
%TO.P,U401,6,A/SDA/DO*%
%TO.N,/encoder/ENC_CIPO*%
X129119867Y-68485920D03*
%TO.P,U401,7,B/SCL/CLK*%
%TO.N,/encoder/ENC_SCK*%
X129473420Y-68132367D03*
%TO.P,U401,8,Z/~{CSN}*%
%TO.N,/encoder/~{ENC_CS}*%
X129826974Y-67778814D03*
D57*
%TO.P,U401,9,W/-Z*%
%TO.N,unconnected-(U401-W{slash}-Z-Pad9)*%
X129826974Y-66771186D03*
%TO.P,U401,10,NC*%
%TO.N,unconnected-(U401-NC-Pad10)*%
X129473420Y-66417633D03*
%TO.P,U401,11,U/-A*%
%TO.N,unconnected-(U401-U{slash}-A-Pad11)*%
X129119867Y-66064080D03*
%TO.P,U401,12,V/-B*%
%TO.N,unconnected-(U401-V{slash}-B-Pad12)*%
X128766314Y-65710526D03*
D58*
%TO.P,U401,13,VDD*%
%TO.N,+3V3*%
X127758686Y-65710526D03*
%TO.P,U401,14,MODE*%
X127405133Y-66064080D03*
%TO.P,U401,15,OUT*%
%TO.N,unconnected-(U401-OUT-Pad15)*%
X127051580Y-66417633D03*
%TO.P,U401,16,GND*%
%TO.N,GND*%
X126698026Y-66771186D03*
D59*
%TO.P,U401,17,PAD*%
%TO.N,unconnected-(U401-PAD-Pad17)*%
X128262500Y-67275000D03*
%TD*%
D15*
%TO.P,C601,1*%
%TO.N,/mcu/USB_M*%
X138100000Y-73970000D03*
%TO.P,C601,2*%
%TO.N,GND*%
X138100000Y-74930000D03*
%TD*%
D60*
%TO.P,SW202,1,1*%
%TO.N,/mcu/RESET*%
X113495495Y-75647146D03*
X109252854Y-71404505D03*
%TO.P,SW202,2,2*%
%TO.N,GND*%
X116147146Y-72995495D03*
X111904505Y-68752854D03*
%TD*%
D61*
%TO.P,J101,1,Pin_1*%
%TO.N,/I2C_SCL*%
X116985000Y-49135000D03*
D62*
%TO.P,J101,2,Pin_2*%
%TO.N,/I2C_SDA*%
X119525000Y-49135000D03*
%TO.P,J101,3,Pin_3*%
%TO.N,Vmot*%
X116985000Y-51675000D03*
%TO.P,J101,4,Pin_4*%
%TO.N,GND*%
X119525000Y-51675000D03*
%TD*%
D61*
%TO.P,J102,1,Pin_1*%
%TO.N,/UART_TX*%
X116985000Y-55425000D03*
D62*
%TO.P,J102,2,Pin_2*%
%TO.N,/UART_RX*%
X119525000Y-55425000D03*
%TO.P,J102,3,Pin_3*%
%TO.N,Vmot*%
X116985000Y-57965000D03*
%TO.P,J102,4,Pin_4*%
%TO.N,GND*%
X119525000Y-57965000D03*
%TD*%
D17*
%TO.P,R502,1*%
%TO.N,+3V3*%
X126025000Y-57510000D03*
%TO.P,R502,2*%
%TO.N,/display/BL_A*%
X126025000Y-56490000D03*
%TD*%
D32*
%TO.P,C206,1*%
%TO.N,/mcu/XIN*%
X118231802Y-79381802D03*
%TO.P,C206,2*%
%TO.N,GND*%
X118910624Y-80060624D03*
%TD*%
D51*
%TO.P,J103,6,Pin_6*%
%TO.N,/CAN_H*%
X145816800Y-64002800D03*
%TO.P,J103,7,Pin_7*%
%TO.N,/CAN_L*%
X145816800Y-62002800D03*
%TO.P,J103,8,Pin_8*%
%TO.N,Vmot*%
X145816800Y-60002800D03*
%TO.P,J103,9,Pin_9*%
X145816800Y-58002800D03*
%TO.P,J103,10,Pin_10*%
%TO.N,GND*%
X145816800Y-56002800D03*
%TD*%
D63*
%TO.P,U501,1,GND*%
%TO.N,GND*%
X124125000Y-54537500D03*
%TO.P,U501,2,LEDK*%
%TO.N,/display/BL_K*%
X124825000Y-54537500D03*
%TO.P,U501,3,LEDA*%
%TO.N,/display/BL_A*%
X125525000Y-54537500D03*
%TO.P,U501,4,VDD*%
%TO.N,+3V3*%
X126225000Y-54537500D03*
%TO.P,U501,5,GND*%
%TO.N,GND*%
X126925000Y-54537500D03*
%TO.P,U501,6,GND*%
X127625000Y-54537500D03*
%TO.P,U501,7,DC*%
%TO.N,/display/TFT_DC*%
X128325000Y-54537500D03*
%TO.P,U501,8,nCS*%
%TO.N,/display/~{TFT_CS}*%
X129025000Y-54537500D03*
%TO.P,U501,9,SCK*%
%TO.N,/display/TFT_SCK*%
X129725000Y-54537500D03*
%TO.P,U501,10,MOSI*%
%TO.N,/display/TFT_COPI*%
X130425000Y-54537500D03*
%TO.P,U501,11,nRESET*%
%TO.N,/display/TFT_RESET*%
X131125000Y-54537500D03*
%TO.P,U501,12,GND*%
%TO.N,GND*%
X131825000Y-54537500D03*
%TD*%
D64*
%TO.N,+3V3*%
X134750000Y-65775000D03*
X133200000Y-65775000D03*
X130112569Y-74793509D03*
X119138314Y-72762394D03*
X130650000Y-65725000D03*
X132175000Y-65750000D03*
X135054575Y-71783425D03*
X125700000Y-84950000D03*
X119600000Y-63425000D03*
X126200000Y-52975000D03*
X122054039Y-77769620D03*
X125850000Y-68650000D03*
X140195511Y-76025138D03*
X120693201Y-69677750D03*
%TO.N,GND*%
X130725000Y-52450000D03*
X136050000Y-67825000D03*
X145350000Y-55975000D03*
X110200000Y-66450000D03*
X146300000Y-56000000D03*
X132325000Y-56625000D03*
X112225000Y-56000000D03*
X132325000Y-57925000D03*
X132325000Y-59125000D03*
X147300000Y-65750000D03*
X139350000Y-86100000D03*
X110250000Y-56000000D03*
X128800000Y-52475000D03*
X128700000Y-85875000D03*
X135800000Y-61275500D03*
X147625000Y-54350000D03*
X109675000Y-74125000D03*
X109675000Y-75975000D03*
X109100000Y-80925000D03*
X114650000Y-86525000D03*
X147275000Y-56000000D03*
X147650000Y-69775000D03*
X111250000Y-55975000D03*
X113812299Y-72162299D03*
X145800000Y-54450000D03*
X124450000Y-73950000D03*
X112325000Y-66475000D03*
X125939193Y-80294416D03*
X146000000Y-80050000D03*
X118288178Y-72236777D03*
X142200000Y-47925000D03*
X128700000Y-82325000D03*
X109250000Y-56000000D03*
X123846221Y-59400129D03*
X126475000Y-73900000D03*
X137687000Y-71750000D03*
X144350000Y-55975000D03*
X131225000Y-83150000D03*
X135819322Y-75914749D03*
X129702122Y-79156515D03*
X146000000Y-78100000D03*
X110550000Y-69900000D03*
X142350000Y-86600000D03*
X121600500Y-68925000D03*
X127675000Y-63925000D03*
X122500000Y-73925000D03*
X142150000Y-53425000D03*
X117400000Y-80125000D03*
X147650000Y-71625000D03*
X114275000Y-47950000D03*
X124500000Y-71975000D03*
X124475000Y-75950000D03*
X108975000Y-54150000D03*
X147675000Y-73600000D03*
X113700000Y-73625000D03*
X133925000Y-79600000D03*
X111750000Y-80100000D03*
%TO.N,/mcu/RESET*%
X120250000Y-80250000D03*
%TO.N,/mcu/~{MOT_SHDN}*%
X135114000Y-74650000D03*
X130484010Y-73865588D03*
%TO.N,Vmot*%
X138300000Y-55650000D03*
X145350000Y-60025000D03*
X138300000Y-53175000D03*
X139357513Y-83457513D03*
X147300000Y-60000000D03*
X109275000Y-60000000D03*
X147300000Y-58000000D03*
X142250000Y-56875000D03*
X146300000Y-58000000D03*
X111250000Y-58000000D03*
X112250000Y-60000000D03*
X109275000Y-57975000D03*
X145350000Y-58000000D03*
X144325000Y-60000000D03*
X111250000Y-60000000D03*
X142250000Y-57825000D03*
X134875000Y-82950000D03*
X110275000Y-58000000D03*
X146300000Y-60025000D03*
X138300000Y-58050000D03*
X112250000Y-58000000D03*
X110275000Y-60000000D03*
X144350000Y-57975000D03*
%TO.N,+5V*%
X135050535Y-70275381D03*
X135625000Y-66750000D03*
%TO.N,/I2C_SCL*%
X122451000Y-63325000D03*
%TO.N,/I2C_SDA*%
X120464674Y-71260326D03*
%TO.N,/UART_TX*%
X122961089Y-79365735D03*
X114200000Y-70275000D03*
%TO.N,/UART_RX*%
X122014225Y-79045650D03*
X115175000Y-69200000D03*
%TO.N,/CAN_H*%
X115675000Y-62400000D03*
X109300000Y-64000000D03*
X129000500Y-60916764D03*
X147300000Y-64000000D03*
%TO.N,/CAN_L*%
X129000500Y-59850000D03*
X147325000Y-62000000D03*
X109275000Y-62000000D03*
%TO.N,/display/TFT_COPI*%
X124650000Y-63300000D03*
X119842851Y-70404319D03*
%TO.N,/motor driver/MOT_U*%
X140700000Y-83650000D03*
%TO.N,/motor driver/MOT_V*%
X140600000Y-78225000D03*
%TO.N,/motor driver/MOT_W*%
X138412015Y-79388386D03*
%TO.N,/mcu/SDIO*%
X125348302Y-65155479D03*
%TO.N,/mcu/SWCLK*%
X124580381Y-66055613D03*
%TO.N,/display/TFT_BL*%
X119159225Y-74424217D03*
X120864410Y-60864410D03*
%TO.N,/encoder/~{ENC_CS}*%
X123450906Y-80253546D03*
X131375000Y-67300000D03*
%TO.N,/display/~{TFT_CS}*%
X129000500Y-57650000D03*
X121855327Y-70212166D03*
%TO.N,/display/TFT_DC*%
X116282131Y-71820445D03*
X128225000Y-56425000D03*
%TO.N,/display/TFT_RESET*%
X125837701Y-63300500D03*
X116964504Y-74144476D03*
%TO.N,/encoder/ENC_SCK*%
X124450000Y-80225000D03*
X132650000Y-67325000D03*
%TO.N,/encoder/ENC_CIPO*%
X133880698Y-67355698D03*
X125260589Y-79560589D03*
%TO.N,/mcu/TIM1_CH3N*%
X132724500Y-76188045D03*
X135389500Y-78399500D03*
%TO.N,/mcu/TIM1_CH1*%
X132427500Y-78025000D03*
X132922955Y-74675000D03*
%TO.N,/mcu/TIM1_CH3*%
X136925000Y-79100500D03*
X134389500Y-73725000D03*
%TD*%
D65*
%TO.N,+3V3*%
X127405133Y-66064079D02*
X127758686Y-65710526D01*
X128700000Y-75775000D02*
X128921178Y-75996178D01*
X126200000Y-52975000D02*
X126225000Y-53000000D01*
X127699462Y-57845538D02*
X127050000Y-58495000D01*
X128530184Y-75788191D02*
X128543375Y-75775000D01*
X128921178Y-75996178D02*
X128925000Y-75996178D01*
X127758686Y-65710526D02*
X128894212Y-64575000D01*
X121150000Y-65025305D02*
X121150000Y-66550000D01*
X125850000Y-69346697D02*
X125850000Y-68650000D01*
X120350000Y-64225305D02*
X121150000Y-65025305D01*
X120693201Y-69677750D02*
X120691632Y-69679319D01*
X119455570Y-72762157D02*
X120105366Y-73411953D01*
X118514411Y-73314411D02*
X118514411Y-73389411D01*
X133200000Y-65010000D02*
X133200000Y-65775000D01*
X119066902Y-72762394D02*
X119066665Y-72762157D01*
X139175138Y-76025138D02*
X139175000Y-76025000D01*
X127057609Y-56520000D02*
X127699462Y-57161853D01*
X127758686Y-65710526D02*
X127758686Y-65708686D01*
X126975000Y-64925000D02*
X126850000Y-64925000D01*
X133540000Y-64670000D02*
X133200000Y-65010000D01*
X119600000Y-63425000D02*
X120350000Y-64175000D01*
X133170000Y-64980000D02*
X133200000Y-65010000D01*
X127843161Y-76200000D02*
X128717356Y-76200000D01*
X135025000Y-72629251D02*
X135765749Y-73370000D01*
X119066665Y-72762157D02*
X118514411Y-73314411D01*
X132175000Y-64980000D02*
X133170000Y-64980000D01*
X134742500Y-64670000D02*
X134742500Y-65767500D01*
X128925000Y-75996178D02*
X129635589Y-75285589D01*
X119066665Y-72762157D02*
X119455570Y-72762157D01*
X130675000Y-65700000D02*
X130650000Y-65725000D01*
X127015000Y-56520000D02*
X127050000Y-56520000D01*
X127060000Y-56520000D02*
X127050000Y-56520000D01*
X130675000Y-64575000D02*
X130675000Y-65700000D01*
X127795152Y-75444885D02*
X128138458Y-75788191D01*
X122054039Y-77769620D02*
X122030380Y-77769620D01*
X126025000Y-57510000D02*
X127015000Y-56520000D01*
X128138458Y-75788191D02*
X128530184Y-75788191D01*
X127050000Y-58495000D02*
X127060000Y-58495000D01*
X135054575Y-71783425D02*
X135025000Y-71813000D01*
X140195511Y-76025138D02*
X139175138Y-76025138D01*
X127050000Y-56520000D02*
X127057609Y-56520000D01*
X128894212Y-64575000D02*
X130675000Y-64575000D01*
X128543375Y-75775000D02*
X128700000Y-75775000D01*
X138155000Y-77050000D02*
X138155000Y-77045000D01*
X138105000Y-77000000D02*
X138155000Y-77050000D01*
X131770000Y-64575000D02*
X132175000Y-64980000D01*
X130112569Y-74793509D02*
X130071178Y-74834900D01*
X136495000Y-73370000D02*
X137100000Y-73975000D01*
X129050070Y-75285589D02*
X129635589Y-75285589D01*
X127441599Y-75798438D02*
X127843161Y-76200000D01*
X134742500Y-64670000D02*
X133540000Y-64670000D01*
X128502259Y-74737778D02*
X129050070Y-75285589D01*
X125320278Y-69876419D02*
X125850000Y-69346697D01*
X128717356Y-76200000D02*
X128921178Y-75996178D01*
X130675000Y-64575000D02*
X131770000Y-64575000D01*
X119138314Y-72762394D02*
X119066902Y-72762394D01*
X134742500Y-65767500D02*
X134750000Y-65775000D01*
X130071178Y-74850000D02*
X129635589Y-75285589D01*
X120350000Y-64175000D02*
X120350000Y-64225305D01*
X121118163Y-78681837D02*
X120356837Y-78681837D01*
X132175000Y-64980000D02*
X132175000Y-65750000D01*
X126225000Y-54537500D02*
X126225000Y-55695000D01*
X122030380Y-77769620D02*
X121118163Y-78681837D01*
X126225000Y-55695000D02*
X127050000Y-56520000D01*
X135410000Y-77000000D02*
X138105000Y-77000000D01*
X120691632Y-69679319D02*
X119125371Y-69679319D01*
X130071178Y-74834900D02*
X130071178Y-74850000D01*
X127699462Y-57161853D02*
X127699462Y-57845538D01*
X135765749Y-73370000D02*
X136495000Y-73370000D01*
X120356837Y-78681837D02*
X121014376Y-79339376D01*
X127758686Y-65708686D02*
X126975000Y-64925000D01*
X127060000Y-58495000D02*
X128075000Y-59510000D01*
X126225000Y-53000000D02*
X126225000Y-54537500D01*
X135025000Y-71813000D02*
X135025000Y-72629251D01*
X127405133Y-66064080D02*
X127405133Y-66064079D01*
X125700000Y-84950000D02*
X125700000Y-85900000D01*
X119125371Y-69679319D02*
X118723026Y-69276974D01*
X135335000Y-76925000D02*
X135410000Y-77000000D01*
X138155000Y-77045000D02*
X139175000Y-76025000D01*
%TO.N,GND*%
X130650000Y-62750000D02*
X129475000Y-63925000D01*
X118926421Y-78687183D02*
X118926421Y-80044827D01*
X116375000Y-79675000D02*
X116950000Y-79675000D01*
X126403814Y-66771186D02*
X126698026Y-66771186D01*
X133165000Y-80337500D02*
X133915000Y-79587500D01*
X116950000Y-79675000D02*
X117400000Y-80125000D01*
X134665000Y-80337500D02*
X133927500Y-79600000D01*
X118288178Y-72236777D02*
X117835589Y-72689366D01*
X130310589Y-75964411D02*
X129600000Y-76675000D01*
D66*
X137175000Y-81850000D02*
X138000000Y-81850000D01*
D65*
X118910624Y-80060624D02*
X118846248Y-80125000D01*
X126025000Y-58480000D02*
X126050000Y-58480000D01*
X124700000Y-58937500D02*
X124308850Y-58937500D01*
X126025000Y-58480000D02*
X127000000Y-59455000D01*
X124125000Y-54537500D02*
X124125000Y-52725000D01*
X117558597Y-69908597D02*
X117825000Y-70175000D01*
X140930000Y-68450000D02*
X140930000Y-68295000D01*
X124308850Y-58937500D02*
X123846221Y-59400129D01*
X126951974Y-63925000D02*
X127675000Y-63925000D01*
X131230000Y-83145000D02*
X131225000Y-83150000D01*
X126137888Y-80493111D02*
X127153067Y-80493111D01*
X141295000Y-76020000D02*
X141845000Y-76020000D01*
X125171178Y-67971178D02*
X125203822Y-67971178D01*
X113812299Y-72162299D02*
X116066001Y-69908597D01*
X130160589Y-78698048D02*
X130160589Y-77510589D01*
X124700000Y-59145538D02*
X125649462Y-60095000D01*
X139125000Y-74985000D02*
X140895000Y-74985000D01*
X132175000Y-64020000D02*
X132175000Y-63512500D01*
X132427500Y-80337500D02*
X133165000Y-80337500D01*
X126171178Y-65603822D02*
X126165797Y-65598441D01*
X116989178Y-79060822D02*
X116989178Y-78268340D01*
D66*
X136325000Y-82950000D02*
X136325000Y-82700000D01*
D65*
X116066001Y-69908597D02*
X117558597Y-69908597D01*
D66*
X136110000Y-67885000D02*
X136050000Y-67825000D01*
X138125000Y-68545000D02*
X138125000Y-68513751D01*
D65*
X121600500Y-68925000D02*
X121828822Y-68696678D01*
X132325000Y-56625000D02*
X131825000Y-56125000D01*
X124700000Y-58937500D02*
X124700000Y-59145538D01*
X128417436Y-77303742D02*
X128971258Y-77303742D01*
X135402500Y-80337500D02*
X134665000Y-80337500D01*
X133925000Y-79600000D02*
X133925000Y-79597500D01*
X140930000Y-74950000D02*
X140930000Y-75105000D01*
X126410000Y-60095000D02*
X127050000Y-59455000D01*
X129600000Y-76675000D02*
X129600000Y-76950000D01*
X131412500Y-62750000D02*
X130650000Y-62750000D01*
X135809071Y-75925000D02*
X135819322Y-75914749D01*
X126698026Y-66771186D02*
X126171178Y-66244338D01*
X137692000Y-71745000D02*
X137687000Y-71750000D01*
X127153067Y-80493111D02*
X128081767Y-79564411D01*
D66*
X138125000Y-68513751D02*
X137496249Y-67885000D01*
D65*
X138700000Y-71745000D02*
X137692000Y-71745000D01*
X140895000Y-74985000D02*
X140930000Y-74950000D01*
X129702122Y-79156515D02*
X130160589Y-78698048D01*
X139150000Y-63562500D02*
X139962500Y-62750000D01*
X118846248Y-80125000D02*
X117400000Y-80125000D01*
X129475000Y-63925000D02*
X127675000Y-63925000D01*
X127625000Y-54537500D02*
X127625000Y-52850000D01*
X139265000Y-78050000D02*
X141295000Y-76020000D01*
X138100000Y-74930000D02*
X139070000Y-74930000D01*
X131950000Y-83145000D02*
X131230000Y-83145000D01*
X131825000Y-56125000D02*
X131825000Y-54537500D01*
X129600000Y-76950000D02*
X130160589Y-77510589D01*
D66*
X136325000Y-82700000D02*
X137175000Y-81850000D01*
D65*
X140930000Y-68295000D02*
X141845000Y-67380000D01*
X132175000Y-63512500D02*
X131412500Y-62750000D01*
X112325000Y-66475000D02*
X112328949Y-66475000D01*
X127625000Y-52850000D02*
X127650000Y-52825000D01*
X125939193Y-80294416D02*
X126137888Y-80493111D01*
D66*
X134742500Y-62770000D02*
X134742500Y-62333000D01*
D65*
X139070000Y-74930000D02*
X139125000Y-74985000D01*
X127000000Y-59455000D02*
X127050000Y-59455000D01*
X134665000Y-81075000D02*
X134665000Y-80337500D01*
X112328949Y-66475000D02*
X113426796Y-67572847D01*
X126050000Y-58480000D02*
X127050000Y-57480000D01*
X133665000Y-81075000D02*
X133665000Y-79837500D01*
X125203822Y-67971178D02*
X126403814Y-66771186D01*
X125649462Y-60095000D02*
X126410000Y-60095000D01*
X117835589Y-72689366D02*
X117835589Y-72710589D01*
X139120000Y-78050000D02*
X139265000Y-78050000D01*
X126925000Y-54537500D02*
X127625000Y-54537500D01*
X133925000Y-79597500D02*
X133915000Y-79587500D01*
X130314411Y-75964411D02*
X130310589Y-75964411D01*
X126165797Y-64711177D02*
X126951974Y-63925000D01*
X121828822Y-68696678D02*
X121828822Y-67228822D01*
X126165797Y-65598441D02*
X126165797Y-64711177D01*
X116375000Y-79675000D02*
X116989178Y-79060822D01*
X140930000Y-75105000D02*
X141845000Y-76020000D01*
X139150000Y-64020000D02*
X139150000Y-63562500D01*
D66*
X137496249Y-67885000D02*
X136110000Y-67885000D01*
D65*
X131825000Y-54537500D02*
X131825000Y-52775000D01*
X126171178Y-66244338D02*
X126171178Y-65603822D01*
X133927500Y-79600000D02*
X133925000Y-79600000D01*
D66*
X134742500Y-62333000D02*
X135800000Y-61275500D01*
D65*
X128971258Y-77303742D02*
X129600000Y-76675000D01*
X135305000Y-75925000D02*
X135809071Y-75925000D01*
X118926421Y-80044827D02*
X118910624Y-80060624D01*
X133665000Y-79837500D02*
X133915000Y-79587500D01*
X118931802Y-78681802D02*
X118926421Y-78687183D01*
%TO.N,/mcu/XOUT*%
X115495838Y-76775000D02*
X117032948Y-76775000D01*
X117032948Y-76775000D02*
X117985928Y-75822020D01*
X120701758Y-76616259D02*
X121519579Y-75798438D01*
X117985928Y-75822020D02*
X118255168Y-75822020D01*
X115433543Y-78733543D02*
X115696178Y-78996178D01*
X118255168Y-75822020D02*
X119049407Y-76616259D01*
X115433543Y-76712705D02*
X115495838Y-76775000D01*
X115433543Y-76712705D02*
X115433543Y-78733543D01*
X119049407Y-76616259D02*
X120701758Y-76616259D01*
%TO.N,/mcu/XIN*%
X120958866Y-77066259D02*
X121873133Y-76151992D01*
X118231802Y-79381802D02*
X118233417Y-79380187D01*
X118233417Y-79380187D02*
X118233417Y-77108417D01*
X118233417Y-77108417D02*
X118191259Y-77066259D01*
X118191259Y-77066259D02*
X120958866Y-77066259D01*
%TO.N,/mcu/DFU*%
X128765970Y-78890970D02*
X128765970Y-79834030D01*
X126370691Y-77555958D02*
X126765220Y-77555958D01*
X126450000Y-82150000D02*
X125700000Y-82150000D01*
X128760589Y-78725232D02*
X128760589Y-78885589D01*
X126765220Y-77555958D02*
X126785589Y-77535589D01*
X127570946Y-77535589D02*
X128760589Y-78725232D01*
X126785589Y-77535589D02*
X127570946Y-77535589D01*
X128765970Y-79834030D02*
X126450000Y-82150000D01*
X128760589Y-78885589D02*
X128785589Y-78885589D01*
X126027385Y-77212652D02*
X126370691Y-77555958D01*
X128785589Y-78885589D02*
X129439341Y-78231837D01*
X128760589Y-78885589D02*
X128765970Y-78890970D01*
%TO.N,/mcu/RESET*%
X120736668Y-77995563D02*
X119670563Y-77995563D01*
X120250000Y-80250000D02*
X119425000Y-81075000D01*
X119670563Y-77995563D02*
X119635589Y-77960589D01*
X122226686Y-76505545D02*
X120736668Y-77995563D01*
X119425000Y-81075000D02*
X115711396Y-81075000D01*
X120250000Y-80000000D02*
X119610624Y-79360624D01*
X119635589Y-77960589D02*
X119635589Y-79335659D01*
X115711396Y-81075000D02*
X113495495Y-78859099D01*
X119635589Y-79335659D02*
X119610624Y-79360624D01*
X120250000Y-80250000D02*
X120250000Y-80000000D01*
X113495495Y-78859099D02*
X113495495Y-75647146D01*
%TO.N,/mcu/~{MOT_SHDN}*%
X134165000Y-77075000D02*
X134315000Y-76925000D01*
X134165000Y-78100000D02*
X134165000Y-77075000D01*
X134345000Y-75925000D02*
X134345000Y-74855000D01*
X134345000Y-74855000D02*
X134550000Y-74650000D01*
X129783516Y-73165094D02*
X129102671Y-73165094D01*
X130484010Y-73865588D02*
X129783516Y-73165094D01*
X129102671Y-73165094D02*
X128855812Y-73411953D01*
X134550000Y-74650000D02*
X135114000Y-74650000D01*
X134315000Y-76925000D02*
X134315000Y-75955000D01*
X134315000Y-75955000D02*
X134345000Y-75925000D01*
%TO.N,/motor driver/EN{slash}FAULT*%
X136777500Y-77675000D02*
X136890000Y-77787500D01*
X136977500Y-77700000D02*
X137810000Y-77700000D01*
X134775000Y-77675000D02*
X136777500Y-77675000D01*
X138160000Y-78050000D02*
X138160000Y-78042391D01*
X134665000Y-77785000D02*
X134775000Y-77675000D01*
X134665000Y-78100000D02*
X134665000Y-77785000D01*
X138160000Y-78042391D02*
X139152391Y-77050000D01*
X139152391Y-77050000D02*
X139175000Y-77050000D01*
X137810000Y-77700000D02*
X138160000Y-78050000D01*
X136890000Y-77787500D02*
X136977500Y-77700000D01*
D67*
%TO.N,Vmot*%
X138550000Y-60600000D02*
X138550000Y-58950000D01*
D65*
X139450000Y-55950000D02*
X139450000Y-55625000D01*
X139450000Y-58050000D02*
X138300000Y-58050000D01*
D67*
X139625000Y-53175000D02*
X139625000Y-55450000D01*
X137975000Y-50900000D02*
X137974693Y-50900307D01*
D65*
X140380000Y-56880000D02*
X139450000Y-55950000D01*
D67*
X137974693Y-50899693D02*
X137975000Y-50900000D01*
D66*
X132220000Y-84105000D02*
X133375000Y-82950000D01*
D65*
X133375000Y-82950000D02*
X134875000Y-82950000D01*
X139675000Y-57825000D02*
X139450000Y-58050000D01*
X142245000Y-56880000D02*
X142250000Y-56875000D01*
X133165000Y-82740000D02*
X133375000Y-82950000D01*
X133165000Y-81075000D02*
X133165000Y-82740000D01*
D67*
X139625000Y-53175000D02*
X138300000Y-53175000D01*
D65*
X141250000Y-56880000D02*
X140380000Y-56880000D01*
D66*
X131950000Y-84105000D02*
X132220000Y-84105000D01*
D67*
X139450000Y-55625000D02*
X139450000Y-58050000D01*
X137974693Y-51524693D02*
X139625000Y-53175000D01*
X137974693Y-50900307D02*
X137974693Y-51524693D01*
X138550000Y-58950000D02*
X139450000Y-58050000D01*
D65*
X141250000Y-57825000D02*
X142250000Y-57825000D01*
X141250000Y-57825000D02*
X139675000Y-57825000D01*
D67*
X139625000Y-55450000D02*
X139450000Y-55625000D01*
D65*
X139450000Y-55625000D02*
X138325000Y-55625000D01*
X141250000Y-56880000D02*
X142245000Y-56880000D01*
X139300000Y-83400000D02*
X139357513Y-83457513D01*
X138325000Y-55625000D02*
X138300000Y-55650000D01*
D67*
X137974693Y-50137500D02*
X137974693Y-50899693D01*
D65*
X138000000Y-83400000D02*
X139300000Y-83400000D01*
%TO.N,/mcu/USB_P*%
X138700000Y-70080000D02*
X138125000Y-69505000D01*
X140930000Y-70950000D02*
X141955000Y-70950000D01*
X141955000Y-70950000D02*
X142225000Y-71220000D01*
X141950000Y-71950000D02*
X140930000Y-71950000D01*
X138855000Y-70950000D02*
X138700000Y-70795000D01*
X142225000Y-71220000D02*
X142225000Y-71675000D01*
X138700000Y-70795000D02*
X138700000Y-70080000D01*
X140930000Y-70950000D02*
X138855000Y-70950000D01*
X138125000Y-69505000D02*
X138075000Y-69505000D01*
X138075000Y-69505000D02*
X137100000Y-68530000D01*
X142225000Y-71675000D02*
X141950000Y-71950000D01*
%TO.N,/mcu/USB_M*%
X138100000Y-73970000D02*
X138092391Y-73970000D01*
X138700000Y-73370000D02*
X138100000Y-73970000D01*
X136085000Y-74995000D02*
X136075000Y-74985000D01*
X137100000Y-74995000D02*
X136085000Y-74995000D01*
X139955000Y-72450000D02*
X140930000Y-72450000D01*
X139687500Y-71667500D02*
X139687500Y-72182500D01*
X139905000Y-71450000D02*
X139687500Y-71667500D01*
X138700000Y-72695000D02*
X138700000Y-73370000D01*
X137100000Y-74962391D02*
X137100000Y-74995000D01*
X140930000Y-71450000D02*
X139905000Y-71450000D01*
X138700000Y-72695000D02*
X139175000Y-72695000D01*
X139175000Y-72695000D02*
X139687500Y-72182500D01*
X138092391Y-73970000D02*
X137100000Y-74962391D01*
X139687500Y-72182500D02*
X139955000Y-72450000D01*
%TO.N,+5V*%
X139595000Y-64980000D02*
X141775000Y-62800000D01*
X141775000Y-62800000D02*
X141875000Y-62800000D01*
X139150000Y-64980000D02*
X139595000Y-64980000D01*
D67*
X137300000Y-64950000D02*
X137300000Y-64402500D01*
D65*
X139150000Y-64980000D02*
X138180000Y-64980000D01*
D67*
X137300000Y-66750000D02*
X137300000Y-64950000D01*
D65*
X137360000Y-65010000D02*
X137300000Y-64950000D01*
X138150000Y-65010000D02*
X137360000Y-65010000D01*
X138180000Y-64980000D02*
X138150000Y-65010000D01*
X135050535Y-70754786D02*
X136040749Y-71745000D01*
D67*
X137250000Y-60600000D02*
X137250000Y-63087500D01*
D65*
X135050535Y-70275381D02*
X135050535Y-70754786D01*
D67*
X137300000Y-64402500D02*
X136617500Y-63720000D01*
X137250000Y-63087500D02*
X136617500Y-63720000D01*
D65*
X135625000Y-66750000D02*
X137300000Y-66750000D01*
X136040749Y-71745000D02*
X136425000Y-71745000D01*
%TO.N,Net-(D201-A)*%
X126906837Y-78814341D02*
X127303742Y-78417436D01*
X126906837Y-79806837D02*
X126906837Y-78814341D01*
%TO.N,Net-(D301-A)*%
X138155000Y-76025000D02*
X137077500Y-76025000D01*
X137077500Y-76025000D02*
X136890000Y-76212500D01*
%TO.N,Net-(D701-A)*%
X138150000Y-62987500D02*
X138387500Y-62750000D01*
X138150000Y-63990000D02*
X138150000Y-62987500D01*
%TO.N,Net-(D702-A)*%
X133200000Y-63990000D02*
X133200000Y-62962500D01*
X133200000Y-62962500D02*
X132987500Y-62750000D01*
%TO.N,/I2C_SCL*%
X122451000Y-63325000D02*
X122451000Y-66151000D01*
X123025000Y-69260519D02*
X123640900Y-69876419D01*
X122451000Y-66151000D02*
X123025000Y-66725000D01*
X123025000Y-66725000D02*
X123025000Y-69260519D01*
%TO.N,/I2C_SDA*%
X121166026Y-72351293D02*
X120464674Y-71649941D01*
X120464674Y-71649941D02*
X120464674Y-71260326D01*
%TO.N,/UART_TX*%
X124720000Y-83863273D02*
X124720000Y-84650000D01*
X114200000Y-70275000D02*
X114200000Y-70750000D01*
X123194744Y-78365915D02*
X123640900Y-77919759D01*
X122961089Y-79365735D02*
X123194744Y-79132080D01*
X112150000Y-72800000D02*
X112150000Y-78150000D01*
X114200000Y-70750000D02*
X112150000Y-72800000D01*
X123786727Y-82930000D02*
X124720000Y-83863273D01*
X116930000Y-82930000D02*
X123786727Y-82930000D01*
X123194744Y-79132080D02*
X123194744Y-78365915D01*
X112150000Y-78150000D02*
X116930000Y-82930000D01*
X124720000Y-84650000D02*
X123895000Y-85475000D01*
%TO.N,/UART_RX*%
X115175000Y-69200000D02*
X114026324Y-69200000D01*
X122014225Y-79045650D02*
X122014225Y-78839326D01*
X123070000Y-83380000D02*
X123895000Y-84205000D01*
X114026324Y-69200000D02*
X111600000Y-71626324D01*
X116743604Y-83380000D02*
X123070000Y-83380000D01*
X111600000Y-71626324D02*
X111600000Y-78236396D01*
X122014225Y-78839326D02*
X123287346Y-77566205D01*
X111600000Y-78236396D02*
X116743604Y-83380000D01*
%TO.N,/CAN_H*%
X120989815Y-62400000D02*
X115675000Y-62400000D01*
X117525000Y-65950000D02*
X118187833Y-65950000D01*
X116250000Y-67225000D02*
X117525000Y-65950000D01*
X112300000Y-64050000D02*
X113900000Y-65650000D01*
X113900000Y-66225000D02*
X114324822Y-66649822D01*
X113900000Y-65650000D02*
X113900000Y-66225000D01*
X122089815Y-61300000D02*
X120989815Y-62400000D01*
X110816800Y-64050000D02*
X112300000Y-64050000D01*
X114324822Y-66649822D02*
X114324822Y-66674822D01*
X128617264Y-61300000D02*
X122089815Y-61300000D01*
X114875000Y-67225000D02*
X116250000Y-67225000D01*
X120223457Y-67985624D02*
X121135624Y-67985624D01*
X114324822Y-66674822D02*
X114875000Y-67225000D01*
X118187833Y-65950000D02*
X120223457Y-67985624D01*
X129000500Y-60916764D02*
X128617264Y-61300000D01*
%TO.N,/CAN_L*%
X112400000Y-62000000D02*
X110825000Y-62000000D01*
X114775000Y-64416781D02*
X112408219Y-62050000D01*
X118122740Y-64715381D02*
X118965381Y-64715381D01*
X121903419Y-60850000D02*
X121153419Y-61600000D01*
X115222848Y-65776796D02*
X114775000Y-65328948D01*
X121153419Y-61600000D02*
X112800000Y-61600000D01*
X114775000Y-65328948D02*
X114775000Y-64416781D01*
X115222848Y-65776796D02*
X115721052Y-66275000D01*
X116563121Y-66275000D02*
X118122740Y-64715381D01*
X129000500Y-59850000D02*
X128000500Y-60850000D01*
X128000500Y-60850000D02*
X121903419Y-60850000D01*
X115721052Y-66275000D02*
X116563121Y-66275000D01*
X112408219Y-62050000D02*
X110816800Y-62050000D01*
X112800000Y-61600000D02*
X112400000Y-62000000D01*
%TO.N,/display/TFT_COPI*%
X124650000Y-63156554D02*
X125549195Y-62257359D01*
X124650000Y-63300000D02*
X124650000Y-63156554D01*
X125549195Y-62257359D02*
X129681245Y-62257359D01*
X120633266Y-70404319D02*
X121873133Y-71644186D01*
X130425000Y-61513604D02*
X130425000Y-54537500D01*
X119842851Y-70404319D02*
X120633266Y-70404319D01*
X129681245Y-62257359D02*
X130425000Y-61513604D01*
%TO.N,/display/TFT_SCK*%
X123287346Y-70229973D02*
X122575000Y-69517627D01*
X122218852Y-61807359D02*
X129494849Y-61807359D01*
X121725000Y-66226974D02*
X121725000Y-62301211D01*
X121725000Y-62301211D02*
X122218852Y-61807359D01*
X122575000Y-69517627D02*
X122575000Y-67076974D01*
X122575000Y-67076974D02*
X121725000Y-66226974D01*
X129725000Y-61577208D02*
X129725000Y-54537500D01*
X129494849Y-61807359D02*
X129725000Y-61577208D01*
%TO.N,Net-(J106-Pin_2)*%
X119884619Y-65634619D02*
X119884619Y-66734619D01*
X119884619Y-66734619D02*
X120414376Y-67264376D01*
%TO.N,/motor driver/MOT_U*%
X140650000Y-83650000D02*
X139575000Y-84725000D01*
X131991992Y-79837500D02*
X132427500Y-79837500D01*
X139575000Y-84725000D02*
X131425000Y-84725000D01*
X140700000Y-83650000D02*
X140650000Y-83650000D01*
X130500000Y-83800000D02*
X130500000Y-81329492D01*
X130500000Y-81329492D02*
X131991992Y-79837500D01*
X131425000Y-84725000D02*
X130500000Y-83800000D01*
%TO.N,/motor driver/MOT_V*%
X140600000Y-78225000D02*
X138125000Y-80700000D01*
X134429492Y-81875000D02*
X134165000Y-81610508D01*
X138125000Y-80700000D02*
X136775000Y-80700000D01*
X136775000Y-80700000D02*
X135600000Y-81875000D01*
X134165000Y-81610508D02*
X134165000Y-81075000D01*
X135600000Y-81875000D02*
X134429492Y-81875000D01*
%TO.N,/motor driver/MOT_W*%
X135415000Y-79825000D02*
X135402500Y-79837500D01*
X138412015Y-79388386D02*
X137975401Y-79825000D01*
X137975401Y-79825000D02*
X135415000Y-79825000D01*
%TO.N,/mcu/SDIO*%
X123925000Y-68481141D02*
X124966725Y-69522866D01*
X125348302Y-65155479D02*
X125348302Y-66351698D01*
X123925000Y-67775000D02*
X123925000Y-68481141D01*
X125348302Y-66351698D02*
X123925000Y-67775000D01*
%TO.N,/mcu/SWCLK*%
X124580381Y-66055613D02*
X123475000Y-67160994D01*
X123475000Y-69003413D02*
X123994453Y-69522866D01*
X123475000Y-67160994D02*
X123475000Y-69003413D01*
D66*
%TO.N,/usb/USB_5V*%
X144300000Y-70503984D02*
X143696016Y-69900000D01*
X140930000Y-74150000D02*
X141754340Y-74150000D01*
X140125000Y-69250000D02*
X140930000Y-69250000D01*
X143625000Y-73675000D02*
X144300000Y-73000000D01*
X139830000Y-68955000D02*
X140125000Y-69250000D01*
X139830000Y-67980000D02*
X139830000Y-68955000D01*
X141754340Y-74150000D02*
X142229340Y-73675000D01*
X138600000Y-66750000D02*
X139830000Y-67980000D01*
X142404340Y-69900000D02*
X141754340Y-69250000D01*
X144300000Y-73000000D02*
X144300000Y-70503984D01*
X143696016Y-69900000D02*
X142404340Y-69900000D01*
X141754340Y-69250000D02*
X140930000Y-69250000D01*
X142229340Y-73675000D02*
X143625000Y-73675000D01*
D65*
%TO.N,/mcu/UCPD1_CC1*%
X139125000Y-73730000D02*
X139125000Y-73965000D01*
X139905000Y-72950000D02*
X139125000Y-73730000D01*
X140930000Y-72950000D02*
X139905000Y-72950000D01*
%TO.N,/mcu/UCPD1_CC2*%
X140930000Y-69950000D02*
X139540000Y-69950000D01*
X139540000Y-69950000D02*
X139125000Y-69535000D01*
%TO.N,/display/TFT_BL*%
X120864410Y-60864410D02*
X120873090Y-60864410D01*
X119159225Y-74424217D02*
X119159225Y-74516422D01*
X125075000Y-57875000D02*
X125380000Y-58180000D01*
X119723887Y-75081084D02*
X120115613Y-75081084D01*
X125380000Y-58855000D02*
X126025000Y-59500000D01*
X125380000Y-58180000D02*
X125380000Y-58855000D01*
X123284251Y-58937500D02*
X124346751Y-57875000D01*
X122800000Y-58937500D02*
X123284251Y-58937500D01*
X119159225Y-74516422D02*
X119723887Y-75081084D01*
X124346751Y-57875000D02*
X125075000Y-57875000D01*
X120873090Y-60864410D02*
X122800000Y-58937500D01*
X120115613Y-75081084D02*
X120458919Y-74737778D01*
%TO.N,/display/BL_K*%
X124825000Y-55987500D02*
X124825000Y-54537500D01*
X123750000Y-57062500D02*
X124825000Y-55987500D01*
%TO.N,Net-(U201-PA7)*%
X126185589Y-78077962D02*
X126185589Y-79085589D01*
X125673832Y-77566205D02*
X126185589Y-78077962D01*
%TO.N,/encoder/~{ENC_CS}*%
X123450906Y-80253546D02*
X123354452Y-80350000D01*
X122025000Y-80350000D02*
X121735624Y-80060624D01*
X123685589Y-80018863D02*
X123685589Y-78582176D01*
X130650000Y-68025000D02*
X130073160Y-68025000D01*
X131375000Y-67300000D02*
X130650000Y-68025000D01*
X130073160Y-68025000D02*
X129826974Y-67778814D01*
X123354452Y-80350000D02*
X122025000Y-80350000D01*
X123450906Y-80253546D02*
X123685589Y-80018863D01*
X123685589Y-78582176D02*
X123994453Y-78273312D01*
%TO.N,/display/~{TFT_CS}*%
X129000500Y-57650000D02*
X128150500Y-58500000D01*
X128075000Y-58490000D02*
X128160500Y-58490000D01*
X128160500Y-58490000D02*
X129025000Y-57625500D01*
X121855327Y-70212166D02*
X122580240Y-70937079D01*
X128150500Y-58500000D02*
X128085000Y-58500000D01*
X128085000Y-58500000D02*
X128075000Y-58490000D01*
X129025000Y-57625500D02*
X129025000Y-54537500D01*
%TO.N,/display/BL_A*%
X125525000Y-55990000D02*
X126025000Y-56490000D01*
X125525000Y-54537500D02*
X125525000Y-55990000D01*
%TO.N,/mcu/FDCAN1_TX*%
X118750519Y-71350000D02*
X117203949Y-71350000D01*
X120458919Y-73058400D02*
X118750519Y-71350000D01*
X117203949Y-71350000D02*
X116926975Y-71073026D01*
%TO.N,/mcu/FDCAN1_RX*%
X117558597Y-69024713D02*
X117558597Y-68316403D01*
X118867103Y-67625000D02*
X119621052Y-68378949D01*
X120812473Y-72704846D02*
X119150000Y-71042373D01*
X119150000Y-71042373D02*
X119150000Y-70616116D01*
X119150000Y-70616116D02*
X117558597Y-69024713D01*
X118250000Y-67625000D02*
X118867103Y-67625000D01*
X117558597Y-68316403D02*
X118250000Y-67625000D01*
%TO.N,/display/TFT_DC*%
X118400000Y-74487500D02*
X118400000Y-74690297D01*
X128225000Y-56425000D02*
X128325000Y-56325000D01*
X117090864Y-72629178D02*
X117090864Y-73178364D01*
X119425962Y-75716259D02*
X120187546Y-75716259D01*
X128325000Y-56325000D02*
X128325000Y-54537500D01*
X117090864Y-73178364D02*
X118400000Y-74487500D01*
X120187546Y-75716259D02*
X120812473Y-75091332D01*
X118400000Y-74690297D02*
X119425962Y-75716259D01*
X116282131Y-71820445D02*
X117090864Y-72629178D01*
%TO.N,/display/TFT_RESET*%
X129600000Y-62975000D02*
X131125000Y-61450000D01*
X126163201Y-62975000D02*
X129600000Y-62975000D01*
X120444652Y-76166259D02*
X121166026Y-75444885D01*
X116964504Y-74144476D02*
X117214020Y-74144476D01*
X117214020Y-74144476D02*
X119235803Y-76166259D01*
X131125000Y-61450000D02*
X131125000Y-54537500D01*
X125837701Y-63300500D02*
X126163201Y-62975000D01*
X119235803Y-76166259D02*
X120444652Y-76166259D01*
%TO.N,/encoder/ENC_SCK*%
X130041934Y-68700881D02*
X129473420Y-68132367D01*
X124460589Y-78779448D02*
X124966725Y-78273312D01*
X132650000Y-67325000D02*
X132650000Y-67350000D01*
X124450000Y-80225000D02*
X124460589Y-80214411D01*
X132650000Y-67350000D02*
X131299119Y-68700881D01*
X131299119Y-68700881D02*
X130041934Y-68700881D01*
X124460589Y-80214411D02*
X124460589Y-78779448D01*
%TO.N,/encoder/ENC_CIPO*%
X125260589Y-79560589D02*
X125260589Y-79169132D01*
X125260589Y-79169132D02*
X125663584Y-78766137D01*
X132085515Y-69150881D02*
X129784828Y-69150881D01*
X129784828Y-69150881D02*
X129119867Y-68485920D01*
X133880698Y-67355698D02*
X132085515Y-69150881D01*
X125663584Y-78263065D02*
X125320278Y-77919759D01*
X125663584Y-78766137D02*
X125663584Y-78263065D01*
%TO.N,/mcu/TIM1_CH1N*%
X131298955Y-78673955D02*
X131962500Y-79337500D01*
X131962500Y-79337500D02*
X132427500Y-79337500D01*
X128502259Y-73058400D02*
X128845565Y-72715094D01*
X128845565Y-72715094D02*
X130358114Y-72715094D01*
X131298955Y-73655935D02*
X131298955Y-78673955D01*
X130358114Y-72715094D02*
X131298955Y-73655935D01*
%TO.N,/mcu/TIM1_CH2N*%
X133165000Y-77665000D02*
X133165000Y-78100000D01*
X130544510Y-72265094D02*
X131748955Y-73469539D01*
X131748955Y-73469539D02*
X131748955Y-76248955D01*
X131748955Y-76248955D02*
X133165000Y-77665000D01*
X128148705Y-72704846D02*
X128588457Y-72265094D01*
X128588457Y-72265094D02*
X130544510Y-72265094D01*
%TO.N,/mcu/TIM1_CH3N*%
X135389500Y-78399500D02*
X135402500Y-78412500D01*
X132198455Y-75662000D02*
X132198455Y-73282643D01*
X130730906Y-71815094D02*
X128331351Y-71815094D01*
X132724500Y-76188045D02*
X132198455Y-75662000D01*
X128331351Y-71815094D02*
X127795152Y-72351293D01*
X132198455Y-73282643D02*
X130730906Y-71815094D01*
X135402500Y-78412500D02*
X135402500Y-78837500D01*
%TO.N,/mcu/TIM1_CH1*%
X127431350Y-71300881D02*
X127088045Y-71644186D01*
X132922955Y-73370747D02*
X130853089Y-71300881D01*
X132922955Y-74675000D02*
X132922955Y-73370747D01*
X132427500Y-78025000D02*
X132427500Y-78837500D01*
X130853089Y-71300881D02*
X127431350Y-71300881D01*
%TO.N,/mcu/TIM1_CH2*%
X133665000Y-73476396D02*
X133665000Y-78100000D01*
X127174244Y-70850881D02*
X131039485Y-70850881D01*
X131039485Y-70850881D02*
X133665000Y-73476396D01*
X126734492Y-71290633D02*
X127174244Y-70850881D01*
%TO.N,/mcu/TIM1_CH3*%
X134389500Y-73564500D02*
X131225881Y-70400881D01*
X131225881Y-70400881D02*
X126917136Y-70400881D01*
X136925000Y-79100500D02*
X136695473Y-79330027D01*
X134389500Y-73725000D02*
X134389500Y-73564500D01*
X135409973Y-79330027D02*
X135402500Y-79337500D01*
X126917136Y-70400881D02*
X126380938Y-70937079D01*
X136695473Y-79330027D02*
X135409973Y-79330027D01*
D68*
%TO.N,/mcu/USBD_M*%
X133683381Y-71888673D02*
X133683382Y-71888674D01*
X133683382Y-71888674D02*
X135759708Y-73965000D01*
X133259118Y-71040146D02*
X133388291Y-70910974D01*
X133812555Y-71335238D02*
X133683381Y-71464409D01*
X133812554Y-71335239D02*
X133812555Y-71335238D01*
X126027385Y-70583526D02*
X126635030Y-69975881D01*
X135759708Y-73965000D02*
X136075000Y-73965000D01*
X126635030Y-69975881D02*
X131770589Y-69975881D01*
X133259119Y-71040145D02*
X133259118Y-71040146D01*
X131770589Y-69975881D02*
X132834854Y-71040146D01*
X133812554Y-70910975D02*
G75*
G03*
X133388292Y-70910975I-212131J-212131D01*
G01*
X132834869Y-71040131D02*
G75*
G03*
X133259118Y-71040144I212131J212131D01*
G01*
X133812547Y-71335232D02*
G75*
G03*
X133812554Y-70910975I-212147J212132D01*
G01*
X133683341Y-71464369D02*
G75*
G03*
X133683382Y-71888672I212159J-212131D01*
G01*
%TO.N,/mcu/USBD_P*%
X136425000Y-68967435D02*
X136425000Y-69275881D01*
X125673832Y-70229973D02*
X126327924Y-69575881D01*
X136725000Y-69575881D02*
X137074119Y-69575881D01*
X137074119Y-69575881D02*
X137100000Y-69550000D01*
X126327924Y-69575881D02*
X135525000Y-69575881D01*
X135825000Y-69275881D02*
X135825000Y-68967435D01*
X136125000Y-68667400D02*
G75*
G03*
X135825000Y-68967435I0J-300000D01*
G01*
X136424965Y-68967435D02*
G75*
G03*
X136125000Y-68667435I-299965J35D01*
G01*
X135525000Y-69575900D02*
G75*
G03*
X135825000Y-69275881I0J300000D01*
G01*
X136425019Y-69275881D02*
G75*
G03*
X136725000Y-69575881I299981J-19D01*
G01*
%TD*%
%TA.AperFunction,Conductor*%
%TO.N,GND*%
G36*
X130623481Y-78309175D02*
G01*
X130665512Y-78364988D01*
X130673455Y-78408654D01*
X130673455Y-78591209D01*
X130671730Y-78606827D01*
X130672016Y-78606854D01*
X130671281Y-78614621D01*
X130673423Y-78682800D01*
X130673454Y-78684745D01*
X130673454Y-78713306D01*
X130674323Y-78720187D01*
X130674781Y-78726006D01*
X130676245Y-78772579D01*
X130676246Y-78772582D01*
X130681835Y-78791822D01*
X130685779Y-78810866D01*
X130688291Y-78830747D01*
X130696470Y-78851405D01*
X130705445Y-78874074D01*
X130707337Y-78879602D01*
X130713813Y-78901893D01*
X130720337Y-78924345D01*
X130723277Y-78929317D01*
X130730535Y-78941589D01*
X130739093Y-78959058D01*
X130746469Y-78977687D01*
X130773853Y-79015378D01*
X130777061Y-79020262D01*
X130800782Y-79060371D01*
X130800788Y-79060379D01*
X130814945Y-79074535D01*
X130827583Y-79089331D01*
X130838099Y-79103806D01*
X130839361Y-79105542D01*
X130867620Y-79128920D01*
X130875264Y-79135243D01*
X130879575Y-79139165D01*
X130978509Y-79238099D01*
X131254973Y-79514564D01*
X131288458Y-79575887D01*
X131283474Y-79645579D01*
X131254973Y-79689926D01*
X130116208Y-80828691D01*
X130103951Y-80838512D01*
X130104134Y-80838733D01*
X130098122Y-80843706D01*
X130051432Y-80893424D01*
X130050079Y-80894821D01*
X130029889Y-80915011D01*
X130029877Y-80915024D01*
X130025621Y-80920509D01*
X130021837Y-80924939D01*
X129989937Y-80958910D01*
X129989936Y-80958912D01*
X129980284Y-80976468D01*
X129969610Y-80992718D01*
X129957329Y-81008553D01*
X129957324Y-81008560D01*
X129938815Y-81051330D01*
X129936245Y-81056576D01*
X129913803Y-81097398D01*
X129908822Y-81116799D01*
X129902521Y-81135202D01*
X129894562Y-81153594D01*
X129894561Y-81153597D01*
X129887271Y-81199619D01*
X129886087Y-81205338D01*
X129874501Y-81250464D01*
X129874500Y-81250474D01*
X129874500Y-81270508D01*
X129872973Y-81289905D01*
X129872372Y-81293703D01*
X129869840Y-81309686D01*
X129869840Y-81309687D01*
X129874225Y-81356075D01*
X129874500Y-81361913D01*
X129874500Y-83717255D01*
X129872775Y-83732872D01*
X129873061Y-83732899D01*
X129872326Y-83740666D01*
X129874469Y-83808846D01*
X129874500Y-83810793D01*
X129874500Y-83839343D01*
X129874501Y-83839360D01*
X129875368Y-83846231D01*
X129875826Y-83852050D01*
X129877290Y-83898624D01*
X129877291Y-83898627D01*
X129882880Y-83917867D01*
X129886824Y-83936911D01*
X129889336Y-83956792D01*
X129892319Y-83964326D01*
X129906490Y-84000119D01*
X129908382Y-84005647D01*
X129921381Y-84050388D01*
X129931580Y-84067634D01*
X129940136Y-84085100D01*
X129947514Y-84103732D01*
X129960868Y-84122113D01*
X129974898Y-84141423D01*
X129978106Y-84146307D01*
X130001827Y-84186416D01*
X130001833Y-84186424D01*
X130015990Y-84200580D01*
X130028628Y-84215376D01*
X130040405Y-84231586D01*
X130040406Y-84231587D01*
X130076309Y-84261288D01*
X130080620Y-84265210D01*
X130468726Y-84653316D01*
X130826588Y-85011178D01*
X130860073Y-85072501D01*
X130855089Y-85142193D01*
X130838174Y-85173169D01*
X130756206Y-85282665D01*
X130756202Y-85282671D01*
X130705908Y-85417517D01*
X130699501Y-85477116D01*
X130699501Y-85477123D01*
X130699500Y-85477135D01*
X130699500Y-86322870D01*
X130699501Y-86322876D01*
X130705908Y-86382483D01*
X130756202Y-86517328D01*
X130756206Y-86517335D01*
X130842452Y-86632544D01*
X130842455Y-86632547D01*
X130957664Y-86718793D01*
X130957671Y-86718797D01*
X131092517Y-86769091D01*
X131092516Y-86769091D01*
X131099444Y-86769835D01*
X131152127Y-86775500D01*
X132247872Y-86775499D01*
X132307483Y-86769091D01*
X132442331Y-86718796D01*
X132557546Y-86632546D01*
X132643796Y-86517331D01*
X132694091Y-86382483D01*
X132700500Y-86322873D01*
X132700499Y-85477128D01*
X132700499Y-85477127D01*
X132700499Y-85474500D01*
X132720183Y-85407461D01*
X132772987Y-85361706D01*
X132824499Y-85350500D01*
X139492257Y-85350500D01*
X139507877Y-85352224D01*
X139507904Y-85351939D01*
X139515666Y-85352673D01*
X139515666Y-85352672D01*
X139515667Y-85352673D01*
X139518999Y-85352568D01*
X139583847Y-85350531D01*
X139585794Y-85350500D01*
X139614347Y-85350500D01*
X139614350Y-85350500D01*
X139621228Y-85349630D01*
X139627041Y-85349172D01*
X139673627Y-85347709D01*
X139692869Y-85342117D01*
X139711912Y-85338174D01*
X139731792Y-85335664D01*
X139775122Y-85318507D01*
X139780646Y-85316617D01*
X139784396Y-85315527D01*
X139825390Y-85303618D01*
X139842629Y-85293422D01*
X139860103Y-85284862D01*
X139878727Y-85277488D01*
X139878727Y-85277487D01*
X139878732Y-85277486D01*
X139916449Y-85250082D01*
X139921305Y-85246892D01*
X139961420Y-85223170D01*
X139975589Y-85208999D01*
X139990379Y-85196368D01*
X140006587Y-85184594D01*
X140036299Y-85148676D01*
X140040212Y-85144376D01*
X140597770Y-84586819D01*
X140659094Y-84553334D01*
X140685452Y-84550500D01*
X140794644Y-84550500D01*
X140794646Y-84550500D01*
X140979803Y-84511144D01*
X141152730Y-84434151D01*
X141305871Y-84322888D01*
X141432533Y-84182216D01*
X141527179Y-84018284D01*
X141536354Y-83990044D01*
X141575789Y-83932371D01*
X141640147Y-83905171D01*
X141708993Y-83917083D01*
X141760470Y-83964326D01*
X141778103Y-84021648D01*
X141789526Y-84232315D01*
X141789527Y-84232331D01*
X141847415Y-84585431D01*
X141847421Y-84585457D01*
X141943147Y-84930232D01*
X141943149Y-84930239D01*
X142075597Y-85262659D01*
X142075606Y-85262677D01*
X142243218Y-85578827D01*
X142444033Y-85875007D01*
X142571441Y-86025003D01*
X142571442Y-86025004D01*
X143777266Y-84819180D01*
X143940130Y-85009870D01*
X144130818Y-85172732D01*
X142922255Y-86381295D01*
X142922256Y-86381296D01*
X142935485Y-86393828D01*
X142935486Y-86393829D01*
X143220367Y-86610388D01*
X143220370Y-86610390D01*
X143526990Y-86794876D01*
X143813444Y-86927404D01*
X143866022Y-86973418D01*
X143885376Y-87040554D01*
X143865362Y-87107495D01*
X143812333Y-87152990D01*
X143761032Y-87163943D01*
X113135759Y-87078541D01*
X113068775Y-87058669D01*
X113023167Y-87005738D01*
X113013417Y-86936552D01*
X113042619Y-86873077D01*
X113084039Y-86842002D01*
X113348009Y-86719876D01*
X113654629Y-86535390D01*
X113654632Y-86535388D01*
X113939504Y-86318836D01*
X113952742Y-86306294D01*
X112744180Y-85097733D01*
X112934870Y-84934870D01*
X113097733Y-84744180D01*
X114303556Y-85950003D01*
X114430964Y-85800008D01*
X114430975Y-85799994D01*
X114631781Y-85503827D01*
X114799393Y-85187677D01*
X114799402Y-85187659D01*
X114931850Y-84855239D01*
X114931852Y-84855232D01*
X115027578Y-84510457D01*
X115027581Y-84510446D01*
X115044900Y-84404804D01*
X115075171Y-84341832D01*
X115134682Y-84305222D01*
X115204538Y-84306598D01*
X115262561Y-84345522D01*
X115286434Y-84395536D01*
X115287208Y-84395302D01*
X115288752Y-84400393D01*
X115288884Y-84400669D01*
X115288975Y-84401127D01*
X115288975Y-84401129D01*
X115288976Y-84401132D01*
X115343756Y-84581715D01*
X115346187Y-84589729D01*
X115347321Y-84591850D01*
X115347580Y-84593094D01*
X115348518Y-84595359D01*
X115348088Y-84595536D01*
X115361564Y-84660253D01*
X115337233Y-84724614D01*
X115331205Y-84732666D01*
X115331202Y-84732671D01*
X115280908Y-84867517D01*
X115274501Y-84927116D01*
X115274500Y-84927135D01*
X115274500Y-86022870D01*
X115274501Y-86022876D01*
X115280908Y-86082483D01*
X115331202Y-86217328D01*
X115331206Y-86217335D01*
X115417452Y-86332544D01*
X115417455Y-86332547D01*
X115532664Y-86418793D01*
X115532671Y-86418797D01*
X115667517Y-86469091D01*
X115667516Y-86469091D01*
X115674444Y-86469835D01*
X115727127Y-86475500D01*
X116822872Y-86475499D01*
X116882483Y-86469091D01*
X117017331Y-86418796D01*
X117025379Y-86412770D01*
X117090842Y-86388351D01*
X117154474Y-86401895D01*
X117154645Y-86401483D01*
X117156875Y-86402406D01*
X117158146Y-86402677D01*
X117160273Y-86403814D01*
X117348868Y-86461024D01*
X117545000Y-86480341D01*
X117741132Y-86461024D01*
X117929727Y-86403814D01*
X118103538Y-86310910D01*
X118103544Y-86310904D01*
X118108607Y-86307523D01*
X118109624Y-86309045D01*
X118166021Y-86285084D01*
X118234890Y-86296866D01*
X118251424Y-86307489D01*
X118251678Y-86307110D01*
X118256738Y-86310491D01*
X118430465Y-86403349D01*
X118565000Y-86444159D01*
X119064999Y-86444159D01*
X119199538Y-86403348D01*
X119373258Y-86310493D01*
X119378328Y-86307106D01*
X119379369Y-86308665D01*
X119435616Y-86284762D01*
X119504487Y-86296538D01*
X119521457Y-86307440D01*
X119521678Y-86307110D01*
X119526738Y-86310491D01*
X119700465Y-86403349D01*
X119835000Y-86444159D01*
X119835000Y-85725000D01*
X119065000Y-85725000D01*
X119064999Y-86444159D01*
X118565000Y-86444159D01*
X118564999Y-85682672D01*
X118602871Y-85727805D01*
X118702129Y-85785112D01*
X118786564Y-85800000D01*
X118843436Y-85800000D01*
X118927871Y-85785112D01*
X119027129Y-85727805D01*
X119100801Y-85640007D01*
X119140000Y-85532306D01*
X119140000Y-85417694D01*
X119100801Y-85309993D01*
X119029483Y-85225000D01*
X119870517Y-85225000D01*
X119799199Y-85309993D01*
X119760000Y-85417694D01*
X119760000Y-85532306D01*
X119799199Y-85640007D01*
X119872871Y-85727805D01*
X119972129Y-85785112D01*
X120056564Y-85800000D01*
X120113436Y-85800000D01*
X120197871Y-85785112D01*
X120297129Y-85727805D01*
X120334999Y-85682672D01*
X120335000Y-86444159D01*
X120469534Y-86403349D01*
X120643259Y-86310492D01*
X120648320Y-86307111D01*
X120649444Y-86308793D01*
X120705203Y-86285086D01*
X120774075Y-86296851D01*
X120791186Y-86307843D01*
X120791399Y-86307526D01*
X120796457Y-86310906D01*
X120796462Y-86310910D01*
X120928143Y-86381295D01*
X120968147Y-86402678D01*
X120970273Y-86403814D01*
X121158868Y-86461024D01*
X121355000Y-86480341D01*
X121551132Y-86461024D01*
X121739727Y-86403814D01*
X121913538Y-86310910D01*
X121913544Y-86310904D01*
X121918607Y-86307523D01*
X121919624Y-86309045D01*
X121976021Y-86285084D01*
X122044890Y-86296866D01*
X122061424Y-86307489D01*
X122061678Y-86307110D01*
X122066738Y-86310491D01*
X122240465Y-86403349D01*
X122375000Y-86444159D01*
X122375000Y-85682672D01*
X122412871Y-85727805D01*
X122512129Y-85785112D01*
X122596564Y-85800000D01*
X122653436Y-85800000D01*
X122737871Y-85785112D01*
X122837129Y-85727805D01*
X122874999Y-85682672D01*
X122874999Y-86444159D01*
X123009534Y-86403349D01*
X123183259Y-86310492D01*
X123188320Y-86307111D01*
X123189444Y-86308793D01*
X123245203Y-86285086D01*
X123314075Y-86296851D01*
X123331186Y-86307843D01*
X123331399Y-86307526D01*
X123336457Y-86310906D01*
X123336462Y-86310910D01*
X123468143Y-86381295D01*
X123508147Y-86402678D01*
X123510273Y-86403814D01*
X123698868Y-86461024D01*
X123895000Y-86480341D01*
X124091132Y-86461024D01*
X124279727Y-86403814D01*
X124281853Y-86402678D01*
X124413060Y-86332546D01*
X124453538Y-86310910D01*
X124478483Y-86290437D01*
X124500956Y-86271995D01*
X124565266Y-86244682D01*
X124634133Y-86256473D01*
X124685693Y-86303625D01*
X124702911Y-86354595D01*
X124705908Y-86382483D01*
X124756202Y-86517328D01*
X124756206Y-86517335D01*
X124842452Y-86632544D01*
X124842455Y-86632547D01*
X124957664Y-86718793D01*
X124957671Y-86718797D01*
X125092517Y-86769091D01*
X125092516Y-86769091D01*
X125099444Y-86769835D01*
X125152127Y-86775500D01*
X126247872Y-86775499D01*
X126307483Y-86769091D01*
X126442331Y-86718796D01*
X126557546Y-86632546D01*
X126643796Y-86517331D01*
X126694091Y-86382483D01*
X126700500Y-86322873D01*
X126700499Y-85477128D01*
X126694091Y-85417517D01*
X126690340Y-85407461D01*
X126643797Y-85282672D01*
X126643796Y-85282669D01*
X126608341Y-85235308D01*
X126583925Y-85169846D01*
X126585659Y-85144789D01*
X126584994Y-85144720D01*
X126585673Y-85138258D01*
X126585674Y-85138256D01*
X126605460Y-84950000D01*
X126585674Y-84761744D01*
X126527179Y-84581716D01*
X126432533Y-84417784D01*
X126305871Y-84277112D01*
X126305870Y-84277111D01*
X126152734Y-84165851D01*
X126152729Y-84165848D01*
X125979807Y-84088857D01*
X125979802Y-84088855D01*
X125825024Y-84055957D01*
X125794646Y-84049500D01*
X125605354Y-84049500D01*
X125495279Y-84072897D01*
X125425612Y-84067580D01*
X125369879Y-84025442D01*
X125345774Y-83959862D01*
X125345499Y-83951632D01*
X125345499Y-83946002D01*
X125347224Y-83930396D01*
X125346938Y-83930369D01*
X125347672Y-83922606D01*
X125345531Y-83854444D01*
X125345500Y-83852497D01*
X125345500Y-83823924D01*
X125345500Y-83823923D01*
X125344629Y-83817032D01*
X125344172Y-83811218D01*
X125344127Y-83809793D01*
X125342709Y-83764646D01*
X125337121Y-83745412D01*
X125333174Y-83726354D01*
X125330664Y-83706481D01*
X125313507Y-83663148D01*
X125311614Y-83657619D01*
X125298618Y-83612887D01*
X125298617Y-83612883D01*
X125288420Y-83595641D01*
X125279863Y-83578175D01*
X125272486Y-83559541D01*
X125245083Y-83521823D01*
X125241900Y-83516978D01*
X125218170Y-83476852D01*
X125218165Y-83476846D01*
X125204005Y-83462686D01*
X125191370Y-83447893D01*
X125179593Y-83431685D01*
X125143693Y-83401986D01*
X125139381Y-83398063D01*
X124965918Y-83224601D01*
X124932434Y-83163278D01*
X124937418Y-83093586D01*
X124979290Y-83037653D01*
X125044754Y-83013236D01*
X125084573Y-83018963D01*
X125084965Y-83017307D01*
X125092516Y-83019091D01*
X125099444Y-83019835D01*
X125152127Y-83025500D01*
X126247872Y-83025499D01*
X126307483Y-83019091D01*
X126442331Y-82968796D01*
X126557546Y-82882546D01*
X126640253Y-82772063D01*
X126693456Y-82732236D01*
X126693231Y-82731716D01*
X126695414Y-82730771D01*
X126696184Y-82730195D01*
X126698578Y-82729402D01*
X126700386Y-82728618D01*
X126700390Y-82728618D01*
X126717629Y-82718422D01*
X126735103Y-82709862D01*
X126753727Y-82702488D01*
X126753727Y-82702487D01*
X126753732Y-82702486D01*
X126791449Y-82675082D01*
X126796305Y-82671892D01*
X126836420Y-82648170D01*
X126850589Y-82633999D01*
X126865379Y-82621368D01*
X126881587Y-82609594D01*
X126911299Y-82573676D01*
X126915212Y-82569376D01*
X129149758Y-80334831D01*
X129162012Y-80325016D01*
X129161829Y-80324794D01*
X129167838Y-80319821D01*
X129167847Y-80319816D01*
X129214577Y-80270052D01*
X129215816Y-80268773D01*
X129236090Y-80248501D01*
X129240349Y-80243008D01*
X129244122Y-80238591D01*
X129276032Y-80204612D01*
X129285683Y-80187054D01*
X129296366Y-80170791D01*
X129308643Y-80154966D01*
X129327155Y-80112183D01*
X129329708Y-80106971D01*
X129352167Y-80066122D01*
X129357150Y-80046710D01*
X129363451Y-80028310D01*
X129371407Y-80009926D01*
X129378699Y-79963882D01*
X129379876Y-79958201D01*
X129391470Y-79913049D01*
X129391470Y-79893012D01*
X129392997Y-79873612D01*
X129396130Y-79853834D01*
X129391745Y-79807445D01*
X129391470Y-79801607D01*
X129391470Y-79452290D01*
X129411155Y-79385251D01*
X129427789Y-79364609D01*
X129446427Y-79345970D01*
X129478437Y-79313961D01*
X129502087Y-79286271D01*
X129580047Y-79144460D01*
X129580049Y-79144451D01*
X129582036Y-79139436D01*
X129625016Y-79084350D01*
X129666487Y-79064980D01*
X129710499Y-79053680D01*
X129710501Y-79053678D01*
X129710504Y-79053678D01*
X129851200Y-78976330D01*
X129851200Y-78976329D01*
X129851203Y-78976328D01*
X129878680Y-78952860D01*
X130160363Y-78671176D01*
X130183832Y-78643699D01*
X130261184Y-78502995D01*
X130277935Y-78437751D01*
X130313671Y-78377718D01*
X130367202Y-78348487D01*
X130431560Y-78331963D01*
X130431563Y-78331962D01*
X130489717Y-78299992D01*
X130557947Y-78284945D01*
X130623481Y-78309175D01*
G37*
%TD.AperFunction*%
%TA.AperFunction,Conductor*%
G36*
X143258341Y-58134632D02*
G01*
X143304598Y-58186997D01*
X143316300Y-58239582D01*
X143316300Y-58550669D01*
X143316301Y-58550676D01*
X143322708Y-58610283D01*
X143373002Y-58745128D01*
X143373006Y-58745135D01*
X143459252Y-58860344D01*
X143459253Y-58860344D01*
X143459254Y-58860346D01*
X143488415Y-58882176D01*
X143516945Y-58903534D01*
X143558815Y-58959468D01*
X143563799Y-59029160D01*
X143530313Y-59090483D01*
X143516945Y-59102066D01*
X143459252Y-59145255D01*
X143373006Y-59260464D01*
X143373002Y-59260471D01*
X143322708Y-59395317D01*
X143316301Y-59454916D01*
X143316300Y-59454935D01*
X143316300Y-60550670D01*
X143316301Y-60550676D01*
X143322708Y-60610283D01*
X143373002Y-60745128D01*
X143373006Y-60745135D01*
X143459252Y-60860344D01*
X143459253Y-60860344D01*
X143459254Y-60860346D01*
X143488415Y-60882176D01*
X143516945Y-60903534D01*
X143558815Y-60959468D01*
X143563799Y-61029160D01*
X143530313Y-61090483D01*
X143516945Y-61102066D01*
X143459252Y-61145255D01*
X143373006Y-61260464D01*
X143373002Y-61260471D01*
X143322708Y-61395317D01*
X143316301Y-61454916D01*
X143316300Y-61454935D01*
X143316300Y-62550670D01*
X143316301Y-62550676D01*
X143322708Y-62610283D01*
X143373002Y-62745128D01*
X143373006Y-62745135D01*
X143459252Y-62860344D01*
X143459253Y-62860344D01*
X143459254Y-62860346D01*
X143480165Y-62876000D01*
X143516945Y-62903534D01*
X143558815Y-62959468D01*
X143563799Y-63029160D01*
X143530313Y-63090483D01*
X143516945Y-63102066D01*
X143459252Y-63145255D01*
X143373006Y-63260464D01*
X143373002Y-63260471D01*
X143322708Y-63395317D01*
X143316301Y-63454916D01*
X143316300Y-63454935D01*
X143316300Y-64550670D01*
X143316301Y-64550676D01*
X143322708Y-64610283D01*
X143373002Y-64745128D01*
X143373006Y-64745135D01*
X143459252Y-64860344D01*
X143459255Y-64860347D01*
X143574464Y-64946593D01*
X143574471Y-64946597D01*
X143709317Y-64996891D01*
X143709316Y-64996891D01*
X143716244Y-64997635D01*
X143768927Y-65003300D01*
X147864672Y-65003299D01*
X147924283Y-64996891D01*
X148059131Y-64946596D01*
X148126052Y-64896498D01*
X148191515Y-64872081D01*
X148259788Y-64886932D01*
X148309194Y-64936337D01*
X148324363Y-64995765D01*
X148324363Y-64999986D01*
X148348025Y-82527690D01*
X148328431Y-82594756D01*
X148275689Y-82640582D01*
X148206544Y-82650619D01*
X148142949Y-82621679D01*
X148108832Y-82573753D01*
X148074405Y-82487346D01*
X148074393Y-82487322D01*
X147906781Y-82171172D01*
X147705966Y-81874992D01*
X147578557Y-81724995D01*
X147578556Y-81724994D01*
X146372732Y-82930818D01*
X146209870Y-82740130D01*
X146019180Y-82577266D01*
X147227743Y-81368703D01*
X147227742Y-81368702D01*
X147214514Y-81356171D01*
X147214513Y-81356170D01*
X146929632Y-81139611D01*
X146929629Y-81139609D01*
X146623009Y-80955123D01*
X146298260Y-80804877D01*
X146298255Y-80804876D01*
X145959144Y-80690616D01*
X145609660Y-80613688D01*
X145253924Y-80575000D01*
X144896075Y-80575000D01*
X144540339Y-80613688D01*
X144190855Y-80690616D01*
X143851744Y-80804876D01*
X143851739Y-80804877D01*
X143526990Y-80955123D01*
X143220370Y-81139609D01*
X143220367Y-81139611D01*
X142935491Y-81356166D01*
X142922256Y-81368703D01*
X142922255Y-81368703D01*
X144130819Y-82577266D01*
X143940130Y-82740130D01*
X143777266Y-82930818D01*
X142571442Y-81724994D01*
X142571441Y-81724995D01*
X142444040Y-81874983D01*
X142444033Y-81874993D01*
X142243218Y-82171172D01*
X142075606Y-82487322D01*
X142075597Y-82487340D01*
X141943149Y-82819760D01*
X141943147Y-82819767D01*
X141847421Y-83164542D01*
X141847415Y-83164568D01*
X141809832Y-83393816D01*
X141779561Y-83456788D01*
X141720051Y-83493397D01*
X141650195Y-83492021D01*
X141592172Y-83453096D01*
X141569535Y-83412073D01*
X141527181Y-83281722D01*
X141527180Y-83281721D01*
X141527179Y-83281716D01*
X141432533Y-83117784D01*
X141305871Y-82977112D01*
X141305870Y-82977111D01*
X141152734Y-82865851D01*
X141152729Y-82865848D01*
X140979807Y-82788857D01*
X140979802Y-82788855D01*
X140834000Y-82757865D01*
X140794646Y-82749500D01*
X140605354Y-82749500D01*
X140572897Y-82756398D01*
X140420197Y-82788855D01*
X140420192Y-82788857D01*
X140247271Y-82865848D01*
X140210189Y-82892789D01*
X140144382Y-82916267D01*
X140076328Y-82900440D01*
X140045156Y-82875442D01*
X140036520Y-82865851D01*
X139963384Y-82784625D01*
X139928238Y-82759090D01*
X139810247Y-82673364D01*
X139810242Y-82673361D01*
X139637320Y-82596370D01*
X139637315Y-82596368D01*
X139491514Y-82565378D01*
X139452159Y-82557013D01*
X139262867Y-82557013D01*
X139230410Y-82563911D01*
X139077710Y-82596368D01*
X139077705Y-82596370D01*
X139034320Y-82615687D01*
X138965070Y-82624972D01*
X138901793Y-82595344D01*
X138864580Y-82536209D01*
X138865245Y-82466343D01*
X138878346Y-82437310D01*
X138911544Y-82383488D01*
X138911547Y-82383481D01*
X138964855Y-82222606D01*
X138974999Y-82123322D01*
X138975000Y-82123309D01*
X138975000Y-82100000D01*
X137874000Y-82100000D01*
X137806961Y-82080315D01*
X137761206Y-82027511D01*
X137750000Y-81976000D01*
X137750000Y-81724000D01*
X137769685Y-81656961D01*
X137822489Y-81611206D01*
X137874000Y-81600000D01*
X138974999Y-81600000D01*
X138974999Y-81576692D01*
X138974998Y-81576677D01*
X138964855Y-81477392D01*
X138911547Y-81316518D01*
X138911542Y-81316507D01*
X138822575Y-81172271D01*
X138822572Y-81172267D01*
X138767627Y-81117322D01*
X138734142Y-81055999D01*
X138739126Y-80986307D01*
X138767623Y-80941965D01*
X140547770Y-79161819D01*
X140609094Y-79128334D01*
X140635452Y-79125500D01*
X140694644Y-79125500D01*
X140694646Y-79125500D01*
X140879803Y-79086144D01*
X141052730Y-79009151D01*
X141205871Y-78897888D01*
X141332533Y-78757216D01*
X141427179Y-78593284D01*
X141485674Y-78413256D01*
X141505460Y-78225000D01*
X141485674Y-78036744D01*
X141427179Y-77856716D01*
X141332533Y-77692784D01*
X141205871Y-77552112D01*
X141205870Y-77552111D01*
X141052734Y-77440851D01*
X141052729Y-77440848D01*
X140879807Y-77363857D01*
X140879802Y-77363855D01*
X140734001Y-77332865D01*
X140694646Y-77324500D01*
X140505354Y-77324500D01*
X140472897Y-77331398D01*
X140320197Y-77363855D01*
X140320192Y-77363857D01*
X140147270Y-77440848D01*
X140139040Y-77446828D01*
X140073232Y-77470304D01*
X140005179Y-77454476D01*
X139956487Y-77404368D01*
X139942541Y-77336777D01*
X139943507Y-77324500D01*
X139945500Y-77299181D01*
X139945499Y-77045738D01*
X139965183Y-76978701D01*
X140017987Y-76932946D01*
X140087146Y-76923002D01*
X140095252Y-76924445D01*
X140100865Y-76925638D01*
X140100869Y-76925638D01*
X140290155Y-76925638D01*
X140290157Y-76925638D01*
X140475314Y-76886282D01*
X140602823Y-76829510D01*
X140672070Y-76820225D01*
X140724095Y-76841016D01*
X140807194Y-76898855D01*
X140994092Y-76979059D01*
X141193310Y-77020000D01*
X141595000Y-77020000D01*
X141595000Y-76320000D01*
X142095000Y-76320000D01*
X142095000Y-77020000D01*
X142445713Y-77020000D01*
X142597338Y-77004581D01*
X142791381Y-76943700D01*
X142791391Y-76943695D01*
X142969215Y-76844994D01*
X142969216Y-76844994D01*
X143123530Y-76712521D01*
X143123531Y-76712520D01*
X143248018Y-76551695D01*
X143337588Y-76369093D01*
X143363246Y-76270000D01*
X144751634Y-76270000D01*
X144751931Y-76271946D01*
X144751933Y-76271952D01*
X144822562Y-76462657D01*
X144822565Y-76462664D01*
X144930149Y-76635267D01*
X145070264Y-76782668D01*
X145070266Y-76782669D01*
X145237195Y-76898856D01*
X145424092Y-76979059D01*
X145623310Y-77020000D01*
X145775000Y-77020000D01*
X145775000Y-76320000D01*
X146275000Y-76320000D01*
X146275000Y-77020000D01*
X146375713Y-77020000D01*
X146527338Y-77004581D01*
X146721381Y-76943700D01*
X146721391Y-76943695D01*
X146899215Y-76844994D01*
X146899216Y-76844994D01*
X147053530Y-76712521D01*
X147053531Y-76712520D01*
X147178018Y-76551695D01*
X147267588Y-76369093D01*
X147293246Y-76270000D01*
X146491111Y-76270000D01*
X146530610Y-76245543D01*
X146598201Y-76156038D01*
X146628895Y-76048160D01*
X146618546Y-75936479D01*
X146568552Y-75836078D01*
X146496069Y-75770000D01*
X147298366Y-75770000D01*
X147298068Y-75768053D01*
X147298066Y-75768047D01*
X147227437Y-75577342D01*
X147227434Y-75577335D01*
X147119850Y-75404732D01*
X146979735Y-75257331D01*
X146979733Y-75257330D01*
X146812804Y-75141143D01*
X146625907Y-75060940D01*
X146426690Y-75020000D01*
X146275000Y-75020000D01*
X146275000Y-75720000D01*
X145775000Y-75720000D01*
X145775000Y-75020000D01*
X145674287Y-75020000D01*
X145522661Y-75035418D01*
X145328618Y-75096299D01*
X145328608Y-75096304D01*
X145150784Y-75195005D01*
X145150783Y-75195005D01*
X144996469Y-75327478D01*
X144996468Y-75327479D01*
X144871981Y-75488304D01*
X144782411Y-75670906D01*
X144756754Y-75770000D01*
X145558889Y-75770000D01*
X145519390Y-75794457D01*
X145451799Y-75883962D01*
X145421105Y-75991840D01*
X145431454Y-76103521D01*
X145481448Y-76203922D01*
X145553931Y-76270000D01*
X144751634Y-76270000D01*
X143363246Y-76270000D01*
X142561111Y-76270000D01*
X142600610Y-76245543D01*
X142668201Y-76156038D01*
X142698895Y-76048160D01*
X142688546Y-75936479D01*
X142638552Y-75836078D01*
X142566069Y-75770000D01*
X143368366Y-75770000D01*
X143368068Y-75768053D01*
X143368066Y-75768047D01*
X143297437Y-75577342D01*
X143297434Y-75577335D01*
X143189850Y-75404732D01*
X143049735Y-75257331D01*
X143049733Y-75257330D01*
X142882804Y-75141143D01*
X142874924Y-75137762D01*
X142821080Y-75093235D01*
X142799857Y-75026666D01*
X142817992Y-74959192D01*
X142825443Y-74948332D01*
X142877698Y-74880233D01*
X142935687Y-74740236D01*
X142955466Y-74590000D01*
X142955053Y-74586865D01*
X142942391Y-74490685D01*
X142953157Y-74421650D01*
X142999537Y-74369394D01*
X143065330Y-74350500D01*
X143602722Y-74350500D01*
X143606466Y-74350613D01*
X143666082Y-74354219D01*
X143666082Y-74354218D01*
X143666085Y-74354219D01*
X143702327Y-74347577D01*
X143724836Y-74343453D01*
X143728540Y-74342889D01*
X143749888Y-74340296D01*
X143787845Y-74335688D01*
X143796605Y-74332365D01*
X143818221Y-74326338D01*
X143827439Y-74324650D01*
X143881916Y-74300132D01*
X143885358Y-74298705D01*
X143941226Y-74277518D01*
X143948933Y-74272197D01*
X143968480Y-74261172D01*
X143977028Y-74257326D01*
X144024066Y-74220472D01*
X144027059Y-74218269D01*
X144076229Y-74184332D01*
X144115852Y-74139605D01*
X144118386Y-74136913D01*
X144761913Y-73493386D01*
X144764605Y-73490852D01*
X144809332Y-73451229D01*
X144843269Y-73402059D01*
X144845472Y-73399066D01*
X144882326Y-73352028D01*
X144886172Y-73343480D01*
X144897197Y-73323935D01*
X144902517Y-73316227D01*
X144902516Y-73316227D01*
X144902518Y-73316226D01*
X144923705Y-73260358D01*
X144925132Y-73256916D01*
X144949647Y-73202446D01*
X144949647Y-73202445D01*
X144949650Y-73202439D01*
X144951338Y-73193221D01*
X144957366Y-73171603D01*
X144960688Y-73162845D01*
X144967889Y-73103540D01*
X144968453Y-73099836D01*
X144975919Y-73059090D01*
X144979219Y-73041085D01*
X144979082Y-73038828D01*
X144975613Y-72981466D01*
X144975500Y-72977722D01*
X144975500Y-70526256D01*
X144975613Y-70522511D01*
X144979219Y-70462899D01*
X144975182Y-70440871D01*
X144968451Y-70404142D01*
X144967889Y-70400447D01*
X144967595Y-70398028D01*
X144960688Y-70341139D01*
X144957363Y-70332373D01*
X144951338Y-70310760D01*
X144949650Y-70301545D01*
X144925126Y-70247054D01*
X144923703Y-70243618D01*
X144923520Y-70243135D01*
X144902518Y-70187758D01*
X144897198Y-70180050D01*
X144886171Y-70160499D01*
X144882327Y-70151958D01*
X144882326Y-70151957D01*
X144882326Y-70151956D01*
X144845465Y-70104907D01*
X144843258Y-70101906D01*
X144809332Y-70052755D01*
X144809328Y-70052751D01*
X144809327Y-70052750D01*
X144764632Y-70013154D01*
X144761920Y-70010602D01*
X144189416Y-69438099D01*
X144186849Y-69435372D01*
X144147246Y-69390669D01*
X144147245Y-69390668D01*
X144098077Y-69356730D01*
X144095067Y-69354515D01*
X144048041Y-69317672D01*
X144048039Y-69317671D01*
X144039492Y-69313824D01*
X144019954Y-69302805D01*
X144012242Y-69297482D01*
X144012240Y-69297481D01*
X143956382Y-69276296D01*
X143952923Y-69274863D01*
X143898456Y-69250350D01*
X143898457Y-69250350D01*
X143891103Y-69249002D01*
X143889238Y-69248660D01*
X143867630Y-69242637D01*
X143858861Y-69239311D01*
X143799545Y-69232108D01*
X143795844Y-69231545D01*
X143737105Y-69220781D01*
X143737098Y-69220781D01*
X143677482Y-69224387D01*
X143673738Y-69224500D01*
X143011804Y-69224500D01*
X142944765Y-69204815D01*
X142899010Y-69152011D01*
X142889066Y-69082853D01*
X142897243Y-69053047D01*
X142905315Y-69033559D01*
X142935687Y-68960236D01*
X142955466Y-68810000D01*
X142951326Y-68778557D01*
X142940843Y-68698928D01*
X142935687Y-68659764D01*
X142886457Y-68540913D01*
X142877699Y-68519769D01*
X142877697Y-68519765D01*
X142843710Y-68475473D01*
X142823199Y-68448743D01*
X142798005Y-68383576D01*
X142812043Y-68315131D01*
X142860856Y-68265141D01*
X142861398Y-68264839D01*
X142969211Y-68204997D01*
X142969216Y-68204994D01*
X143123530Y-68072521D01*
X143123531Y-68072520D01*
X143248018Y-67911695D01*
X143337588Y-67729093D01*
X143363246Y-67630000D01*
X144751634Y-67630000D01*
X144751931Y-67631946D01*
X144751933Y-67631952D01*
X144822562Y-67822657D01*
X144822565Y-67822664D01*
X144930149Y-67995267D01*
X145070264Y-68142668D01*
X145070266Y-68142669D01*
X145237195Y-68258856D01*
X145424092Y-68339059D01*
X145623310Y-68380000D01*
X145775000Y-68380000D01*
X145775000Y-67680000D01*
X146275000Y-67680000D01*
X146275000Y-68380000D01*
X146375713Y-68380000D01*
X146527338Y-68364581D01*
X146721381Y-68303700D01*
X146721391Y-68303695D01*
X146899215Y-68204994D01*
X146899216Y-68204994D01*
X147053530Y-68072521D01*
X147053531Y-68072520D01*
X147178018Y-67911695D01*
X147267588Y-67729093D01*
X147293246Y-67630000D01*
X146491111Y-67630000D01*
X146530610Y-67605543D01*
X146598201Y-67516038D01*
X146628895Y-67408160D01*
X146618546Y-67296479D01*
X146568552Y-67196078D01*
X146496069Y-67130000D01*
X147298366Y-67130000D01*
X147298068Y-67128053D01*
X147298066Y-67128047D01*
X147227437Y-66937342D01*
X147227434Y-66937335D01*
X147119850Y-66764732D01*
X146979735Y-66617331D01*
X146979733Y-66617330D01*
X146812804Y-66501143D01*
X146625907Y-66420940D01*
X146426690Y-66380000D01*
X146275000Y-66380000D01*
X146275000Y-67080000D01*
X145775000Y-67080000D01*
X145775000Y-66380000D01*
X145674287Y-66380000D01*
X145522661Y-66395418D01*
X145328618Y-66456299D01*
X145328608Y-66456304D01*
X145150784Y-66555005D01*
X145150783Y-66555005D01*
X144996469Y-66687478D01*
X144996468Y-66687479D01*
X144871981Y-66848304D01*
X144782411Y-67030906D01*
X144756754Y-67130000D01*
X145558889Y-67130000D01*
X145519390Y-67154457D01*
X145451799Y-67243962D01*
X145421105Y-67351840D01*
X145431454Y-67463521D01*
X145481448Y-67563922D01*
X145553931Y-67630000D01*
X144751634Y-67630000D01*
X143363246Y-67630000D01*
X142561111Y-67630000D01*
X142600610Y-67605543D01*
X142668201Y-67516038D01*
X142698895Y-67408160D01*
X142688546Y-67296479D01*
X142638552Y-67196078D01*
X142566069Y-67130000D01*
X143368366Y-67130000D01*
X143368068Y-67128053D01*
X143368066Y-67128047D01*
X143297437Y-66937342D01*
X143297434Y-66937335D01*
X143189850Y-66764732D01*
X143049735Y-66617331D01*
X143049733Y-66617330D01*
X142882804Y-66501143D01*
X142695907Y-66420940D01*
X142496690Y-66380000D01*
X142095000Y-66380000D01*
X142095000Y-67080000D01*
X141595000Y-67080000D01*
X141595000Y-66380000D01*
X141244287Y-66380000D01*
X141092661Y-66395418D01*
X140898618Y-66456299D01*
X140898608Y-66456304D01*
X140720784Y-66555005D01*
X140720783Y-66555005D01*
X140566469Y-66687478D01*
X140566468Y-66687479D01*
X140441981Y-66848304D01*
X140352411Y-67030906D01*
X140300606Y-67230984D01*
X140264746Y-67290949D01*
X140202159Y-67322007D01*
X140132716Y-67314298D01*
X140092884Y-67287583D01*
X139946301Y-67141000D01*
X139641966Y-66836664D01*
X139608481Y-66775341D01*
X139605647Y-66748983D01*
X139605647Y-66484476D01*
X139605642Y-66484396D01*
X139605642Y-66428039D01*
X139605642Y-66428038D01*
X139585180Y-66285723D01*
X139585180Y-66285722D01*
X139585180Y-66285720D01*
X139544632Y-66147631D01*
X139544627Y-66147618D01*
X139484910Y-66016856D01*
X139484903Y-66016843D01*
X139424299Y-65922541D01*
X139404615Y-65855502D01*
X139424300Y-65788462D01*
X139477104Y-65742707D01*
X139494006Y-65736430D01*
X139576395Y-65712494D01*
X139715687Y-65630117D01*
X139739173Y-65606630D01*
X139781205Y-65579018D01*
X139782728Y-65578414D01*
X139795121Y-65573508D01*
X139800641Y-65571618D01*
X139845390Y-65558618D01*
X139862629Y-65548422D01*
X139880103Y-65539862D01*
X139898727Y-65532488D01*
X139898727Y-65532487D01*
X139898732Y-65532486D01*
X139936449Y-65505082D01*
X139941305Y-65501892D01*
X139981420Y-65478170D01*
X139995589Y-65463999D01*
X140010379Y-65451368D01*
X140026587Y-65439594D01*
X140056299Y-65403676D01*
X140060212Y-65399376D01*
X141632572Y-63827016D01*
X141693893Y-63793533D01*
X141732399Y-63791296D01*
X141875000Y-63805341D01*
X142071132Y-63786024D01*
X142259727Y-63728814D01*
X142433538Y-63635910D01*
X142585883Y-63510883D01*
X142710910Y-63358538D01*
X142776010Y-63236744D01*
X142803811Y-63184733D01*
X142803811Y-63184732D01*
X142803814Y-63184727D01*
X142861024Y-62996132D01*
X142880341Y-62800000D01*
X142861024Y-62603868D01*
X142803814Y-62415273D01*
X142803811Y-62415269D01*
X142803811Y-62415266D01*
X142710913Y-62241467D01*
X142710909Y-62241460D01*
X142585883Y-62089116D01*
X142433539Y-61964090D01*
X142433532Y-61964086D01*
X142259733Y-61871188D01*
X142259727Y-61871186D01*
X142071132Y-61813976D01*
X142071129Y-61813975D01*
X141875000Y-61794659D01*
X141678870Y-61813975D01*
X141490266Y-61871188D01*
X141316467Y-61964086D01*
X141316460Y-61964090D01*
X141164116Y-62089116D01*
X141050601Y-62227434D01*
X140992855Y-62266768D01*
X140923010Y-62268639D01*
X140863242Y-62232451D01*
X140840791Y-62194165D01*
X140840143Y-62194468D01*
X140837091Y-62187922D01*
X140748885Y-62044919D01*
X140630080Y-61926114D01*
X140487077Y-61837908D01*
X140487072Y-61837906D01*
X140327583Y-61785057D01*
X140229150Y-61775000D01*
X140212500Y-61775000D01*
X140212500Y-62876000D01*
X140192815Y-62943039D01*
X140140011Y-62988794D01*
X140088500Y-63000000D01*
X139836500Y-63000000D01*
X139769461Y-62980315D01*
X139723706Y-62927511D01*
X139712500Y-62876000D01*
X139712500Y-61774999D01*
X139695856Y-61775000D01*
X139597415Y-61785057D01*
X139437927Y-61837906D01*
X139437922Y-61837908D01*
X139294919Y-61926114D01*
X139263033Y-61958000D01*
X139201709Y-61991485D01*
X139132018Y-61986499D01*
X139087673Y-61958000D01*
X139055392Y-61925719D01*
X139049724Y-61921238D01*
X139051481Y-61919015D01*
X139013427Y-61876700D01*
X139002212Y-61807736D01*
X139030062Y-61743656D01*
X139058213Y-61718806D01*
X139115342Y-61682092D01*
X139154166Y-61657142D01*
X139154175Y-61657135D01*
X139181353Y-61633585D01*
X139262943Y-61562887D01*
X139300500Y-61519543D01*
X139357088Y-61454237D01*
X139357090Y-61454233D01*
X139357097Y-61454226D01*
X139434904Y-61333155D01*
X139434907Y-61333147D01*
X139434910Y-61333143D01*
X139468101Y-61260464D01*
X139494632Y-61202370D01*
X139494632Y-61202369D01*
X139494632Y-61202367D01*
X139494814Y-61201970D01*
X139495250Y-61200262D01*
X139535180Y-61064277D01*
X139555642Y-60921962D01*
X139555642Y-60865603D01*
X139555647Y-60865585D01*
X139555647Y-60334443D01*
X139555642Y-60334397D01*
X139555642Y-60278039D01*
X139555642Y-60278038D01*
X139537312Y-60150549D01*
X139535180Y-60135720D01*
X139506368Y-60037598D01*
X139494632Y-59997630D01*
X139494627Y-59997618D01*
X139434910Y-59866856D01*
X139434903Y-59866843D01*
X139357099Y-59745776D01*
X139357094Y-59745770D01*
X139330785Y-59715406D01*
X139301762Y-59651850D01*
X139300500Y-59634206D01*
X139300500Y-59574499D01*
X139320185Y-59507460D01*
X139372989Y-59461705D01*
X139424500Y-59450499D01*
X139825002Y-59450499D01*
X139825008Y-59450499D01*
X139927797Y-59439999D01*
X140094334Y-59384814D01*
X140243656Y-59292712D01*
X140325583Y-59210784D01*
X140386902Y-59177302D01*
X140456594Y-59182286D01*
X140512528Y-59224157D01*
X140519993Y-59235346D01*
X140570281Y-59320377D01*
X140570285Y-59320383D01*
X140684616Y-59434714D01*
X140684625Y-59434721D01*
X140823804Y-59517031D01*
X140979089Y-59562145D01*
X141000000Y-59563789D01*
X141000000Y-59035000D01*
X141500000Y-59035000D01*
X141500000Y-59563789D01*
X141520910Y-59562145D01*
X141676195Y-59517031D01*
X141815374Y-59434721D01*
X141815383Y-59434714D01*
X141929714Y-59320383D01*
X141929721Y-59320374D01*
X142012031Y-59181195D01*
X142054504Y-59035000D01*
X141500000Y-59035000D01*
X141000000Y-59035000D01*
X141000000Y-58729500D01*
X141019685Y-58662461D01*
X141072489Y-58616706D01*
X141124000Y-58605500D01*
X141484682Y-58605500D01*
X141484690Y-58605500D01*
X141520993Y-58602643D01*
X141520995Y-58602642D01*
X141520997Y-58602642D01*
X141653617Y-58564112D01*
X141723486Y-58564311D01*
X141761095Y-58582868D01*
X141792245Y-58605500D01*
X141797270Y-58609151D01*
X141970192Y-58686142D01*
X141970197Y-58686144D01*
X142155354Y-58725500D01*
X142155355Y-58725500D01*
X142344644Y-58725500D01*
X142344646Y-58725500D01*
X142529803Y-58686144D01*
X142702730Y-58609151D01*
X142855871Y-58497888D01*
X142982533Y-58357216D01*
X143077179Y-58193284D01*
X143077184Y-58193265D01*
X143079019Y-58189149D01*
X143124269Y-58135911D01*
X143191117Y-58115588D01*
X143258341Y-58134632D01*
G37*
%TD.AperFunction*%
%TA.AperFunction,Conductor*%
G36*
X108523948Y-64899838D02*
G01*
X108582664Y-64943793D01*
X108582671Y-64943797D01*
X108717517Y-64994091D01*
X108717516Y-64994091D01*
X108724444Y-64994835D01*
X108777127Y-65000500D01*
X112314547Y-65000499D01*
X112381586Y-65020184D01*
X112402228Y-65036818D01*
X113064864Y-65699454D01*
X113098349Y-65760777D01*
X113093365Y-65830469D01*
X113085845Y-65846872D01*
X113025767Y-65956153D01*
X113025764Y-65956163D01*
X112984893Y-66115344D01*
X112983915Y-66123092D01*
X112980986Y-66122721D01*
X112965208Y-66176457D01*
X112912404Y-66222212D01*
X112874868Y-66230377D01*
X112875129Y-66232440D01*
X112867381Y-66233418D01*
X112708322Y-66274258D01*
X112708312Y-66274261D01*
X112564406Y-66353374D01*
X112564400Y-66353378D01*
X112562500Y-66354999D01*
X113426796Y-67219294D01*
X113692667Y-67485165D01*
X113726152Y-67546488D01*
X113721168Y-67616180D01*
X113692667Y-67660527D01*
X113037887Y-68315306D01*
X113037887Y-68358054D01*
X113027814Y-68392360D01*
X113093487Y-68392360D01*
X113146234Y-68423656D01*
X113444473Y-68721895D01*
X113477958Y-68783218D01*
X113472974Y-68852910D01*
X113444473Y-68897257D01*
X113199468Y-69142262D01*
X113138145Y-69175747D01*
X113068453Y-69170763D01*
X113012520Y-69128891D01*
X112988103Y-69063427D01*
X112998994Y-69003067D01*
X113007903Y-68983559D01*
X113007904Y-68983555D01*
X113028364Y-68841242D01*
X113007904Y-68698928D01*
X113007903Y-68698924D01*
X112945759Y-68562849D01*
X112935815Y-68493690D01*
X112944134Y-68475473D01*
X112913887Y-68482054D01*
X112871142Y-68482054D01*
X112437239Y-68915957D01*
X112375916Y-68949442D01*
X112349558Y-68952276D01*
X112058635Y-68952276D01*
X111462563Y-69548348D01*
X111462563Y-69548349D01*
X111673160Y-69758946D01*
X111719795Y-69796526D01*
X111850574Y-69856252D01*
X111850579Y-69856253D01*
X111992893Y-69876713D01*
X112135206Y-69856253D01*
X112154718Y-69847342D01*
X112223876Y-69837397D01*
X112287432Y-69866419D01*
X112325209Y-69925196D01*
X112325211Y-69995066D01*
X112293914Y-70047816D01*
X111216207Y-71125524D01*
X111203951Y-71135344D01*
X111204134Y-71135565D01*
X111198122Y-71140538D01*
X111151432Y-71190256D01*
X111150079Y-71191653D01*
X111129889Y-71211843D01*
X111129877Y-71211856D01*
X111125621Y-71217341D01*
X111121837Y-71221771D01*
X111089937Y-71255742D01*
X111089936Y-71255744D01*
X111080284Y-71273300D01*
X111069610Y-71289550D01*
X111057329Y-71305385D01*
X111057324Y-71305392D01*
X111038815Y-71348162D01*
X111036245Y-71353408D01*
X111013803Y-71394230D01*
X111008822Y-71413631D01*
X111002521Y-71432034D01*
X110994562Y-71450426D01*
X110994561Y-71450429D01*
X110987271Y-71496451D01*
X110986087Y-71502170D01*
X110974501Y-71547296D01*
X110974500Y-71547306D01*
X110974500Y-71567340D01*
X110972973Y-71586739D01*
X110969840Y-71606518D01*
X110969840Y-71606519D01*
X110974225Y-71652907D01*
X110974500Y-71658745D01*
X110974500Y-78153651D01*
X110972775Y-78169268D01*
X110973061Y-78169295D01*
X110972326Y-78177062D01*
X110974469Y-78245242D01*
X110974500Y-78247189D01*
X110974500Y-78275739D01*
X110974501Y-78275756D01*
X110975368Y-78282627D01*
X110975826Y-78288446D01*
X110977290Y-78335020D01*
X110977291Y-78335023D01*
X110982880Y-78354263D01*
X110986824Y-78373307D01*
X110989336Y-78393188D01*
X111006490Y-78436515D01*
X111008382Y-78442043D01*
X111021381Y-78486784D01*
X111031580Y-78504030D01*
X111040138Y-78521499D01*
X111047514Y-78540128D01*
X111074898Y-78577819D01*
X111078106Y-78582703D01*
X111101827Y-78622812D01*
X111101833Y-78622820D01*
X111115990Y-78636976D01*
X111128628Y-78651772D01*
X111140405Y-78667982D01*
X111140406Y-78667983D01*
X111176309Y-78697684D01*
X111180620Y-78701606D01*
X112054901Y-79575887D01*
X112929087Y-80450073D01*
X112962572Y-80511396D01*
X112957588Y-80581088D01*
X112915716Y-80637021D01*
X112850252Y-80661438D01*
X112801813Y-80655263D01*
X112684144Y-80615616D01*
X112334660Y-80538688D01*
X111978924Y-80500000D01*
X111621075Y-80500000D01*
X111265339Y-80538688D01*
X110915855Y-80615616D01*
X110576744Y-80729876D01*
X110576739Y-80729877D01*
X110251990Y-80880123D01*
X109945370Y-81064609D01*
X109945367Y-81064611D01*
X109660491Y-81281166D01*
X109647256Y-81293703D01*
X109647255Y-81293703D01*
X110855819Y-82502266D01*
X110665130Y-82665130D01*
X110502266Y-82855819D01*
X109296442Y-81649994D01*
X109296441Y-81649995D01*
X109169040Y-81799983D01*
X109169033Y-81799993D01*
X108968218Y-82096172D01*
X108800606Y-82412322D01*
X108800597Y-82412340D01*
X108734335Y-82578647D01*
X108691235Y-82633639D01*
X108625245Y-82656600D01*
X108557318Y-82640239D01*
X108509020Y-82589751D01*
X108495148Y-82533949D01*
X108398273Y-72513453D01*
X108394126Y-72084474D01*
X108413161Y-72017248D01*
X108465521Y-71970985D01*
X108534580Y-71960373D01*
X108598413Y-71988782D01*
X108605796Y-71995591D01*
X109021187Y-72410980D01*
X109021191Y-72410983D01*
X109021193Y-72410985D01*
X109067868Y-72448600D01*
X109118862Y-72471888D01*
X109198785Y-72508388D01*
X109198784Y-72508388D01*
X109209037Y-72509862D01*
X109341242Y-72528870D01*
X109483700Y-72508388D01*
X109614615Y-72448600D01*
X109661298Y-72410982D01*
X110259329Y-71812949D01*
X110296949Y-71766266D01*
X110356737Y-71635351D01*
X110377219Y-71492893D01*
X110356737Y-71350436D01*
X110328931Y-71289550D01*
X110296950Y-71219521D01*
X110285569Y-71205398D01*
X110259331Y-71172838D01*
X110259326Y-71172833D01*
X110259322Y-71172828D01*
X109484524Y-70398033D01*
X109484518Y-70398028D01*
X109481336Y-70395463D01*
X109437839Y-70360409D01*
X109306921Y-70300621D01*
X109306923Y-70300621D01*
X109164466Y-70280140D01*
X109022008Y-70300621D01*
X108891093Y-70360409D01*
X108891088Y-70360412D01*
X108844412Y-70398025D01*
X108844404Y-70398032D01*
X108591110Y-70651327D01*
X108529787Y-70684812D01*
X108460095Y-70679828D01*
X108404162Y-70637956D01*
X108379745Y-70572492D01*
X108379435Y-70564845D01*
X108378512Y-70469351D01*
X108361063Y-68664466D01*
X110780645Y-68664466D01*
X110801105Y-68806779D01*
X110801106Y-68806784D01*
X110860832Y-68937563D01*
X110898412Y-68984198D01*
X110898416Y-68984202D01*
X111109009Y-69194796D01*
X111550952Y-68752854D01*
X111020622Y-68222524D01*
X110898417Y-68344728D01*
X110898411Y-68344735D01*
X110860833Y-68391366D01*
X110860832Y-68391368D01*
X110801106Y-68522147D01*
X110801105Y-68522152D01*
X110780645Y-68664466D01*
X108361063Y-68664466D01*
X108353373Y-67868970D01*
X111374175Y-67868970D01*
X111904504Y-68399301D01*
X111904505Y-68399301D01*
X112346447Y-67957359D01*
X112346447Y-67914613D01*
X112366132Y-67847574D01*
X112418936Y-67801819D01*
X112470447Y-67790613D01*
X112513192Y-67790613D01*
X112673351Y-67630455D01*
X112734674Y-67596970D01*
X112761032Y-67594136D01*
X113051954Y-67594136D01*
X113051954Y-67594135D01*
X113073243Y-67572847D01*
X113073243Y-67572846D01*
X112208948Y-66708551D01*
X112207327Y-66710451D01*
X112207323Y-66710457D01*
X112128210Y-66854363D01*
X112128207Y-66854373D01*
X112087367Y-67013432D01*
X112087367Y-67177667D01*
X112128207Y-67336726D01*
X112128210Y-67336736D01*
X112207328Y-67480650D01*
X112207327Y-67480650D01*
X112231326Y-67508746D01*
X112231348Y-67508770D01*
X112233702Y-67511124D01*
X112267187Y-67572447D01*
X112262203Y-67642139D01*
X112220331Y-67698072D01*
X112154867Y-67722489D01*
X112094509Y-67711599D01*
X111958435Y-67649455D01*
X111958430Y-67649454D01*
X111816117Y-67628994D01*
X111673803Y-67649454D01*
X111673798Y-67649455D01*
X111543019Y-67709181D01*
X111543017Y-67709182D01*
X111496382Y-67746763D01*
X111374175Y-67868970D01*
X108353373Y-67868970D01*
X108325637Y-64999999D01*
X108325637Y-64999104D01*
X108345322Y-64932065D01*
X108398126Y-64886310D01*
X108467284Y-64876366D01*
X108523948Y-64899838D01*
G37*
%TD.AperFunction*%
%TA.AperFunction,Conductor*%
G36*
X126067809Y-80118186D02*
G01*
X126125857Y-80157073D01*
X126139278Y-80176739D01*
X126162345Y-80218698D01*
X126185812Y-80246174D01*
X126185828Y-80246191D01*
X126467480Y-80527842D01*
X126467491Y-80527852D01*
X126467498Y-80527859D01*
X126494975Y-80551328D01*
X126589018Y-80603028D01*
X126635678Y-80628680D01*
X126663335Y-80635781D01*
X126784015Y-80666766D01*
X126844051Y-80702502D01*
X126875237Y-80765026D01*
X126867669Y-80834485D01*
X126840857Y-80874550D01*
X126456343Y-81259064D01*
X126395020Y-81292549D01*
X126325329Y-81287565D01*
X126307481Y-81280908D01*
X126307483Y-81280908D01*
X126247883Y-81274501D01*
X126247881Y-81274500D01*
X126247873Y-81274500D01*
X126247864Y-81274500D01*
X125152129Y-81274500D01*
X125152123Y-81274501D01*
X125092516Y-81280908D01*
X124957671Y-81331202D01*
X124957664Y-81331206D01*
X124842455Y-81417452D01*
X124842452Y-81417455D01*
X124756206Y-81532664D01*
X124756202Y-81532671D01*
X124705908Y-81667517D01*
X124699501Y-81727116D01*
X124699500Y-81727135D01*
X124699500Y-82572870D01*
X124699501Y-82572876D01*
X124705909Y-82632487D01*
X124707692Y-82640031D01*
X124705162Y-82640628D01*
X124709242Y-82697771D01*
X124675750Y-82759090D01*
X124614423Y-82792568D01*
X124544732Y-82787576D01*
X124500398Y-82759080D01*
X124287530Y-82546212D01*
X124277707Y-82533950D01*
X124277486Y-82534134D01*
X124272513Y-82528122D01*
X124222793Y-82481432D01*
X124221393Y-82480075D01*
X124201203Y-82459884D01*
X124195713Y-82455625D01*
X124191288Y-82451847D01*
X124157309Y-82419938D01*
X124157307Y-82419936D01*
X124157304Y-82419935D01*
X124139756Y-82410288D01*
X124123490Y-82399604D01*
X124107663Y-82387327D01*
X124107662Y-82387326D01*
X124107660Y-82387325D01*
X124064895Y-82368818D01*
X124059649Y-82366248D01*
X124018820Y-82343803D01*
X124018819Y-82343802D01*
X123999420Y-82338822D01*
X123981008Y-82332518D01*
X123962625Y-82324562D01*
X123962619Y-82324560D01*
X123916601Y-82317272D01*
X123910879Y-82316087D01*
X123865748Y-82304500D01*
X123865746Y-82304500D01*
X123845711Y-82304500D01*
X123826313Y-82302973D01*
X123818889Y-82301797D01*
X123806532Y-82299840D01*
X123806531Y-82299840D01*
X123760143Y-82304225D01*
X123754305Y-82304500D01*
X117240452Y-82304500D01*
X117173413Y-82284815D01*
X117152771Y-82268181D01*
X116796771Y-81912181D01*
X116763286Y-81850858D01*
X116768270Y-81781166D01*
X116810142Y-81725233D01*
X116875606Y-81700816D01*
X116884452Y-81700500D01*
X119342257Y-81700500D01*
X119357877Y-81702224D01*
X119357904Y-81701939D01*
X119365666Y-81702673D01*
X119365666Y-81702672D01*
X119365667Y-81702673D01*
X119368999Y-81702568D01*
X119433847Y-81700531D01*
X119435794Y-81700500D01*
X119464347Y-81700500D01*
X119464350Y-81700500D01*
X119471228Y-81699630D01*
X119477041Y-81699172D01*
X119523627Y-81697709D01*
X119542869Y-81692117D01*
X119561912Y-81688174D01*
X119581792Y-81685664D01*
X119625122Y-81668507D01*
X119630646Y-81666617D01*
X119634396Y-81665527D01*
X119675390Y-81653618D01*
X119692629Y-81643422D01*
X119710103Y-81634862D01*
X119728727Y-81627488D01*
X119728727Y-81627487D01*
X119728732Y-81627486D01*
X119766449Y-81600082D01*
X119771305Y-81596892D01*
X119811420Y-81573170D01*
X119825589Y-81558999D01*
X119840379Y-81546368D01*
X119856587Y-81534594D01*
X119886299Y-81498676D01*
X119890212Y-81494376D01*
X120197772Y-81186816D01*
X120259094Y-81153334D01*
X120285452Y-81150500D01*
X120344644Y-81150500D01*
X120344646Y-81150500D01*
X120529803Y-81111144D01*
X120702730Y-81034151D01*
X120855871Y-80922888D01*
X120982533Y-80782216D01*
X121016783Y-80722893D01*
X121067347Y-80674678D01*
X121135954Y-80661454D01*
X121200819Y-80687421D01*
X121211850Y-80697212D01*
X121296267Y-80781629D01*
X121296278Y-80781639D01*
X121296285Y-80781646D01*
X121323762Y-80805115D01*
X121423763Y-80860090D01*
X121464465Y-80882467D01*
X121591266Y-80915024D01*
X121619986Y-80922398D01*
X121735971Y-80922398D01*
X121784997Y-80934986D01*
X121785656Y-80933325D01*
X121792905Y-80936195D01*
X121792908Y-80936197D01*
X121812316Y-80941180D01*
X121830717Y-80947480D01*
X121849104Y-80955437D01*
X121892488Y-80962308D01*
X121895119Y-80962725D01*
X121900839Y-80963909D01*
X121945981Y-80975500D01*
X121966016Y-80975500D01*
X121985414Y-80977026D01*
X122005194Y-80980159D01*
X122005195Y-80980160D01*
X122005195Y-80980159D01*
X122005196Y-80980160D01*
X122051583Y-80975775D01*
X122057422Y-80975500D01*
X122872279Y-80975500D01*
X122939318Y-80995185D01*
X122945164Y-80999182D01*
X122998171Y-81037694D01*
X122998176Y-81037697D01*
X123171098Y-81114688D01*
X123171103Y-81114690D01*
X123356260Y-81154046D01*
X123356261Y-81154046D01*
X123545550Y-81154046D01*
X123545552Y-81154046D01*
X123730709Y-81114690D01*
X123903636Y-81037697D01*
X123905649Y-81036234D01*
X123907016Y-81035746D01*
X123909265Y-81034448D01*
X123909502Y-81034859D01*
X123971451Y-81012750D01*
X124028976Y-81023267D01*
X124170197Y-81086144D01*
X124355354Y-81125500D01*
X124355355Y-81125500D01*
X124544644Y-81125500D01*
X124544646Y-81125500D01*
X124729803Y-81086144D01*
X124902730Y-81009151D01*
X125055871Y-80897888D01*
X125182533Y-80757216D01*
X125277179Y-80593284D01*
X125295405Y-80537189D01*
X125334840Y-80479517D01*
X125387554Y-80454219D01*
X125540392Y-80421733D01*
X125713319Y-80344740D01*
X125866460Y-80233477D01*
X125938470Y-80153501D01*
X125997952Y-80116857D01*
X126067809Y-80118186D01*
G37*
%TD.AperFunction*%
%TA.AperFunction,Conductor*%
G36*
X117397192Y-79669401D02*
G01*
X117451533Y-79713320D01*
X117458239Y-79724158D01*
X117490302Y-79782481D01*
X117490305Y-79782485D01*
X117513952Y-79810172D01*
X117513968Y-79810189D01*
X117803414Y-80099635D01*
X117803431Y-80099651D01*
X117812660Y-80107533D01*
X117831120Y-80123300D01*
X117831122Y-80123301D01*
X117972930Y-80201260D01*
X117989039Y-80205396D01*
X118049077Y-80241133D01*
X118080263Y-80303657D01*
X118072695Y-80373116D01*
X118028777Y-80427457D01*
X117962452Y-80449427D01*
X117958202Y-80449500D01*
X117002948Y-80449500D01*
X116935909Y-80429815D01*
X116890154Y-80377011D01*
X116880210Y-80307853D01*
X116909235Y-80244297D01*
X116915267Y-80237819D01*
X117092459Y-80060625D01*
X117116085Y-80032963D01*
X117116092Y-80032953D01*
X117193988Y-79891262D01*
X117193988Y-79891260D01*
X117229472Y-79753058D01*
X117265210Y-79693020D01*
X117327734Y-79661834D01*
X117397192Y-79669401D01*
G37*
%TD.AperFunction*%
%TA.AperFunction,Conductor*%
G36*
X118953922Y-79865989D02*
G01*
X118998269Y-79894490D01*
X119126608Y-80022829D01*
X119160093Y-80084152D01*
X119155109Y-80153844D01*
X119126608Y-80198191D01*
X118998304Y-80326495D01*
X118936981Y-80359980D01*
X118867289Y-80354996D01*
X118822942Y-80326495D01*
X118694603Y-80198156D01*
X118661118Y-80136833D01*
X118666102Y-80067141D01*
X118694601Y-80022796D01*
X118822907Y-79894489D01*
X118884230Y-79861005D01*
X118953922Y-79865989D01*
G37*
%TD.AperFunction*%
%TA.AperFunction,Conductor*%
G36*
X117032511Y-77973966D02*
G01*
X117076859Y-78002467D01*
X117571598Y-78497206D01*
X117605083Y-78558529D01*
X117607917Y-78584887D01*
X117607917Y-78850530D01*
X117588232Y-78917569D01*
X117571598Y-78938211D01*
X117526228Y-78983581D01*
X117464905Y-79017066D01*
X117395213Y-79012082D01*
X117350866Y-78983581D01*
X116723306Y-78356021D01*
X116689821Y-78294698D01*
X116694805Y-78225006D01*
X116723306Y-78180659D01*
X116901497Y-78002467D01*
X116962820Y-77968982D01*
X117032511Y-77973966D01*
G37*
%TD.AperFunction*%
%TA.AperFunction,Conductor*%
G36*
X115699409Y-70031584D02*
G01*
X115736623Y-70090719D01*
X115735959Y-70160586D01*
X115711610Y-70205051D01*
X115707099Y-70210332D01*
X115707095Y-70210337D01*
X115627920Y-70354357D01*
X115627917Y-70354367D01*
X115587046Y-70513548D01*
X115587046Y-70677909D01*
X115627917Y-70837090D01*
X115627920Y-70837100D01*
X115710150Y-70986676D01*
X115707978Y-70987869D01*
X115726429Y-71043740D01*
X115708991Y-71111399D01*
X115680514Y-71142580D01*
X115681084Y-71143214D01*
X115676254Y-71147561D01*
X115549597Y-71288230D01*
X115454952Y-71452160D01*
X115454949Y-71452167D01*
X115396458Y-71632185D01*
X115396457Y-71632189D01*
X115383652Y-71754021D01*
X115378308Y-71804874D01*
X115376671Y-71820445D01*
X115396457Y-72008701D01*
X115396458Y-72008704D01*
X115454949Y-72188722D01*
X115454952Y-72188729D01*
X115549598Y-72352661D01*
X115659841Y-72475098D01*
X115676260Y-72493333D01*
X115829396Y-72604593D01*
X115829401Y-72604596D01*
X116002323Y-72681587D01*
X116002328Y-72681589D01*
X116187485Y-72720945D01*
X116187486Y-72720945D01*
X116193842Y-72722296D01*
X116193566Y-72723591D01*
X116251629Y-72747476D01*
X116261739Y-72756535D01*
X116413017Y-72907813D01*
X116446502Y-72969136D01*
X116441518Y-73038828D01*
X116413017Y-73083175D01*
X115705204Y-73790989D01*
X115915797Y-74001583D01*
X115915801Y-74001587D01*
X115962435Y-74039166D01*
X115987879Y-74050786D01*
X116040683Y-74096540D01*
X116059689Y-74150618D01*
X116076226Y-74307961D01*
X116063657Y-74376689D01*
X116040588Y-74408601D01*
X115963872Y-74485318D01*
X115963872Y-74485320D01*
X116901495Y-75422943D01*
X116934980Y-75484266D01*
X116929996Y-75553958D01*
X116901495Y-75598305D01*
X116723305Y-75776496D01*
X116661982Y-75809981D01*
X116592291Y-75804997D01*
X116547943Y-75776496D01*
X115610319Y-74838872D01*
X115329014Y-75120176D01*
X115329010Y-75120180D01*
X115291430Y-75166815D01*
X115247726Y-75262514D01*
X115201971Y-75315318D01*
X115186444Y-75323796D01*
X115089461Y-75368087D01*
X115089456Y-75368090D01*
X115042781Y-75405704D01*
X115042774Y-75405710D01*
X114805270Y-75643214D01*
X114743947Y-75676699D01*
X114674255Y-75671715D01*
X114618322Y-75629843D01*
X114603789Y-75600811D01*
X114603062Y-75601144D01*
X114539591Y-75462162D01*
X114533158Y-75454179D01*
X114501972Y-75415479D01*
X114501967Y-75415474D01*
X114501963Y-75415469D01*
X113727165Y-74640674D01*
X113727159Y-74640669D01*
X113727155Y-74640665D01*
X113680480Y-74603050D01*
X113549562Y-74543262D01*
X113549564Y-74543262D01*
X113407107Y-74522781D01*
X113264649Y-74543262D01*
X113133734Y-74603050D01*
X113133729Y-74603053D01*
X113087053Y-74640666D01*
X113087045Y-74640673D01*
X112987181Y-74740538D01*
X112925858Y-74774023D01*
X112856166Y-74769039D01*
X112800233Y-74727167D01*
X112775816Y-74661703D01*
X112775500Y-74652857D01*
X112775500Y-73110452D01*
X112795185Y-73043413D01*
X112811819Y-73022771D01*
X112927484Y-72907106D01*
X115023286Y-72907106D01*
X115043746Y-73049420D01*
X115043747Y-73049425D01*
X115103473Y-73180204D01*
X115141053Y-73226839D01*
X115351651Y-73437437D01*
X115793593Y-72995495D01*
X115263263Y-72465165D01*
X115141058Y-72587369D01*
X115141052Y-72587376D01*
X115103474Y-72634007D01*
X115103473Y-72634009D01*
X115043747Y-72764788D01*
X115043746Y-72764793D01*
X115023286Y-72907106D01*
X112927484Y-72907106D01*
X113691455Y-72143135D01*
X114583788Y-71250801D01*
X114596042Y-71240986D01*
X114595859Y-71240764D01*
X114601868Y-71235791D01*
X114601877Y-71235786D01*
X114648607Y-71186022D01*
X114649846Y-71184743D01*
X114670120Y-71164471D01*
X114674379Y-71158978D01*
X114678152Y-71154561D01*
X114710062Y-71120582D01*
X114719715Y-71103020D01*
X114730389Y-71086770D01*
X114742673Y-71070936D01*
X114761187Y-71028149D01*
X114763740Y-71022939D01*
X114786197Y-70982092D01*
X114786199Y-70982080D01*
X114786713Y-70980787D01*
X114788488Y-70977923D01*
X114789956Y-70975254D01*
X114790095Y-70975330D01*
X114809851Y-70943467D01*
X114932533Y-70807216D01*
X115027179Y-70643284D01*
X115085674Y-70463256D01*
X115105460Y-70275000D01*
X115101514Y-70237459D01*
X115114083Y-70168732D01*
X115161815Y-70117708D01*
X115224835Y-70100500D01*
X115269644Y-70100500D01*
X115269646Y-70100500D01*
X115454803Y-70061144D01*
X115566883Y-70011241D01*
X115636132Y-70001957D01*
X115699409Y-70031584D01*
G37*
%TD.AperFunction*%
%TA.AperFunction,Conductor*%
G36*
X138677611Y-74687428D02*
G01*
X138678116Y-74685693D01*
X138839791Y-74732664D01*
X138839794Y-74732664D01*
X138839796Y-74732665D01*
X138875819Y-74735500D01*
X139374180Y-74735499D01*
X139378096Y-74735190D01*
X139382959Y-74735000D01*
X139688193Y-74735000D01*
X139698412Y-74729419D01*
X139768104Y-74734400D01*
X139824038Y-74776266D01*
X139847454Y-74807546D01*
X139847455Y-74807546D01*
X139847456Y-74807548D01*
X139962664Y-74893793D01*
X139962671Y-74893797D01*
X140007883Y-74910660D01*
X140063817Y-74952531D01*
X140088234Y-75017995D01*
X140073383Y-75086268D01*
X140023978Y-75135674D01*
X139990331Y-75148132D01*
X139915708Y-75163993D01*
X139915703Y-75163995D01*
X139780307Y-75224279D01*
X139729871Y-75235000D01*
X139523074Y-75235000D01*
X139488479Y-75230076D01*
X139410209Y-75207336D01*
X139410205Y-75207335D01*
X139410204Y-75207335D01*
X139410202Y-75207334D01*
X139410197Y-75207334D01*
X139374181Y-75204500D01*
X138975830Y-75204500D01*
X138975808Y-75204501D01*
X138939794Y-75207335D01*
X138861521Y-75230076D01*
X138826926Y-75235000D01*
X138503074Y-75235000D01*
X138468479Y-75230076D01*
X138390209Y-75207336D01*
X138390205Y-75207335D01*
X138390204Y-75207335D01*
X138390202Y-75207334D01*
X138390197Y-75207334D01*
X138354188Y-75204500D01*
X138340862Y-75204500D01*
X138273823Y-75184815D01*
X138267848Y-75180000D01*
X138066343Y-75180000D01*
X137999304Y-75160315D01*
X137953549Y-75107511D01*
X137943605Y-75038353D01*
X137972630Y-74974797D01*
X137978662Y-74968318D01*
X137994450Y-74952531D01*
X138160163Y-74786818D01*
X138221488Y-74753334D01*
X138247845Y-74750500D01*
X138334682Y-74750500D01*
X138334690Y-74750500D01*
X138370993Y-74747643D01*
X138370995Y-74747642D01*
X138370997Y-74747642D01*
X138526389Y-74702496D01*
X138526389Y-74702495D01*
X138526395Y-74702494D01*
X138535232Y-74697267D01*
X138598352Y-74680000D01*
X138641744Y-74680000D01*
X138677611Y-74687428D01*
G37*
%TD.AperFunction*%
%TA.AperFunction,Conductor*%
G36*
X141123039Y-74970184D02*
G01*
X141168794Y-75022988D01*
X141180000Y-75074499D01*
X141180000Y-75076000D01*
X141160315Y-75143039D01*
X141107511Y-75188794D01*
X141056000Y-75200000D01*
X140582541Y-75200000D01*
X140532102Y-75189278D01*
X140528731Y-75187777D01*
X140475495Y-75142525D01*
X140455176Y-75075675D01*
X140474223Y-75008452D01*
X140526591Y-74962198D01*
X140579166Y-74950499D01*
X141056001Y-74950499D01*
X141123039Y-74970184D01*
G37*
%TD.AperFunction*%
%TA.AperFunction,Conductor*%
G36*
X117944420Y-66595185D02*
G01*
X117965062Y-66611819D01*
X118157826Y-66804583D01*
X118191311Y-66865906D01*
X118186327Y-66935598D01*
X118144455Y-66991531D01*
X118100025Y-67009544D01*
X118100758Y-67012398D01*
X118093203Y-67014337D01*
X118049878Y-67031490D01*
X118044352Y-67033382D01*
X117999608Y-67046383D01*
X117999604Y-67046385D01*
X117982365Y-67056580D01*
X117964898Y-67065137D01*
X117946269Y-67072512D01*
X117946267Y-67072513D01*
X117908564Y-67099906D01*
X117903682Y-67103112D01*
X117863580Y-67126828D01*
X117849408Y-67141000D01*
X117834623Y-67153628D01*
X117818412Y-67165407D01*
X117788709Y-67201310D01*
X117784777Y-67205631D01*
X117174805Y-67815602D01*
X117162548Y-67825423D01*
X117162731Y-67825644D01*
X117156719Y-67830617D01*
X117110029Y-67880335D01*
X117108676Y-67881732D01*
X117088486Y-67901922D01*
X117088474Y-67901935D01*
X117084218Y-67907420D01*
X117080434Y-67911850D01*
X117048534Y-67945821D01*
X117048533Y-67945823D01*
X117038881Y-67963379D01*
X117028207Y-67979629D01*
X117015926Y-67995464D01*
X117015921Y-67995471D01*
X116997412Y-68038241D01*
X116994842Y-68043487D01*
X116972400Y-68084309D01*
X116967419Y-68103710D01*
X116961118Y-68122113D01*
X116953159Y-68140505D01*
X116953158Y-68140508D01*
X116945868Y-68186530D01*
X116944684Y-68192249D01*
X116933098Y-68237375D01*
X116933097Y-68237385D01*
X116933097Y-68257419D01*
X116931570Y-68276819D01*
X116928436Y-68296597D01*
X116931168Y-68325500D01*
X116932368Y-68338197D01*
X116932821Y-68342983D01*
X116933096Y-68348820D01*
X116933096Y-68941968D01*
X116931373Y-68957585D01*
X116931658Y-68957612D01*
X116930923Y-68965379D01*
X116933066Y-69033559D01*
X116933097Y-69035506D01*
X116933097Y-69064056D01*
X116933098Y-69064073D01*
X116933965Y-69070944D01*
X116934423Y-69076763D01*
X116935887Y-69123337D01*
X116935888Y-69123340D01*
X116941477Y-69142580D01*
X116945421Y-69161624D01*
X116947933Y-69181505D01*
X116965087Y-69224832D01*
X116966979Y-69230360D01*
X116979978Y-69275101D01*
X116990177Y-69292347D01*
X116998733Y-69309813D01*
X117006111Y-69328445D01*
X117026665Y-69356736D01*
X117033495Y-69366136D01*
X117036703Y-69371020D01*
X117060424Y-69411129D01*
X117060430Y-69411137D01*
X117074587Y-69425293D01*
X117087230Y-69440097D01*
X117092868Y-69447858D01*
X117097165Y-69459905D01*
X117100755Y-69460686D01*
X117120367Y-69473973D01*
X117134919Y-69486012D01*
X117139229Y-69489935D01*
X117913742Y-70264448D01*
X117947227Y-70325771D01*
X117942243Y-70395463D01*
X117913701Y-70439852D01*
X117912639Y-70440913D01*
X117851300Y-70474369D01*
X117781611Y-70469351D01*
X117737318Y-70440871D01*
X116953647Y-69657199D01*
X116937051Y-69626806D01*
X116916820Y-69618928D01*
X116904865Y-69608418D01*
X116607152Y-69310704D01*
X116605531Y-69312604D01*
X116605527Y-69312610D01*
X116526414Y-69456516D01*
X116526411Y-69456526D01*
X116485571Y-69615585D01*
X116484593Y-69623333D01*
X116481505Y-69622942D01*
X116465886Y-69676136D01*
X116413082Y-69721891D01*
X116374999Y-69730175D01*
X116375245Y-69732119D01*
X116367497Y-69733097D01*
X116208316Y-69773968D01*
X116208309Y-69773970D01*
X116121540Y-69821671D01*
X116053309Y-69836717D01*
X115987776Y-69812486D01*
X115945746Y-69756671D01*
X115940563Y-69686994D01*
X115954413Y-69651017D01*
X116002179Y-69568284D01*
X116060674Y-69388256D01*
X116080460Y-69200000D01*
X116060674Y-69011744D01*
X116002179Y-68831716D01*
X115907533Y-68667784D01*
X115780871Y-68527112D01*
X115780870Y-68527111D01*
X115627734Y-68415851D01*
X115627729Y-68415848D01*
X115454807Y-68338857D01*
X115454802Y-68338855D01*
X115306352Y-68307302D01*
X115269646Y-68299500D01*
X115080354Y-68299500D01*
X115080352Y-68299500D01*
X114898292Y-68338197D01*
X114828625Y-68332881D01*
X114772892Y-68290743D01*
X114748787Y-68225163D01*
X114752408Y-68186069D01*
X114766224Y-68132259D01*
X114767203Y-68124514D01*
X114770290Y-68124904D01*
X114785910Y-68071712D01*
X114838714Y-68025957D01*
X114876797Y-68017672D01*
X114876552Y-68015729D01*
X114884291Y-68014751D01*
X114884296Y-68014751D01*
X115043487Y-67973878D01*
X115151290Y-67914613D01*
X115187510Y-67894701D01*
X115187510Y-67894700D01*
X115187513Y-67894699D01*
X115204476Y-67880210D01*
X115268237Y-67851639D01*
X115285009Y-67850500D01*
X116167257Y-67850500D01*
X116182877Y-67852224D01*
X116182904Y-67851939D01*
X116190666Y-67852673D01*
X116190666Y-67852672D01*
X116190667Y-67852673D01*
X116193999Y-67852568D01*
X116258847Y-67850531D01*
X116260794Y-67850500D01*
X116289347Y-67850500D01*
X116289350Y-67850500D01*
X116296228Y-67849630D01*
X116302041Y-67849172D01*
X116348627Y-67847709D01*
X116367869Y-67842117D01*
X116386912Y-67838174D01*
X116406792Y-67835664D01*
X116450122Y-67818507D01*
X116455646Y-67816617D01*
X116459396Y-67815527D01*
X116500390Y-67803618D01*
X116517629Y-67793422D01*
X116535103Y-67784862D01*
X116553727Y-67777488D01*
X116553727Y-67777487D01*
X116553732Y-67777486D01*
X116591449Y-67750082D01*
X116596305Y-67746892D01*
X116636420Y-67723170D01*
X116650589Y-67708999D01*
X116665379Y-67696368D01*
X116681587Y-67684594D01*
X116711299Y-67648676D01*
X116715212Y-67644376D01*
X117747771Y-66611819D01*
X117809095Y-66578334D01*
X117835453Y-66575500D01*
X117877381Y-66575500D01*
X117944420Y-66595185D01*
G37*
%TD.AperFunction*%
%TA.AperFunction,Conductor*%
G36*
X121868833Y-68444579D02*
G01*
X121924767Y-68486450D01*
X121949184Y-68551915D01*
X121949500Y-68560761D01*
X121949500Y-69187666D01*
X121929815Y-69254705D01*
X121877011Y-69300460D01*
X121825500Y-69311666D01*
X121760681Y-69311666D01*
X121661501Y-69332747D01*
X121635898Y-69338189D01*
X121566231Y-69332872D01*
X121510498Y-69290734D01*
X121502738Y-69278909D01*
X121425734Y-69145534D01*
X121299072Y-69004862D01*
X121299067Y-69004858D01*
X121297120Y-69002696D01*
X121266890Y-68939704D01*
X121275515Y-68870369D01*
X121320256Y-68816703D01*
X121329534Y-68811060D01*
X121336067Y-68807468D01*
X121336072Y-68807467D01*
X121476775Y-68730115D01*
X121504252Y-68706647D01*
X121669986Y-68540913D01*
X121737819Y-68473080D01*
X121799142Y-68439595D01*
X121868833Y-68444579D01*
G37*
%TD.AperFunction*%
%TA.AperFunction,Conductor*%
G36*
X134988947Y-67389401D02*
G01*
X134990543Y-67391141D01*
X135019128Y-67422887D01*
X135019129Y-67422888D01*
X135172265Y-67534148D01*
X135172270Y-67534151D01*
X135345192Y-67611142D01*
X135345197Y-67611144D01*
X135530354Y-67650500D01*
X135530355Y-67650500D01*
X135719644Y-67650500D01*
X135719646Y-67650500D01*
X135904803Y-67611144D01*
X136077730Y-67534151D01*
X136225851Y-67426534D01*
X136291655Y-67403056D01*
X136359709Y-67418881D01*
X136408403Y-67468987D01*
X136411520Y-67475324D01*
X136415096Y-67483155D01*
X136415097Y-67483156D01*
X136415105Y-67483171D01*
X136492896Y-67604216D01*
X136492899Y-67604220D01*
X136492903Y-67604226D01*
X136492908Y-67604231D01*
X136492912Y-67604237D01*
X136568665Y-67691662D01*
X136597690Y-67755218D01*
X136587746Y-67824376D01*
X136541991Y-67877180D01*
X136538077Y-67879594D01*
X136522404Y-67888863D01*
X136522396Y-67888869D01*
X136408864Y-68002401D01*
X136398905Y-68019242D01*
X136347835Y-68066924D01*
X136279093Y-68079426D01*
X136267983Y-68077735D01*
X136213696Y-68066936D01*
X136213689Y-68066935D01*
X136197917Y-68066935D01*
X136197914Y-68066935D01*
X136176397Y-68066935D01*
X136176274Y-68066899D01*
X136036301Y-68066900D01*
X135863320Y-68101312D01*
X135862315Y-68101512D01*
X135762964Y-68142668D01*
X135698422Y-68169404D01*
X135698418Y-68169406D01*
X135550928Y-68267965D01*
X135550924Y-68267968D01*
X135425499Y-68393408D01*
X135425499Y-68393409D01*
X135326954Y-68540913D01*
X135259081Y-68704814D01*
X135225135Y-68875561D01*
X135192756Y-68937475D01*
X135132043Y-68972055D01*
X135103515Y-68975381D01*
X133444967Y-68975381D01*
X133377928Y-68955696D01*
X133332173Y-68902892D01*
X133322229Y-68833734D01*
X133351254Y-68770178D01*
X133357286Y-68763700D01*
X133513418Y-68607569D01*
X133828469Y-68292517D01*
X133889793Y-68259032D01*
X133916151Y-68256198D01*
X133975342Y-68256198D01*
X133975344Y-68256198D01*
X134160501Y-68216842D01*
X134333428Y-68139849D01*
X134486569Y-68028586D01*
X134613231Y-67887914D01*
X134707877Y-67723982D01*
X134766372Y-67543954D01*
X134775074Y-67461149D01*
X134801657Y-67396539D01*
X134858954Y-67356554D01*
X134928773Y-67353893D01*
X134988947Y-67389401D01*
G37*
%TD.AperFunction*%
%TA.AperFunction,Conductor*%
G36*
X139097539Y-68284685D02*
G01*
X139143294Y-68337489D01*
X139154500Y-68389000D01*
X139154500Y-68640500D01*
X139134815Y-68707539D01*
X139082011Y-68753294D01*
X139030501Y-68764500D01*
X138875830Y-68764500D01*
X138875808Y-68764501D01*
X138839794Y-68767335D01*
X138761521Y-68790076D01*
X138726926Y-68795000D01*
X138623354Y-68795000D01*
X138560233Y-68777732D01*
X138551399Y-68772507D01*
X138551391Y-68772504D01*
X138395997Y-68727357D01*
X138395991Y-68727356D01*
X138359697Y-68724500D01*
X138359690Y-68724500D01*
X138230453Y-68724500D01*
X138163414Y-68704815D01*
X138142772Y-68688181D01*
X137961272Y-68506681D01*
X137927787Y-68445358D01*
X137932771Y-68375666D01*
X137974643Y-68319733D01*
X138040107Y-68295316D01*
X138048953Y-68295000D01*
X138270253Y-68295000D01*
X138320004Y-68267834D01*
X138346362Y-68265000D01*
X139030500Y-68265000D01*
X139097539Y-68284685D01*
G37*
%TD.AperFunction*%
%TA.AperFunction,Conductor*%
G36*
X141123039Y-67629685D02*
G01*
X141168794Y-67682489D01*
X141180000Y-67734000D01*
X141180000Y-68325500D01*
X141160315Y-68392539D01*
X141107511Y-68438294D01*
X141056000Y-68449500D01*
X140629500Y-68449500D01*
X140562461Y-68429815D01*
X140516706Y-68377011D01*
X140505500Y-68325500D01*
X140505500Y-68324000D01*
X140525185Y-68256961D01*
X140577989Y-68211206D01*
X140629500Y-68200000D01*
X140680000Y-68200000D01*
X140680000Y-67734000D01*
X140699685Y-67666961D01*
X140752489Y-67621206D01*
X140804000Y-67610000D01*
X141056000Y-67610000D01*
X141123039Y-67629685D01*
G37*
%TD.AperFunction*%
%TA.AperFunction,Conductor*%
G36*
X125878358Y-66825477D02*
G01*
X125922693Y-66861594D01*
X125982528Y-66939571D01*
X126229921Y-67186964D01*
X126263406Y-67248287D01*
X126258422Y-67317979D01*
X126229922Y-67362326D01*
X126044977Y-67547273D01*
X125983654Y-67580758D01*
X125939823Y-67582355D01*
X125916825Y-67579082D01*
X125769966Y-67725941D01*
X125708643Y-67759426D01*
X125708067Y-67759550D01*
X125570196Y-67788856D01*
X125570192Y-67788857D01*
X125397270Y-67865848D01*
X125397265Y-67865851D01*
X125244129Y-67977111D01*
X125244128Y-67977112D01*
X125132297Y-68101312D01*
X125072810Y-68137960D01*
X125002953Y-68136629D01*
X124952467Y-68106020D01*
X124905305Y-68058858D01*
X124871820Y-67997535D01*
X124876804Y-67927843D01*
X124905305Y-67883496D01*
X125563272Y-67225529D01*
X125562291Y-67218635D01*
X125526961Y-67183103D01*
X125512305Y-67114788D01*
X125536909Y-67049393D01*
X125548268Y-67036321D01*
X125732090Y-66852499D01*
X125744315Y-66842707D01*
X125744132Y-66842486D01*
X125745247Y-66841563D01*
X125746320Y-66841101D01*
X125753349Y-66835472D01*
X125756786Y-66833292D01*
X125758437Y-66835895D01*
X125809441Y-66813978D01*
X125878358Y-66825477D01*
G37*
%TD.AperFunction*%
%TA.AperFunction,Conductor*%
G36*
X130429602Y-63132498D02*
G01*
X130485536Y-63174369D01*
X130503975Y-63209675D01*
X130537907Y-63312074D01*
X130537908Y-63312077D01*
X130591278Y-63398602D01*
X130609718Y-63465994D01*
X130588796Y-63532658D01*
X130535154Y-63577428D01*
X130497894Y-63587102D01*
X130478870Y-63588975D01*
X130290266Y-63646188D01*
X130116467Y-63739086D01*
X130116460Y-63739090D01*
X129964116Y-63864116D01*
X129931250Y-63904165D01*
X129873505Y-63943499D01*
X129835397Y-63949500D01*
X128976949Y-63949500D01*
X128961332Y-63947776D01*
X128961305Y-63948062D01*
X128953543Y-63947327D01*
X128885383Y-63949469D01*
X128883436Y-63949500D01*
X128854862Y-63949500D01*
X128854141Y-63949590D01*
X128847969Y-63950369D01*
X128842157Y-63950826D01*
X128795585Y-63952290D01*
X128795584Y-63952290D01*
X128776341Y-63957881D01*
X128757291Y-63961825D01*
X128737423Y-63964334D01*
X128737421Y-63964335D01*
X128694096Y-63981488D01*
X128688569Y-63983380D01*
X128643822Y-63996381D01*
X128643821Y-63996382D01*
X128626579Y-64006579D01*
X128609111Y-64015137D01*
X128590481Y-64022513D01*
X128590479Y-64022514D01*
X128552788Y-64049898D01*
X128547906Y-64053105D01*
X128507791Y-64076830D01*
X128493620Y-64091000D01*
X128478835Y-64103628D01*
X128462624Y-64115407D01*
X128432921Y-64151310D01*
X128428989Y-64155631D01*
X127859529Y-64725090D01*
X127798206Y-64758575D01*
X127728514Y-64753591D01*
X127672581Y-64711719D01*
X127663186Y-64697146D01*
X127591499Y-64566746D01*
X127591498Y-64566744D01*
X127567848Y-64539054D01*
X127567833Y-64539038D01*
X127235961Y-64207166D01*
X127235944Y-64207150D01*
X127208257Y-64183503D01*
X127208253Y-64183500D01*
X127066445Y-64105541D01*
X126909704Y-64065297D01*
X126909701Y-64065297D01*
X126747873Y-64065297D01*
X126642232Y-64092421D01*
X126572403Y-64090026D01*
X126514954Y-64050259D01*
X126488124Y-63985746D01*
X126500432Y-63916969D01*
X126519243Y-63889346D01*
X126570234Y-63832716D01*
X126664880Y-63668784D01*
X126664880Y-63668782D01*
X126668129Y-63663156D01*
X126670593Y-63664579D01*
X126707769Y-63620834D01*
X126774616Y-63600506D01*
X126775808Y-63600500D01*
X129517257Y-63600500D01*
X129532877Y-63602224D01*
X129532904Y-63601939D01*
X129540666Y-63602673D01*
X129540666Y-63602672D01*
X129540667Y-63602673D01*
X129543999Y-63602568D01*
X129608847Y-63600531D01*
X129610794Y-63600500D01*
X129639347Y-63600500D01*
X129639350Y-63600500D01*
X129646228Y-63599630D01*
X129652041Y-63599172D01*
X129698627Y-63597709D01*
X129717869Y-63592117D01*
X129736912Y-63588174D01*
X129756792Y-63585664D01*
X129800122Y-63568507D01*
X129805646Y-63566617D01*
X129809396Y-63565527D01*
X129850390Y-63553618D01*
X129867629Y-63543422D01*
X129885103Y-63534862D01*
X129903727Y-63527488D01*
X129903727Y-63527487D01*
X129903732Y-63527486D01*
X129941449Y-63500082D01*
X129946305Y-63496892D01*
X129986420Y-63473170D01*
X130000589Y-63458999D01*
X130015379Y-63446368D01*
X130031587Y-63434594D01*
X130061290Y-63398687D01*
X130065201Y-63394387D01*
X130298592Y-63160996D01*
X130359911Y-63127514D01*
X130429602Y-63132498D01*
G37*
%TD.AperFunction*%
%TA.AperFunction,Conductor*%
G36*
X143505170Y-47421888D02*
G01*
X143572165Y-47441723D01*
X143617801Y-47494629D01*
X143627590Y-47563810D01*
X143598423Y-47627300D01*
X143556959Y-47658427D01*
X143401987Y-47730125D01*
X143095370Y-47914609D01*
X143095367Y-47914611D01*
X142810491Y-48131166D01*
X142797256Y-48143703D01*
X142797255Y-48143703D01*
X144005819Y-49352266D01*
X143815130Y-49515130D01*
X143652267Y-49705818D01*
X142446442Y-48499994D01*
X142446441Y-48499995D01*
X142319040Y-48649983D01*
X142319033Y-48649993D01*
X142118218Y-48946172D01*
X141958248Y-49247908D01*
X141909455Y-49297917D01*
X141841370Y-49313609D01*
X141775610Y-49289999D01*
X141733053Y-49234585D01*
X141724693Y-49189825D01*
X141724693Y-48339672D01*
X141724692Y-48339655D01*
X141718291Y-48280127D01*
X141718289Y-48280120D01*
X141668047Y-48145413D01*
X141668043Y-48145406D01*
X141581883Y-48030312D01*
X141581880Y-48030309D01*
X141466786Y-47944149D01*
X141466779Y-47944145D01*
X141332072Y-47893903D01*
X141332065Y-47893901D01*
X141272537Y-47887500D01*
X140724693Y-47887500D01*
X140724693Y-50263500D01*
X140705008Y-50330539D01*
X140652204Y-50376294D01*
X140600693Y-50387500D01*
X140348693Y-50387500D01*
X140281654Y-50367815D01*
X140235899Y-50315011D01*
X140224693Y-50263500D01*
X140224693Y-47887500D01*
X139676848Y-47887500D01*
X139617320Y-47893901D01*
X139617313Y-47893903D01*
X139482606Y-47944145D01*
X139482599Y-47944149D01*
X139367505Y-48030309D01*
X139324271Y-48088062D01*
X139268337Y-48129932D01*
X139198645Y-48134916D01*
X139137322Y-48101430D01*
X139125739Y-48088062D01*
X139091757Y-48042669D01*
X139082239Y-48029954D01*
X139082237Y-48029953D01*
X139082237Y-48029952D01*
X138967028Y-47943706D01*
X138967021Y-47943702D01*
X138832175Y-47893408D01*
X138832176Y-47893408D01*
X138772576Y-47887001D01*
X138772574Y-47887000D01*
X138772566Y-47887000D01*
X138772557Y-47887000D01*
X137176822Y-47887000D01*
X137176816Y-47887001D01*
X137117209Y-47893408D01*
X136982364Y-47943702D01*
X136982357Y-47943706D01*
X136867148Y-48029952D01*
X136867145Y-48029955D01*
X136780899Y-48145164D01*
X136780895Y-48145171D01*
X136730601Y-48280017D01*
X136724194Y-48339616D01*
X136724193Y-48339635D01*
X136724193Y-51935370D01*
X136724194Y-51935383D01*
X136724449Y-51937750D01*
X136724350Y-51938295D01*
X136724372Y-51938696D01*
X136724277Y-51938701D01*
X136712041Y-52006509D01*
X136664428Y-52057644D01*
X136601159Y-52075000D01*
X136575000Y-52075000D01*
X136575000Y-54185000D01*
X136626000Y-54185000D01*
X136693039Y-54204685D01*
X136738794Y-54257489D01*
X136750000Y-54309000D01*
X136750000Y-59408205D01*
X136730315Y-59475244D01*
X136693040Y-59512520D01*
X136645831Y-59542859D01*
X136645824Y-59542864D01*
X136537061Y-59637108D01*
X136537058Y-59637110D01*
X136442911Y-59745762D01*
X136442896Y-59745783D01*
X136365102Y-59866833D01*
X136365089Y-59866856D01*
X136305183Y-59998033D01*
X136304743Y-59999758D01*
X136264821Y-60135717D01*
X136264818Y-60135727D01*
X136244358Y-60278038D01*
X136244358Y-60334397D01*
X136244353Y-60334414D01*
X136244353Y-60865556D01*
X136244358Y-60865603D01*
X136244358Y-60921962D01*
X136259771Y-61029160D01*
X136263558Y-61055499D01*
X136263558Y-61055502D01*
X136264819Y-61064276D01*
X136305367Y-61202368D01*
X136305372Y-61202381D01*
X136365089Y-61333143D01*
X136365102Y-61333166D01*
X136442894Y-61454213D01*
X136442901Y-61454223D01*
X136442903Y-61454226D01*
X136469214Y-61484591D01*
X136498238Y-61548144D01*
X136499500Y-61565791D01*
X136499500Y-62725268D01*
X136479815Y-62792307D01*
X136463182Y-62812949D01*
X136392951Y-62883181D01*
X136331628Y-62916666D01*
X136305269Y-62919500D01*
X135964298Y-62919500D01*
X135927432Y-62922401D01*
X135927426Y-62922402D01*
X135769606Y-62968254D01*
X135769603Y-62968255D01*
X135711306Y-63002732D01*
X135648185Y-63020000D01*
X134992500Y-63020000D01*
X134992500Y-63570000D01*
X135255500Y-63570000D01*
X135322539Y-63589685D01*
X135368294Y-63642489D01*
X135379500Y-63694000D01*
X135379500Y-63745500D01*
X135359815Y-63812539D01*
X135307011Y-63858294D01*
X135255500Y-63869500D01*
X134141317Y-63869500D01*
X134074278Y-63849815D01*
X134028523Y-63797011D01*
X134019183Y-63760961D01*
X134018804Y-63761031D01*
X134017853Y-63755826D01*
X134017699Y-63755230D01*
X134017665Y-63754796D01*
X134010052Y-63728595D01*
X134010252Y-63658726D01*
X134048194Y-63600056D01*
X134111832Y-63571212D01*
X134129129Y-63570000D01*
X134492500Y-63570000D01*
X134492500Y-61970000D01*
X134992500Y-61970000D01*
X134992500Y-62520000D01*
X135977295Y-62520000D01*
X135977295Y-62519998D01*
X135977100Y-62517513D01*
X135931281Y-62359801D01*
X135847685Y-62218447D01*
X135847678Y-62218438D01*
X135731561Y-62102321D01*
X135731552Y-62102314D01*
X135590196Y-62018717D01*
X135590193Y-62018716D01*
X135432495Y-61972900D01*
X135432489Y-61972899D01*
X135395649Y-61970000D01*
X134992500Y-61970000D01*
X134492500Y-61970000D01*
X134089350Y-61970000D01*
X134052510Y-61972899D01*
X134052504Y-61972900D01*
X133894806Y-62018716D01*
X133894796Y-62018720D01*
X133885585Y-62024168D01*
X133817861Y-62041348D01*
X133751599Y-62019186D01*
X133734787Y-62005115D01*
X133655391Y-61925719D01*
X133655387Y-61925716D01*
X133512295Y-61837455D01*
X133512289Y-61837452D01*
X133512287Y-61837451D01*
X133352685Y-61784564D01*
X133352683Y-61784563D01*
X133254181Y-61774500D01*
X133254174Y-61774500D01*
X132720826Y-61774500D01*
X132720818Y-61774500D01*
X132622316Y-61784563D01*
X132622315Y-61784564D01*
X132552387Y-61807736D01*
X132462715Y-61837450D01*
X132462704Y-61837455D01*
X132319612Y-61925716D01*
X132319607Y-61925719D01*
X132287327Y-61958000D01*
X132226003Y-61991485D01*
X132156312Y-61986499D01*
X132111967Y-61958000D01*
X132080080Y-61926114D01*
X131937077Y-61837908D01*
X131937072Y-61837906D01*
X131804715Y-61794047D01*
X131747270Y-61754274D01*
X131720447Y-61689758D01*
X131728940Y-61633585D01*
X131728261Y-61633388D01*
X131729739Y-61628296D01*
X131729923Y-61627084D01*
X131730438Y-61625895D01*
X131737729Y-61579853D01*
X131738908Y-61574162D01*
X131750500Y-61529019D01*
X131750500Y-61508982D01*
X131752027Y-61489582D01*
X131752818Y-61484588D01*
X131755160Y-61469804D01*
X131750775Y-61423415D01*
X131750500Y-61417577D01*
X131750500Y-58300000D01*
X135425001Y-58300000D01*
X135425001Y-58749986D01*
X135435494Y-58852697D01*
X135490641Y-59019119D01*
X135490643Y-59019124D01*
X135582684Y-59168345D01*
X135706654Y-59292315D01*
X135855875Y-59384356D01*
X135855880Y-59384358D01*
X136022302Y-59439505D01*
X136022309Y-59439506D01*
X136125019Y-59449999D01*
X136249999Y-59449999D01*
X136250000Y-59449998D01*
X136250000Y-58300000D01*
X135425001Y-58300000D01*
X131750500Y-58300000D01*
X131750500Y-57800000D01*
X135425000Y-57800000D01*
X136250000Y-57800000D01*
X136250000Y-55875000D01*
X135425001Y-55875000D01*
X135425001Y-56324986D01*
X135435494Y-56427697D01*
X135490641Y-56594119D01*
X135490643Y-56594124D01*
X135582684Y-56743345D01*
X135589158Y-56749819D01*
X135622643Y-56811142D01*
X135617659Y-56880834D01*
X135589158Y-56925181D01*
X135582684Y-56931654D01*
X135490643Y-57080875D01*
X135490641Y-57080880D01*
X135435494Y-57247302D01*
X135435493Y-57247309D01*
X135425000Y-57350013D01*
X135425000Y-57800000D01*
X131750500Y-57800000D01*
X131750500Y-55712335D01*
X131759936Y-55664890D01*
X131761436Y-55661268D01*
X131805273Y-55606862D01*
X131871566Y-55584792D01*
X131939266Y-55602067D01*
X131986880Y-55653201D01*
X132000000Y-55708713D01*
X132000000Y-56031048D01*
X132065869Y-56022378D01*
X132208782Y-55963182D01*
X132208786Y-55963180D01*
X132331509Y-55869010D01*
X132331510Y-55869009D01*
X132425680Y-55746286D01*
X132425683Y-55746280D01*
X132484877Y-55603371D01*
X132484879Y-55603366D01*
X132500000Y-55488511D01*
X132500000Y-54712500D01*
X131989873Y-54712500D01*
X131950858Y-54733804D01*
X131881166Y-54728820D01*
X131825233Y-54686948D01*
X131800816Y-54621484D01*
X131800500Y-54612638D01*
X131800500Y-54462362D01*
X131820185Y-54395323D01*
X131872989Y-54349568D01*
X131942147Y-54339624D01*
X131992239Y-54362500D01*
X132499999Y-54362500D01*
X132499999Y-53586486D01*
X132484881Y-53471640D01*
X132484877Y-53471628D01*
X132465563Y-53425000D01*
X135375001Y-53425000D01*
X135375001Y-53598322D01*
X135385144Y-53697607D01*
X135438452Y-53858481D01*
X135438457Y-53858492D01*
X135527424Y-54002728D01*
X135527427Y-54002732D01*
X135647266Y-54122571D01*
X135716709Y-54165404D01*
X135763433Y-54217352D01*
X135774656Y-54286315D01*
X135746812Y-54350397D01*
X135716712Y-54376479D01*
X135706664Y-54382677D01*
X135706655Y-54382683D01*
X135582684Y-54506654D01*
X135490643Y-54655875D01*
X135490641Y-54655880D01*
X135435494Y-54822302D01*
X135435493Y-54822309D01*
X135425000Y-54925013D01*
X135425000Y-55375000D01*
X136250000Y-55375000D01*
X136250000Y-54315000D01*
X136199000Y-54315000D01*
X136131961Y-54295315D01*
X136086206Y-54242511D01*
X136075000Y-54191000D01*
X136075000Y-53425000D01*
X135375001Y-53425000D01*
X132465563Y-53425000D01*
X132425683Y-53328719D01*
X132425680Y-53328713D01*
X132331510Y-53205990D01*
X132331509Y-53205989D01*
X132208786Y-53111819D01*
X132208780Y-53111816D01*
X132065868Y-53052621D01*
X132000000Y-53043948D01*
X132000000Y-53366285D01*
X131980315Y-53433324D01*
X131927511Y-53479079D01*
X131858353Y-53489023D01*
X131794797Y-53459998D01*
X131761439Y-53413738D01*
X131740529Y-53363256D01*
X131726117Y-53328463D01*
X131726116Y-53328462D01*
X131726116Y-53328461D01*
X131675623Y-53262657D01*
X131650429Y-53197488D01*
X131649999Y-53187171D01*
X131649999Y-53043950D01*
X131649997Y-53043949D01*
X131584134Y-53052619D01*
X131584132Y-53052620D01*
X131523102Y-53077899D01*
X131453632Y-53085366D01*
X131428200Y-53077899D01*
X131398593Y-53065635D01*
X131365999Y-53052135D01*
X131347603Y-53049713D01*
X131251047Y-53037000D01*
X131251040Y-53037000D01*
X130998960Y-53037000D01*
X130998952Y-53037000D01*
X130902397Y-53049713D01*
X130884001Y-53052135D01*
X130884000Y-53052135D01*
X130822451Y-53077629D01*
X130752981Y-53085096D01*
X130727549Y-53077629D01*
X130695372Y-53064301D01*
X130665999Y-53052135D01*
X130647603Y-53049713D01*
X130551047Y-53037000D01*
X130551040Y-53037000D01*
X130298960Y-53037000D01*
X130298952Y-53037000D01*
X130202397Y-53049713D01*
X130184001Y-53052135D01*
X130184000Y-53052135D01*
X130183997Y-53052136D01*
X130122449Y-53077629D01*
X130052980Y-53085096D01*
X130027548Y-53077629D01*
X130022187Y-53075408D01*
X129965999Y-53052135D01*
X129947603Y-53049713D01*
X129851047Y-53037000D01*
X129851040Y-53037000D01*
X129598960Y-53037000D01*
X129598952Y-53037000D01*
X129502397Y-53049713D01*
X129484001Y-53052135D01*
X129484000Y-53052135D01*
X129422451Y-53077629D01*
X129352981Y-53085096D01*
X129327549Y-53077629D01*
X129295372Y-53064301D01*
X129265999Y-53052135D01*
X129247603Y-53049713D01*
X129151047Y-53037000D01*
X129151040Y-53037000D01*
X128898960Y-53037000D01*
X128898952Y-53037000D01*
X128802397Y-53049713D01*
X128784001Y-53052135D01*
X128784000Y-53052135D01*
X128722451Y-53077629D01*
X128652981Y-53085096D01*
X128627549Y-53077629D01*
X128595372Y-53064301D01*
X128565999Y-53052135D01*
X128547603Y-53049713D01*
X128451047Y-53037000D01*
X128451040Y-53037000D01*
X128198960Y-53037000D01*
X128198952Y-53037000D01*
X128084002Y-53052134D01*
X128021798Y-53077900D01*
X127952329Y-53085367D01*
X127926894Y-53077899D01*
X127865867Y-53052621D01*
X127800000Y-53043948D01*
X127800000Y-53187172D01*
X127780315Y-53254211D01*
X127774376Y-53262658D01*
X127723883Y-53328461D01*
X127688561Y-53413738D01*
X127644720Y-53468141D01*
X127578426Y-53490206D01*
X127510726Y-53472927D01*
X127463116Y-53421790D01*
X127450000Y-53366285D01*
X127450000Y-53043950D01*
X127449998Y-53043949D01*
X127384135Y-53052619D01*
X127384129Y-53052621D01*
X127322451Y-53078169D01*
X127252982Y-53085638D01*
X127227547Y-53078169D01*
X127179397Y-53058225D01*
X127124993Y-53014385D01*
X127103529Y-52956627D01*
X127100205Y-52925000D01*
X135375000Y-52925000D01*
X136075000Y-52925000D01*
X136075000Y-52074999D01*
X136051693Y-52075000D01*
X136051674Y-52075001D01*
X135952392Y-52085144D01*
X135791518Y-52138452D01*
X135791507Y-52138457D01*
X135647271Y-52227424D01*
X135647267Y-52227427D01*
X135527427Y-52347267D01*
X135527424Y-52347271D01*
X135438457Y-52491507D01*
X135438452Y-52491518D01*
X135385144Y-52652393D01*
X135375000Y-52751677D01*
X135375000Y-52925000D01*
X127100205Y-52925000D01*
X127085674Y-52786744D01*
X127027179Y-52606716D01*
X126932533Y-52442784D01*
X126805871Y-52302112D01*
X126734145Y-52250000D01*
X126652734Y-52190851D01*
X126652729Y-52190848D01*
X126479807Y-52113857D01*
X126479802Y-52113855D01*
X126320611Y-52080019D01*
X126294646Y-52074500D01*
X126105354Y-52074500D01*
X126079389Y-52080019D01*
X125920197Y-52113855D01*
X125920192Y-52113857D01*
X125747270Y-52190848D01*
X125747265Y-52190851D01*
X125594129Y-52302111D01*
X125467466Y-52442785D01*
X125372821Y-52606715D01*
X125372818Y-52606722D01*
X125314327Y-52786740D01*
X125314326Y-52786744D01*
X125307779Y-52849035D01*
X125294594Y-52974486D01*
X125268009Y-53039100D01*
X125210712Y-53079085D01*
X125140893Y-53081745D01*
X125123821Y-53076085D01*
X125066002Y-53052136D01*
X125066000Y-53052135D01*
X125065999Y-53052135D01*
X125040452Y-53048771D01*
X124951047Y-53037000D01*
X124951040Y-53037000D01*
X124698960Y-53037000D01*
X124698952Y-53037000D01*
X124584002Y-53052134D01*
X124521798Y-53077900D01*
X124452329Y-53085367D01*
X124426894Y-53077899D01*
X124365867Y-53052621D01*
X124300000Y-53043948D01*
X124300000Y-53187172D01*
X124280315Y-53254211D01*
X124274376Y-53262658D01*
X124223883Y-53328461D01*
X124188561Y-53413738D01*
X124144720Y-53468141D01*
X124078426Y-53490206D01*
X124010726Y-53472927D01*
X123963116Y-53421790D01*
X123950000Y-53366285D01*
X123950000Y-53043950D01*
X123949998Y-53043949D01*
X123884140Y-53052618D01*
X123884128Y-53052622D01*
X123741219Y-53111816D01*
X123741213Y-53111819D01*
X123618490Y-53205989D01*
X123618489Y-53205990D01*
X123524319Y-53328713D01*
X123524316Y-53328719D01*
X123465122Y-53471628D01*
X123465120Y-53471633D01*
X123450000Y-53586488D01*
X123450000Y-54362500D01*
X123960126Y-54362500D01*
X123999138Y-54341196D01*
X124068830Y-54346179D01*
X124124765Y-54388050D01*
X124149183Y-54453513D01*
X124149499Y-54462361D01*
X124149500Y-54588499D01*
X124129816Y-54655539D01*
X124077012Y-54701294D01*
X124025500Y-54712500D01*
X123450001Y-54712500D01*
X123450001Y-55488513D01*
X123465118Y-55603359D01*
X123465122Y-55603371D01*
X123498441Y-55683812D01*
X123505910Y-55753282D01*
X123474634Y-55815761D01*
X123418476Y-55850340D01*
X123339604Y-55873254D01*
X123339603Y-55873255D01*
X123198137Y-55956917D01*
X123198129Y-55956923D01*
X123081923Y-56073129D01*
X123081917Y-56073137D01*
X122998255Y-56214603D01*
X122998254Y-56214606D01*
X122952402Y-56372426D01*
X122952401Y-56372432D01*
X122949500Y-56409298D01*
X122949500Y-57575500D01*
X122929815Y-57642539D01*
X122877011Y-57688294D01*
X122825500Y-57699500D01*
X122584298Y-57699500D01*
X122547432Y-57702401D01*
X122547426Y-57702402D01*
X122389606Y-57748254D01*
X122389603Y-57748255D01*
X122248137Y-57831917D01*
X122248129Y-57831923D01*
X122131923Y-57948129D01*
X122131917Y-57948137D01*
X122048255Y-58089603D01*
X122048254Y-58089606D01*
X122002402Y-58247426D01*
X122002401Y-58247432D01*
X121999500Y-58284298D01*
X121999500Y-58802046D01*
X121979815Y-58869085D01*
X121963181Y-58889727D01*
X120925318Y-59927591D01*
X120863995Y-59961076D01*
X120837637Y-59963910D01*
X120769764Y-59963910D01*
X120737307Y-59970808D01*
X120584607Y-60003265D01*
X120584602Y-60003267D01*
X120411680Y-60080258D01*
X120411675Y-60080261D01*
X120258539Y-60191521D01*
X120131876Y-60332195D01*
X120037231Y-60496125D01*
X120037228Y-60496132D01*
X119978737Y-60676150D01*
X119978736Y-60676154D01*
X119959377Y-60860346D01*
X119959050Y-60863461D01*
X119932465Y-60928076D01*
X119875168Y-60968061D01*
X119835729Y-60974500D01*
X113342717Y-60974500D01*
X113275678Y-60954815D01*
X113229923Y-60902011D01*
X113219979Y-60832853D01*
X113243450Y-60776189D01*
X113246039Y-60772729D01*
X113268796Y-60742331D01*
X113319091Y-60607483D01*
X113325500Y-60547873D01*
X113325499Y-59452128D01*
X113319091Y-59392517D01*
X113316217Y-59384812D01*
X113268797Y-59257671D01*
X113268793Y-59257664D01*
X113212364Y-59182286D01*
X113182546Y-59142454D01*
X113124854Y-59099265D01*
X113082984Y-59043333D01*
X113078000Y-58973641D01*
X113111485Y-58912318D01*
X113124850Y-58900736D01*
X113182546Y-58857546D01*
X113268796Y-58742331D01*
X113319091Y-58607483D01*
X113325500Y-58547873D01*
X113325499Y-57965000D01*
X115629341Y-57965000D01*
X115649936Y-58200403D01*
X115649938Y-58200413D01*
X115711094Y-58428655D01*
X115711096Y-58428659D01*
X115711097Y-58428663D01*
X115793557Y-58605499D01*
X115810965Y-58642830D01*
X115810967Y-58642834D01*
X115911175Y-58785945D01*
X115946505Y-58836401D01*
X116113599Y-59003495D01*
X116158593Y-59035000D01*
X116307165Y-59139032D01*
X116307167Y-59139033D01*
X116307170Y-59139035D01*
X116521337Y-59238903D01*
X116521343Y-59238904D01*
X116521344Y-59238905D01*
X116576285Y-59253626D01*
X116749592Y-59300063D01*
X116937918Y-59316539D01*
X116984999Y-59320659D01*
X116985000Y-59320659D01*
X116985001Y-59320659D01*
X117024234Y-59317226D01*
X117220408Y-59300063D01*
X117448663Y-59238903D01*
X117662830Y-59139035D01*
X117856401Y-59003495D01*
X118023495Y-58836401D01*
X118153730Y-58650405D01*
X118208307Y-58606781D01*
X118277805Y-58599587D01*
X118340160Y-58631110D01*
X118356879Y-58650405D01*
X118486890Y-58836078D01*
X118653917Y-59003105D01*
X118847421Y-59138600D01*
X119061507Y-59238429D01*
X119061516Y-59238433D01*
X119274998Y-59295635D01*
X119274999Y-59295634D01*
X119274999Y-58400501D01*
X119382685Y-58449680D01*
X119489237Y-58465000D01*
X119560763Y-58465000D01*
X119667315Y-58449680D01*
X119775000Y-58400501D01*
X119775000Y-59295634D01*
X119988483Y-59238433D01*
X119988492Y-59238429D01*
X120202578Y-59138600D01*
X120396082Y-59003105D01*
X120563105Y-58836082D01*
X120698600Y-58642578D01*
X120798429Y-58428492D01*
X120798432Y-58428486D01*
X120855636Y-58215000D01*
X119958686Y-58215000D01*
X119984493Y-58174844D01*
X120025000Y-58036889D01*
X120025000Y-57893111D01*
X119984493Y-57755156D01*
X119958686Y-57715000D01*
X120855636Y-57715000D01*
X120855635Y-57714999D01*
X120798432Y-57501513D01*
X120798429Y-57501507D01*
X120698600Y-57287422D01*
X120698599Y-57287420D01*
X120563113Y-57093926D01*
X120563108Y-57093920D01*
X120396078Y-56926890D01*
X120210405Y-56796879D01*
X120166780Y-56742302D01*
X120159588Y-56672804D01*
X120191110Y-56610449D01*
X120210406Y-56593730D01*
X120223908Y-56584276D01*
X120396401Y-56463495D01*
X120563495Y-56296401D01*
X120699035Y-56102830D01*
X120798903Y-55888663D01*
X120860063Y-55660408D01*
X120880659Y-55425000D01*
X120860063Y-55189592D01*
X120798903Y-54961337D01*
X120699035Y-54747171D01*
X120689676Y-54733804D01*
X120563494Y-54553597D01*
X120396402Y-54386506D01*
X120396395Y-54386501D01*
X120390942Y-54382683D01*
X120357521Y-54359281D01*
X120202834Y-54250967D01*
X120202830Y-54250965D01*
X120184700Y-54242511D01*
X119988663Y-54151097D01*
X119988659Y-54151096D01*
X119988655Y-54151094D01*
X119760413Y-54089938D01*
X119760403Y-54089936D01*
X119525001Y-54069341D01*
X119524999Y-54069341D01*
X119289596Y-54089936D01*
X119289586Y-54089938D01*
X119061344Y-54151094D01*
X119061335Y-54151098D01*
X118847171Y-54250964D01*
X118847169Y-54250965D01*
X118653600Y-54386503D01*
X118531673Y-54508430D01*
X118470350Y-54541914D01*
X118400658Y-54536930D01*
X118344725Y-54495058D01*
X118327810Y-54464081D01*
X118278797Y-54332671D01*
X118278793Y-54332664D01*
X118192547Y-54217455D01*
X118192544Y-54217452D01*
X118077335Y-54131206D01*
X118077328Y-54131202D01*
X117942482Y-54080908D01*
X117942483Y-54080908D01*
X117882883Y-54074501D01*
X117882881Y-54074500D01*
X117882873Y-54074500D01*
X117882864Y-54074500D01*
X116087129Y-54074500D01*
X116087123Y-54074501D01*
X116027516Y-54080908D01*
X115892671Y-54131202D01*
X115892664Y-54131206D01*
X115777455Y-54217452D01*
X115777452Y-54217455D01*
X115691206Y-54332664D01*
X115691202Y-54332671D01*
X115640908Y-54467517D01*
X115634501Y-54527116D01*
X115634500Y-54527135D01*
X115634500Y-56322870D01*
X115634501Y-56322876D01*
X115640908Y-56382483D01*
X115691202Y-56517328D01*
X115691206Y-56517335D01*
X115777452Y-56632544D01*
X115777455Y-56632547D01*
X115892664Y-56718793D01*
X115892671Y-56718797D01*
X116024081Y-56767810D01*
X116080015Y-56809681D01*
X116104432Y-56875145D01*
X116089580Y-56943418D01*
X116068430Y-56971673D01*
X115946503Y-57093600D01*
X115810965Y-57287169D01*
X115810964Y-57287171D01*
X115711098Y-57501335D01*
X115711094Y-57501344D01*
X115649938Y-57729586D01*
X115649936Y-57729596D01*
X115629341Y-57964999D01*
X115629341Y-57965000D01*
X113325499Y-57965000D01*
X113325499Y-57452128D01*
X113319091Y-57392517D01*
X113313345Y-57377112D01*
X113268797Y-57257671D01*
X113268793Y-57257664D01*
X113182547Y-57142455D01*
X113124437Y-57098953D01*
X113082567Y-57043019D01*
X113077583Y-56973327D01*
X113111069Y-56912004D01*
X113124439Y-56900420D01*
X113182189Y-56857188D01*
X113182190Y-56857187D01*
X113268350Y-56742093D01*
X113268354Y-56742086D01*
X113318596Y-56607379D01*
X113318598Y-56607372D01*
X113324999Y-56547844D01*
X113325000Y-56547827D01*
X113325000Y-56250000D01*
X110699000Y-56250000D01*
X110631961Y-56230315D01*
X110586206Y-56177511D01*
X110575000Y-56126000D01*
X110575000Y-55000000D01*
X111075000Y-55000000D01*
X111075000Y-55750000D01*
X113325000Y-55750000D01*
X113325000Y-55452172D01*
X113324999Y-55452155D01*
X113318598Y-55392627D01*
X113318596Y-55392620D01*
X113268354Y-55257913D01*
X113268350Y-55257906D01*
X113182190Y-55142812D01*
X113182187Y-55142809D01*
X113067093Y-55056649D01*
X113067086Y-55056645D01*
X112932379Y-55006403D01*
X112932372Y-55006401D01*
X112872844Y-55000000D01*
X111075000Y-55000000D01*
X110575000Y-55000000D01*
X108777155Y-55000000D01*
X108717627Y-55006401D01*
X108717620Y-55006403D01*
X108582913Y-55056645D01*
X108582910Y-55056647D01*
X108523958Y-55100779D01*
X108458493Y-55125196D01*
X108390220Y-55110344D01*
X108340815Y-55060939D01*
X108325649Y-55002229D01*
X108325636Y-55000098D01*
X108325638Y-55000096D01*
X108307866Y-51924894D01*
X108327163Y-51857744D01*
X108379702Y-51811685D01*
X108448801Y-51801342D01*
X108512524Y-51829999D01*
X108547057Y-51878283D01*
X108600597Y-52012658D01*
X108600606Y-52012677D01*
X108768218Y-52328827D01*
X108969033Y-52625007D01*
X109096441Y-52775003D01*
X109096442Y-52775004D01*
X110302266Y-51569179D01*
X110465130Y-51759870D01*
X110655818Y-51922732D01*
X109447255Y-53131295D01*
X109447256Y-53131296D01*
X109460485Y-53143828D01*
X109460486Y-53143829D01*
X109745367Y-53360388D01*
X109745370Y-53360390D01*
X110051990Y-53544876D01*
X110376739Y-53695122D01*
X110376744Y-53695123D01*
X110715855Y-53809383D01*
X111065339Y-53886311D01*
X111421075Y-53924999D01*
X111421085Y-53925000D01*
X111778915Y-53925000D01*
X111778924Y-53924999D01*
X112134660Y-53886311D01*
X112484144Y-53809383D01*
X112823255Y-53695123D01*
X112823260Y-53695122D01*
X113148009Y-53544876D01*
X113454629Y-53360390D01*
X113454632Y-53360388D01*
X113739504Y-53143836D01*
X113752742Y-53131294D01*
X112544180Y-51922733D01*
X112734870Y-51759870D01*
X112897733Y-51569180D01*
X114103556Y-52775003D01*
X114230964Y-52625008D01*
X114230975Y-52624994D01*
X114431781Y-52328827D01*
X114599393Y-52012677D01*
X114599402Y-52012659D01*
X114731850Y-51680239D01*
X114731852Y-51680232D01*
X114733305Y-51675000D01*
X115629341Y-51675000D01*
X115649936Y-51910403D01*
X115649938Y-51910413D01*
X115711094Y-52138655D01*
X115711096Y-52138659D01*
X115711097Y-52138663D01*
X115794155Y-52316781D01*
X115810965Y-52352830D01*
X115810967Y-52352834D01*
X115873952Y-52442785D01*
X115946505Y-52546401D01*
X116113599Y-52713495D01*
X116201443Y-52775004D01*
X116307165Y-52849032D01*
X116307167Y-52849033D01*
X116307170Y-52849035D01*
X116521337Y-52948903D01*
X116749592Y-53010063D01*
X116937918Y-53026539D01*
X116984999Y-53030659D01*
X116985000Y-53030659D01*
X116985001Y-53030659D01*
X117024234Y-53027226D01*
X117220408Y-53010063D01*
X117448663Y-52948903D01*
X117662830Y-52849035D01*
X117856401Y-52713495D01*
X118023495Y-52546401D01*
X118153730Y-52360405D01*
X118208307Y-52316781D01*
X118277805Y-52309587D01*
X118340160Y-52341110D01*
X118356879Y-52360405D01*
X118486890Y-52546078D01*
X118653917Y-52713105D01*
X118847421Y-52848600D01*
X119061507Y-52948429D01*
X119061516Y-52948433D01*
X119274998Y-53005635D01*
X119274999Y-53005634D01*
X119274999Y-52110501D01*
X119382685Y-52159680D01*
X119489237Y-52175000D01*
X119560763Y-52175000D01*
X119667315Y-52159680D01*
X119775000Y-52110501D01*
X119775000Y-53005634D01*
X119988483Y-52948433D01*
X119988492Y-52948429D01*
X120202578Y-52848600D01*
X120396082Y-52713105D01*
X120563105Y-52546082D01*
X120698600Y-52352578D01*
X120798429Y-52138492D01*
X120798432Y-52138486D01*
X120855636Y-51925000D01*
X119958686Y-51925000D01*
X119984493Y-51884844D01*
X120025000Y-51746889D01*
X120025000Y-51603111D01*
X119984493Y-51465156D01*
X119958686Y-51425000D01*
X120855636Y-51425000D01*
X120855635Y-51424999D01*
X120798432Y-51211513D01*
X120798429Y-51211507D01*
X120698600Y-50997422D01*
X120698599Y-50997420D01*
X120563113Y-50803926D01*
X120563108Y-50803920D01*
X120396078Y-50636890D01*
X120210405Y-50506879D01*
X120166780Y-50452302D01*
X120159588Y-50382804D01*
X120191110Y-50320449D01*
X120210406Y-50303730D01*
X120396401Y-50173495D01*
X120563495Y-50006401D01*
X120699035Y-49812830D01*
X120798903Y-49598663D01*
X120860063Y-49370408D01*
X120880659Y-49135000D01*
X120860063Y-48899592D01*
X120798903Y-48671337D01*
X120699035Y-48457171D01*
X120689669Y-48443794D01*
X120563494Y-48263597D01*
X120396402Y-48096506D01*
X120396395Y-48096501D01*
X120376732Y-48082733D01*
X120319518Y-48042671D01*
X120202834Y-47960967D01*
X120202830Y-47960965D01*
X120158188Y-47940148D01*
X119988663Y-47861097D01*
X119988659Y-47861096D01*
X119988655Y-47861094D01*
X119760413Y-47799938D01*
X119760403Y-47799936D01*
X119525001Y-47779341D01*
X119524999Y-47779341D01*
X119289596Y-47799936D01*
X119289586Y-47799938D01*
X119061344Y-47861094D01*
X119061335Y-47861098D01*
X118847171Y-47960964D01*
X118847169Y-47960965D01*
X118653600Y-48096503D01*
X118531673Y-48218430D01*
X118470350Y-48251914D01*
X118400658Y-48246930D01*
X118344725Y-48205058D01*
X118327810Y-48174081D01*
X118278797Y-48042671D01*
X118278793Y-48042664D01*
X118192547Y-47927455D01*
X118192544Y-47927452D01*
X118077335Y-47841206D01*
X118077328Y-47841202D01*
X117942482Y-47790908D01*
X117942483Y-47790908D01*
X117882883Y-47784501D01*
X117882881Y-47784500D01*
X117882873Y-47784500D01*
X117882864Y-47784500D01*
X116087129Y-47784500D01*
X116087123Y-47784501D01*
X116027516Y-47790908D01*
X115892671Y-47841202D01*
X115892664Y-47841206D01*
X115777455Y-47927452D01*
X115777452Y-47927455D01*
X115691206Y-48042664D01*
X115691202Y-48042671D01*
X115640908Y-48177517D01*
X115634501Y-48237116D01*
X115634500Y-48237135D01*
X115634500Y-50032870D01*
X115634501Y-50032876D01*
X115640908Y-50092483D01*
X115691202Y-50227328D01*
X115691206Y-50227335D01*
X115777452Y-50342544D01*
X115777455Y-50342547D01*
X115892664Y-50428793D01*
X115892671Y-50428797D01*
X116024081Y-50477810D01*
X116080015Y-50519681D01*
X116104432Y-50585145D01*
X116089580Y-50653418D01*
X116068430Y-50681673D01*
X115946503Y-50803600D01*
X115810965Y-50997169D01*
X115810964Y-50997171D01*
X115711098Y-51211335D01*
X115711094Y-51211344D01*
X115649938Y-51439586D01*
X115649936Y-51439596D01*
X115629341Y-51674999D01*
X115629341Y-51675000D01*
X114733305Y-51675000D01*
X114827578Y-51335457D01*
X114827584Y-51335431D01*
X114885472Y-50982331D01*
X114885473Y-50982314D01*
X114904847Y-50625002D01*
X114904847Y-50624997D01*
X114885473Y-50267685D01*
X114885472Y-50267668D01*
X114827584Y-49914568D01*
X114827578Y-49914542D01*
X114731852Y-49569767D01*
X114731850Y-49569760D01*
X114599402Y-49237340D01*
X114599393Y-49237322D01*
X114431781Y-48921172D01*
X114230966Y-48624992D01*
X114103557Y-48474995D01*
X114103556Y-48474994D01*
X112897732Y-49680818D01*
X112734870Y-49490130D01*
X112544179Y-49327266D01*
X113752743Y-48118703D01*
X113752742Y-48118702D01*
X113739514Y-48106171D01*
X113739513Y-48106170D01*
X113454632Y-47889611D01*
X113454629Y-47889609D01*
X113148012Y-47705125D01*
X112899229Y-47590025D01*
X112846652Y-47544011D01*
X112827298Y-47476875D01*
X112847312Y-47409933D01*
X112900341Y-47364439D01*
X112951570Y-47353486D01*
X143505170Y-47421888D01*
G37*
%TD.AperFunction*%
%TA.AperFunction,Conductor*%
G36*
X123837004Y-59398700D02*
G01*
X123885685Y-59448819D01*
X123900000Y-59506656D01*
X123900000Y-59590649D01*
X123902899Y-59627489D01*
X123902900Y-59627495D01*
X123948716Y-59785193D01*
X123948717Y-59785196D01*
X124032314Y-59926552D01*
X124032321Y-59926561D01*
X124118579Y-60012819D01*
X124152064Y-60074142D01*
X124147080Y-60143834D01*
X124105208Y-60199767D01*
X124039744Y-60224184D01*
X124030898Y-60224500D01*
X123469809Y-60224500D01*
X123402770Y-60204815D01*
X123357015Y-60152011D01*
X123347071Y-60082853D01*
X123376096Y-60019297D01*
X123382128Y-60012819D01*
X123468076Y-59926870D01*
X123468081Y-59926865D01*
X123551744Y-59785398D01*
X123597598Y-59627569D01*
X123600500Y-59590694D01*
X123600500Y-59547897D01*
X123620185Y-59480858D01*
X123661378Y-59441165D01*
X123670671Y-59435670D01*
X123684840Y-59421499D01*
X123699646Y-59408857D01*
X123703141Y-59406318D01*
X123768955Y-59382856D01*
X123837004Y-59398700D01*
G37*
%TD.AperFunction*%
%TA.AperFunction,Conductor*%
G36*
X147453556Y-52800003D02*
G01*
X147580964Y-52650008D01*
X147580975Y-52649994D01*
X147781781Y-52353827D01*
X147949393Y-52037677D01*
X147949402Y-52037659D01*
X148043551Y-51801363D01*
X148086651Y-51746371D01*
X148152640Y-51723410D01*
X148220567Y-51739771D01*
X148268866Y-51790259D01*
X148282733Y-51845624D01*
X148292778Y-52606722D01*
X148324361Y-54999901D01*
X148324363Y-55000013D01*
X148324363Y-55010458D01*
X148304678Y-55077497D01*
X148251874Y-55123252D01*
X148182716Y-55133196D01*
X148126052Y-55109725D01*
X148058889Y-55059447D01*
X148058886Y-55059445D01*
X147924179Y-55009203D01*
X147924172Y-55009201D01*
X147864644Y-55002800D01*
X146066800Y-55002800D01*
X146066800Y-56128800D01*
X146047115Y-56195839D01*
X145994311Y-56241594D01*
X145942800Y-56252800D01*
X143316800Y-56252800D01*
X143316800Y-56461538D01*
X143297115Y-56528577D01*
X143244311Y-56574332D01*
X143175153Y-56584276D01*
X143111597Y-56555251D01*
X143079525Y-56511983D01*
X143077182Y-56506721D01*
X143052224Y-56463493D01*
X142982533Y-56342784D01*
X142855871Y-56202112D01*
X142847237Y-56195839D01*
X142702734Y-56090851D01*
X142702729Y-56090848D01*
X142529807Y-56013857D01*
X142529802Y-56013855D01*
X142384001Y-55982865D01*
X142344646Y-55974500D01*
X142155354Y-55974500D01*
X142122897Y-55981398D01*
X141970197Y-56013855D01*
X141970192Y-56013857D01*
X141797271Y-56090848D01*
X141756178Y-56120703D01*
X141690371Y-56144181D01*
X141648700Y-56139459D01*
X141520997Y-56102357D01*
X141520991Y-56102356D01*
X141484697Y-56099500D01*
X141484690Y-56099500D01*
X141124000Y-56099500D01*
X141056961Y-56079815D01*
X141011206Y-56027011D01*
X141000000Y-55975500D01*
X141000000Y-55752800D01*
X143316800Y-55752800D01*
X145566800Y-55752800D01*
X145566800Y-55002800D01*
X143768955Y-55002800D01*
X143709427Y-55009201D01*
X143709420Y-55009203D01*
X143574713Y-55059445D01*
X143574706Y-55059449D01*
X143459612Y-55145609D01*
X143459609Y-55145612D01*
X143373449Y-55260706D01*
X143373445Y-55260713D01*
X143323203Y-55395420D01*
X143323201Y-55395427D01*
X143316800Y-55454955D01*
X143316800Y-55752800D01*
X141000000Y-55752800D01*
X141000000Y-55141210D01*
X140999999Y-55141209D01*
X141500000Y-55141209D01*
X141500000Y-55670000D01*
X142054504Y-55670000D01*
X142012031Y-55523804D01*
X141929721Y-55384625D01*
X141929714Y-55384616D01*
X141815383Y-55270285D01*
X141815374Y-55270278D01*
X141676195Y-55187968D01*
X141676190Y-55187966D01*
X141520918Y-55142855D01*
X141520912Y-55142854D01*
X141500000Y-55141209D01*
X140999999Y-55141209D01*
X140979087Y-55142854D01*
X140979081Y-55142855D01*
X140823809Y-55187966D01*
X140823803Y-55187968D01*
X140712620Y-55253722D01*
X140644896Y-55270905D01*
X140578633Y-55248745D01*
X140534870Y-55194278D01*
X140525499Y-55146990D01*
X140525499Y-54924998D01*
X140525498Y-54924981D01*
X140514999Y-54822203D01*
X140514998Y-54822200D01*
X140503949Y-54788856D01*
X140459814Y-54655666D01*
X140433274Y-54612638D01*
X140393961Y-54548900D01*
X140375500Y-54483804D01*
X140375500Y-54101874D01*
X140395185Y-54034835D01*
X140411819Y-54014193D01*
X140415968Y-54010044D01*
X140422968Y-54003044D01*
X140512003Y-53858697D01*
X140565349Y-53697708D01*
X140575500Y-53598345D01*
X140575499Y-52751656D01*
X140571041Y-52708018D01*
X140565349Y-52652292D01*
X140565348Y-52652289D01*
X140550246Y-52606715D01*
X140531619Y-52550503D01*
X140529218Y-52480676D01*
X140564950Y-52420634D01*
X140627470Y-52389441D01*
X140649326Y-52387500D01*
X141272521Y-52387500D01*
X141272537Y-52387499D01*
X141332065Y-52381098D01*
X141332072Y-52381096D01*
X141466779Y-52330854D01*
X141466786Y-52330850D01*
X141581880Y-52244690D01*
X141581883Y-52244687D01*
X141668043Y-52129593D01*
X141668048Y-52129584D01*
X141710005Y-52017091D01*
X141751876Y-51961157D01*
X141817340Y-51936739D01*
X141885613Y-51951590D01*
X141935019Y-52000995D01*
X141941379Y-52014524D01*
X141950595Y-52037655D01*
X141950606Y-52037677D01*
X142118218Y-52353827D01*
X142319033Y-52650007D01*
X142446441Y-52800003D01*
X142446442Y-52800004D01*
X143652266Y-51594180D01*
X143815130Y-51784870D01*
X144005818Y-51947732D01*
X142797255Y-53156295D01*
X142797256Y-53156296D01*
X142810485Y-53168828D01*
X142810486Y-53168829D01*
X143095367Y-53385388D01*
X143095370Y-53385390D01*
X143401990Y-53569876D01*
X143726739Y-53720122D01*
X143726744Y-53720123D01*
X144065855Y-53834383D01*
X144415339Y-53911311D01*
X144771075Y-53949999D01*
X144771085Y-53950000D01*
X145128915Y-53950000D01*
X145128924Y-53949999D01*
X145484660Y-53911311D01*
X145834144Y-53834383D01*
X146173255Y-53720123D01*
X146173260Y-53720122D01*
X146498009Y-53569876D01*
X146804629Y-53385390D01*
X146804632Y-53385388D01*
X147089504Y-53168836D01*
X147102742Y-53156294D01*
X145894180Y-51947733D01*
X146084870Y-51784870D01*
X146247733Y-51594180D01*
X147453556Y-52800003D01*
G37*
%TD.AperFunction*%
%TA.AperFunction,Conductor*%
G36*
X127568834Y-54346180D02*
G01*
X127624767Y-54388052D01*
X127649184Y-54453516D01*
X127649500Y-54462362D01*
X127649500Y-54588500D01*
X127629815Y-54655539D01*
X127577011Y-54701294D01*
X127525500Y-54712500D01*
X127024500Y-54712500D01*
X126957461Y-54692815D01*
X126911706Y-54640011D01*
X126900500Y-54588500D01*
X126900500Y-54486500D01*
X126920185Y-54419461D01*
X126972989Y-54373706D01*
X127024500Y-54362500D01*
X127460127Y-54362500D01*
X127499142Y-54341196D01*
X127568834Y-54346180D01*
G37*
%TD.AperFunction*%
%TD*%
M02*
