%TF.GenerationSoftware,KiCad,Pcbnew,7.0.5-0*%
%TF.CreationDate,2023-07-12T10:20:26-04:00*%
%TF.ProjectId,stm32g431-mt6701-stspin233,73746d33-3267-4343-9331-2d6d74363730,rev?*%
%TF.SameCoordinates,Original*%
%TF.FileFunction,Soldermask,Bot*%
%TF.FilePolarity,Negative*%
%FSLAX46Y46*%
G04 Gerber Fmt 4.6, Leading zero omitted, Abs format (unit mm)*
G04 Created by KiCad (PCBNEW 7.0.5-0) date 2023-07-12 10:20:26*
%MOMM*%
%LPD*%
G01*
G04 APERTURE LIST*
G04 Aperture macros list*
%AMRotRect*
0 Rectangle, with rotation*
0 The origin of the aperture is its center*
0 $1 length*
0 $2 width*
0 $3 Rotation angle, in degrees counterclockwise*
0 Add horizontal line*
21,1,$1,$2,0,0,$3*%
G04 Aperture macros list end*
%ADD10C,0.150000*%
%ADD11C,5.600000*%
%ADD12R,1.000000X1.000000*%
%ADD13O,1.000000X1.000000*%
%ADD14C,0.650000*%
%ADD15O,2.100000X1.000000*%
%ADD16O,1.600000X1.000000*%
%ADD17R,4.000000X1.000000*%
%ADD18R,1.700000X1.700000*%
%ADD19O,1.700000X1.700000*%
%ADD20RotRect,0.400000X1.500000X45.000000*%
%ADD21RotRect,2.000000X3.000000X45.000000*%
%ADD22RotRect,0.400000X1.500000X225.000000*%
%ADD23RotRect,2.000000X3.000000X225.000000*%
G04 APERTURE END LIST*
D10*
X146800000Y-55350000D02*
X150525000Y-55350000D01*
X150525000Y-64700000D01*
X146800000Y-64700000D01*
X146800000Y-55350000D01*
G36*
X146800000Y-55350000D02*
G01*
X150525000Y-55350000D01*
X150525000Y-64700000D01*
X146800000Y-64700000D01*
X146800000Y-55350000D01*
G37*
X106050000Y-55375000D02*
X109800000Y-55375000D01*
X109800000Y-64725000D01*
X106050000Y-64725000D01*
X106050000Y-55375000D01*
G36*
X106050000Y-55375000D02*
G01*
X109800000Y-55375000D01*
X109800000Y-64725000D01*
X106050000Y-64725000D01*
X106050000Y-55375000D01*
G37*
%TO.C,kibuzzard-649DBE26*%
G36*
X135415556Y-49999588D02*
G01*
X135466356Y-50089281D01*
X135266331Y-50089281D01*
X135206006Y-50038481D01*
X135233788Y-49979744D01*
X135313163Y-49957519D01*
X135415556Y-49999588D01*
G37*
G36*
X128346419Y-49999588D02*
G01*
X128397219Y-50089281D01*
X128197194Y-50089281D01*
X128136869Y-50038481D01*
X128164650Y-49979744D01*
X128244025Y-49957519D01*
X128346419Y-49999588D01*
G37*
G36*
X137103863Y-50046419D02*
G01*
X137142756Y-50143256D01*
X137101481Y-50237713D01*
X137001469Y-50279781D01*
X136903838Y-50236919D01*
X136864944Y-50142463D01*
X136902250Y-50046419D01*
X137002263Y-50001969D01*
X137103863Y-50046419D01*
G37*
G36*
X132045294Y-50047213D02*
G01*
X132083394Y-50143256D01*
X132042119Y-50238506D01*
X131942106Y-50281369D01*
X131844475Y-50238506D01*
X131805581Y-50144050D01*
X131842887Y-50048006D01*
X131943694Y-50003556D01*
X132045294Y-50047213D01*
G37*
G36*
X131103112Y-50046419D02*
G01*
X131142006Y-50143256D01*
X131100731Y-50237713D01*
X131000719Y-50279781D01*
X130903087Y-50236919D01*
X130864194Y-50142463D01*
X130901500Y-50046419D01*
X131001512Y-50001969D01*
X131103112Y-50046419D01*
G37*
G36*
X133716931Y-50024194D02*
G01*
X133753841Y-50073208D01*
X133766144Y-50140875D01*
X133753444Y-50208344D01*
X133715344Y-50256763D01*
X133612156Y-50295656D01*
X133507381Y-50255969D01*
X133468091Y-50206756D01*
X133454994Y-50138494D01*
X133467297Y-50070628D01*
X133504206Y-50022606D01*
X133610569Y-49984506D01*
X133716931Y-50024194D01*
G37*
G36*
X124995206Y-50024194D02*
G01*
X125032116Y-50073208D01*
X125044419Y-50140875D01*
X125031719Y-50208344D01*
X124993619Y-50256763D01*
X124890431Y-50295656D01*
X124785656Y-50255969D01*
X124746366Y-50206756D01*
X124733269Y-50138494D01*
X124745572Y-50070628D01*
X124782481Y-50022606D01*
X124888844Y-49984506D01*
X124995206Y-50024194D01*
G37*
G36*
X139188744Y-49005146D02*
G01*
X139297978Y-49021349D01*
X139405097Y-49048181D01*
X139509071Y-49085383D01*
X139608898Y-49132598D01*
X139703616Y-49189370D01*
X139792313Y-49255152D01*
X139874136Y-49329312D01*
X139948296Y-49411134D01*
X140014078Y-49499832D01*
X140070850Y-49594550D01*
X140118065Y-49694377D01*
X140155267Y-49798351D01*
X140182099Y-49905470D01*
X140198302Y-50014704D01*
X140203721Y-50125000D01*
X140198302Y-50235296D01*
X140182099Y-50344530D01*
X140155267Y-50451649D01*
X140118065Y-50555623D01*
X140070850Y-50655450D01*
X140014078Y-50750168D01*
X139948296Y-50838866D01*
X139874136Y-50920688D01*
X139792313Y-50994848D01*
X139703616Y-51060630D01*
X139608898Y-51117402D01*
X139509071Y-51164617D01*
X139405097Y-51201819D01*
X139297978Y-51228651D01*
X139188744Y-51244854D01*
X139078448Y-51250273D01*
X138747719Y-51250273D01*
X137663456Y-51250273D01*
X136702225Y-51250273D01*
X136007694Y-51250273D01*
X135310781Y-51250273D01*
X134561481Y-51250273D01*
X133610569Y-51250273D01*
X132932706Y-51250273D01*
X131674613Y-51250273D01*
X130701475Y-51250273D01*
X130041869Y-51250273D01*
X128935381Y-51250273D01*
X128241644Y-51250273D01*
X127624900Y-51250273D01*
X127244694Y-51250273D01*
X126282669Y-51250273D01*
X125771494Y-51250273D01*
X124888844Y-51250273D01*
X124452281Y-51250273D01*
X124121552Y-51250273D01*
X124011256Y-51244854D01*
X123902022Y-51228651D01*
X123794903Y-51201819D01*
X123690929Y-51164617D01*
X123591102Y-51117402D01*
X123496384Y-51060630D01*
X123407687Y-50994848D01*
X123325864Y-50920688D01*
X123251704Y-50838866D01*
X123185922Y-50750168D01*
X123129150Y-50655450D01*
X123081935Y-50555623D01*
X123044733Y-50451649D01*
X123017901Y-50344530D01*
X123001698Y-50235296D01*
X122997098Y-50141669D01*
X124452281Y-50141669D01*
X124469347Y-50266089D01*
X124520544Y-50375825D01*
X124596148Y-50464725D01*
X124686437Y-50526638D01*
X124785855Y-50562952D01*
X124888844Y-50575056D01*
X124992031Y-50562158D01*
X125092044Y-50523463D01*
X125182730Y-50459566D01*
X125257937Y-50371063D01*
X125308539Y-50263708D01*
X125325406Y-50143256D01*
X125310590Y-50023665D01*
X125266140Y-49918890D01*
X125222126Y-49865444D01*
X125388906Y-49865444D01*
X125399225Y-49944025D01*
X125431769Y-49986094D01*
X125528606Y-50005144D01*
X125630206Y-49998794D01*
X125630206Y-50424244D01*
X125645287Y-50513938D01*
X125691325Y-50552831D01*
X125771494Y-50562356D01*
X125850075Y-50552037D01*
X125892144Y-50518700D01*
X125907225Y-50476631D01*
X125909606Y-50421069D01*
X126142969Y-50421069D01*
X126145350Y-50475838D01*
X126158844Y-50516319D01*
X126200912Y-50548466D01*
X126282669Y-50559181D01*
X126371569Y-50544497D01*
X126412844Y-50500444D01*
X126422369Y-50419481D01*
X126422369Y-50140081D01*
X126459675Y-50038481D01*
X126559687Y-50001969D01*
X126661287Y-50040069D01*
X126700181Y-50140081D01*
X126700181Y-50421069D01*
X126702562Y-50475838D01*
X126717644Y-50516319D01*
X126758522Y-50548466D01*
X126839881Y-50559181D01*
X126920447Y-50548466D01*
X126962119Y-50516319D01*
X126975612Y-50474250D01*
X126977856Y-50422656D01*
X127104994Y-50422656D01*
X127107375Y-50477425D01*
X127122456Y-50519494D01*
X127163334Y-50550450D01*
X127244694Y-50560769D01*
X127325259Y-50550053D01*
X127366931Y-50517906D01*
X127380425Y-50476631D01*
X127382806Y-50421069D01*
X127382806Y-50416306D01*
X127485994Y-50416306D01*
X127488375Y-50472663D01*
X127505044Y-50516319D01*
X127546914Y-50550847D01*
X127624900Y-50562356D01*
X127704672Y-50554816D01*
X127751900Y-50532194D01*
X127782856Y-50417894D01*
X127782856Y-50411544D01*
X127780475Y-50355981D01*
X127765394Y-50313119D01*
X127723523Y-50277400D01*
X127645537Y-50265494D01*
X127564377Y-50273828D01*
X127512981Y-50298831D01*
X127485994Y-50409956D01*
X127485994Y-50416306D01*
X127382806Y-50416306D01*
X127382806Y-50042450D01*
X127862231Y-50042450D01*
X127874336Y-50127381D01*
X127910650Y-50186912D01*
X128017806Y-50233744D01*
X128394044Y-50233744D01*
X128341656Y-50308356D01*
X128236881Y-50338519D01*
X128154728Y-50333756D01*
X128092419Y-50319469D01*
X128074956Y-50313119D01*
X128011456Y-50295656D01*
X127924144Y-50367094D01*
X127903506Y-50440119D01*
X127924640Y-50501932D01*
X127988041Y-50546084D01*
X128093709Y-50572576D01*
X128241644Y-50581406D01*
X128352570Y-50571286D01*
X128450400Y-50540925D01*
X128531561Y-50493895D01*
X128592481Y-50433769D01*
X128599413Y-50422656D01*
X128795681Y-50422656D01*
X128798062Y-50477425D01*
X128813144Y-50519494D01*
X128854022Y-50550450D01*
X128935381Y-50560769D01*
X129013962Y-50550450D01*
X129056031Y-50519494D01*
X129071112Y-50476631D01*
X129073494Y-50419481D01*
X129073494Y-50141669D01*
X129110006Y-50040069D01*
X129202875Y-50003556D01*
X129302094Y-50037687D01*
X129351306Y-50114681D01*
X129351306Y-50422656D01*
X129353687Y-50477425D01*
X129368769Y-50519494D01*
X129409647Y-50550450D01*
X129491006Y-50560769D01*
X129571572Y-50550053D01*
X129613244Y-50517906D01*
X129626737Y-50476631D01*
X129629119Y-50421069D01*
X129629119Y-50392494D01*
X129732306Y-50392494D01*
X129754134Y-50450834D01*
X129819619Y-50505206D01*
X129920425Y-50552831D01*
X130041869Y-50568706D01*
X130139059Y-50556888D01*
X130233780Y-50521434D01*
X130326031Y-50462344D01*
X130368751Y-50419481D01*
X130576856Y-50419481D01*
X130579237Y-50474250D01*
X130592731Y-50516319D01*
X130631030Y-50547275D01*
X130701475Y-50557594D01*
X130817362Y-50536163D01*
X130851494Y-50473456D01*
X130929877Y-50536559D01*
X131047550Y-50557594D01*
X131136891Y-50543659D01*
X131221822Y-50501855D01*
X131302344Y-50432181D01*
X131310575Y-50421069D01*
X131523006Y-50421069D01*
X131525387Y-50475838D01*
X131540469Y-50516319D01*
X131585911Y-50548466D01*
X131674613Y-50559181D01*
X131760536Y-50539734D01*
X131797644Y-50481394D01*
X131877416Y-50538544D01*
X131983381Y-50557594D01*
X132075809Y-50543747D01*
X132162592Y-50502208D01*
X132243731Y-50432975D01*
X132308995Y-50345310D01*
X132348153Y-50248472D01*
X132361206Y-50142463D01*
X132348065Y-50036365D01*
X132308642Y-49939263D01*
X132242937Y-49851156D01*
X132229954Y-49840044D01*
X132432644Y-49840044D01*
X132462806Y-49951169D01*
X132550119Y-50011494D01*
X132604887Y-49998794D01*
X132673944Y-49986094D01*
X132754112Y-50016256D01*
X132791419Y-50089281D01*
X132791419Y-50422656D01*
X132793800Y-50477425D01*
X132808881Y-50519494D01*
X132851744Y-50550450D01*
X132932706Y-50560769D01*
X133042244Y-50533781D01*
X133070819Y-50465519D01*
X133070819Y-50419481D01*
X133070819Y-50141669D01*
X133174006Y-50141669D01*
X133191072Y-50266089D01*
X133242269Y-50375825D01*
X133317873Y-50464725D01*
X133408163Y-50526638D01*
X133507580Y-50562952D01*
X133610569Y-50575056D01*
X133713756Y-50562158D01*
X133813769Y-50523463D01*
X133830668Y-50511556D01*
X134150319Y-50511556D01*
X134164606Y-50627091D01*
X134207469Y-50726045D01*
X134278906Y-50808419D01*
X134367453Y-50870155D01*
X134461645Y-50907197D01*
X134561481Y-50919544D01*
X134615456Y-50917163D01*
X134655144Y-50903669D01*
X134686100Y-50863584D01*
X134696419Y-50787781D01*
X134690069Y-50731074D01*
X134687886Y-50711581D01*
X134662288Y-50670306D01*
X134570213Y-50646494D01*
X134467819Y-50614744D01*
X134434481Y-50570294D01*
X134423369Y-50500444D01*
X134423369Y-50422656D01*
X134550369Y-50422656D01*
X134552750Y-50477425D01*
X134567831Y-50519494D01*
X134608709Y-50550450D01*
X134690069Y-50560769D01*
X134770634Y-50550053D01*
X134812306Y-50517906D01*
X134825800Y-50476631D01*
X134828181Y-50421069D01*
X134828181Y-50042450D01*
X134931369Y-50042450D01*
X134943473Y-50127381D01*
X134979788Y-50186912D01*
X135086944Y-50233744D01*
X135463181Y-50233744D01*
X135410794Y-50308356D01*
X135306019Y-50338519D01*
X135223866Y-50333756D01*
X135161556Y-50319469D01*
X135144094Y-50313119D01*
X135080594Y-50295656D01*
X134993281Y-50367094D01*
X134972644Y-50440119D01*
X134993777Y-50501932D01*
X135057178Y-50546084D01*
X135162846Y-50572576D01*
X135310781Y-50581406D01*
X135421708Y-50571286D01*
X135519538Y-50540925D01*
X135600698Y-50493895D01*
X135661619Y-50433769D01*
X135717181Y-50344692D01*
X135750519Y-50248913D01*
X135761631Y-50146431D01*
X135747256Y-50021989D01*
X135704128Y-49915362D01*
X135665012Y-49867031D01*
X135825131Y-49867031D01*
X135835847Y-49947597D01*
X135867994Y-49989269D01*
X135910063Y-50002763D01*
X135964831Y-50005144D01*
X136068019Y-49998794D01*
X136068019Y-50217869D01*
X136054525Y-50279781D01*
X136003725Y-50298831D01*
X135946575Y-50301213D01*
X135904506Y-50316294D01*
X135867994Y-50422656D01*
X135879106Y-50503222D01*
X135912444Y-50544894D01*
X135954513Y-50558388D01*
X136007694Y-50560769D01*
X136108941Y-50552478D01*
X136192549Y-50527608D01*
X136258519Y-50486156D01*
X136306144Y-50424949D01*
X136308001Y-50419481D01*
X136577606Y-50419481D01*
X136579988Y-50474250D01*
X136593481Y-50516319D01*
X136631780Y-50547275D01*
X136702225Y-50557594D01*
X136818113Y-50536163D01*
X136852244Y-50473456D01*
X136930627Y-50536559D01*
X137048300Y-50557594D01*
X137137641Y-50543659D01*
X137222572Y-50501855D01*
X137303094Y-50432181D01*
X137311325Y-50421069D01*
X137523756Y-50421069D01*
X137526138Y-50475838D01*
X137541219Y-50517906D01*
X137582097Y-50550053D01*
X137663456Y-50560769D01*
X137744022Y-50549656D01*
X137785694Y-50516319D01*
X137799188Y-50474250D01*
X137801569Y-50419481D01*
X137801569Y-50141669D01*
X137826175Y-50038084D01*
X137899994Y-50003556D01*
X137975400Y-50040069D01*
X137995244Y-50143256D01*
X137995244Y-50421069D01*
X137997625Y-50476631D01*
X138012706Y-50517906D01*
X138054775Y-50550053D01*
X138136531Y-50560769D01*
X138217097Y-50549656D01*
X138258769Y-50516319D01*
X138272263Y-50474250D01*
X138274644Y-50419481D01*
X138274644Y-50141669D01*
X138299250Y-50038084D01*
X138373069Y-50003556D01*
X138444506Y-50038084D01*
X138468319Y-50141669D01*
X138468319Y-50422656D01*
X138470700Y-50477425D01*
X138485781Y-50519494D01*
X138528644Y-50550450D01*
X138609606Y-50560769D01*
X138690172Y-50550053D01*
X138731844Y-50517906D01*
X138745338Y-50476631D01*
X138747719Y-50421069D01*
X138747719Y-49862269D01*
X138745338Y-49807500D01*
X138730256Y-49767019D01*
X138690172Y-49734872D01*
X138617544Y-49724156D01*
X138501656Y-49752731D01*
X138474669Y-49835281D01*
X138392516Y-49750747D01*
X138295281Y-49722569D01*
X138196503Y-49737915D01*
X138116070Y-49783952D01*
X138053981Y-49860681D01*
X138011913Y-49810675D01*
X137933331Y-49753525D01*
X137822206Y-49722569D01*
X137705525Y-49746977D01*
X137609481Y-49820200D01*
X137561856Y-49899487D01*
X137533281Y-50007172D01*
X137523756Y-50143256D01*
X137523756Y-50421069D01*
X137311325Y-50421069D01*
X137368358Y-50344075D01*
X137407516Y-50246973D01*
X137420569Y-50140875D01*
X137407428Y-50034865D01*
X137368005Y-49938028D01*
X137302300Y-49850362D01*
X137220897Y-49781130D01*
X137134378Y-49739590D01*
X137042744Y-49725744D01*
X136944319Y-49744794D01*
X136882406Y-49780513D01*
X136853831Y-49813056D01*
X136817716Y-49746381D01*
X136728419Y-49724156D01*
X136636344Y-49733681D01*
X136594275Y-49767019D01*
X136579988Y-49809087D01*
X136577606Y-49863856D01*
X136577606Y-50419481D01*
X136308001Y-50419481D01*
X136334719Y-50340812D01*
X136344244Y-50233744D01*
X136344244Y-49998794D01*
X136409331Y-50003556D01*
X136467275Y-49976569D01*
X136490294Y-49884494D01*
X136482356Y-49790037D01*
X136460131Y-49747969D01*
X136396631Y-49727331D01*
X136344244Y-49733681D01*
X136344244Y-49570169D01*
X136341863Y-49516194D01*
X136326781Y-49478094D01*
X136285903Y-49448328D01*
X136204544Y-49438406D01*
X136118422Y-49453091D01*
X136075956Y-49497144D01*
X136068019Y-49578106D01*
X136068019Y-49733681D01*
X135962450Y-49727331D01*
X135908475Y-49729713D01*
X135866406Y-49744794D01*
X135835450Y-49785672D01*
X135825131Y-49867031D01*
X135665012Y-49867031D01*
X135632250Y-49826550D01*
X135538852Y-49759963D01*
X135431167Y-49720011D01*
X135309194Y-49706694D01*
X135206205Y-49716417D01*
X135117900Y-49745587D01*
X135044280Y-49794205D01*
X134985344Y-49862269D01*
X134944863Y-49948589D01*
X134931369Y-50042450D01*
X134828181Y-50042450D01*
X134828181Y-49863856D01*
X134825800Y-49809087D01*
X134812306Y-49767019D01*
X134770238Y-49736063D01*
X134689275Y-49725844D01*
X134688481Y-49725744D01*
X134580531Y-49752731D01*
X134551956Y-49820994D01*
X134550369Y-49867031D01*
X134550369Y-50422656D01*
X134423369Y-50422656D01*
X134423369Y-49846394D01*
X134408288Y-49764638D01*
X134363838Y-49728919D01*
X134288431Y-49719779D01*
X134285256Y-49719394D01*
X134207469Y-49728919D01*
X134166988Y-49761463D01*
X134152700Y-49802737D01*
X134150319Y-49857506D01*
X134150319Y-50511556D01*
X133830668Y-50511556D01*
X133904455Y-50459566D01*
X133979663Y-50371063D01*
X134030264Y-50263708D01*
X134047131Y-50143256D01*
X134032315Y-50023665D01*
X133987865Y-49918890D01*
X133913781Y-49828931D01*
X133820648Y-49760140D01*
X133719048Y-49718865D01*
X133608981Y-49705106D01*
X133499091Y-49718776D01*
X133398020Y-49759787D01*
X133305769Y-49828137D01*
X133232567Y-49917655D01*
X133188647Y-50022165D01*
X133174006Y-50141669D01*
X133070819Y-50141669D01*
X133070819Y-49862269D01*
X133068438Y-49807500D01*
X133054944Y-49767019D01*
X133012875Y-49734872D01*
X132931119Y-49724156D01*
X132853728Y-49733284D01*
X132812056Y-49760669D01*
X132794594Y-49813056D01*
X132771575Y-49786069D01*
X132707281Y-49743206D01*
X132620763Y-49716219D01*
X132558056Y-49720188D01*
X132502494Y-49733681D01*
X132452488Y-49766225D01*
X132432644Y-49840044D01*
X132229954Y-49840044D01*
X132161534Y-49781483D01*
X132075015Y-49739678D01*
X131983381Y-49725744D01*
X131879003Y-49745587D01*
X131800819Y-49805119D01*
X131800819Y-49476506D01*
X134150319Y-49476506D01*
X134152700Y-49528894D01*
X134167781Y-49568581D01*
X134209850Y-49599537D01*
X134288431Y-49608269D01*
X134366219Y-49598744D01*
X134406700Y-49566200D01*
X134420988Y-49524925D01*
X134423231Y-49473331D01*
X134550369Y-49473331D01*
X134552750Y-49528100D01*
X134567038Y-49569375D01*
X134609106Y-49601919D01*
X134689275Y-49611444D01*
X134769444Y-49601919D01*
X134811513Y-49568581D01*
X134825800Y-49526512D01*
X134828181Y-49471744D01*
X134825800Y-49416975D01*
X134812306Y-49376494D01*
X134770238Y-49344347D01*
X134688481Y-49333631D01*
X134608313Y-49344347D01*
X134567831Y-49376494D01*
X134552750Y-49418563D01*
X134550369Y-49473331D01*
X134423231Y-49473331D01*
X134423369Y-49470156D01*
X134420988Y-49416181D01*
X134407494Y-49376494D01*
X134365822Y-49345537D01*
X134285256Y-49335219D01*
X134207866Y-49345537D01*
X134166194Y-49376494D01*
X134152700Y-49414594D01*
X134150319Y-49466981D01*
X134150319Y-49476506D01*
X131800819Y-49476506D01*
X131800819Y-49471744D01*
X131798438Y-49416975D01*
X131784150Y-49375700D01*
X131742081Y-49343156D01*
X131661912Y-49333631D01*
X131581744Y-49343156D01*
X131539675Y-49376494D01*
X131525387Y-49418563D01*
X131523006Y-49473331D01*
X131523006Y-50421069D01*
X131310575Y-50421069D01*
X131367608Y-50344075D01*
X131406766Y-50246973D01*
X131419819Y-50140875D01*
X131406678Y-50034865D01*
X131367255Y-49938028D01*
X131301550Y-49850362D01*
X131220147Y-49781130D01*
X131133628Y-49739590D01*
X131041994Y-49725744D01*
X130943569Y-49744794D01*
X130881656Y-49780513D01*
X130853081Y-49813056D01*
X130816966Y-49746381D01*
X130727669Y-49724156D01*
X130635594Y-49733681D01*
X130593525Y-49767019D01*
X130579237Y-49809087D01*
X130576856Y-49863856D01*
X130576856Y-50419481D01*
X130368751Y-50419481D01*
X130385166Y-50403011D01*
X130432394Y-50326613D01*
X130463350Y-50237316D01*
X130473669Y-50139288D01*
X130463350Y-50041656D01*
X130432394Y-49953550D01*
X130385166Y-49878342D01*
X130326031Y-49819406D01*
X130236249Y-49761198D01*
X130142587Y-49726273D01*
X130045044Y-49714631D01*
X129927569Y-49731300D01*
X129843431Y-49763844D01*
X129818031Y-49779719D01*
X129773581Y-49809881D01*
X129732306Y-49882113D01*
X129765644Y-49973394D01*
X129821603Y-50038878D01*
X129875181Y-50060706D01*
X129960906Y-50025781D01*
X130042662Y-49998794D01*
X130141881Y-50036894D01*
X130187919Y-50142463D01*
X130143469Y-50247237D01*
X130049012Y-50284544D01*
X129955350Y-50255175D01*
X129884706Y-50225806D01*
X129831922Y-50246841D01*
X129768819Y-50309944D01*
X129732306Y-50392494D01*
X129629119Y-50392494D01*
X129629119Y-49471744D01*
X129626737Y-49416975D01*
X129613244Y-49376494D01*
X129571175Y-49344347D01*
X129489419Y-49333631D01*
X129409250Y-49344347D01*
X129368769Y-49376494D01*
X129353687Y-49418563D01*
X129351306Y-49473331D01*
X129351306Y-49824169D01*
X129265184Y-49751541D01*
X129165569Y-49727331D01*
X129065644Y-49740737D01*
X128977538Y-49780953D01*
X128901250Y-49847981D01*
X128842601Y-49934412D01*
X128807411Y-50032837D01*
X128795681Y-50143256D01*
X128795681Y-50422656D01*
X128599413Y-50422656D01*
X128648044Y-50344692D01*
X128681381Y-50248913D01*
X128692494Y-50146431D01*
X128678118Y-50021989D01*
X128634991Y-49915362D01*
X128563112Y-49826550D01*
X128469715Y-49759963D01*
X128362029Y-49720011D01*
X128240056Y-49706694D01*
X128137067Y-49716417D01*
X128048762Y-49745587D01*
X127975142Y-49794205D01*
X127916206Y-49862269D01*
X127875725Y-49948589D01*
X127862231Y-50042450D01*
X127382806Y-50042450D01*
X127382806Y-49863856D01*
X127380425Y-49809087D01*
X127366931Y-49767019D01*
X127324862Y-49736063D01*
X127243900Y-49725844D01*
X127243106Y-49725744D01*
X127135156Y-49752731D01*
X127106581Y-49820994D01*
X127104994Y-49867031D01*
X127104994Y-50422656D01*
X126977856Y-50422656D01*
X126977994Y-50419481D01*
X126977994Y-49857506D01*
X126975612Y-49804325D01*
X126960531Y-49763844D01*
X126918859Y-49734078D01*
X126838294Y-49724156D01*
X126760109Y-49733284D01*
X126719231Y-49760669D01*
X126703356Y-49825756D01*
X126674781Y-49794006D01*
X126631919Y-49760669D01*
X126512856Y-49724156D01*
X126412932Y-49737650D01*
X126324826Y-49778131D01*
X126248537Y-49845600D01*
X126189888Y-49932472D01*
X126154699Y-50031161D01*
X126142969Y-50141669D01*
X126142969Y-50421069D01*
X125909606Y-50421069D01*
X125909606Y-50000381D01*
X125966756Y-50000381D01*
X126025494Y-49981331D01*
X126055656Y-49865444D01*
X126032241Y-49767813D01*
X125961994Y-49735269D01*
X125909606Y-49735269D01*
X125909606Y-49651131D01*
X125887778Y-49534648D01*
X125849527Y-49473331D01*
X127104994Y-49473331D01*
X127107375Y-49528100D01*
X127121662Y-49569375D01*
X127163731Y-49601919D01*
X127243900Y-49611444D01*
X127324069Y-49601919D01*
X127366137Y-49568581D01*
X127380425Y-49526512D01*
X127382806Y-49471744D01*
X127380425Y-49416975D01*
X127366931Y-49376494D01*
X127324862Y-49344347D01*
X127243106Y-49333631D01*
X127162937Y-49344347D01*
X127122456Y-49376494D01*
X127107375Y-49418563D01*
X127104994Y-49473331D01*
X125849527Y-49473331D01*
X125822294Y-49429675D01*
X125755442Y-49374553D01*
X125671305Y-49341481D01*
X125569881Y-49330456D01*
X125515112Y-49332837D01*
X125473044Y-49347919D01*
X125440897Y-49388797D01*
X125430181Y-49470156D01*
X125457169Y-49579694D01*
X125527019Y-49608269D01*
X125571469Y-49608269D01*
X125630206Y-49647956D01*
X125630206Y-49735269D01*
X125527019Y-49725744D01*
X125440103Y-49740825D01*
X125398431Y-49786069D01*
X125388906Y-49865444D01*
X125222126Y-49865444D01*
X125192056Y-49828931D01*
X125098923Y-49760140D01*
X124997323Y-49718865D01*
X124887256Y-49705106D01*
X124777366Y-49718776D01*
X124676295Y-49759787D01*
X124584044Y-49828137D01*
X124510842Y-49917655D01*
X124466922Y-50022165D01*
X124452281Y-50141669D01*
X122997098Y-50141669D01*
X122996279Y-50125000D01*
X123001698Y-50014704D01*
X123017901Y-49905470D01*
X123044733Y-49798351D01*
X123081935Y-49694377D01*
X123129150Y-49594550D01*
X123185922Y-49499832D01*
X123251704Y-49411134D01*
X123325864Y-49329312D01*
X123407687Y-49255152D01*
X123496384Y-49189370D01*
X123591102Y-49132598D01*
X123690929Y-49085383D01*
X123794903Y-49048181D01*
X123902022Y-49021349D01*
X124011256Y-49005146D01*
X124121552Y-48999727D01*
X124452281Y-48999727D01*
X138747719Y-48999727D01*
X139078448Y-48999727D01*
X139188744Y-49005146D01*
G37*
%TD*%
D11*
%TO.C,H104*%
X145075000Y-83875000D03*
%TD*%
D12*
%TO.C,J201*%
X116275000Y-85475000D03*
D13*
X116275000Y-84205000D03*
X117545000Y-85475000D03*
X117545000Y-84205000D03*
X118815000Y-85475000D03*
X118815000Y-84205000D03*
X120085000Y-85475000D03*
X120085000Y-84205000D03*
X121355000Y-85475000D03*
X121355000Y-84205000D03*
X122625000Y-85475000D03*
X122625000Y-84205000D03*
X123895000Y-85475000D03*
X123895000Y-84205000D03*
%TD*%
D11*
%TO.C,H101*%
X144950000Y-50650000D03*
%TD*%
D14*
%TO.C,J601*%
X142375000Y-74590000D03*
X142375000Y-68810000D03*
D15*
X141845000Y-76020000D03*
D16*
X146025000Y-76020000D03*
D15*
X141845000Y-67380000D03*
D16*
X146025000Y-67380000D03*
%TD*%
D11*
%TO.C,H102*%
X111600000Y-50625000D03*
%TD*%
%TO.C,H103*%
X111800000Y-83800000D03*
%TD*%
D17*
%TO.C,J104*%
X110833200Y-64002800D03*
X110833200Y-62002800D03*
X110833200Y-60002800D03*
X110833200Y-58002800D03*
X110833200Y-56002800D03*
%TD*%
D18*
%TO.C,J101*%
X116985000Y-49135000D03*
D19*
X119525000Y-49135000D03*
X116985000Y-51675000D03*
X119525000Y-51675000D03*
%TD*%
D18*
%TO.C,J102*%
X116985000Y-55425000D03*
D19*
X119525000Y-55425000D03*
X116985000Y-57965000D03*
X119525000Y-57965000D03*
%TD*%
D20*
%TO.C,J109*%
X142707107Y-80117893D03*
X142000000Y-80825000D03*
X141292893Y-81532107D03*
D21*
X138296882Y-81538471D03*
X142713471Y-77121882D03*
%TD*%
D22*
%TO.C,J110*%
X138310102Y-78546134D03*
X139017209Y-77839027D03*
X139724316Y-77131920D03*
D23*
X142720327Y-77125556D03*
X138303738Y-81542145D03*
%TD*%
D17*
%TO.C,J103*%
X145825000Y-64000000D03*
X145825000Y-62000000D03*
X145825000Y-60000000D03*
X145825000Y-58000000D03*
X145825000Y-56000000D03*
%TD*%
M02*
