%TF.GenerationSoftware,KiCad,Pcbnew,7.0.5-0*%
%TF.CreationDate,2023-07-12T10:20:26-04:00*%
%TF.ProjectId,stm32g431-mt6701-stspin233,73746d33-3267-4343-9331-2d6d74363730,rev?*%
%TF.SameCoordinates,Original*%
%TF.FileFunction,Copper,L2,Inr*%
%TF.FilePolarity,Positive*%
%FSLAX46Y46*%
G04 Gerber Fmt 4.6, Leading zero omitted, Abs format (unit mm)*
G04 Created by KiCad (PCBNEW 7.0.5-0) date 2023-07-12 10:20:26*
%MOMM*%
%LPD*%
G01*
G04 APERTURE LIST*
%TA.AperFunction,ComponentPad*%
%ADD10C,5.600000*%
%TD*%
%TA.AperFunction,ComponentPad*%
%ADD11R,1.000000X1.000000*%
%TD*%
%TA.AperFunction,ComponentPad*%
%ADD12O,1.000000X1.000000*%
%TD*%
%TA.AperFunction,ComponentPad*%
%ADD13O,2.100000X1.000000*%
%TD*%
%TA.AperFunction,ComponentPad*%
%ADD14O,1.600000X1.000000*%
%TD*%
%TA.AperFunction,ComponentPad*%
%ADD15R,1.700000X1.700000*%
%TD*%
%TA.AperFunction,ComponentPad*%
%ADD16O,1.700000X1.700000*%
%TD*%
%TA.AperFunction,ViaPad*%
%ADD17C,0.800000*%
%TD*%
G04 APERTURE END LIST*
D10*
%TO.N,GND*%
%TO.C,H104*%
X145075000Y-83875000D03*
%TD*%
D11*
%TO.N,unconnected-(J201-NC-Pad1)*%
%TO.C,J201*%
X116275000Y-85475000D03*
D12*
%TO.N,unconnected-(J201-NC-Pad2)*%
X116275000Y-84205000D03*
%TO.N,+3V3*%
X117545000Y-85475000D03*
%TO.N,/mcu/SDIO*%
X117545000Y-84205000D03*
%TO.N,GND*%
X118815000Y-85475000D03*
%TO.N,/mcu/SWCLK*%
X118815000Y-84205000D03*
%TO.N,GND*%
X120085000Y-85475000D03*
%TO.N,unconnected-(J201-JTDO{slash}SWO-Pad8)*%
X120085000Y-84205000D03*
%TO.N,unconnected-(J201-JRCLK{slash}NC-Pad9)*%
X121355000Y-85475000D03*
%TO.N,unconnected-(J201-JTDI{slash}NC-Pad10)*%
X121355000Y-84205000D03*
%TO.N,GND*%
X122625000Y-85475000D03*
%TO.N,/mcu/RESET*%
X122625000Y-84205000D03*
%TO.N,/UART_TX*%
X123895000Y-85475000D03*
%TO.N,/UART_RX*%
X123895000Y-84205000D03*
%TD*%
D10*
%TO.N,GND*%
%TO.C,H101*%
X144950000Y-50650000D03*
%TD*%
D13*
%TO.N,GND*%
%TO.C,J601*%
X141845000Y-76020000D03*
D14*
X146025000Y-76020000D03*
D13*
X141845000Y-67380000D03*
D14*
X146025000Y-67380000D03*
%TD*%
D10*
%TO.N,GND*%
%TO.C,H102*%
X111600000Y-50625000D03*
%TD*%
%TO.N,GND*%
%TO.C,H103*%
X111800000Y-83800000D03*
%TD*%
D15*
%TO.N,/I2C_SCL*%
%TO.C,J101*%
X116985000Y-49135000D03*
D16*
%TO.N,/I2C_SDA*%
X119525000Y-49135000D03*
%TO.N,Vmot*%
X116985000Y-51675000D03*
%TO.N,GND*%
X119525000Y-51675000D03*
%TD*%
D15*
%TO.N,/UART_TX*%
%TO.C,J102*%
X116985000Y-55425000D03*
D16*
%TO.N,/UART_RX*%
X119525000Y-55425000D03*
%TO.N,Vmot*%
X116985000Y-57965000D03*
%TO.N,GND*%
X119525000Y-57965000D03*
%TD*%
D17*
%TO.N,+3V3*%
X134750000Y-65775000D03*
X133200000Y-65775000D03*
X130112569Y-74793509D03*
X119138314Y-72762394D03*
X130650000Y-65725000D03*
X132175000Y-65750000D03*
X135054575Y-71783425D03*
X125700000Y-84950000D03*
X119600000Y-63425000D03*
X126200000Y-52975000D03*
X122054039Y-77769620D03*
X125850000Y-68650000D03*
X140195511Y-76025138D03*
X120693201Y-69677750D03*
%TO.N,GND*%
X130725000Y-52450000D03*
X136050000Y-67825000D03*
X145350000Y-55975000D03*
X110200000Y-66450000D03*
X146300000Y-56000000D03*
X132325000Y-56625000D03*
X112225000Y-56000000D03*
X132325000Y-57925000D03*
X132325000Y-59125000D03*
X147300000Y-65750000D03*
X139350000Y-86100000D03*
X110250000Y-56000000D03*
X128800000Y-52475000D03*
X128700000Y-85875000D03*
X135800000Y-61275500D03*
X147625000Y-54350000D03*
X109675000Y-74125000D03*
X109675000Y-75975000D03*
X109100000Y-80925000D03*
X114650000Y-86525000D03*
X147275000Y-56000000D03*
X147650000Y-69775000D03*
X111250000Y-55975000D03*
X113812299Y-72162299D03*
X145800000Y-54450000D03*
X124450000Y-73950000D03*
X112325000Y-66475000D03*
X125939193Y-80294416D03*
X146000000Y-80050000D03*
X118288178Y-72236777D03*
X142200000Y-47925000D03*
X128700000Y-82325000D03*
X109250000Y-56000000D03*
X123846221Y-59400129D03*
X126475000Y-73900000D03*
X137687000Y-71750000D03*
X144350000Y-55975000D03*
X131225000Y-83150000D03*
X135819322Y-75914749D03*
X129702122Y-79156515D03*
X146000000Y-78100000D03*
X110550000Y-69900000D03*
X142350000Y-86600000D03*
X121600500Y-68925000D03*
X127675000Y-63925000D03*
X122500000Y-73925000D03*
X142150000Y-53425000D03*
X117400000Y-80125000D03*
X147650000Y-71625000D03*
X114275000Y-47950000D03*
X124500000Y-71975000D03*
X124475000Y-75950000D03*
X108975000Y-54150000D03*
X147675000Y-73600000D03*
X113700000Y-73625000D03*
X133925000Y-79600000D03*
X111750000Y-80100000D03*
%TO.N,/mcu/RESET*%
X120250000Y-80250000D03*
%TO.N,/mcu/~{MOT_SHDN}*%
X135114000Y-74650000D03*
X130484010Y-73865588D03*
%TO.N,Vmot*%
X138300000Y-55650000D03*
X145350000Y-60025000D03*
X138300000Y-53175000D03*
X139357513Y-83457513D03*
X147300000Y-60000000D03*
X109275000Y-60000000D03*
X147300000Y-58000000D03*
X142250000Y-56875000D03*
X146300000Y-58000000D03*
X111250000Y-58000000D03*
X112250000Y-60000000D03*
X109275000Y-57975000D03*
X145350000Y-58000000D03*
X144325000Y-60000000D03*
X111250000Y-60000000D03*
X142250000Y-57825000D03*
X134875000Y-82950000D03*
X110275000Y-58000000D03*
X146300000Y-60025000D03*
X138300000Y-58050000D03*
X112250000Y-58000000D03*
X110275000Y-60000000D03*
X144350000Y-57975000D03*
%TO.N,+5V*%
X135050535Y-70275381D03*
X135625000Y-66750000D03*
%TO.N,/I2C_SCL*%
X122451000Y-63325000D03*
%TO.N,/I2C_SDA*%
X120464674Y-71260326D03*
%TO.N,/UART_TX*%
X122961089Y-79365735D03*
X114200000Y-70275000D03*
%TO.N,/UART_RX*%
X122014225Y-79045650D03*
X115175000Y-69200000D03*
%TO.N,/CAN_H*%
X115675000Y-62400000D03*
X109300000Y-64000000D03*
X129000500Y-60916764D03*
X147300000Y-64000000D03*
%TO.N,/CAN_L*%
X129000500Y-59850000D03*
X147325000Y-62000000D03*
X109275000Y-62000000D03*
%TO.N,/display/TFT_COPI*%
X124650000Y-63300000D03*
X119842851Y-70404319D03*
%TO.N,/motor driver/MOT_U*%
X140700000Y-83650000D03*
%TO.N,/motor driver/MOT_V*%
X140600000Y-78225000D03*
%TO.N,/motor driver/MOT_W*%
X138412015Y-79388386D03*
%TO.N,/mcu/SDIO*%
X125348302Y-65155479D03*
%TO.N,/mcu/SWCLK*%
X124580381Y-66055613D03*
%TO.N,/display/TFT_BL*%
X119159225Y-74424217D03*
X120864410Y-60864410D03*
%TO.N,/encoder/~{ENC_CS}*%
X123450906Y-80253546D03*
X131375000Y-67300000D03*
%TO.N,/display/~{TFT_CS}*%
X129000500Y-57650000D03*
X121855327Y-70212166D03*
%TO.N,/display/TFT_DC*%
X116282131Y-71820445D03*
X128225000Y-56425000D03*
%TO.N,/display/TFT_RESET*%
X125837701Y-63300500D03*
X116964504Y-74144476D03*
%TO.N,/encoder/ENC_SCK*%
X124450000Y-80225000D03*
X132650000Y-67325000D03*
%TO.N,/encoder/ENC_CIPO*%
X133880698Y-67355698D03*
X125260589Y-79560589D03*
%TO.N,/mcu/TIM1_CH3N*%
X132724500Y-76188045D03*
X135389500Y-78399500D03*
%TO.N,/mcu/TIM1_CH1*%
X132427500Y-78025000D03*
X132922955Y-74675000D03*
%TO.N,/mcu/TIM1_CH3*%
X136925000Y-79100500D03*
X134389500Y-73725000D03*
%TD*%
%TA.AperFunction,Conductor*%
%TO.N,GND*%
G36*
X143505170Y-47421888D02*
G01*
X143572165Y-47441723D01*
X143617801Y-47494629D01*
X143627590Y-47563810D01*
X143598423Y-47627300D01*
X143556959Y-47658427D01*
X143401987Y-47730125D01*
X143095370Y-47914609D01*
X143095367Y-47914611D01*
X142810491Y-48131166D01*
X142797256Y-48143703D01*
X142797255Y-48143703D01*
X144005819Y-49352266D01*
X143815130Y-49515130D01*
X143652267Y-49705818D01*
X142446442Y-48499994D01*
X142446441Y-48499995D01*
X142319040Y-48649983D01*
X142319033Y-48649993D01*
X142118218Y-48946172D01*
X141950606Y-49262322D01*
X141950597Y-49262340D01*
X141818149Y-49594760D01*
X141818147Y-49594767D01*
X141722421Y-49939542D01*
X141722415Y-49939568D01*
X141664527Y-50292668D01*
X141664526Y-50292685D01*
X141645153Y-50649997D01*
X141645153Y-50650002D01*
X141664526Y-51007314D01*
X141664527Y-51007331D01*
X141722415Y-51360431D01*
X141722421Y-51360457D01*
X141818147Y-51705232D01*
X141818149Y-51705239D01*
X141950597Y-52037659D01*
X141950606Y-52037677D01*
X142118218Y-52353827D01*
X142319033Y-52650007D01*
X142446441Y-52800003D01*
X142446442Y-52800004D01*
X143652266Y-51594180D01*
X143815130Y-51784870D01*
X144005818Y-51947732D01*
X142797255Y-53156295D01*
X142797256Y-53156296D01*
X142810485Y-53168828D01*
X142810486Y-53168829D01*
X143095367Y-53385388D01*
X143095370Y-53385390D01*
X143401990Y-53569876D01*
X143726739Y-53720122D01*
X143726744Y-53720123D01*
X144065855Y-53834383D01*
X144415339Y-53911311D01*
X144771075Y-53949999D01*
X144771085Y-53950000D01*
X145128915Y-53950000D01*
X145128924Y-53949999D01*
X145484660Y-53911311D01*
X145834144Y-53834383D01*
X146173255Y-53720123D01*
X146173260Y-53720122D01*
X146498009Y-53569876D01*
X146804629Y-53385390D01*
X146804632Y-53385388D01*
X147089504Y-53168836D01*
X147102742Y-53156294D01*
X145894180Y-51947733D01*
X146084870Y-51784870D01*
X146247733Y-51594180D01*
X147453556Y-52800003D01*
X147580964Y-52650008D01*
X147580975Y-52649994D01*
X147781781Y-52353827D01*
X147949393Y-52037677D01*
X147949402Y-52037659D01*
X148043551Y-51801363D01*
X148086651Y-51746371D01*
X148152640Y-51723410D01*
X148220567Y-51739771D01*
X148268866Y-51790259D01*
X148282733Y-51845624D01*
X148292778Y-52606722D01*
X148324361Y-54999901D01*
X148324363Y-55000013D01*
X148324363Y-57510474D01*
X148304678Y-57577513D01*
X148251874Y-57623268D01*
X148182716Y-57633212D01*
X148119160Y-57604187D01*
X148092976Y-57572474D01*
X148032534Y-57467785D01*
X147931792Y-57355900D01*
X147905871Y-57327112D01*
X147905870Y-57327111D01*
X147752734Y-57215851D01*
X147752729Y-57215848D01*
X147579807Y-57138857D01*
X147579802Y-57138855D01*
X147434000Y-57107865D01*
X147394646Y-57099500D01*
X147205354Y-57099500D01*
X147172897Y-57106398D01*
X147020197Y-57138855D01*
X147020192Y-57138857D01*
X146850436Y-57214439D01*
X146781186Y-57223724D01*
X146749564Y-57214439D01*
X146579807Y-57138857D01*
X146579802Y-57138855D01*
X146434000Y-57107865D01*
X146394646Y-57099500D01*
X146205354Y-57099500D01*
X146172897Y-57106398D01*
X146020197Y-57138855D01*
X146020192Y-57138857D01*
X145875436Y-57203308D01*
X145806186Y-57212593D01*
X145774564Y-57203308D01*
X145629807Y-57138857D01*
X145629802Y-57138855D01*
X145484000Y-57107865D01*
X145444646Y-57099500D01*
X145255354Y-57099500D01*
X145222897Y-57106398D01*
X145070197Y-57138855D01*
X144925388Y-57203329D01*
X144856138Y-57212613D01*
X144808895Y-57193178D01*
X144808363Y-57194101D01*
X144802729Y-57190848D01*
X144629807Y-57113857D01*
X144629802Y-57113855D01*
X144484001Y-57082865D01*
X144444646Y-57074500D01*
X144255354Y-57074500D01*
X144222897Y-57081398D01*
X144070197Y-57113855D01*
X144070192Y-57113857D01*
X143897270Y-57190848D01*
X143897265Y-57190851D01*
X143744129Y-57302111D01*
X143617466Y-57442785D01*
X143522821Y-57606715D01*
X143522818Y-57606722D01*
X143464327Y-57786740D01*
X143464326Y-57786744D01*
X143444540Y-57975000D01*
X143464326Y-58163256D01*
X143464327Y-58163259D01*
X143522818Y-58343277D01*
X143522821Y-58343284D01*
X143617467Y-58507216D01*
X143707116Y-58606781D01*
X143744129Y-58647888D01*
X143897265Y-58759148D01*
X143897270Y-58759151D01*
X144070192Y-58836142D01*
X144070197Y-58836144D01*
X144199148Y-58863553D01*
X144260630Y-58896745D01*
X144294406Y-58957908D01*
X144289754Y-59027623D01*
X144248150Y-59083755D01*
X144199148Y-59106133D01*
X144045197Y-59138855D01*
X144045192Y-59138857D01*
X143872270Y-59215848D01*
X143872265Y-59215851D01*
X143719129Y-59327111D01*
X143592466Y-59467785D01*
X143497821Y-59631715D01*
X143497818Y-59631722D01*
X143439327Y-59811740D01*
X143439326Y-59811744D01*
X143419540Y-60000000D01*
X143439326Y-60188256D01*
X143439327Y-60188259D01*
X143497818Y-60368277D01*
X143497821Y-60368284D01*
X143592467Y-60532216D01*
X143607117Y-60548486D01*
X143719129Y-60672888D01*
X143872265Y-60784148D01*
X143872270Y-60784151D01*
X144045192Y-60861142D01*
X144045197Y-60861144D01*
X144230354Y-60900500D01*
X144230355Y-60900500D01*
X144419644Y-60900500D01*
X144419646Y-60900500D01*
X144604803Y-60861144D01*
X144765112Y-60789768D01*
X144834360Y-60780484D01*
X144888433Y-60802730D01*
X144897270Y-60809151D01*
X145070197Y-60886144D01*
X145126182Y-60898043D01*
X145187661Y-60931235D01*
X145221438Y-60992397D01*
X145224399Y-61019333D01*
X145224399Y-61047591D01*
X145224400Y-61047594D01*
X145253808Y-61138112D01*
X145253809Y-61138114D01*
X145253810Y-61138115D01*
X145254348Y-61138856D01*
X145257434Y-61143103D01*
X145273633Y-61173572D01*
X145276720Y-61182055D01*
X145285363Y-61186195D01*
X145302783Y-61205528D01*
X145309752Y-61215121D01*
X145310754Y-61215849D01*
X145322928Y-61224695D01*
X145345027Y-61245304D01*
X145352685Y-61254431D01*
X145359485Y-61255217D01*
X145384014Y-61269083D01*
X145386752Y-61271073D01*
X145406629Y-61277533D01*
X145412666Y-61279496D01*
X145436337Y-61290036D01*
X145449659Y-61297727D01*
X145453890Y-61296797D01*
X145467553Y-61299449D01*
X145467630Y-61298967D01*
X145477267Y-61300493D01*
X145477272Y-61300495D01*
X145500102Y-61300496D01*
X145500116Y-61300500D01*
X145516853Y-61300500D01*
X145538385Y-61302384D01*
X145564901Y-61307059D01*
X145568687Y-61304748D01*
X145600867Y-61300500D01*
X146474274Y-61300500D01*
X146541313Y-61320185D01*
X146587068Y-61372989D01*
X146597012Y-61442147D01*
X146581661Y-61486500D01*
X146497821Y-61631715D01*
X146497818Y-61631722D01*
X146450320Y-61777908D01*
X146439326Y-61811744D01*
X146419540Y-62000000D01*
X146439326Y-62188256D01*
X146439327Y-62188259D01*
X146497818Y-62368277D01*
X146497821Y-62368284D01*
X146592467Y-62532216D01*
X146678362Y-62627612D01*
X146719129Y-62672888D01*
X146872265Y-62784148D01*
X146872270Y-62784151D01*
X147045192Y-62861142D01*
X147045193Y-62861142D01*
X147045197Y-62861144D01*
X147093110Y-62871328D01*
X147115338Y-62876053D01*
X147176820Y-62909245D01*
X147210597Y-62970408D01*
X147205945Y-63040123D01*
X147164341Y-63096255D01*
X147115339Y-63118633D01*
X147020197Y-63138855D01*
X147020192Y-63138857D01*
X146847270Y-63215848D01*
X146847265Y-63215851D01*
X146694129Y-63327111D01*
X146567466Y-63467785D01*
X146472821Y-63631715D01*
X146472818Y-63631722D01*
X146420326Y-63793277D01*
X146414326Y-63811744D01*
X146394540Y-64000000D01*
X146414326Y-64188256D01*
X146414327Y-64188259D01*
X146472818Y-64368277D01*
X146472821Y-64368284D01*
X146567467Y-64532216D01*
X146694128Y-64672888D01*
X146694129Y-64672888D01*
X146847265Y-64784148D01*
X146847270Y-64784151D01*
X147020192Y-64861142D01*
X147020197Y-64861144D01*
X147205354Y-64900500D01*
X147205355Y-64900500D01*
X147394644Y-64900500D01*
X147394646Y-64900500D01*
X147579803Y-64861144D01*
X147752730Y-64784151D01*
X147905871Y-64672888D01*
X148032533Y-64532216D01*
X148042976Y-64514129D01*
X148092976Y-64427526D01*
X148143542Y-64379310D01*
X148212149Y-64366086D01*
X148277014Y-64392054D01*
X148317543Y-64448968D01*
X148324363Y-64489525D01*
X148324363Y-64999986D01*
X148348025Y-82527690D01*
X148328431Y-82594756D01*
X148275689Y-82640582D01*
X148206544Y-82650619D01*
X148142949Y-82621679D01*
X148108832Y-82573753D01*
X148074405Y-82487346D01*
X148074393Y-82487322D01*
X147906781Y-82171172D01*
X147705966Y-81874992D01*
X147578557Y-81724995D01*
X147578556Y-81724994D01*
X146372732Y-82930818D01*
X146209870Y-82740130D01*
X146019180Y-82577266D01*
X147227743Y-81368703D01*
X147227742Y-81368702D01*
X147214514Y-81356171D01*
X147214513Y-81356170D01*
X146929632Y-81139611D01*
X146929629Y-81139609D01*
X146623009Y-80955123D01*
X146298260Y-80804877D01*
X146298255Y-80804876D01*
X145959144Y-80690616D01*
X145609660Y-80613688D01*
X145253924Y-80575000D01*
X144896075Y-80575000D01*
X144540339Y-80613688D01*
X144190855Y-80690616D01*
X143851744Y-80804876D01*
X143851739Y-80804877D01*
X143526990Y-80955123D01*
X143220370Y-81139609D01*
X143220367Y-81139611D01*
X142935491Y-81356166D01*
X142922256Y-81368703D01*
X142922255Y-81368703D01*
X144130819Y-82577266D01*
X143940130Y-82740130D01*
X143777266Y-82930818D01*
X142571442Y-81724994D01*
X142571441Y-81724995D01*
X142444040Y-81874983D01*
X142444033Y-81874993D01*
X142243218Y-82171172D01*
X142075606Y-82487322D01*
X142075597Y-82487340D01*
X141943149Y-82819760D01*
X141943147Y-82819767D01*
X141847421Y-83164542D01*
X141847415Y-83164568D01*
X141809832Y-83393816D01*
X141779561Y-83456788D01*
X141720051Y-83493397D01*
X141650195Y-83492021D01*
X141592172Y-83453096D01*
X141569535Y-83412073D01*
X141527181Y-83281722D01*
X141527180Y-83281721D01*
X141527179Y-83281716D01*
X141432533Y-83117784D01*
X141305871Y-82977112D01*
X141305870Y-82977111D01*
X141152734Y-82865851D01*
X141152729Y-82865848D01*
X140979807Y-82788857D01*
X140979802Y-82788855D01*
X140834000Y-82757865D01*
X140794646Y-82749500D01*
X140605354Y-82749500D01*
X140572897Y-82756398D01*
X140420197Y-82788855D01*
X140420192Y-82788857D01*
X140247271Y-82865848D01*
X140210189Y-82892789D01*
X140144382Y-82916267D01*
X140076328Y-82900440D01*
X140045156Y-82875442D01*
X140036520Y-82865851D01*
X139963384Y-82784625D01*
X139931891Y-82761744D01*
X139810247Y-82673364D01*
X139810242Y-82673361D01*
X139637320Y-82596370D01*
X139637315Y-82596368D01*
X139491514Y-82565378D01*
X139452159Y-82557013D01*
X139262867Y-82557013D01*
X139230410Y-82563911D01*
X139077710Y-82596368D01*
X139077705Y-82596370D01*
X138904783Y-82673361D01*
X138904778Y-82673364D01*
X138751642Y-82784624D01*
X138624979Y-82925298D01*
X138530334Y-83089228D01*
X138530331Y-83089235D01*
X138488176Y-83218976D01*
X138471839Y-83269257D01*
X138452053Y-83457513D01*
X138471839Y-83645769D01*
X138471840Y-83645772D01*
X138530331Y-83825790D01*
X138530334Y-83825797D01*
X138624980Y-83989729D01*
X138680211Y-84051069D01*
X138751642Y-84130401D01*
X138904778Y-84241661D01*
X138904783Y-84241664D01*
X139077705Y-84318655D01*
X139077710Y-84318657D01*
X139262867Y-84358013D01*
X139262868Y-84358013D01*
X139452157Y-84358013D01*
X139452159Y-84358013D01*
X139637316Y-84318657D01*
X139810243Y-84241664D01*
X139847320Y-84214725D01*
X139913125Y-84191245D01*
X139981180Y-84207070D01*
X140012355Y-84232070D01*
X140094128Y-84322887D01*
X140094129Y-84322888D01*
X140247265Y-84434148D01*
X140247270Y-84434151D01*
X140420192Y-84511142D01*
X140420197Y-84511144D01*
X140605354Y-84550500D01*
X140605355Y-84550500D01*
X140794644Y-84550500D01*
X140794646Y-84550500D01*
X140979803Y-84511144D01*
X141152730Y-84434151D01*
X141305871Y-84322888D01*
X141432533Y-84182216D01*
X141527179Y-84018284D01*
X141536354Y-83990044D01*
X141575789Y-83932371D01*
X141640147Y-83905171D01*
X141708993Y-83917083D01*
X141760470Y-83964326D01*
X141778103Y-84021648D01*
X141789526Y-84232315D01*
X141789527Y-84232331D01*
X141847415Y-84585431D01*
X141847421Y-84585457D01*
X141943147Y-84930232D01*
X141943149Y-84930239D01*
X142075597Y-85262659D01*
X142075606Y-85262677D01*
X142243218Y-85578827D01*
X142444033Y-85875007D01*
X142571441Y-86025003D01*
X142571442Y-86025004D01*
X143777266Y-84819180D01*
X143940130Y-85009870D01*
X144130818Y-85172732D01*
X142922255Y-86381295D01*
X142922256Y-86381296D01*
X142935485Y-86393828D01*
X142935486Y-86393829D01*
X143220367Y-86610388D01*
X143220370Y-86610390D01*
X143526990Y-86794876D01*
X143813444Y-86927404D01*
X143866022Y-86973418D01*
X143885376Y-87040554D01*
X143865362Y-87107495D01*
X143812333Y-87152990D01*
X143761032Y-87163943D01*
X113135759Y-87078541D01*
X113068775Y-87058669D01*
X113023167Y-87005738D01*
X113013417Y-86936552D01*
X113042619Y-86873077D01*
X113084039Y-86842002D01*
X113348009Y-86719876D01*
X113654629Y-86535390D01*
X113654632Y-86535388D01*
X113939504Y-86318836D01*
X113952742Y-86306294D01*
X112744180Y-85097733D01*
X112934870Y-84934870D01*
X113097733Y-84744180D01*
X114303556Y-85950003D01*
X114430964Y-85800008D01*
X114430975Y-85799994D01*
X114631781Y-85503827D01*
X114799393Y-85187677D01*
X114799402Y-85187659D01*
X114931850Y-84855239D01*
X114931852Y-84855232D01*
X115027578Y-84510457D01*
X115027581Y-84510446D01*
X115044900Y-84404804D01*
X115075171Y-84341832D01*
X115134682Y-84305222D01*
X115204538Y-84306598D01*
X115262561Y-84345522D01*
X115286434Y-84395536D01*
X115287208Y-84395302D01*
X115288752Y-84400393D01*
X115288884Y-84400669D01*
X115288975Y-84401127D01*
X115288975Y-84401129D01*
X115288976Y-84401132D01*
X115322348Y-84511144D01*
X115346187Y-84589729D01*
X115347321Y-84591850D01*
X115347580Y-84593094D01*
X115348518Y-84595359D01*
X115348088Y-84595536D01*
X115361564Y-84660253D01*
X115337233Y-84724614D01*
X115331205Y-84732666D01*
X115331202Y-84732671D01*
X115280908Y-84867517D01*
X115274501Y-84927116D01*
X115274500Y-84927135D01*
X115274500Y-86022870D01*
X115274501Y-86022876D01*
X115280908Y-86082483D01*
X115331202Y-86217328D01*
X115331206Y-86217335D01*
X115417452Y-86332544D01*
X115417455Y-86332547D01*
X115532664Y-86418793D01*
X115532671Y-86418797D01*
X115667517Y-86469091D01*
X115667516Y-86469091D01*
X115674444Y-86469835D01*
X115727127Y-86475500D01*
X116822872Y-86475499D01*
X116882483Y-86469091D01*
X117017331Y-86418796D01*
X117025379Y-86412770D01*
X117090842Y-86388351D01*
X117154474Y-86401895D01*
X117154645Y-86401483D01*
X117156875Y-86402406D01*
X117158146Y-86402677D01*
X117160273Y-86403814D01*
X117348868Y-86461024D01*
X117545000Y-86480341D01*
X117741132Y-86461024D01*
X117929727Y-86403814D01*
X118103538Y-86310910D01*
X118103544Y-86310904D01*
X118108607Y-86307523D01*
X118109624Y-86309045D01*
X118166021Y-86285084D01*
X118234890Y-86296866D01*
X118251424Y-86307489D01*
X118251678Y-86307110D01*
X118256738Y-86310491D01*
X118430465Y-86403349D01*
X118565000Y-86444159D01*
X119064999Y-86444159D01*
X119199538Y-86403348D01*
X119373258Y-86310493D01*
X119378328Y-86307106D01*
X119379369Y-86308665D01*
X119435616Y-86284762D01*
X119504487Y-86296538D01*
X119521457Y-86307440D01*
X119521678Y-86307110D01*
X119526738Y-86310491D01*
X119700465Y-86403349D01*
X119835000Y-86444159D01*
X119835000Y-85725000D01*
X119065000Y-85725000D01*
X119064999Y-86444159D01*
X118565000Y-86444159D01*
X118564999Y-85682672D01*
X118602871Y-85727805D01*
X118702129Y-85785112D01*
X118786564Y-85800000D01*
X118843436Y-85800000D01*
X118927871Y-85785112D01*
X119027129Y-85727805D01*
X119100801Y-85640007D01*
X119140000Y-85532306D01*
X119140000Y-85417694D01*
X119100801Y-85309993D01*
X119029483Y-85225000D01*
X119870517Y-85225000D01*
X119799199Y-85309993D01*
X119760000Y-85417694D01*
X119760000Y-85532306D01*
X119799199Y-85640007D01*
X119872871Y-85727805D01*
X119972129Y-85785112D01*
X120056564Y-85800000D01*
X120113436Y-85800000D01*
X120197871Y-85785112D01*
X120297129Y-85727805D01*
X120334999Y-85682672D01*
X120335000Y-86444159D01*
X120469534Y-86403349D01*
X120643259Y-86310492D01*
X120648320Y-86307111D01*
X120649444Y-86308793D01*
X120705203Y-86285086D01*
X120774075Y-86296851D01*
X120791186Y-86307843D01*
X120791399Y-86307526D01*
X120796457Y-86310906D01*
X120796462Y-86310910D01*
X120928143Y-86381295D01*
X120968147Y-86402678D01*
X120970273Y-86403814D01*
X121158868Y-86461024D01*
X121355000Y-86480341D01*
X121551132Y-86461024D01*
X121739727Y-86403814D01*
X121913538Y-86310910D01*
X121913544Y-86310904D01*
X121918607Y-86307523D01*
X121919624Y-86309045D01*
X121976021Y-86285084D01*
X122044890Y-86296866D01*
X122061424Y-86307489D01*
X122061678Y-86307110D01*
X122066738Y-86310491D01*
X122240465Y-86403349D01*
X122375000Y-86444159D01*
X122375000Y-85682672D01*
X122412871Y-85727805D01*
X122512129Y-85785112D01*
X122596564Y-85800000D01*
X122653436Y-85800000D01*
X122737871Y-85785112D01*
X122837129Y-85727805D01*
X122874999Y-85682672D01*
X122874999Y-86444159D01*
X123009534Y-86403349D01*
X123183259Y-86310492D01*
X123188320Y-86307111D01*
X123189444Y-86308793D01*
X123245203Y-86285086D01*
X123314075Y-86296851D01*
X123331186Y-86307843D01*
X123331399Y-86307526D01*
X123336457Y-86310906D01*
X123336462Y-86310910D01*
X123468143Y-86381295D01*
X123508147Y-86402678D01*
X123510273Y-86403814D01*
X123698868Y-86461024D01*
X123895000Y-86480341D01*
X124091132Y-86461024D01*
X124279727Y-86403814D01*
X124281853Y-86402678D01*
X124413060Y-86332546D01*
X124453538Y-86310910D01*
X124605883Y-86185883D01*
X124730910Y-86033538D01*
X124823814Y-85859727D01*
X124881024Y-85671132D01*
X124881024Y-85671128D01*
X124881889Y-85668278D01*
X124920187Y-85609839D01*
X124983999Y-85581383D01*
X125053066Y-85591943D01*
X125089169Y-85618685D01*
X125089300Y-85618540D01*
X125090817Y-85619906D01*
X125092699Y-85621300D01*
X125094128Y-85622887D01*
X125094129Y-85622888D01*
X125247265Y-85734148D01*
X125247270Y-85734151D01*
X125420192Y-85811142D01*
X125420197Y-85811144D01*
X125605354Y-85850500D01*
X125605355Y-85850500D01*
X125794644Y-85850500D01*
X125794646Y-85850500D01*
X125979803Y-85811144D01*
X126152730Y-85734151D01*
X126305871Y-85622888D01*
X126432533Y-85482216D01*
X126527179Y-85318284D01*
X126585674Y-85138256D01*
X126605460Y-84950000D01*
X126585674Y-84761744D01*
X126527179Y-84581716D01*
X126432533Y-84417784D01*
X126305871Y-84277112D01*
X126305870Y-84277111D01*
X126152734Y-84165851D01*
X126152729Y-84165848D01*
X125979807Y-84088857D01*
X125979802Y-84088855D01*
X125834001Y-84057865D01*
X125794646Y-84049500D01*
X125605354Y-84049500D01*
X125572897Y-84056398D01*
X125420197Y-84088855D01*
X125420192Y-84088857D01*
X125247270Y-84165848D01*
X125247265Y-84165851D01*
X125094986Y-84276488D01*
X125029179Y-84299968D01*
X124961126Y-84284142D01*
X124912431Y-84234036D01*
X124898698Y-84188326D01*
X124881024Y-84008868D01*
X124823814Y-83820273D01*
X124823811Y-83820269D01*
X124823811Y-83820266D01*
X124730913Y-83646467D01*
X124730909Y-83646460D01*
X124605883Y-83494116D01*
X124453539Y-83369090D01*
X124453532Y-83369086D01*
X124279733Y-83276188D01*
X124279727Y-83276186D01*
X124091132Y-83218976D01*
X124091129Y-83218975D01*
X123895000Y-83199659D01*
X123698870Y-83218975D01*
X123510266Y-83276188D01*
X123336467Y-83369086D01*
X123331399Y-83372473D01*
X123330305Y-83370836D01*
X123274337Y-83394596D01*
X123205471Y-83382795D01*
X123188843Y-83372109D01*
X123188601Y-83372473D01*
X123183532Y-83369086D01*
X123009733Y-83276188D01*
X123009727Y-83276186D01*
X122821132Y-83218976D01*
X122821129Y-83218975D01*
X122625000Y-83199659D01*
X122428870Y-83218975D01*
X122240266Y-83276188D01*
X122066467Y-83369086D01*
X122061399Y-83372473D01*
X122060305Y-83370836D01*
X122004337Y-83394596D01*
X121935471Y-83382795D01*
X121918843Y-83372109D01*
X121918601Y-83372473D01*
X121913532Y-83369086D01*
X121739733Y-83276188D01*
X121739727Y-83276186D01*
X121551132Y-83218976D01*
X121551129Y-83218975D01*
X121355000Y-83199659D01*
X121158870Y-83218975D01*
X120970266Y-83276188D01*
X120796467Y-83369086D01*
X120791399Y-83372473D01*
X120790305Y-83370836D01*
X120734337Y-83394596D01*
X120665471Y-83382795D01*
X120648843Y-83372109D01*
X120648601Y-83372473D01*
X120643532Y-83369086D01*
X120469733Y-83276188D01*
X120469727Y-83276186D01*
X120281132Y-83218976D01*
X120281129Y-83218975D01*
X120085000Y-83199659D01*
X119888870Y-83218975D01*
X119700266Y-83276188D01*
X119526467Y-83369086D01*
X119521399Y-83372473D01*
X119520305Y-83370836D01*
X119464337Y-83394596D01*
X119395471Y-83382795D01*
X119378843Y-83372109D01*
X119378601Y-83372473D01*
X119373532Y-83369086D01*
X119199733Y-83276188D01*
X119199727Y-83276186D01*
X119011132Y-83218976D01*
X119011129Y-83218975D01*
X118815000Y-83199659D01*
X118618870Y-83218975D01*
X118430266Y-83276188D01*
X118256467Y-83369086D01*
X118251399Y-83372473D01*
X118250305Y-83370836D01*
X118194337Y-83394596D01*
X118125471Y-83382795D01*
X118108843Y-83372109D01*
X118108601Y-83372473D01*
X118103532Y-83369086D01*
X117929733Y-83276188D01*
X117929727Y-83276186D01*
X117741132Y-83218976D01*
X117741129Y-83218975D01*
X117545000Y-83199659D01*
X117348870Y-83218975D01*
X117160266Y-83276188D01*
X116986465Y-83369087D01*
X116981405Y-83372469D01*
X116980314Y-83370836D01*
X116924317Y-83394600D01*
X116855453Y-83382787D01*
X116838844Y-83372109D01*
X116838601Y-83372474D01*
X116833540Y-83369091D01*
X116833538Y-83369090D01*
X116711846Y-83304044D01*
X116659730Y-83276187D01*
X116471129Y-83218975D01*
X116275000Y-83199659D01*
X116078870Y-83218975D01*
X115890266Y-83276188D01*
X115716467Y-83369086D01*
X115716460Y-83369090D01*
X115564116Y-83494116D01*
X115439090Y-83646460D01*
X115439086Y-83646467D01*
X115346185Y-83820273D01*
X115343856Y-83825897D01*
X115342291Y-83825248D01*
X115308415Y-83876912D01*
X115244595Y-83905351D01*
X115175530Y-83894772D01*
X115123149Y-83848533D01*
X115104259Y-83789169D01*
X115085473Y-83442685D01*
X115085472Y-83442668D01*
X115027584Y-83089568D01*
X115027578Y-83089542D01*
X114988834Y-82950000D01*
X133969540Y-82950000D01*
X133989326Y-83138256D01*
X133989327Y-83138259D01*
X134047818Y-83318277D01*
X134047821Y-83318284D01*
X134142467Y-83482216D01*
X134153183Y-83494117D01*
X134269129Y-83622888D01*
X134422265Y-83734148D01*
X134422270Y-83734151D01*
X134595192Y-83811142D01*
X134595197Y-83811144D01*
X134780354Y-83850500D01*
X134780355Y-83850500D01*
X134969644Y-83850500D01*
X134969646Y-83850500D01*
X135154803Y-83811144D01*
X135327730Y-83734151D01*
X135480871Y-83622888D01*
X135607533Y-83482216D01*
X135702179Y-83318284D01*
X135760674Y-83138256D01*
X135780460Y-82950000D01*
X135760674Y-82761744D01*
X135702179Y-82581716D01*
X135607533Y-82417784D01*
X135480871Y-82277112D01*
X135476043Y-82273604D01*
X135327734Y-82165851D01*
X135327729Y-82165848D01*
X135154807Y-82088857D01*
X135154802Y-82088855D01*
X135009000Y-82057865D01*
X134969646Y-82049500D01*
X134780354Y-82049500D01*
X134747897Y-82056398D01*
X134595197Y-82088855D01*
X134595192Y-82088857D01*
X134422270Y-82165848D01*
X134422265Y-82165851D01*
X134269129Y-82277111D01*
X134142466Y-82417785D01*
X134047821Y-82581715D01*
X134047818Y-82581722D01*
X133994844Y-82744760D01*
X133989326Y-82761744D01*
X133969540Y-82950000D01*
X114988834Y-82950000D01*
X114931852Y-82744767D01*
X114931850Y-82744760D01*
X114799402Y-82412340D01*
X114799393Y-82412322D01*
X114631781Y-82096172D01*
X114430966Y-81799992D01*
X114303557Y-81649995D01*
X114303556Y-81649994D01*
X113097732Y-82855818D01*
X112934870Y-82665130D01*
X112744180Y-82502266D01*
X113952743Y-81293703D01*
X113952742Y-81293702D01*
X113939514Y-81281171D01*
X113939513Y-81281170D01*
X113654632Y-81064611D01*
X113654629Y-81064609D01*
X113348009Y-80880123D01*
X113023260Y-80729877D01*
X113023255Y-80729876D01*
X112684144Y-80615616D01*
X112334660Y-80538688D01*
X111978924Y-80500000D01*
X111621075Y-80500000D01*
X111265339Y-80538688D01*
X110915855Y-80615616D01*
X110576744Y-80729876D01*
X110576739Y-80729877D01*
X110251990Y-80880123D01*
X109945370Y-81064609D01*
X109945367Y-81064611D01*
X109660491Y-81281166D01*
X109647256Y-81293703D01*
X109647255Y-81293703D01*
X110855819Y-82502266D01*
X110665130Y-82665130D01*
X110502266Y-82855819D01*
X109296442Y-81649994D01*
X109296441Y-81649995D01*
X109169040Y-81799983D01*
X109169033Y-81799993D01*
X108968218Y-82096172D01*
X108800606Y-82412322D01*
X108800597Y-82412341D01*
X108734335Y-82578646D01*
X108691234Y-82633638D01*
X108625245Y-82656599D01*
X108557318Y-82640238D01*
X108509020Y-82589750D01*
X108495148Y-82533948D01*
X108473068Y-80250000D01*
X119344540Y-80250000D01*
X119364326Y-80438256D01*
X119364327Y-80438259D01*
X119422818Y-80618277D01*
X119422821Y-80618284D01*
X119517467Y-80782216D01*
X119605623Y-80880123D01*
X119644129Y-80922888D01*
X119797265Y-81034148D01*
X119797270Y-81034151D01*
X119970192Y-81111142D01*
X119970197Y-81111144D01*
X120155354Y-81150500D01*
X120155355Y-81150500D01*
X120344644Y-81150500D01*
X120344646Y-81150500D01*
X120529803Y-81111144D01*
X120702730Y-81034151D01*
X120855871Y-80922888D01*
X120982533Y-80782216D01*
X121077179Y-80618284D01*
X121135674Y-80438256D01*
X121155460Y-80250000D01*
X121135674Y-80061744D01*
X121077179Y-79881716D01*
X120982533Y-79717784D01*
X120855871Y-79577112D01*
X120855870Y-79577111D01*
X120702734Y-79465851D01*
X120702729Y-79465848D01*
X120529807Y-79388857D01*
X120529802Y-79388855D01*
X120384000Y-79357865D01*
X120344646Y-79349500D01*
X120155354Y-79349500D01*
X120122897Y-79356398D01*
X119970197Y-79388855D01*
X119970192Y-79388857D01*
X119797270Y-79465848D01*
X119797265Y-79465851D01*
X119644129Y-79577111D01*
X119517466Y-79717785D01*
X119422821Y-79881715D01*
X119422818Y-79881722D01*
X119364327Y-80061740D01*
X119364326Y-80061744D01*
X119344540Y-80250000D01*
X108473068Y-80250000D01*
X108461425Y-79045650D01*
X121108765Y-79045650D01*
X121128551Y-79233906D01*
X121128552Y-79233909D01*
X121187043Y-79413927D01*
X121187046Y-79413934D01*
X121281692Y-79577866D01*
X121407675Y-79717784D01*
X121408354Y-79718538D01*
X121561490Y-79829798D01*
X121561495Y-79829801D01*
X121734417Y-79906792D01*
X121734422Y-79906794D01*
X121919579Y-79946150D01*
X121919580Y-79946150D01*
X122108869Y-79946150D01*
X122108871Y-79946150D01*
X122175730Y-79931938D01*
X122245393Y-79937253D01*
X122293658Y-79970255D01*
X122355217Y-80038622D01*
X122355224Y-80038628D01*
X122495017Y-80140193D01*
X122537683Y-80195522D01*
X122544596Y-80247049D01*
X122545446Y-80247049D01*
X122545446Y-80253383D01*
X122545455Y-80253451D01*
X122545446Y-80253536D01*
X122545446Y-80253543D01*
X122545446Y-80253546D01*
X122565232Y-80441802D01*
X122565233Y-80441805D01*
X122623724Y-80621823D01*
X122623727Y-80621830D01*
X122718373Y-80785762D01*
X122819332Y-80897888D01*
X122845035Y-80926434D01*
X122998171Y-81037694D01*
X122998176Y-81037697D01*
X123171098Y-81114688D01*
X123171103Y-81114690D01*
X123356260Y-81154046D01*
X123356261Y-81154046D01*
X123545550Y-81154046D01*
X123545552Y-81154046D01*
X123730709Y-81114690D01*
X123903636Y-81037697D01*
X123905649Y-81036234D01*
X123907016Y-81035746D01*
X123909265Y-81034448D01*
X123909502Y-81034859D01*
X123971451Y-81012750D01*
X124028976Y-81023267D01*
X124170197Y-81086144D01*
X124355354Y-81125500D01*
X124355355Y-81125500D01*
X124544644Y-81125500D01*
X124544646Y-81125500D01*
X124729803Y-81086144D01*
X124902730Y-81009151D01*
X125055871Y-80897888D01*
X125182533Y-80757216D01*
X125277179Y-80593284D01*
X125295405Y-80537189D01*
X125334840Y-80479517D01*
X125387554Y-80454219D01*
X125540392Y-80421733D01*
X125713319Y-80344740D01*
X125866460Y-80233477D01*
X125993122Y-80092805D01*
X126087768Y-79928873D01*
X126146263Y-79748845D01*
X126166049Y-79560589D01*
X126146263Y-79372333D01*
X126087768Y-79192305D01*
X125993122Y-79028373D01*
X125866460Y-78887701D01*
X125864317Y-78886144D01*
X125713323Y-78776440D01*
X125713318Y-78776437D01*
X125540396Y-78699446D01*
X125540391Y-78699444D01*
X125394590Y-78668454D01*
X125355235Y-78660089D01*
X125165943Y-78660089D01*
X125133486Y-78666987D01*
X124980786Y-78699444D01*
X124980781Y-78699446D01*
X124807859Y-78776437D01*
X124807854Y-78776440D01*
X124654718Y-78887700D01*
X124528055Y-79028374D01*
X124433410Y-79192304D01*
X124433408Y-79192308D01*
X124415184Y-79248398D01*
X124375746Y-79306073D01*
X124323034Y-79331369D01*
X124170197Y-79363855D01*
X124170192Y-79363857D01*
X124035851Y-79423671D01*
X123966601Y-79432956D01*
X123903324Y-79403328D01*
X123866111Y-79344193D01*
X123862095Y-79323359D01*
X123846763Y-79177479D01*
X123788268Y-78997451D01*
X123693622Y-78833519D01*
X123566960Y-78692847D01*
X123566959Y-78692846D01*
X123413823Y-78581586D01*
X123413818Y-78581583D01*
X123240896Y-78504592D01*
X123240891Y-78504590D01*
X123071086Y-78468498D01*
X123055735Y-78465235D01*
X122907008Y-78465235D01*
X122839969Y-78445550D01*
X122794214Y-78392746D01*
X122784270Y-78323588D01*
X122799621Y-78279235D01*
X122837712Y-78213259D01*
X122881218Y-78137904D01*
X122917903Y-78025000D01*
X131522040Y-78025000D01*
X131541826Y-78213256D01*
X131541827Y-78213259D01*
X131600318Y-78393277D01*
X131600321Y-78393284D01*
X131694967Y-78557216D01*
X131787595Y-78660089D01*
X131821629Y-78697888D01*
X131974765Y-78809148D01*
X131974770Y-78809151D01*
X132147692Y-78886142D01*
X132147697Y-78886144D01*
X132332854Y-78925500D01*
X132332855Y-78925500D01*
X132522144Y-78925500D01*
X132522146Y-78925500D01*
X132707303Y-78886144D01*
X132880230Y-78809151D01*
X133033371Y-78697888D01*
X133160033Y-78557216D01*
X133251090Y-78399500D01*
X134484040Y-78399500D01*
X134503826Y-78587756D01*
X134503827Y-78587759D01*
X134562318Y-78767777D01*
X134562321Y-78767784D01*
X134656967Y-78931716D01*
X134736556Y-79020108D01*
X134783629Y-79072388D01*
X134936765Y-79183648D01*
X134936770Y-79183651D01*
X135109692Y-79260642D01*
X135109697Y-79260644D01*
X135294854Y-79300000D01*
X135294855Y-79300000D01*
X135484144Y-79300000D01*
X135484146Y-79300000D01*
X135669303Y-79260644D01*
X135842230Y-79183651D01*
X135842233Y-79183648D01*
X135847863Y-79180399D01*
X135848619Y-79181709D01*
X135907115Y-79160830D01*
X135975171Y-79176647D01*
X136023872Y-79226747D01*
X136037529Y-79271663D01*
X136039325Y-79288753D01*
X136039326Y-79288757D01*
X136097818Y-79468777D01*
X136097821Y-79468784D01*
X136192467Y-79632716D01*
X136269063Y-79717784D01*
X136319129Y-79773388D01*
X136472265Y-79884648D01*
X136472270Y-79884651D01*
X136645192Y-79961642D01*
X136645197Y-79961644D01*
X136830354Y-80001000D01*
X136830355Y-80001000D01*
X137019644Y-80001000D01*
X137019646Y-80001000D01*
X137204803Y-79961644D01*
X137377730Y-79884651D01*
X137464275Y-79821771D01*
X137530079Y-79798293D01*
X137598133Y-79814118D01*
X137644546Y-79860091D01*
X137679482Y-79920602D01*
X137806144Y-80061273D01*
X137806144Y-80061274D01*
X137959280Y-80172534D01*
X137959285Y-80172537D01*
X138132207Y-80249528D01*
X138132212Y-80249530D01*
X138317369Y-80288886D01*
X138317370Y-80288886D01*
X138506659Y-80288886D01*
X138506661Y-80288886D01*
X138691818Y-80249530D01*
X138864745Y-80172537D01*
X139017886Y-80061274D01*
X139144548Y-79920602D01*
X139239194Y-79756670D01*
X139297689Y-79576642D01*
X139317475Y-79388386D01*
X139297689Y-79200130D01*
X139239194Y-79020102D01*
X139144548Y-78856170D01*
X139017886Y-78715498D01*
X139017885Y-78715497D01*
X138864749Y-78604237D01*
X138864744Y-78604234D01*
X138691822Y-78527243D01*
X138691817Y-78527241D01*
X138536978Y-78494330D01*
X138506661Y-78487886D01*
X138317369Y-78487886D01*
X138287052Y-78494330D01*
X138132212Y-78527241D01*
X138132207Y-78527243D01*
X137959286Y-78604234D01*
X137872740Y-78667113D01*
X137806933Y-78690592D01*
X137738879Y-78674766D01*
X137692468Y-78628794D01*
X137657533Y-78568284D01*
X137530871Y-78427612D01*
X137511112Y-78413256D01*
X137377734Y-78316351D01*
X137377729Y-78316348D01*
X137204807Y-78239357D01*
X137204802Y-78239355D01*
X137137265Y-78225000D01*
X139694540Y-78225000D01*
X139714326Y-78413256D01*
X139714327Y-78413259D01*
X139772818Y-78593277D01*
X139772821Y-78593284D01*
X139867467Y-78757216D01*
X139957668Y-78857394D01*
X139994129Y-78897888D01*
X140147265Y-79009148D01*
X140147270Y-79009151D01*
X140320192Y-79086142D01*
X140320197Y-79086144D01*
X140505354Y-79125500D01*
X140505355Y-79125500D01*
X140694644Y-79125500D01*
X140694646Y-79125500D01*
X140879803Y-79086144D01*
X141052730Y-79009151D01*
X141205871Y-78897888D01*
X141332533Y-78757216D01*
X141427179Y-78593284D01*
X141485674Y-78413256D01*
X141505460Y-78225000D01*
X141485674Y-78036744D01*
X141427179Y-77856716D01*
X141332533Y-77692784D01*
X141205871Y-77552112D01*
X141186939Y-77538357D01*
X141052734Y-77440851D01*
X141052729Y-77440848D01*
X140879807Y-77363857D01*
X140879802Y-77363855D01*
X140734001Y-77332865D01*
X140694646Y-77324500D01*
X140505354Y-77324500D01*
X140472897Y-77331398D01*
X140320197Y-77363855D01*
X140320192Y-77363857D01*
X140147270Y-77440848D01*
X140147265Y-77440851D01*
X139994129Y-77552111D01*
X139867466Y-77692785D01*
X139772821Y-77856715D01*
X139772818Y-77856722D01*
X139718142Y-78025000D01*
X139714326Y-78036744D01*
X139694540Y-78225000D01*
X137137265Y-78225000D01*
X137059001Y-78208365D01*
X137019646Y-78200000D01*
X136830354Y-78200000D01*
X136797897Y-78206898D01*
X136645197Y-78239355D01*
X136645192Y-78239357D01*
X136472270Y-78316348D01*
X136466637Y-78319601D01*
X136465883Y-78318295D01*
X136407352Y-78339171D01*
X136339300Y-78323336D01*
X136290612Y-78273224D01*
X136276970Y-78228335D01*
X136275174Y-78211244D01*
X136216679Y-78031216D01*
X136122033Y-77867284D01*
X135995371Y-77726612D01*
X135995370Y-77726611D01*
X135842234Y-77615351D01*
X135842229Y-77615348D01*
X135669307Y-77538357D01*
X135669302Y-77538355D01*
X135523501Y-77507365D01*
X135484146Y-77499000D01*
X135294854Y-77499000D01*
X135262397Y-77505898D01*
X135109697Y-77538355D01*
X135109692Y-77538357D01*
X134936770Y-77615348D01*
X134936765Y-77615351D01*
X134783629Y-77726611D01*
X134656966Y-77867285D01*
X134562321Y-78031215D01*
X134562318Y-78031222D01*
X134507479Y-78200000D01*
X134503826Y-78211244D01*
X134484040Y-78399500D01*
X133251090Y-78399500D01*
X133254679Y-78393284D01*
X133313174Y-78213256D01*
X133332960Y-78025000D01*
X133313174Y-77836744D01*
X133254679Y-77656716D01*
X133160033Y-77492784D01*
X133033371Y-77352112D01*
X132990827Y-77321202D01*
X132929541Y-77276675D01*
X132886876Y-77221345D01*
X132880897Y-77151731D01*
X132913503Y-77089936D01*
X132974342Y-77055579D01*
X132976548Y-77055088D01*
X133004303Y-77049189D01*
X133177230Y-76972196D01*
X133330371Y-76860933D01*
X133457033Y-76720261D01*
X133551679Y-76556329D01*
X133610174Y-76376301D01*
X133629960Y-76188045D01*
X133612838Y-76025138D01*
X139290051Y-76025138D01*
X139309837Y-76213394D01*
X139309838Y-76213397D01*
X139368329Y-76393415D01*
X139368332Y-76393422D01*
X139462978Y-76557354D01*
X139589639Y-76698026D01*
X139589640Y-76698026D01*
X139742776Y-76809286D01*
X139742781Y-76809289D01*
X139915703Y-76886280D01*
X139915708Y-76886282D01*
X140100865Y-76925638D01*
X140100866Y-76925638D01*
X140290155Y-76925638D01*
X140290157Y-76925638D01*
X140475314Y-76886282D01*
X140602823Y-76829510D01*
X140672070Y-76820225D01*
X140724095Y-76841016D01*
X140807194Y-76898855D01*
X140994092Y-76979059D01*
X141193310Y-77020000D01*
X141595000Y-77020000D01*
X141595000Y-76320000D01*
X142095000Y-76320000D01*
X142095000Y-77020000D01*
X142445713Y-77020000D01*
X142597338Y-77004581D01*
X142791381Y-76943700D01*
X142791391Y-76943695D01*
X142969215Y-76844994D01*
X142969216Y-76844994D01*
X143123530Y-76712521D01*
X143123531Y-76712520D01*
X143248018Y-76551695D01*
X143337588Y-76369093D01*
X143363246Y-76270000D01*
X144751634Y-76270000D01*
X144751931Y-76271946D01*
X144751933Y-76271952D01*
X144822562Y-76462657D01*
X144822565Y-76462664D01*
X144930149Y-76635267D01*
X145070264Y-76782668D01*
X145070266Y-76782669D01*
X145237195Y-76898856D01*
X145424092Y-76979059D01*
X145623310Y-77020000D01*
X145775000Y-77020000D01*
X145775000Y-76320000D01*
X146275000Y-76320000D01*
X146275000Y-77020000D01*
X146375713Y-77020000D01*
X146527338Y-77004581D01*
X146721381Y-76943700D01*
X146721391Y-76943695D01*
X146899215Y-76844994D01*
X146899216Y-76844994D01*
X147053530Y-76712521D01*
X147053531Y-76712520D01*
X147178018Y-76551695D01*
X147267588Y-76369093D01*
X147293246Y-76270000D01*
X146491111Y-76270000D01*
X146530610Y-76245543D01*
X146598201Y-76156038D01*
X146628895Y-76048160D01*
X146618546Y-75936479D01*
X146568552Y-75836078D01*
X146496069Y-75770000D01*
X147298366Y-75770000D01*
X147298068Y-75768053D01*
X147298066Y-75768047D01*
X147227437Y-75577342D01*
X147227434Y-75577335D01*
X147119850Y-75404732D01*
X146979735Y-75257331D01*
X146979733Y-75257330D01*
X146812804Y-75141143D01*
X146625907Y-75060940D01*
X146426690Y-75020000D01*
X146275000Y-75020000D01*
X146275000Y-75720000D01*
X145775000Y-75720000D01*
X145775000Y-75020000D01*
X145674287Y-75020000D01*
X145522661Y-75035418D01*
X145328618Y-75096299D01*
X145328608Y-75096304D01*
X145150784Y-75195005D01*
X145150783Y-75195005D01*
X144996469Y-75327478D01*
X144996468Y-75327479D01*
X144871981Y-75488304D01*
X144782411Y-75670906D01*
X144756754Y-75770000D01*
X145558889Y-75770000D01*
X145519390Y-75794457D01*
X145451799Y-75883962D01*
X145421105Y-75991840D01*
X145431454Y-76103521D01*
X145481448Y-76203922D01*
X145553931Y-76270000D01*
X144751634Y-76270000D01*
X143363246Y-76270000D01*
X142561111Y-76270000D01*
X142600610Y-76245543D01*
X142668201Y-76156038D01*
X142698895Y-76048160D01*
X142688546Y-75936479D01*
X142638552Y-75836078D01*
X142566069Y-75770000D01*
X143368366Y-75770000D01*
X143368068Y-75768053D01*
X143368066Y-75768047D01*
X143297437Y-75577342D01*
X143297434Y-75577335D01*
X143189850Y-75404732D01*
X143049735Y-75257331D01*
X143049733Y-75257330D01*
X142882804Y-75141143D01*
X142874924Y-75137762D01*
X142821080Y-75093235D01*
X142799857Y-75026666D01*
X142817992Y-74959192D01*
X142825443Y-74948332D01*
X142877698Y-74880233D01*
X142935687Y-74740236D01*
X142955466Y-74590000D01*
X142935687Y-74439764D01*
X142877698Y-74299767D01*
X142785451Y-74179549D01*
X142665233Y-74087302D01*
X142665229Y-74087300D01*
X142589502Y-74055933D01*
X142525236Y-74029313D01*
X142511171Y-74027461D01*
X142412727Y-74014500D01*
X142412720Y-74014500D01*
X142337280Y-74014500D01*
X142337272Y-74014500D01*
X142224764Y-74029313D01*
X142224763Y-74029313D01*
X142084770Y-74087300D01*
X142084767Y-74087301D01*
X142084767Y-74087302D01*
X141964549Y-74179549D01*
X141886149Y-74281722D01*
X141872300Y-74299770D01*
X141814313Y-74439763D01*
X141814312Y-74439765D01*
X141794534Y-74589999D01*
X141794534Y-74590000D01*
X141814312Y-74740234D01*
X141814313Y-74740236D01*
X141859177Y-74848547D01*
X141866646Y-74918017D01*
X141835371Y-74980496D01*
X141775282Y-75016148D01*
X141744616Y-75020000D01*
X141244287Y-75020000D01*
X141092661Y-75035418D01*
X140898618Y-75096299D01*
X140898608Y-75096304D01*
X140720781Y-75195006D01*
X140720264Y-75195451D01*
X140719920Y-75195605D01*
X140715623Y-75198597D01*
X140715065Y-75197795D01*
X140656573Y-75224179D01*
X140589064Y-75214639D01*
X140475318Y-75163995D01*
X140475313Y-75163993D01*
X140329512Y-75133003D01*
X140290157Y-75124638D01*
X140100865Y-75124638D01*
X140068408Y-75131536D01*
X139915708Y-75163993D01*
X139915703Y-75163995D01*
X139742781Y-75240986D01*
X139742776Y-75240989D01*
X139589640Y-75352249D01*
X139462977Y-75492923D01*
X139368332Y-75656853D01*
X139368329Y-75656860D01*
X139310098Y-75836078D01*
X139309837Y-75836882D01*
X139290051Y-76025138D01*
X133612838Y-76025138D01*
X133610174Y-75999789D01*
X133551679Y-75819761D01*
X133457033Y-75655829D01*
X133409955Y-75603544D01*
X133379726Y-75540554D01*
X133388351Y-75471219D01*
X133429221Y-75420255D01*
X133432369Y-75417967D01*
X133528826Y-75347888D01*
X133655488Y-75207216D01*
X133750134Y-75043284D01*
X133808629Y-74863256D01*
X133828415Y-74675000D01*
X133827258Y-74663994D01*
X133839827Y-74595266D01*
X133887559Y-74544242D01*
X133955299Y-74527124D01*
X134001015Y-74537755D01*
X134109691Y-74586142D01*
X134109694Y-74586142D01*
X134109697Y-74586144D01*
X134115807Y-74587442D01*
X134177289Y-74620632D01*
X134211068Y-74681793D01*
X134213349Y-74695764D01*
X134228326Y-74838256D01*
X134228327Y-74838259D01*
X134286818Y-75018277D01*
X134286821Y-75018284D01*
X134381467Y-75182216D01*
X134507771Y-75322490D01*
X134508129Y-75322888D01*
X134661265Y-75434148D01*
X134661270Y-75434151D01*
X134834192Y-75511142D01*
X134834197Y-75511144D01*
X135019354Y-75550500D01*
X135019355Y-75550500D01*
X135208644Y-75550500D01*
X135208646Y-75550500D01*
X135393803Y-75511144D01*
X135566730Y-75434151D01*
X135719871Y-75322888D01*
X135846533Y-75182216D01*
X135941179Y-75018284D01*
X135999674Y-74838256D01*
X136019460Y-74650000D01*
X135999674Y-74461744D01*
X135941179Y-74281716D01*
X135846533Y-74117784D01*
X135719871Y-73977112D01*
X135691116Y-73956220D01*
X135566734Y-73865851D01*
X135566729Y-73865848D01*
X135393807Y-73788857D01*
X135393802Y-73788855D01*
X135387688Y-73787556D01*
X135326206Y-73754364D01*
X135292430Y-73693201D01*
X135290151Y-73679247D01*
X135275174Y-73536744D01*
X135216679Y-73356716D01*
X135122033Y-73192784D01*
X134995371Y-73052112D01*
X134929763Y-73004445D01*
X134842234Y-72940851D01*
X134842232Y-72940850D01*
X134708261Y-72881201D01*
X134684502Y-72861006D01*
X134668897Y-72863402D01*
X134659596Y-72861792D01*
X134484146Y-72824500D01*
X134294854Y-72824500D01*
X134262397Y-72831398D01*
X134109697Y-72863855D01*
X134109692Y-72863857D01*
X133936770Y-72940848D01*
X133936765Y-72940851D01*
X133783629Y-73052111D01*
X133656966Y-73192785D01*
X133562321Y-73356715D01*
X133562318Y-73356722D01*
X133503827Y-73536740D01*
X133503826Y-73536744D01*
X133484040Y-73725000D01*
X133484040Y-73725002D01*
X133484040Y-73725005D01*
X133485196Y-73736009D01*
X133472624Y-73804739D01*
X133424889Y-73855760D01*
X133357148Y-73872875D01*
X133311439Y-73862244D01*
X133202762Y-73813857D01*
X133202757Y-73813855D01*
X133056956Y-73782865D01*
X133017601Y-73774500D01*
X132828309Y-73774500D01*
X132795852Y-73781398D01*
X132643152Y-73813855D01*
X132643147Y-73813857D01*
X132470225Y-73890848D01*
X132470220Y-73890851D01*
X132317084Y-74002111D01*
X132190421Y-74142785D01*
X132095776Y-74306715D01*
X132095773Y-74306722D01*
X132052545Y-74439765D01*
X132037281Y-74486744D01*
X132017495Y-74675000D01*
X132037281Y-74863256D01*
X132037282Y-74863259D01*
X132095773Y-75043277D01*
X132095776Y-75043284D01*
X132190422Y-75207216D01*
X132235545Y-75257330D01*
X132237498Y-75259499D01*
X132267728Y-75322490D01*
X132259103Y-75391826D01*
X132218234Y-75442789D01*
X132118627Y-75515158D01*
X131991966Y-75655830D01*
X131897321Y-75819760D01*
X131897318Y-75819767D01*
X131838827Y-75999785D01*
X131838826Y-75999789D01*
X131819040Y-76188045D01*
X131838826Y-76376301D01*
X131838827Y-76376304D01*
X131897318Y-76556322D01*
X131897321Y-76556329D01*
X131991967Y-76720261D01*
X132118629Y-76860933D01*
X132170826Y-76898856D01*
X132222458Y-76936369D01*
X132265123Y-76991699D01*
X132271102Y-77061312D01*
X132238496Y-77123107D01*
X132177657Y-77157465D01*
X132175354Y-77157977D01*
X132147696Y-77163856D01*
X132147692Y-77163857D01*
X131974770Y-77240848D01*
X131974765Y-77240851D01*
X131821629Y-77352111D01*
X131694966Y-77492785D01*
X131600321Y-77656715D01*
X131600318Y-77656722D01*
X131541827Y-77836740D01*
X131541826Y-77836744D01*
X131522040Y-78025000D01*
X122917903Y-78025000D01*
X122939713Y-77957876D01*
X122959499Y-77769620D01*
X122939713Y-77581364D01*
X122881218Y-77401336D01*
X122786572Y-77237404D01*
X122659910Y-77096732D01*
X122659909Y-77096731D01*
X122506773Y-76985471D01*
X122506768Y-76985468D01*
X122333846Y-76908477D01*
X122333841Y-76908475D01*
X122188039Y-76877485D01*
X122148685Y-76869120D01*
X121959393Y-76869120D01*
X121926936Y-76876018D01*
X121774236Y-76908475D01*
X121774231Y-76908477D01*
X121601309Y-76985468D01*
X121601304Y-76985471D01*
X121448168Y-77096731D01*
X121321505Y-77237405D01*
X121226860Y-77401335D01*
X121226857Y-77401342D01*
X121168366Y-77581360D01*
X121168365Y-77581364D01*
X121148579Y-77769620D01*
X121168365Y-77957876D01*
X121168366Y-77957879D01*
X121226857Y-78137897D01*
X121226860Y-78137904D01*
X121321505Y-78301835D01*
X121321508Y-78301840D01*
X121322156Y-78302559D01*
X121322398Y-78303065D01*
X121325324Y-78307091D01*
X121324587Y-78307626D01*
X121352383Y-78365552D01*
X121343754Y-78434887D01*
X121322154Y-78468496D01*
X121281692Y-78513434D01*
X121281690Y-78513435D01*
X121281689Y-78513438D01*
X121187046Y-78677365D01*
X121187043Y-78677372D01*
X121128948Y-78856171D01*
X121128551Y-78857394D01*
X121108765Y-79045650D01*
X108461425Y-79045650D01*
X108429665Y-75760516D01*
X108414042Y-74144476D01*
X116059044Y-74144476D01*
X116078830Y-74332732D01*
X116078831Y-74332735D01*
X116137322Y-74512753D01*
X116137325Y-74512760D01*
X116231971Y-74676692D01*
X116336240Y-74792494D01*
X116358633Y-74817364D01*
X116511769Y-74928624D01*
X116511774Y-74928627D01*
X116684696Y-75005618D01*
X116684701Y-75005620D01*
X116869858Y-75044976D01*
X116869859Y-75044976D01*
X117059148Y-75044976D01*
X117059150Y-75044976D01*
X117244307Y-75005620D01*
X117417234Y-74928627D01*
X117570375Y-74817364D01*
X117697037Y-74676692D01*
X117791683Y-74512760D01*
X117850178Y-74332732D01*
X117869964Y-74144476D01*
X117850178Y-73956220D01*
X117791683Y-73776192D01*
X117697037Y-73612260D01*
X117570375Y-73471588D01*
X117570374Y-73471587D01*
X117417238Y-73360327D01*
X117417233Y-73360324D01*
X117244311Y-73283333D01*
X117244306Y-73283331D01*
X117098504Y-73252341D01*
X117059150Y-73243976D01*
X116869858Y-73243976D01*
X116837401Y-73250874D01*
X116684701Y-73283331D01*
X116684696Y-73283333D01*
X116511774Y-73360324D01*
X116511769Y-73360327D01*
X116358633Y-73471587D01*
X116231970Y-73612261D01*
X116137325Y-73776191D01*
X116137322Y-73776198D01*
X116078831Y-73956216D01*
X116078830Y-73956220D01*
X116059044Y-74144476D01*
X108414042Y-74144476D01*
X108400680Y-72762394D01*
X118232854Y-72762394D01*
X118252640Y-72950650D01*
X118252641Y-72950653D01*
X118311132Y-73130671D01*
X118311135Y-73130678D01*
X118405781Y-73294610D01*
X118532443Y-73435282D01*
X118622325Y-73500585D01*
X118664989Y-73555912D01*
X118670968Y-73625526D01*
X118638363Y-73687321D01*
X118622324Y-73701219D01*
X118553352Y-73751330D01*
X118426691Y-73892002D01*
X118332046Y-74055932D01*
X118332043Y-74055939D01*
X118273552Y-74235957D01*
X118273551Y-74235961D01*
X118253765Y-74424217D01*
X118273551Y-74612473D01*
X118273552Y-74612476D01*
X118332043Y-74792494D01*
X118332046Y-74792501D01*
X118426692Y-74956433D01*
X118506417Y-75044976D01*
X118553354Y-75097105D01*
X118706490Y-75208365D01*
X118706495Y-75208368D01*
X118879417Y-75285359D01*
X118879422Y-75285361D01*
X119064579Y-75324717D01*
X119064580Y-75324717D01*
X119253869Y-75324717D01*
X119253871Y-75324717D01*
X119439028Y-75285361D01*
X119611955Y-75208368D01*
X119765096Y-75097105D01*
X119891758Y-74956433D01*
X119985822Y-74793509D01*
X129207109Y-74793509D01*
X129226895Y-74981765D01*
X129226896Y-74981768D01*
X129285387Y-75161786D01*
X129285390Y-75161793D01*
X129380036Y-75325725D01*
X129485441Y-75442789D01*
X129506698Y-75466397D01*
X129659834Y-75577657D01*
X129659839Y-75577660D01*
X129832761Y-75654651D01*
X129832766Y-75654653D01*
X130017923Y-75694009D01*
X130017924Y-75694009D01*
X130207213Y-75694009D01*
X130207215Y-75694009D01*
X130392372Y-75654653D01*
X130565299Y-75577660D01*
X130718440Y-75466397D01*
X130845102Y-75325725D01*
X130939748Y-75161793D01*
X130998243Y-74981765D01*
X131018029Y-74793509D01*
X131005706Y-74676265D01*
X131018275Y-74607538D01*
X131056142Y-74562988D01*
X131089881Y-74538476D01*
X131216543Y-74397804D01*
X131311189Y-74233872D01*
X131369684Y-74053844D01*
X131389470Y-73865588D01*
X131369684Y-73677332D01*
X131311189Y-73497304D01*
X131216543Y-73333372D01*
X131089881Y-73192700D01*
X131089880Y-73192699D01*
X130936744Y-73081439D01*
X130936739Y-73081436D01*
X130763817Y-73004445D01*
X130763812Y-73004443D01*
X130618011Y-72973453D01*
X130578656Y-72965088D01*
X130389364Y-72965088D01*
X130356907Y-72971986D01*
X130204207Y-73004443D01*
X130204202Y-73004445D01*
X130031280Y-73081436D01*
X130031275Y-73081439D01*
X129878139Y-73192699D01*
X129751476Y-73333373D01*
X129656831Y-73497303D01*
X129656828Y-73497310D01*
X129598337Y-73677328D01*
X129598336Y-73677332D01*
X129583987Y-73813855D01*
X129578550Y-73865588D01*
X129590872Y-73982828D01*
X129578302Y-74051558D01*
X129540439Y-74096105D01*
X129506699Y-74120619D01*
X129506692Y-74120625D01*
X129380035Y-74261294D01*
X129285390Y-74425224D01*
X129285387Y-74425231D01*
X129233104Y-74586143D01*
X129226895Y-74605253D01*
X129207109Y-74793509D01*
X119985822Y-74793509D01*
X119986404Y-74792501D01*
X120044899Y-74612473D01*
X120064685Y-74424217D01*
X120044899Y-74235961D01*
X119986404Y-74055933D01*
X119891758Y-73892001D01*
X119765096Y-73751329D01*
X119675214Y-73686026D01*
X119632549Y-73630698D01*
X119626570Y-73561084D01*
X119659175Y-73499289D01*
X119675204Y-73485398D01*
X119744185Y-73435282D01*
X119870847Y-73294610D01*
X119965493Y-73130678D01*
X120023988Y-72950650D01*
X120043774Y-72762394D01*
X120023988Y-72574138D01*
X119965493Y-72394110D01*
X119870847Y-72230178D01*
X119868535Y-72226173D01*
X119852062Y-72158272D01*
X119874915Y-72092246D01*
X119929836Y-72049055D01*
X119999390Y-72042414D01*
X120026350Y-72050891D01*
X120184871Y-72121470D01*
X120370028Y-72160826D01*
X120370029Y-72160826D01*
X120559318Y-72160826D01*
X120559320Y-72160826D01*
X120744477Y-72121470D01*
X120917404Y-72044477D01*
X121070545Y-71933214D01*
X121197207Y-71792542D01*
X121291853Y-71628610D01*
X121350348Y-71448582D01*
X121370134Y-71260326D01*
X121361879Y-71181788D01*
X121374448Y-71113062D01*
X121422180Y-71062038D01*
X121489920Y-71044920D01*
X121535636Y-71055551D01*
X121575519Y-71073308D01*
X121575524Y-71073310D01*
X121760681Y-71112666D01*
X121760682Y-71112666D01*
X121949971Y-71112666D01*
X121949973Y-71112666D01*
X122135130Y-71073310D01*
X122308057Y-70996317D01*
X122461198Y-70885054D01*
X122587860Y-70744382D01*
X122682506Y-70580450D01*
X122741001Y-70400422D01*
X122754143Y-70275381D01*
X134145075Y-70275381D01*
X134164861Y-70463637D01*
X134164862Y-70463640D01*
X134223353Y-70643658D01*
X134223356Y-70643665D01*
X134318002Y-70807597D01*
X134387745Y-70885054D01*
X134445028Y-70948673D01*
X134475258Y-71011664D01*
X134466633Y-71080999D01*
X134445029Y-71114616D01*
X134322041Y-71251210D01*
X134227396Y-71415140D01*
X134227393Y-71415147D01*
X134215367Y-71452161D01*
X134168901Y-71595169D01*
X134149115Y-71783425D01*
X134168901Y-71971681D01*
X134168902Y-71971684D01*
X134227393Y-72151702D01*
X134227396Y-72151709D01*
X134322042Y-72315641D01*
X134448704Y-72456313D01*
X134601840Y-72567573D01*
X134601845Y-72567576D01*
X134735812Y-72627223D01*
X134759571Y-72647417D01*
X134775177Y-72645022D01*
X134784472Y-72646630D01*
X134959929Y-72683925D01*
X134959930Y-72683925D01*
X135149219Y-72683925D01*
X135149221Y-72683925D01*
X135334378Y-72644569D01*
X135507305Y-72567576D01*
X135660446Y-72456313D01*
X135787108Y-72315641D01*
X135881754Y-72151709D01*
X135940249Y-71971681D01*
X135960035Y-71783425D01*
X135940249Y-71595169D01*
X135881754Y-71415141D01*
X135787108Y-71251209D01*
X135660446Y-71110537D01*
X135660444Y-71110536D01*
X135660080Y-71110131D01*
X135629850Y-71047140D01*
X135638475Y-70977805D01*
X135660077Y-70944191D01*
X135783068Y-70807597D01*
X135877714Y-70643665D01*
X135936209Y-70463637D01*
X135955995Y-70275381D01*
X135936209Y-70087125D01*
X135877714Y-69907097D01*
X135783068Y-69743165D01*
X135656406Y-69602493D01*
X135655882Y-69602112D01*
X135503269Y-69491232D01*
X135503264Y-69491229D01*
X135330342Y-69414238D01*
X135330337Y-69414236D01*
X135184536Y-69383246D01*
X135145181Y-69374881D01*
X134955889Y-69374881D01*
X134923432Y-69381779D01*
X134770732Y-69414236D01*
X134770727Y-69414238D01*
X134597805Y-69491229D01*
X134597800Y-69491232D01*
X134444664Y-69602492D01*
X134318001Y-69743166D01*
X134223356Y-69907096D01*
X134223353Y-69907103D01*
X134164862Y-70087121D01*
X134164861Y-70087125D01*
X134145075Y-70275381D01*
X122754143Y-70275381D01*
X122760787Y-70212166D01*
X122741001Y-70023910D01*
X122682506Y-69843882D01*
X122587860Y-69679950D01*
X122461198Y-69539278D01*
X122422475Y-69511144D01*
X122308061Y-69428017D01*
X122308056Y-69428014D01*
X122135134Y-69351023D01*
X122135129Y-69351021D01*
X121989327Y-69320031D01*
X121949973Y-69311666D01*
X121760681Y-69311666D01*
X121661501Y-69332747D01*
X121635898Y-69338189D01*
X121566231Y-69332872D01*
X121510498Y-69290734D01*
X121502738Y-69278909D01*
X121425734Y-69145534D01*
X121299072Y-69004862D01*
X121299071Y-69004861D01*
X121145935Y-68893601D01*
X121145930Y-68893598D01*
X120973008Y-68816607D01*
X120973003Y-68816605D01*
X120827201Y-68785615D01*
X120787847Y-68777250D01*
X120598555Y-68777250D01*
X120566098Y-68784148D01*
X120413398Y-68816605D01*
X120413393Y-68816607D01*
X120240471Y-68893598D01*
X120240466Y-68893601D01*
X120087330Y-69004861D01*
X119960667Y-69145535D01*
X119866022Y-69309465D01*
X119866020Y-69309469D01*
X119829050Y-69423250D01*
X119789612Y-69480925D01*
X119736900Y-69506221D01*
X119563048Y-69543174D01*
X119563043Y-69543176D01*
X119390121Y-69620167D01*
X119390116Y-69620170D01*
X119236980Y-69731430D01*
X119110317Y-69872104D01*
X119015672Y-70036034D01*
X119015669Y-70036041D01*
X118958443Y-70212166D01*
X118957177Y-70216063D01*
X118954928Y-70237462D01*
X118937801Y-70400422D01*
X118937391Y-70404319D01*
X118957177Y-70592575D01*
X118957178Y-70592578D01*
X119015669Y-70772596D01*
X119015672Y-70772603D01*
X119110318Y-70936535D01*
X119217481Y-71055551D01*
X119236980Y-71077207D01*
X119390116Y-71188467D01*
X119390117Y-71188467D01*
X119390121Y-71188470D01*
X119484977Y-71230703D01*
X119494190Y-71234805D01*
X119547427Y-71280055D01*
X119567075Y-71335122D01*
X119579000Y-71448582D01*
X119579001Y-71448585D01*
X119637492Y-71628603D01*
X119637497Y-71628615D01*
X119734452Y-71796547D01*
X119750925Y-71864447D01*
X119728072Y-71930474D01*
X119673151Y-71973664D01*
X119603597Y-71980305D01*
X119576629Y-71971825D01*
X119418121Y-71901251D01*
X119418116Y-71901249D01*
X119272314Y-71870259D01*
X119232960Y-71861894D01*
X119043668Y-71861894D01*
X119011211Y-71868792D01*
X118858511Y-71901249D01*
X118858506Y-71901251D01*
X118685584Y-71978242D01*
X118685579Y-71978245D01*
X118532443Y-72089505D01*
X118405780Y-72230179D01*
X118311135Y-72394109D01*
X118311132Y-72394116D01*
X118278895Y-72493333D01*
X118252640Y-72574138D01*
X118232854Y-72762394D01*
X108400680Y-72762394D01*
X108391574Y-71820445D01*
X115376671Y-71820445D01*
X115396457Y-72008701D01*
X115396458Y-72008704D01*
X115454949Y-72188722D01*
X115454952Y-72188729D01*
X115549598Y-72352661D01*
X115642927Y-72456313D01*
X115676260Y-72493333D01*
X115829396Y-72604593D01*
X115829401Y-72604596D01*
X116002323Y-72681587D01*
X116002328Y-72681589D01*
X116187485Y-72720945D01*
X116187486Y-72720945D01*
X116376775Y-72720945D01*
X116376777Y-72720945D01*
X116561934Y-72681589D01*
X116734861Y-72604596D01*
X116888002Y-72493333D01*
X117014664Y-72352661D01*
X117109310Y-72188729D01*
X117167805Y-72008701D01*
X117187591Y-71820445D01*
X117167805Y-71632189D01*
X117109310Y-71452161D01*
X117014664Y-71288229D01*
X116888002Y-71147557D01*
X116888001Y-71147556D01*
X116734865Y-71036296D01*
X116734860Y-71036293D01*
X116561938Y-70959302D01*
X116561933Y-70959300D01*
X116416132Y-70928310D01*
X116376777Y-70919945D01*
X116187485Y-70919945D01*
X116155028Y-70926843D01*
X116002328Y-70959300D01*
X116002323Y-70959302D01*
X115829401Y-71036293D01*
X115829396Y-71036296D01*
X115676260Y-71147556D01*
X115549597Y-71288230D01*
X115454952Y-71452160D01*
X115454949Y-71452167D01*
X115397622Y-71628603D01*
X115396457Y-71632189D01*
X115376671Y-71820445D01*
X108391574Y-71820445D01*
X108376633Y-70275000D01*
X113294540Y-70275000D01*
X113314326Y-70463256D01*
X113314327Y-70463259D01*
X113372818Y-70643277D01*
X113372821Y-70643284D01*
X113467467Y-70807216D01*
X113537553Y-70885054D01*
X113594129Y-70947888D01*
X113747265Y-71059148D01*
X113747270Y-71059151D01*
X113920192Y-71136142D01*
X113920197Y-71136144D01*
X114105354Y-71175500D01*
X114105355Y-71175500D01*
X114294644Y-71175500D01*
X114294646Y-71175500D01*
X114479803Y-71136144D01*
X114652730Y-71059151D01*
X114805871Y-70947888D01*
X114932533Y-70807216D01*
X115027179Y-70643284D01*
X115085674Y-70463256D01*
X115105460Y-70275000D01*
X115101514Y-70237459D01*
X115114083Y-70168732D01*
X115161815Y-70117708D01*
X115224835Y-70100500D01*
X115269644Y-70100500D01*
X115269646Y-70100500D01*
X115454803Y-70061144D01*
X115627730Y-69984151D01*
X115780871Y-69872888D01*
X115907533Y-69732216D01*
X116002179Y-69568284D01*
X116060674Y-69388256D01*
X116080460Y-69200000D01*
X116060674Y-69011744D01*
X116002179Y-68831716D01*
X115907533Y-68667784D01*
X115891520Y-68650000D01*
X124944540Y-68650000D01*
X124964326Y-68838256D01*
X124964327Y-68838259D01*
X125022818Y-69018277D01*
X125022821Y-69018284D01*
X125117467Y-69182216D01*
X125234025Y-69311666D01*
X125244129Y-69322888D01*
X125397265Y-69434148D01*
X125397270Y-69434151D01*
X125570192Y-69511142D01*
X125570197Y-69511144D01*
X125755354Y-69550500D01*
X125755355Y-69550500D01*
X125944644Y-69550500D01*
X125944646Y-69550500D01*
X126129803Y-69511144D01*
X126302730Y-69434151D01*
X126455871Y-69322888D01*
X126582533Y-69182216D01*
X126677179Y-69018284D01*
X126735674Y-68838256D01*
X126755460Y-68650000D01*
X126735674Y-68461744D01*
X126677179Y-68281716D01*
X126582533Y-68117784D01*
X126455871Y-67977112D01*
X126455870Y-67977111D01*
X126302734Y-67865851D01*
X126302729Y-67865848D01*
X126129807Y-67788857D01*
X126129802Y-67788855D01*
X125984000Y-67757865D01*
X125944646Y-67749500D01*
X125755354Y-67749500D01*
X125722897Y-67756398D01*
X125570197Y-67788855D01*
X125570192Y-67788857D01*
X125397270Y-67865848D01*
X125397265Y-67865851D01*
X125244129Y-67977111D01*
X125117466Y-68117785D01*
X125022821Y-68281715D01*
X125022818Y-68281722D01*
X124967333Y-68452489D01*
X124964326Y-68461744D01*
X124944540Y-68650000D01*
X115891520Y-68650000D01*
X115780871Y-68527112D01*
X115773349Y-68521647D01*
X115627734Y-68415851D01*
X115627729Y-68415848D01*
X115454807Y-68338857D01*
X115454802Y-68338855D01*
X115306352Y-68307302D01*
X115269646Y-68299500D01*
X115080354Y-68299500D01*
X115047897Y-68306398D01*
X114895197Y-68338855D01*
X114895192Y-68338857D01*
X114722270Y-68415848D01*
X114722265Y-68415851D01*
X114569129Y-68527111D01*
X114442466Y-68667785D01*
X114347821Y-68831715D01*
X114347818Y-68831722D01*
X114306062Y-68960236D01*
X114289326Y-69011744D01*
X114269540Y-69200000D01*
X114273485Y-69237540D01*
X114260917Y-69306268D01*
X114213185Y-69357292D01*
X114150165Y-69374500D01*
X114105354Y-69374500D01*
X114103562Y-69374881D01*
X113920197Y-69413855D01*
X113920192Y-69413857D01*
X113747270Y-69490848D01*
X113747265Y-69490851D01*
X113594129Y-69602111D01*
X113467466Y-69742785D01*
X113372821Y-69906715D01*
X113372818Y-69906722D01*
X113322644Y-70061144D01*
X113314326Y-70086744D01*
X113294540Y-70275000D01*
X108376633Y-70275000D01*
X108335842Y-66055613D01*
X123674921Y-66055613D01*
X123694707Y-66243869D01*
X123694708Y-66243872D01*
X123753199Y-66423890D01*
X123753202Y-66423897D01*
X123847848Y-66587829D01*
X123933370Y-66682810D01*
X123974510Y-66728501D01*
X124127646Y-66839761D01*
X124127651Y-66839764D01*
X124300573Y-66916755D01*
X124300578Y-66916757D01*
X124485735Y-66956113D01*
X124485736Y-66956113D01*
X124675025Y-66956113D01*
X124675027Y-66956113D01*
X124860184Y-66916757D01*
X125033111Y-66839764D01*
X125186252Y-66728501D01*
X125312914Y-66587829D01*
X125407560Y-66423897D01*
X125466055Y-66243869D01*
X125477365Y-66136255D01*
X125503948Y-66071644D01*
X125561245Y-66031659D01*
X125574879Y-66027936D01*
X125628105Y-66016623D01*
X125628109Y-66016621D01*
X125628110Y-66016621D01*
X125742139Y-65965851D01*
X125801032Y-65939630D01*
X125954173Y-65828367D01*
X126047245Y-65725000D01*
X129744540Y-65725000D01*
X129764326Y-65913256D01*
X129764327Y-65913259D01*
X129822818Y-66093277D01*
X129822821Y-66093284D01*
X129917467Y-66257216D01*
X130028023Y-66380000D01*
X130044129Y-66397888D01*
X130197265Y-66509148D01*
X130197270Y-66509151D01*
X130370192Y-66586142D01*
X130370197Y-66586144D01*
X130539171Y-66622060D01*
X130600653Y-66655252D01*
X130634429Y-66716415D01*
X130629777Y-66786130D01*
X130620778Y-66805349D01*
X130547820Y-66931718D01*
X130547818Y-66931722D01*
X130489327Y-67111740D01*
X130489326Y-67111744D01*
X130469540Y-67300000D01*
X130489326Y-67488256D01*
X130489327Y-67488259D01*
X130547818Y-67668277D01*
X130547821Y-67668284D01*
X130642467Y-67832216D01*
X130748755Y-67950260D01*
X130769129Y-67972888D01*
X130922265Y-68084148D01*
X130922270Y-68084151D01*
X131095192Y-68161142D01*
X131095197Y-68161144D01*
X131280354Y-68200500D01*
X131280355Y-68200500D01*
X131469644Y-68200500D01*
X131469646Y-68200500D01*
X131654803Y-68161144D01*
X131827730Y-68084151D01*
X131922409Y-68015362D01*
X131988215Y-67991883D01*
X132056269Y-68007708D01*
X132068179Y-68015362D01*
X132118125Y-68051649D01*
X132197270Y-68109151D01*
X132370192Y-68186142D01*
X132370197Y-68186144D01*
X132555354Y-68225500D01*
X132555355Y-68225500D01*
X132744644Y-68225500D01*
X132744646Y-68225500D01*
X132929803Y-68186144D01*
X133102730Y-68109151D01*
X133171338Y-68059303D01*
X133237141Y-68035824D01*
X133305195Y-68051649D01*
X133317098Y-68059297D01*
X133427964Y-68139846D01*
X133427968Y-68139849D01*
X133600890Y-68216840D01*
X133600895Y-68216842D01*
X133786052Y-68256198D01*
X133786053Y-68256198D01*
X133975342Y-68256198D01*
X133975344Y-68256198D01*
X134160501Y-68216842D01*
X134333428Y-68139849D01*
X134486569Y-68028586D01*
X134613231Y-67887914D01*
X134707877Y-67723982D01*
X134766372Y-67543954D01*
X134775074Y-67461149D01*
X134801657Y-67396539D01*
X134858954Y-67356554D01*
X134928773Y-67353893D01*
X134988947Y-67389401D01*
X134990543Y-67391141D01*
X135019128Y-67422887D01*
X135019129Y-67422888D01*
X135172265Y-67534148D01*
X135172270Y-67534151D01*
X135345192Y-67611142D01*
X135345197Y-67611144D01*
X135530354Y-67650500D01*
X135530355Y-67650500D01*
X135719644Y-67650500D01*
X135719646Y-67650500D01*
X135816092Y-67630000D01*
X140321634Y-67630000D01*
X140321931Y-67631946D01*
X140321933Y-67631952D01*
X140392562Y-67822657D01*
X140392565Y-67822664D01*
X140500149Y-67995267D01*
X140640264Y-68142668D01*
X140640266Y-68142669D01*
X140807195Y-68258856D01*
X140994092Y-68339059D01*
X141193310Y-68380000D01*
X141744616Y-68380000D01*
X141811655Y-68399685D01*
X141857410Y-68452489D01*
X141867354Y-68521647D01*
X141859177Y-68551453D01*
X141814313Y-68659763D01*
X141814312Y-68659765D01*
X141794534Y-68809999D01*
X141794534Y-68810000D01*
X141814312Y-68960234D01*
X141814313Y-68960236D01*
X141838354Y-69018277D01*
X141872302Y-69100233D01*
X141964549Y-69220451D01*
X142084767Y-69312698D01*
X142224764Y-69370687D01*
X142337280Y-69385500D01*
X142337287Y-69385500D01*
X142412713Y-69385500D01*
X142412720Y-69385500D01*
X142525236Y-69370687D01*
X142665233Y-69312698D01*
X142785451Y-69220451D01*
X142877698Y-69100233D01*
X142935687Y-68960236D01*
X142955466Y-68810000D01*
X142935687Y-68659764D01*
X142890823Y-68551453D01*
X142877699Y-68519769D01*
X142877697Y-68519765D01*
X142833172Y-68461740D01*
X142823199Y-68448743D01*
X142798005Y-68383576D01*
X142812043Y-68315131D01*
X142860856Y-68265141D01*
X142861398Y-68264839D01*
X142969211Y-68204997D01*
X142969216Y-68204994D01*
X143123530Y-68072521D01*
X143123531Y-68072520D01*
X143248018Y-67911695D01*
X143337588Y-67729093D01*
X143363246Y-67630000D01*
X144751634Y-67630000D01*
X144751931Y-67631946D01*
X144751933Y-67631952D01*
X144822562Y-67822657D01*
X144822565Y-67822664D01*
X144930149Y-67995267D01*
X145070264Y-68142668D01*
X145070266Y-68142669D01*
X145237195Y-68258856D01*
X145424092Y-68339059D01*
X145623310Y-68380000D01*
X145775000Y-68380000D01*
X145775000Y-67680000D01*
X146275000Y-67680000D01*
X146275000Y-68380000D01*
X146375713Y-68380000D01*
X146527338Y-68364581D01*
X146721381Y-68303700D01*
X146721391Y-68303695D01*
X146899215Y-68204994D01*
X146899216Y-68204994D01*
X147053530Y-68072521D01*
X147053531Y-68072520D01*
X147178018Y-67911695D01*
X147267588Y-67729093D01*
X147293246Y-67630000D01*
X146491111Y-67630000D01*
X146530610Y-67605543D01*
X146598201Y-67516038D01*
X146628895Y-67408160D01*
X146618546Y-67296479D01*
X146568552Y-67196078D01*
X146496069Y-67130000D01*
X147298366Y-67130000D01*
X147298068Y-67128053D01*
X147298066Y-67128047D01*
X147227437Y-66937342D01*
X147227434Y-66937335D01*
X147119850Y-66764732D01*
X146979735Y-66617331D01*
X146979733Y-66617330D01*
X146812804Y-66501143D01*
X146625907Y-66420940D01*
X146426690Y-66380000D01*
X146275000Y-66380000D01*
X146275000Y-67080000D01*
X145775000Y-67080000D01*
X145775000Y-66380000D01*
X145674287Y-66380000D01*
X145522661Y-66395418D01*
X145328618Y-66456299D01*
X145328608Y-66456304D01*
X145150784Y-66555005D01*
X145150783Y-66555005D01*
X144996469Y-66687478D01*
X144996468Y-66687479D01*
X144871981Y-66848304D01*
X144782411Y-67030906D01*
X144756754Y-67130000D01*
X145558889Y-67130000D01*
X145519390Y-67154457D01*
X145451799Y-67243962D01*
X145421105Y-67351840D01*
X145431454Y-67463521D01*
X145481448Y-67563922D01*
X145553931Y-67630000D01*
X144751634Y-67630000D01*
X143363246Y-67630000D01*
X142561111Y-67630000D01*
X142600610Y-67605543D01*
X142668201Y-67516038D01*
X142698895Y-67408160D01*
X142688546Y-67296479D01*
X142638552Y-67196078D01*
X142566069Y-67130000D01*
X143368366Y-67130000D01*
X143368068Y-67128053D01*
X143368066Y-67128047D01*
X143297437Y-66937342D01*
X143297434Y-66937335D01*
X143189850Y-66764732D01*
X143049735Y-66617331D01*
X143049733Y-66617330D01*
X142882804Y-66501143D01*
X142695907Y-66420940D01*
X142496690Y-66380000D01*
X142095000Y-66380000D01*
X142095000Y-67080000D01*
X141595000Y-67080000D01*
X141595000Y-66380000D01*
X141244287Y-66380000D01*
X141092661Y-66395418D01*
X140898618Y-66456299D01*
X140898608Y-66456304D01*
X140720784Y-66555005D01*
X140720783Y-66555005D01*
X140566469Y-66687478D01*
X140566468Y-66687479D01*
X140441981Y-66848304D01*
X140352411Y-67030906D01*
X140326754Y-67130000D01*
X141128889Y-67130000D01*
X141089390Y-67154457D01*
X141021799Y-67243962D01*
X140991105Y-67351840D01*
X141001454Y-67463521D01*
X141051448Y-67563922D01*
X141123931Y-67630000D01*
X140321634Y-67630000D01*
X135816092Y-67630000D01*
X135904803Y-67611144D01*
X136077730Y-67534151D01*
X136230871Y-67422888D01*
X136357533Y-67282216D01*
X136452179Y-67118284D01*
X136510674Y-66938256D01*
X136530460Y-66750000D01*
X136510674Y-66561744D01*
X136452179Y-66381716D01*
X136357533Y-66217784D01*
X136230871Y-66077112D01*
X136223345Y-66071644D01*
X136077734Y-65965851D01*
X136077729Y-65965848D01*
X135904807Y-65888857D01*
X135904802Y-65888855D01*
X135750125Y-65855978D01*
X135688643Y-65822786D01*
X135654867Y-65761623D01*
X135652585Y-65747649D01*
X135635674Y-65586744D01*
X135577179Y-65406716D01*
X135482533Y-65242784D01*
X135355871Y-65102112D01*
X135355867Y-65102109D01*
X135202734Y-64990851D01*
X135202729Y-64990848D01*
X135029807Y-64913857D01*
X135029802Y-64913855D01*
X134884000Y-64882865D01*
X134844646Y-64874500D01*
X134655354Y-64874500D01*
X134622897Y-64881398D01*
X134470197Y-64913855D01*
X134470192Y-64913857D01*
X134297270Y-64990848D01*
X134297265Y-64990851D01*
X134144132Y-65102109D01*
X134144129Y-65102111D01*
X134144129Y-65102112D01*
X134074511Y-65179431D01*
X134067150Y-65187606D01*
X134007663Y-65224254D01*
X133937806Y-65222923D01*
X133882850Y-65187606D01*
X133878847Y-65183160D01*
X133805871Y-65102112D01*
X133805867Y-65102109D01*
X133652734Y-64990851D01*
X133652729Y-64990848D01*
X133479807Y-64913857D01*
X133479802Y-64913855D01*
X133334001Y-64882865D01*
X133294646Y-64874500D01*
X133105354Y-64874500D01*
X133055375Y-64885123D01*
X132920199Y-64913855D01*
X132759888Y-64985231D01*
X132690638Y-64994515D01*
X132636566Y-64972269D01*
X132627729Y-64965848D01*
X132454807Y-64888857D01*
X132454802Y-64888855D01*
X132309000Y-64857865D01*
X132269646Y-64849500D01*
X132080354Y-64849500D01*
X132047897Y-64856398D01*
X131895197Y-64888855D01*
X131895192Y-64888857D01*
X131722270Y-64965848D01*
X131722265Y-64965851D01*
X131569129Y-65077111D01*
X131515905Y-65136223D01*
X131456418Y-65172872D01*
X131386561Y-65171541D01*
X131331605Y-65136223D01*
X131255870Y-65052111D01*
X131102734Y-64940851D01*
X131102729Y-64940848D01*
X130929807Y-64863857D01*
X130929802Y-64863855D01*
X130784000Y-64832865D01*
X130744646Y-64824500D01*
X130555354Y-64824500D01*
X130522897Y-64831398D01*
X130370197Y-64863855D01*
X130370192Y-64863857D01*
X130197270Y-64940848D01*
X130197265Y-64940851D01*
X130044129Y-65052111D01*
X129917466Y-65192785D01*
X129822821Y-65356715D01*
X129822818Y-65356722D01*
X129764327Y-65536740D01*
X129764326Y-65536744D01*
X129744540Y-65725000D01*
X126047245Y-65725000D01*
X126080835Y-65687695D01*
X126175481Y-65523763D01*
X126233976Y-65343735D01*
X126253762Y-65155479D01*
X126233976Y-64967223D01*
X126175481Y-64787195D01*
X126080835Y-64623263D01*
X125954173Y-64482591D01*
X125878382Y-64427526D01*
X125874157Y-64424456D01*
X125831491Y-64369126D01*
X125825512Y-64299513D01*
X125858118Y-64237718D01*
X125918956Y-64203361D01*
X125929892Y-64201521D01*
X125932343Y-64201000D01*
X125932347Y-64201000D01*
X126117504Y-64161644D01*
X126290431Y-64084651D01*
X126443572Y-63973388D01*
X126570234Y-63832716D01*
X126664880Y-63668784D01*
X126723375Y-63488756D01*
X126743161Y-63300500D01*
X126723375Y-63112244D01*
X126664880Y-62932216D01*
X126570234Y-62768284D01*
X126443572Y-62627612D01*
X126442884Y-62627112D01*
X126290435Y-62516351D01*
X126290430Y-62516348D01*
X126117508Y-62439357D01*
X126117503Y-62439355D01*
X125971702Y-62408365D01*
X125932347Y-62400000D01*
X125743055Y-62400000D01*
X125710598Y-62406898D01*
X125557898Y-62439355D01*
X125557893Y-62439357D01*
X125384971Y-62516348D01*
X125317078Y-62565675D01*
X125251271Y-62589154D01*
X125183218Y-62573328D01*
X125171309Y-62565674D01*
X125102734Y-62515851D01*
X125102729Y-62515848D01*
X124929807Y-62438857D01*
X124929802Y-62438855D01*
X124784001Y-62407865D01*
X124744646Y-62399500D01*
X124555354Y-62399500D01*
X124522897Y-62406398D01*
X124370197Y-62438855D01*
X124370192Y-62438857D01*
X124197270Y-62515848D01*
X124197265Y-62515851D01*
X124044129Y-62627111D01*
X123917466Y-62767785D01*
X123822821Y-62931715D01*
X123822818Y-62931722D01*
X123764327Y-63111740D01*
X123764326Y-63111744D01*
X123744540Y-63300000D01*
X123764326Y-63488256D01*
X123764327Y-63488259D01*
X123822818Y-63668277D01*
X123822821Y-63668284D01*
X123917467Y-63832216D01*
X124030016Y-63957214D01*
X124044129Y-63972888D01*
X124197265Y-64084148D01*
X124197270Y-64084151D01*
X124370192Y-64161142D01*
X124370197Y-64161144D01*
X124555354Y-64200500D01*
X124555355Y-64200500D01*
X124749064Y-64200500D01*
X124816103Y-64220185D01*
X124861858Y-64272989D01*
X124871802Y-64342147D01*
X124842777Y-64405703D01*
X124821949Y-64424818D01*
X124742431Y-64482590D01*
X124615768Y-64623264D01*
X124521123Y-64787194D01*
X124521120Y-64787201D01*
X124462629Y-64967219D01*
X124462628Y-64967223D01*
X124456895Y-65021774D01*
X124451318Y-65074832D01*
X124424733Y-65139447D01*
X124367435Y-65179431D01*
X124353780Y-65183160D01*
X124300575Y-65194469D01*
X124300573Y-65194470D01*
X124127651Y-65271461D01*
X124127646Y-65271464D01*
X123974510Y-65382724D01*
X123847847Y-65523398D01*
X123753202Y-65687328D01*
X123753199Y-65687335D01*
X123700509Y-65849500D01*
X123694707Y-65867357D01*
X123674921Y-66055613D01*
X108335842Y-66055613D01*
X108325637Y-64999999D01*
X108325637Y-64576127D01*
X108345322Y-64509089D01*
X108398126Y-64463334D01*
X108467284Y-64453390D01*
X108530840Y-64482415D01*
X108557023Y-64514126D01*
X108567464Y-64532211D01*
X108567467Y-64532216D01*
X108694129Y-64672888D01*
X108847265Y-64784148D01*
X108847270Y-64784151D01*
X109020192Y-64861142D01*
X109020197Y-64861144D01*
X109205354Y-64900500D01*
X109205355Y-64900500D01*
X109394644Y-64900500D01*
X109394646Y-64900500D01*
X109579803Y-64861144D01*
X109752730Y-64784151D01*
X109905871Y-64672888D01*
X110032533Y-64532216D01*
X110127179Y-64368284D01*
X110185674Y-64188256D01*
X110205460Y-64000000D01*
X110185674Y-63811744D01*
X110127179Y-63631716D01*
X110032533Y-63467784D01*
X109994010Y-63425000D01*
X118694540Y-63425000D01*
X118714326Y-63613256D01*
X118714327Y-63613259D01*
X118772818Y-63793277D01*
X118772821Y-63793284D01*
X118867467Y-63957216D01*
X118981757Y-64084148D01*
X118994129Y-64097888D01*
X119147265Y-64209148D01*
X119147270Y-64209151D01*
X119320192Y-64286142D01*
X119320197Y-64286144D01*
X119505354Y-64325500D01*
X119505355Y-64325500D01*
X119694644Y-64325500D01*
X119694646Y-64325500D01*
X119879803Y-64286144D01*
X120052730Y-64209151D01*
X120205871Y-64097888D01*
X120332533Y-63957216D01*
X120427179Y-63793284D01*
X120485674Y-63613256D01*
X120505460Y-63425000D01*
X120494950Y-63325000D01*
X121545540Y-63325000D01*
X121565326Y-63513256D01*
X121565327Y-63513259D01*
X121623818Y-63693277D01*
X121623821Y-63693284D01*
X121718467Y-63857216D01*
X121808506Y-63957214D01*
X121845129Y-63997888D01*
X121998265Y-64109148D01*
X121998270Y-64109151D01*
X122171192Y-64186142D01*
X122171197Y-64186144D01*
X122356354Y-64225500D01*
X122356355Y-64225500D01*
X122545644Y-64225500D01*
X122545646Y-64225500D01*
X122730803Y-64186144D01*
X122903730Y-64109151D01*
X123056871Y-63997888D01*
X123183533Y-63857216D01*
X123278179Y-63693284D01*
X123336674Y-63513256D01*
X123356460Y-63325000D01*
X123336674Y-63136744D01*
X123278179Y-62956716D01*
X123183533Y-62792784D01*
X123056871Y-62652112D01*
X123041369Y-62640849D01*
X122903734Y-62540851D01*
X122903729Y-62540848D01*
X122730807Y-62463857D01*
X122730802Y-62463855D01*
X122585000Y-62432865D01*
X122545646Y-62424500D01*
X122356354Y-62424500D01*
X122323897Y-62431398D01*
X122171197Y-62463855D01*
X122171192Y-62463857D01*
X121998270Y-62540848D01*
X121998265Y-62540851D01*
X121845129Y-62652111D01*
X121718466Y-62792785D01*
X121623821Y-62956715D01*
X121623818Y-62956722D01*
X121569484Y-63123946D01*
X121565326Y-63136744D01*
X121545540Y-63325000D01*
X120494950Y-63325000D01*
X120485674Y-63236744D01*
X120427179Y-63056716D01*
X120332533Y-62892784D01*
X120205871Y-62752112D01*
X120205870Y-62752111D01*
X120052734Y-62640851D01*
X120052729Y-62640848D01*
X119879807Y-62563857D01*
X119879802Y-62563855D01*
X119730938Y-62532214D01*
X119694646Y-62524500D01*
X119505354Y-62524500D01*
X119472897Y-62531398D01*
X119320197Y-62563855D01*
X119320192Y-62563857D01*
X119147270Y-62640848D01*
X119147265Y-62640851D01*
X118994129Y-62752111D01*
X118867466Y-62892785D01*
X118772821Y-63056715D01*
X118772818Y-63056722D01*
X118714327Y-63236740D01*
X118714326Y-63236744D01*
X118694540Y-63425000D01*
X109994010Y-63425000D01*
X109905871Y-63327112D01*
X109869243Y-63300500D01*
X109752734Y-63215851D01*
X109752729Y-63215848D01*
X109579807Y-63138857D01*
X109579800Y-63138855D01*
X109484661Y-63118633D01*
X109423179Y-63085441D01*
X109389402Y-63024278D01*
X109394054Y-62954563D01*
X109435658Y-62898431D01*
X109484661Y-62876053D01*
X109554803Y-62861144D01*
X109727730Y-62784151D01*
X109880871Y-62672888D01*
X110007533Y-62532216D01*
X110083868Y-62400000D01*
X114769540Y-62400000D01*
X114789326Y-62588256D01*
X114789327Y-62588259D01*
X114847818Y-62768277D01*
X114847821Y-62768284D01*
X114942467Y-62932216D01*
X115030143Y-63029590D01*
X115069129Y-63072888D01*
X115222265Y-63184148D01*
X115222270Y-63184151D01*
X115395192Y-63261142D01*
X115395197Y-63261144D01*
X115580354Y-63300500D01*
X115580355Y-63300500D01*
X115769644Y-63300500D01*
X115769646Y-63300500D01*
X115954803Y-63261144D01*
X116127730Y-63184151D01*
X116280871Y-63072888D01*
X116407533Y-62932216D01*
X116502179Y-62768284D01*
X116560674Y-62588256D01*
X116580460Y-62400000D01*
X116560674Y-62211744D01*
X116502179Y-62031716D01*
X116407533Y-61867784D01*
X116280871Y-61727112D01*
X116244810Y-61700912D01*
X116127734Y-61615851D01*
X116127729Y-61615848D01*
X115954807Y-61538857D01*
X115954802Y-61538855D01*
X115809000Y-61507865D01*
X115769646Y-61499500D01*
X115580354Y-61499500D01*
X115547897Y-61506398D01*
X115395197Y-61538855D01*
X115395192Y-61538857D01*
X115222270Y-61615848D01*
X115222265Y-61615851D01*
X115069129Y-61727111D01*
X114942466Y-61867785D01*
X114847821Y-62031715D01*
X114847818Y-62031722D01*
X114789327Y-62211740D01*
X114789326Y-62211744D01*
X114772874Y-62368277D01*
X114769593Y-62399500D01*
X114769540Y-62400000D01*
X110083868Y-62400000D01*
X110102179Y-62368284D01*
X110160674Y-62188256D01*
X110180460Y-62000000D01*
X110160674Y-61811744D01*
X110102179Y-61631716D01*
X110018339Y-61486500D01*
X110001866Y-61418599D01*
X110024719Y-61352573D01*
X110079640Y-61309382D01*
X110125726Y-61300500D01*
X111049132Y-61300500D01*
X111076583Y-61308560D01*
X111111614Y-61302384D01*
X111133146Y-61300500D01*
X111172696Y-61300500D01*
X111182370Y-61298967D01*
X111182866Y-61302103D01*
X111193279Y-61301803D01*
X111213660Y-61290037D01*
X111237331Y-61279497D01*
X111240151Y-61278580D01*
X111263248Y-61271073D01*
X111265979Y-61269087D01*
X111269858Y-61267703D01*
X111271939Y-61266643D01*
X111272075Y-61266911D01*
X111293153Y-61259387D01*
X111304970Y-61245305D01*
X111327065Y-61224699D01*
X111340248Y-61215121D01*
X111347214Y-61205531D01*
X111371568Y-61186749D01*
X111376362Y-61173578D01*
X111392562Y-61143107D01*
X111396190Y-61138115D01*
X111425601Y-61047591D01*
X111425601Y-60983705D01*
X111445286Y-60916666D01*
X111498090Y-60870911D01*
X111523816Y-60862416D01*
X111529803Y-60861144D01*
X111699566Y-60785559D01*
X111768813Y-60776275D01*
X111800430Y-60785557D01*
X111970197Y-60861144D01*
X112155354Y-60900500D01*
X112155355Y-60900500D01*
X112344644Y-60900500D01*
X112344646Y-60900500D01*
X112514438Y-60864410D01*
X119958950Y-60864410D01*
X119978736Y-61052666D01*
X119978737Y-61052669D01*
X120037228Y-61232687D01*
X120037231Y-61232694D01*
X120131877Y-61396626D01*
X120258538Y-61537298D01*
X120258539Y-61537298D01*
X120411675Y-61648558D01*
X120411680Y-61648561D01*
X120584602Y-61725552D01*
X120584607Y-61725554D01*
X120769764Y-61764910D01*
X120769765Y-61764910D01*
X120959054Y-61764910D01*
X120959056Y-61764910D01*
X121144213Y-61725554D01*
X121317140Y-61648561D01*
X121470281Y-61537298D01*
X121596943Y-61396626D01*
X121691589Y-61232694D01*
X121750084Y-61052666D01*
X121764368Y-60916764D01*
X128095040Y-60916764D01*
X128114826Y-61105020D01*
X128114827Y-61105023D01*
X128173318Y-61285041D01*
X128173321Y-61285048D01*
X128267967Y-61448980D01*
X128313456Y-61499500D01*
X128394629Y-61589652D01*
X128547765Y-61700912D01*
X128547770Y-61700915D01*
X128720692Y-61777906D01*
X128720697Y-61777908D01*
X128905854Y-61817264D01*
X128905855Y-61817264D01*
X129095144Y-61817264D01*
X129095146Y-61817264D01*
X129280303Y-61777908D01*
X129453230Y-61700915D01*
X129606371Y-61589652D01*
X129733033Y-61448980D01*
X129827679Y-61285048D01*
X129886174Y-61105020D01*
X129905960Y-60916764D01*
X129886174Y-60728508D01*
X129827679Y-60548480D01*
X129768154Y-60445380D01*
X129751682Y-60377482D01*
X129768155Y-60321382D01*
X129827679Y-60218284D01*
X129886174Y-60038256D01*
X129905960Y-59850000D01*
X129886174Y-59661744D01*
X129827679Y-59481716D01*
X129733033Y-59317784D01*
X129606371Y-59177112D01*
X129588126Y-59163856D01*
X129453234Y-59065851D01*
X129453229Y-59065848D01*
X129280307Y-58988857D01*
X129280302Y-58988855D01*
X129131471Y-58957221D01*
X129095146Y-58949500D01*
X128905854Y-58949500D01*
X128873397Y-58956398D01*
X128720697Y-58988855D01*
X128720692Y-58988857D01*
X128547770Y-59065848D01*
X128547765Y-59065851D01*
X128394629Y-59177111D01*
X128267966Y-59317785D01*
X128173321Y-59481715D01*
X128173318Y-59481722D01*
X128114827Y-59661740D01*
X128114826Y-59661744D01*
X128095040Y-59850000D01*
X128114826Y-60038256D01*
X128114827Y-60038259D01*
X128173318Y-60218277D01*
X128173320Y-60218281D01*
X128173321Y-60218284D01*
X128224493Y-60306916D01*
X128232845Y-60321383D01*
X128249317Y-60389283D01*
X128232845Y-60445381D01*
X128173320Y-60548482D01*
X128173318Y-60548486D01*
X128123964Y-60700383D01*
X128114826Y-60728508D01*
X128095040Y-60916764D01*
X121764368Y-60916764D01*
X121769870Y-60864410D01*
X121750084Y-60676154D01*
X121691589Y-60496126D01*
X121596943Y-60332194D01*
X121470281Y-60191522D01*
X121465786Y-60188256D01*
X121317144Y-60080261D01*
X121317139Y-60080258D01*
X121144217Y-60003267D01*
X121144212Y-60003265D01*
X120998411Y-59972275D01*
X120959056Y-59963910D01*
X120769764Y-59963910D01*
X120737307Y-59970808D01*
X120584607Y-60003265D01*
X120584602Y-60003267D01*
X120411680Y-60080258D01*
X120411675Y-60080261D01*
X120258539Y-60191521D01*
X120131876Y-60332195D01*
X120037231Y-60496125D01*
X120037228Y-60496132D01*
X119979797Y-60672888D01*
X119978736Y-60676154D01*
X119958950Y-60864410D01*
X112514438Y-60864410D01*
X112529803Y-60861144D01*
X112702730Y-60784151D01*
X112855871Y-60672888D01*
X112982533Y-60532216D01*
X113077179Y-60368284D01*
X113135674Y-60188256D01*
X113155460Y-60000000D01*
X113135674Y-59811744D01*
X113077179Y-59631716D01*
X112982533Y-59467784D01*
X112855871Y-59327112D01*
X112855870Y-59327111D01*
X112702734Y-59215851D01*
X112702729Y-59215848D01*
X112529807Y-59138857D01*
X112529800Y-59138855D01*
X112447161Y-59121290D01*
X112385679Y-59088098D01*
X112351902Y-59026935D01*
X112356554Y-58957221D01*
X112398158Y-58901088D01*
X112447161Y-58878710D01*
X112453201Y-58877426D01*
X112529803Y-58861144D01*
X112702730Y-58784151D01*
X112855871Y-58672888D01*
X112982533Y-58532216D01*
X113077179Y-58368284D01*
X113135674Y-58188256D01*
X113155460Y-58000000D01*
X113151781Y-57965000D01*
X115629341Y-57965000D01*
X115649936Y-58200403D01*
X115649938Y-58200413D01*
X115711094Y-58428655D01*
X115711096Y-58428659D01*
X115711097Y-58428663D01*
X115794155Y-58606781D01*
X115810965Y-58642830D01*
X115810967Y-58642834D01*
X115904404Y-58776275D01*
X115946505Y-58836401D01*
X116113599Y-59003495D01*
X116151852Y-59030280D01*
X116307165Y-59139032D01*
X116307167Y-59139033D01*
X116307170Y-59139035D01*
X116521337Y-59238903D01*
X116521343Y-59238904D01*
X116521344Y-59238905D01*
X116563469Y-59250192D01*
X116749592Y-59300063D01*
X116937918Y-59316539D01*
X116984999Y-59320659D01*
X116985000Y-59320659D01*
X116985001Y-59320659D01*
X117024234Y-59317226D01*
X117220408Y-59300063D01*
X117448663Y-59238903D01*
X117662830Y-59139035D01*
X117856401Y-59003495D01*
X118023495Y-58836401D01*
X118153730Y-58650405D01*
X118208307Y-58606781D01*
X118277805Y-58599587D01*
X118340160Y-58631110D01*
X118356879Y-58650405D01*
X118486890Y-58836078D01*
X118653917Y-59003105D01*
X118847421Y-59138600D01*
X119061507Y-59238429D01*
X119061516Y-59238433D01*
X119274998Y-59295635D01*
X119274999Y-59295634D01*
X119274999Y-58400501D01*
X119382685Y-58449680D01*
X119489237Y-58465000D01*
X119560763Y-58465000D01*
X119667315Y-58449680D01*
X119775000Y-58400501D01*
X119775000Y-59295634D01*
X119988483Y-59238433D01*
X119988492Y-59238429D01*
X120202578Y-59138600D01*
X120396082Y-59003105D01*
X120563105Y-58836082D01*
X120698600Y-58642578D01*
X120798429Y-58428492D01*
X120798432Y-58428486D01*
X120855636Y-58215000D01*
X119958686Y-58215000D01*
X119984493Y-58174844D01*
X120025000Y-58036889D01*
X120025000Y-57893111D01*
X119984493Y-57755156D01*
X119958686Y-57715000D01*
X120855636Y-57715000D01*
X120855635Y-57714999D01*
X120798432Y-57501513D01*
X120798429Y-57501507D01*
X120698600Y-57287422D01*
X120698599Y-57287420D01*
X120563113Y-57093926D01*
X120563108Y-57093920D01*
X120396078Y-56926890D01*
X120210405Y-56796879D01*
X120166780Y-56742302D01*
X120159588Y-56672804D01*
X120191110Y-56610449D01*
X120210406Y-56593730D01*
X120272145Y-56550500D01*
X120396401Y-56463495D01*
X120434896Y-56425000D01*
X127319540Y-56425000D01*
X127339326Y-56613256D01*
X127339327Y-56613259D01*
X127397818Y-56793277D01*
X127397821Y-56793284D01*
X127492467Y-56957216D01*
X127587946Y-57063256D01*
X127619129Y-57097888D01*
X127772265Y-57209148D01*
X127772270Y-57209151D01*
X127945191Y-57286142D01*
X127945193Y-57286142D01*
X127945197Y-57286144D01*
X128022534Y-57302582D01*
X128084012Y-57335772D01*
X128117789Y-57396935D01*
X128115019Y-57455136D01*
X128116178Y-57455383D01*
X128114827Y-57461738D01*
X128114827Y-57461740D01*
X128114826Y-57461744D01*
X128095040Y-57650000D01*
X128114826Y-57838256D01*
X128114827Y-57838259D01*
X128173318Y-58018277D01*
X128173321Y-58018284D01*
X128267967Y-58182216D01*
X128370237Y-58295798D01*
X128394629Y-58322888D01*
X128547765Y-58434148D01*
X128547770Y-58434151D01*
X128720692Y-58511142D01*
X128720697Y-58511144D01*
X128905854Y-58550500D01*
X128905855Y-58550500D01*
X129095144Y-58550500D01*
X129095146Y-58550500D01*
X129280303Y-58511144D01*
X129453230Y-58434151D01*
X129606371Y-58322888D01*
X129733033Y-58182216D01*
X129809368Y-58050000D01*
X137394540Y-58050000D01*
X137414326Y-58238256D01*
X137414327Y-58238259D01*
X137472818Y-58418277D01*
X137472821Y-58418284D01*
X137567467Y-58582216D01*
X137694128Y-58722887D01*
X137694129Y-58722888D01*
X137847265Y-58834148D01*
X137847270Y-58834151D01*
X138020192Y-58911142D01*
X138020197Y-58911144D01*
X138205354Y-58950500D01*
X138205355Y-58950500D01*
X138394644Y-58950500D01*
X138394646Y-58950500D01*
X138579803Y-58911144D01*
X138752730Y-58834151D01*
X138905871Y-58722888D01*
X139032533Y-58582216D01*
X139127179Y-58418284D01*
X139185674Y-58238256D01*
X139205460Y-58050000D01*
X139185674Y-57861744D01*
X139173735Y-57825000D01*
X141344540Y-57825000D01*
X141364326Y-58013256D01*
X141364327Y-58013259D01*
X141422818Y-58193277D01*
X141422821Y-58193284D01*
X141517467Y-58357216D01*
X141616042Y-58466694D01*
X141644129Y-58497888D01*
X141797265Y-58609148D01*
X141797270Y-58609151D01*
X141970192Y-58686142D01*
X141970197Y-58686144D01*
X142155354Y-58725500D01*
X142155355Y-58725500D01*
X142344644Y-58725500D01*
X142344646Y-58725500D01*
X142529803Y-58686144D01*
X142702730Y-58609151D01*
X142855871Y-58497888D01*
X142982533Y-58357216D01*
X143077179Y-58193284D01*
X143135674Y-58013256D01*
X143155460Y-57825000D01*
X143135674Y-57636744D01*
X143077179Y-57456716D01*
X143051361Y-57411999D01*
X143034888Y-57344101D01*
X143051362Y-57288000D01*
X143077179Y-57243284D01*
X143135674Y-57063256D01*
X143155460Y-56875000D01*
X143135674Y-56686744D01*
X143077179Y-56506716D01*
X142982533Y-56342784D01*
X142855871Y-56202112D01*
X142855870Y-56202111D01*
X142702734Y-56090851D01*
X142702729Y-56090848D01*
X142529807Y-56013857D01*
X142529802Y-56013855D01*
X142384001Y-55982865D01*
X142344646Y-55974500D01*
X142155354Y-55974500D01*
X142122897Y-55981398D01*
X141970197Y-56013855D01*
X141970192Y-56013857D01*
X141797270Y-56090848D01*
X141797265Y-56090851D01*
X141644129Y-56202111D01*
X141517466Y-56342785D01*
X141422821Y-56506715D01*
X141422818Y-56506722D01*
X141364327Y-56686740D01*
X141364326Y-56686744D01*
X141344540Y-56875000D01*
X141364326Y-57063256D01*
X141364327Y-57063259D01*
X141422821Y-57243285D01*
X141448637Y-57288000D01*
X141465110Y-57355900D01*
X141448637Y-57412000D01*
X141422821Y-57456714D01*
X141365152Y-57634202D01*
X141364326Y-57636744D01*
X141344540Y-57825000D01*
X139173735Y-57825000D01*
X139127179Y-57681716D01*
X139032533Y-57517784D01*
X138905871Y-57377112D01*
X138883099Y-57360567D01*
X138752734Y-57265851D01*
X138752729Y-57265848D01*
X138579807Y-57188857D01*
X138579802Y-57188855D01*
X138434001Y-57157865D01*
X138394646Y-57149500D01*
X138205354Y-57149500D01*
X138172897Y-57156398D01*
X138020197Y-57188855D01*
X138020192Y-57188857D01*
X137847270Y-57265848D01*
X137847265Y-57265851D01*
X137694129Y-57377111D01*
X137567466Y-57517785D01*
X137472821Y-57681715D01*
X137472818Y-57681722D01*
X137421716Y-57839000D01*
X137414326Y-57861744D01*
X137394540Y-58050000D01*
X129809368Y-58050000D01*
X129827679Y-58018284D01*
X129886174Y-57838256D01*
X129905960Y-57650000D01*
X129886174Y-57461744D01*
X129829721Y-57288000D01*
X129827681Y-57281722D01*
X129827680Y-57281721D01*
X129827679Y-57281716D01*
X129733033Y-57117784D01*
X129606371Y-56977112D01*
X129606370Y-56977111D01*
X129453234Y-56865851D01*
X129453229Y-56865848D01*
X129280307Y-56788857D01*
X129280302Y-56788855D01*
X129202968Y-56772418D01*
X129141486Y-56739226D01*
X129107710Y-56678063D01*
X129110485Y-56619864D01*
X129109322Y-56619617D01*
X129110672Y-56613261D01*
X129110674Y-56613256D01*
X129130460Y-56425000D01*
X129110674Y-56236744D01*
X129052179Y-56056716D01*
X128957533Y-55892784D01*
X128830871Y-55752112D01*
X128830870Y-55752111D01*
X128690326Y-55650000D01*
X137394540Y-55650000D01*
X137414326Y-55838256D01*
X137414327Y-55838259D01*
X137472818Y-56018277D01*
X137472821Y-56018284D01*
X137567467Y-56182216D01*
X137670275Y-56296395D01*
X137694129Y-56322888D01*
X137847265Y-56434148D01*
X137847270Y-56434151D01*
X138020192Y-56511142D01*
X138020197Y-56511144D01*
X138205354Y-56550500D01*
X138205355Y-56550500D01*
X138394644Y-56550500D01*
X138394646Y-56550500D01*
X138579803Y-56511144D01*
X138752730Y-56434151D01*
X138905871Y-56322888D01*
X139032533Y-56182216D01*
X139127179Y-56018284D01*
X139185674Y-55838256D01*
X139205460Y-55650000D01*
X139185674Y-55461744D01*
X139127179Y-55281716D01*
X139032533Y-55117784D01*
X138905871Y-54977112D01*
X138905870Y-54977111D01*
X138752734Y-54865851D01*
X138752729Y-54865848D01*
X138579807Y-54788857D01*
X138579802Y-54788855D01*
X138434001Y-54757865D01*
X138394646Y-54749500D01*
X138205354Y-54749500D01*
X138172897Y-54756398D01*
X138020197Y-54788855D01*
X138020192Y-54788857D01*
X137847270Y-54865848D01*
X137847265Y-54865851D01*
X137694129Y-54977111D01*
X137567466Y-55117785D01*
X137472821Y-55281715D01*
X137472818Y-55281722D01*
X137414327Y-55461740D01*
X137414326Y-55461744D01*
X137394540Y-55650000D01*
X128690326Y-55650000D01*
X128677734Y-55640851D01*
X128677729Y-55640848D01*
X128504807Y-55563857D01*
X128504802Y-55563855D01*
X128359001Y-55532865D01*
X128319646Y-55524500D01*
X128130354Y-55524500D01*
X128097897Y-55531398D01*
X127945197Y-55563855D01*
X127945192Y-55563857D01*
X127772270Y-55640848D01*
X127772265Y-55640851D01*
X127619129Y-55752111D01*
X127492466Y-55892785D01*
X127397821Y-56056715D01*
X127397818Y-56056722D01*
X127339327Y-56236740D01*
X127339326Y-56236744D01*
X127319540Y-56425000D01*
X120434896Y-56425000D01*
X120563495Y-56296401D01*
X120699035Y-56102830D01*
X120798903Y-55888663D01*
X120860063Y-55660408D01*
X120880659Y-55425000D01*
X120860063Y-55189592D01*
X120798903Y-54961337D01*
X120699035Y-54747171D01*
X120563495Y-54553599D01*
X120563494Y-54553597D01*
X120396402Y-54386506D01*
X120396395Y-54386501D01*
X120202834Y-54250967D01*
X120202830Y-54250965D01*
X120202828Y-54250964D01*
X119988663Y-54151097D01*
X119988659Y-54151096D01*
X119988655Y-54151094D01*
X119760413Y-54089938D01*
X119760403Y-54089936D01*
X119525001Y-54069341D01*
X119524999Y-54069341D01*
X119289596Y-54089936D01*
X119289586Y-54089938D01*
X119061344Y-54151094D01*
X119061335Y-54151098D01*
X118847171Y-54250964D01*
X118847169Y-54250965D01*
X118653600Y-54386503D01*
X118531673Y-54508430D01*
X118470350Y-54541914D01*
X118400658Y-54536930D01*
X118344725Y-54495058D01*
X118327810Y-54464081D01*
X118278797Y-54332671D01*
X118278793Y-54332664D01*
X118192547Y-54217455D01*
X118192544Y-54217452D01*
X118077335Y-54131206D01*
X118077328Y-54131202D01*
X117942482Y-54080908D01*
X117942483Y-54080908D01*
X117882883Y-54074501D01*
X117882881Y-54074500D01*
X117882873Y-54074500D01*
X117882864Y-54074500D01*
X116087129Y-54074500D01*
X116087123Y-54074501D01*
X116027516Y-54080908D01*
X115892671Y-54131202D01*
X115892664Y-54131206D01*
X115777455Y-54217452D01*
X115777452Y-54217455D01*
X115691206Y-54332664D01*
X115691202Y-54332671D01*
X115640908Y-54467517D01*
X115634501Y-54527116D01*
X115634500Y-54527135D01*
X115634500Y-56322870D01*
X115634501Y-56322876D01*
X115640908Y-56382483D01*
X115691202Y-56517328D01*
X115691206Y-56517335D01*
X115777452Y-56632544D01*
X115777455Y-56632547D01*
X115892664Y-56718793D01*
X115892671Y-56718797D01*
X116024081Y-56767810D01*
X116080015Y-56809681D01*
X116104432Y-56875145D01*
X116089580Y-56943418D01*
X116068430Y-56971673D01*
X115946503Y-57093600D01*
X115810965Y-57287169D01*
X115810964Y-57287171D01*
X115711098Y-57501335D01*
X115711094Y-57501344D01*
X115649938Y-57729586D01*
X115649936Y-57729596D01*
X115629341Y-57964999D01*
X115629341Y-57965000D01*
X113151781Y-57965000D01*
X113135674Y-57811744D01*
X113077179Y-57631716D01*
X112982533Y-57467784D01*
X112855871Y-57327112D01*
X112855870Y-57327111D01*
X112702734Y-57215851D01*
X112702729Y-57215848D01*
X112529807Y-57138857D01*
X112529802Y-57138855D01*
X112384001Y-57107865D01*
X112344646Y-57099500D01*
X112155354Y-57099500D01*
X112122897Y-57106398D01*
X111970197Y-57138855D01*
X111970192Y-57138857D01*
X111800436Y-57214439D01*
X111731186Y-57223724D01*
X111699564Y-57214439D01*
X111529807Y-57138857D01*
X111529802Y-57138855D01*
X111384000Y-57107865D01*
X111344646Y-57099500D01*
X111155354Y-57099500D01*
X111122897Y-57106398D01*
X110970197Y-57138855D01*
X110812934Y-57208874D01*
X110743684Y-57218158D01*
X110712063Y-57208873D01*
X110554807Y-57138857D01*
X110554802Y-57138855D01*
X110409000Y-57107865D01*
X110369646Y-57099500D01*
X110180354Y-57099500D01*
X110147897Y-57106398D01*
X109995197Y-57138855D01*
X109850388Y-57203329D01*
X109781138Y-57212613D01*
X109733895Y-57193178D01*
X109733363Y-57194101D01*
X109727729Y-57190848D01*
X109554807Y-57113857D01*
X109554802Y-57113855D01*
X109409001Y-57082865D01*
X109369646Y-57074500D01*
X109180354Y-57074500D01*
X109147897Y-57081398D01*
X108995197Y-57113855D01*
X108995192Y-57113857D01*
X108822270Y-57190848D01*
X108822265Y-57190851D01*
X108669129Y-57302111D01*
X108669128Y-57302112D01*
X108541785Y-57443540D01*
X108482299Y-57480188D01*
X108412442Y-57478857D01*
X108354394Y-57439970D01*
X108326584Y-57375873D01*
X108325637Y-57360583D01*
X108325637Y-55014354D01*
X108325715Y-55013668D01*
X108325636Y-55000098D01*
X108325638Y-55000096D01*
X108307866Y-51924894D01*
X108327163Y-51857744D01*
X108379702Y-51811685D01*
X108448801Y-51801342D01*
X108512524Y-51829999D01*
X108547057Y-51878283D01*
X108600597Y-52012658D01*
X108600606Y-52012677D01*
X108768218Y-52328827D01*
X108969033Y-52625007D01*
X109096441Y-52775003D01*
X109096442Y-52775004D01*
X110302266Y-51569179D01*
X110465130Y-51759870D01*
X110655818Y-51922732D01*
X109447255Y-53131295D01*
X109447256Y-53131296D01*
X109460485Y-53143828D01*
X109460486Y-53143829D01*
X109745367Y-53360388D01*
X109745370Y-53360390D01*
X110051990Y-53544876D01*
X110376739Y-53695122D01*
X110376744Y-53695123D01*
X110715855Y-53809383D01*
X111065339Y-53886311D01*
X111421075Y-53924999D01*
X111421085Y-53925000D01*
X111778915Y-53925000D01*
X111778924Y-53924999D01*
X112134660Y-53886311D01*
X112484144Y-53809383D01*
X112823255Y-53695123D01*
X112823260Y-53695122D01*
X113148009Y-53544876D01*
X113454629Y-53360390D01*
X113454632Y-53360388D01*
X113739504Y-53143836D01*
X113752742Y-53131294D01*
X112544180Y-51922733D01*
X112734870Y-51759870D01*
X112897733Y-51569180D01*
X114103556Y-52775003D01*
X114230964Y-52625008D01*
X114230975Y-52624994D01*
X114431781Y-52328827D01*
X114599393Y-52012677D01*
X114599402Y-52012659D01*
X114731850Y-51680239D01*
X114731852Y-51680232D01*
X114733305Y-51675000D01*
X115629341Y-51675000D01*
X115649936Y-51910403D01*
X115649938Y-51910413D01*
X115711094Y-52138655D01*
X115711096Y-52138659D01*
X115711097Y-52138663D01*
X115792791Y-52313855D01*
X115810965Y-52352830D01*
X115810967Y-52352834D01*
X115873952Y-52442785D01*
X115946505Y-52546401D01*
X116113599Y-52713495D01*
X116201443Y-52775004D01*
X116307165Y-52849032D01*
X116307167Y-52849033D01*
X116307170Y-52849035D01*
X116521337Y-52948903D01*
X116749592Y-53010063D01*
X116937918Y-53026539D01*
X116984999Y-53030659D01*
X116985000Y-53030659D01*
X116985001Y-53030659D01*
X117024234Y-53027226D01*
X117220408Y-53010063D01*
X117448663Y-52948903D01*
X117662830Y-52849035D01*
X117856401Y-52713495D01*
X118023495Y-52546401D01*
X118153730Y-52360405D01*
X118208307Y-52316781D01*
X118277805Y-52309587D01*
X118340160Y-52341110D01*
X118356879Y-52360405D01*
X118486890Y-52546078D01*
X118653917Y-52713105D01*
X118847421Y-52848600D01*
X119061507Y-52948429D01*
X119061516Y-52948433D01*
X119274998Y-53005635D01*
X119274999Y-53005634D01*
X119274999Y-52110501D01*
X119382685Y-52159680D01*
X119489237Y-52175000D01*
X119560763Y-52175000D01*
X119667315Y-52159680D01*
X119775000Y-52110501D01*
X119775000Y-53005634D01*
X119889331Y-52975000D01*
X125294540Y-52975000D01*
X125314326Y-53163256D01*
X125314327Y-53163259D01*
X125372818Y-53343277D01*
X125372821Y-53343284D01*
X125467467Y-53507216D01*
X125594129Y-53647888D01*
X125747265Y-53759148D01*
X125747270Y-53759151D01*
X125920192Y-53836142D01*
X125920197Y-53836144D01*
X126105354Y-53875500D01*
X126105355Y-53875500D01*
X126294644Y-53875500D01*
X126294646Y-53875500D01*
X126479803Y-53836144D01*
X126652730Y-53759151D01*
X126805871Y-53647888D01*
X126932533Y-53507216D01*
X127027179Y-53343284D01*
X127081858Y-53175000D01*
X137394540Y-53175000D01*
X137414326Y-53363256D01*
X137414327Y-53363259D01*
X137472818Y-53543277D01*
X137472821Y-53543284D01*
X137567467Y-53707216D01*
X137579088Y-53720122D01*
X137694129Y-53847888D01*
X137847265Y-53959148D01*
X137847270Y-53959151D01*
X138020192Y-54036142D01*
X138020197Y-54036144D01*
X138205354Y-54075500D01*
X138205355Y-54075500D01*
X138394644Y-54075500D01*
X138394646Y-54075500D01*
X138579803Y-54036144D01*
X138752730Y-53959151D01*
X138905871Y-53847888D01*
X139032533Y-53707216D01*
X139127179Y-53543284D01*
X139185674Y-53363256D01*
X139205460Y-53175000D01*
X139185674Y-52986744D01*
X139127179Y-52806716D01*
X139032533Y-52642784D01*
X138905871Y-52502112D01*
X138905870Y-52502111D01*
X138752734Y-52390851D01*
X138752729Y-52390848D01*
X138579807Y-52313857D01*
X138579802Y-52313855D01*
X138434000Y-52282865D01*
X138394646Y-52274500D01*
X138205354Y-52274500D01*
X138172897Y-52281398D01*
X138020197Y-52313855D01*
X138020192Y-52313857D01*
X137847270Y-52390848D01*
X137847265Y-52390851D01*
X137694129Y-52502111D01*
X137567466Y-52642785D01*
X137472821Y-52806715D01*
X137472818Y-52806722D01*
X137418142Y-52975000D01*
X137414326Y-52986744D01*
X137399133Y-53131296D01*
X137395189Y-53168829D01*
X137394540Y-53175000D01*
X127081858Y-53175000D01*
X127085674Y-53163256D01*
X127105460Y-52975000D01*
X127085674Y-52786744D01*
X127027179Y-52606716D01*
X126932533Y-52442784D01*
X126805871Y-52302112D01*
X126805870Y-52302111D01*
X126652734Y-52190851D01*
X126652729Y-52190848D01*
X126479807Y-52113857D01*
X126479802Y-52113855D01*
X126320611Y-52080019D01*
X126294646Y-52074500D01*
X126105354Y-52074500D01*
X126079389Y-52080019D01*
X125920197Y-52113855D01*
X125920192Y-52113857D01*
X125747270Y-52190848D01*
X125747265Y-52190851D01*
X125594129Y-52302111D01*
X125467466Y-52442785D01*
X125372821Y-52606715D01*
X125372818Y-52606722D01*
X125314327Y-52786740D01*
X125314326Y-52786744D01*
X125294540Y-52975000D01*
X119889331Y-52975000D01*
X119988483Y-52948433D01*
X119988492Y-52948429D01*
X120202578Y-52848600D01*
X120396082Y-52713105D01*
X120563105Y-52546082D01*
X120698600Y-52352578D01*
X120798429Y-52138492D01*
X120798432Y-52138486D01*
X120855636Y-51925000D01*
X119958686Y-51925000D01*
X119984493Y-51884844D01*
X120025000Y-51746889D01*
X120025000Y-51603111D01*
X119984493Y-51465156D01*
X119958686Y-51425000D01*
X120855636Y-51425000D01*
X120855635Y-51424999D01*
X120798432Y-51211513D01*
X120798429Y-51211507D01*
X120698600Y-50997422D01*
X120698599Y-50997420D01*
X120563113Y-50803926D01*
X120563108Y-50803920D01*
X120396078Y-50636890D01*
X120210405Y-50506879D01*
X120166780Y-50452302D01*
X120159588Y-50382804D01*
X120191110Y-50320449D01*
X120210406Y-50303730D01*
X120396401Y-50173495D01*
X120563495Y-50006401D01*
X120699035Y-49812830D01*
X120798903Y-49598663D01*
X120860063Y-49370408D01*
X120880659Y-49135000D01*
X120860063Y-48899592D01*
X120798903Y-48671337D01*
X120699035Y-48457171D01*
X120689669Y-48443794D01*
X120563494Y-48263597D01*
X120396402Y-48096506D01*
X120396395Y-48096501D01*
X120376732Y-48082733D01*
X120319518Y-48042671D01*
X120202834Y-47960967D01*
X120202830Y-47960965D01*
X120158188Y-47940148D01*
X119988663Y-47861097D01*
X119988659Y-47861096D01*
X119988655Y-47861094D01*
X119760413Y-47799938D01*
X119760403Y-47799936D01*
X119525001Y-47779341D01*
X119524999Y-47779341D01*
X119289596Y-47799936D01*
X119289586Y-47799938D01*
X119061344Y-47861094D01*
X119061335Y-47861098D01*
X118847171Y-47960964D01*
X118847169Y-47960965D01*
X118653600Y-48096503D01*
X118531673Y-48218430D01*
X118470350Y-48251914D01*
X118400658Y-48246930D01*
X118344725Y-48205058D01*
X118327810Y-48174081D01*
X118278797Y-48042671D01*
X118278793Y-48042664D01*
X118192547Y-47927455D01*
X118192544Y-47927452D01*
X118077335Y-47841206D01*
X118077328Y-47841202D01*
X117942482Y-47790908D01*
X117942483Y-47790908D01*
X117882883Y-47784501D01*
X117882881Y-47784500D01*
X117882873Y-47784500D01*
X117882864Y-47784500D01*
X116087129Y-47784500D01*
X116087123Y-47784501D01*
X116027516Y-47790908D01*
X115892671Y-47841202D01*
X115892664Y-47841206D01*
X115777455Y-47927452D01*
X115777452Y-47927455D01*
X115691206Y-48042664D01*
X115691202Y-48042671D01*
X115640908Y-48177517D01*
X115634501Y-48237116D01*
X115634500Y-48237135D01*
X115634500Y-50032870D01*
X115634501Y-50032876D01*
X115640908Y-50092483D01*
X115691202Y-50227328D01*
X115691206Y-50227335D01*
X115777452Y-50342544D01*
X115777455Y-50342547D01*
X115892664Y-50428793D01*
X115892671Y-50428797D01*
X116024081Y-50477810D01*
X116080015Y-50519681D01*
X116104432Y-50585145D01*
X116089580Y-50653418D01*
X116068430Y-50681673D01*
X115946503Y-50803600D01*
X115810965Y-50997169D01*
X115810964Y-50997171D01*
X115711098Y-51211335D01*
X115711094Y-51211344D01*
X115649938Y-51439586D01*
X115649936Y-51439596D01*
X115629341Y-51674999D01*
X115629341Y-51675000D01*
X114733305Y-51675000D01*
X114827578Y-51335457D01*
X114827584Y-51335431D01*
X114885472Y-50982331D01*
X114885473Y-50982314D01*
X114904847Y-50625002D01*
X114904847Y-50624997D01*
X114885473Y-50267685D01*
X114885472Y-50267668D01*
X114827584Y-49914568D01*
X114827578Y-49914542D01*
X114731852Y-49569767D01*
X114731850Y-49569760D01*
X114599402Y-49237340D01*
X114599393Y-49237322D01*
X114431781Y-48921172D01*
X114230966Y-48624992D01*
X114103557Y-48474995D01*
X114103556Y-48474994D01*
X112897732Y-49680818D01*
X112734870Y-49490130D01*
X112544179Y-49327266D01*
X113752743Y-48118703D01*
X113752742Y-48118702D01*
X113739514Y-48106171D01*
X113739513Y-48106170D01*
X113454632Y-47889611D01*
X113454629Y-47889609D01*
X113148012Y-47705125D01*
X112899229Y-47590025D01*
X112846652Y-47544011D01*
X112827298Y-47476875D01*
X112847312Y-47409933D01*
X112900341Y-47364439D01*
X112951570Y-47353486D01*
X143505170Y-47421888D01*
G37*
%TD.AperFunction*%
%TD*%
M02*
