%TF.GenerationSoftware,KiCad,Pcbnew,7.0.5-0*%
%TF.CreationDate,2023-07-12T10:20:26-04:00*%
%TF.ProjectId,stm32g431-mt6701-stspin233,73746d33-3267-4343-9331-2d6d74363730,rev?*%
%TF.SameCoordinates,Original*%
%TF.FileFunction,Profile,NP*%
%FSLAX46Y46*%
G04 Gerber Fmt 4.6, Leading zero omitted, Abs format (unit mm)*
G04 Created by KiCad (PCBNEW 7.0.5-0) date 2023-07-12 10:20:26*
%MOMM*%
%LPD*%
G01*
G04 APERTURE LIST*
%TA.AperFunction,Profile*%
%ADD10C,0.100000*%
%TD*%
G04 APERTURE END LIST*
D10*
X108506869Y-83800336D02*
G75*
G03*
X111806986Y-87075336I3275131J36D01*
G01*
X145075336Y-87168109D02*
X111806986Y-87075336D01*
X148268131Y-50699664D02*
G75*
G03*
X144968014Y-47424664I-3275131J-36D01*
G01*
X108300000Y-50650000D02*
X108325137Y-55000000D01*
X111575000Y-47349905D02*
X144968014Y-47424664D01*
X148268109Y-50699664D02*
X148324863Y-55000000D01*
X111575000Y-47349905D02*
G75*
G03*
X108300000Y-50650000I0J-3275095D01*
G01*
X148324863Y-65000000D02*
X148350336Y-83868014D01*
X108506891Y-83800336D02*
X108325137Y-65000000D01*
X145075336Y-87168131D02*
G75*
G03*
X148350336Y-83868014I-36J3275131D01*
G01*
%TO.C,J104*%
X108325137Y-65000000D02*
X108325137Y-61300000D01*
X108325137Y-61300000D02*
X111125137Y-61300000D01*
X108325137Y-60700000D02*
X108325137Y-55000000D01*
X111125137Y-60700000D02*
X108325137Y-60700000D01*
X111125137Y-61300000D02*
G75*
G03*
X111125137Y-60700000I0J300000D01*
G01*
%TO.C,J103*%
X148324863Y-65000000D02*
X148324863Y-61300000D01*
X148324863Y-61300000D02*
X145524863Y-61300000D01*
X145524863Y-60700000D02*
X148324863Y-60700000D01*
X148324863Y-60700000D02*
X148324863Y-55000000D01*
X145524863Y-60700000D02*
G75*
G03*
X145524863Y-61300000I0J-300000D01*
G01*
%TD*%
M02*
