%TF.GenerationSoftware,KiCad,Pcbnew,7.0.5-0*%
%TF.CreationDate,2023-07-12T10:20:26-04:00*%
%TF.ProjectId,stm32g431-mt6701-stspin233,73746d33-3267-4343-9331-2d6d74363730,rev?*%
%TF.SameCoordinates,Original*%
%TF.FileFunction,Copper,L4,Bot*%
%TF.FilePolarity,Positive*%
%FSLAX46Y46*%
G04 Gerber Fmt 4.6, Leading zero omitted, Abs format (unit mm)*
G04 Created by KiCad (PCBNEW 7.0.5-0) date 2023-07-12 10:20:26*
%MOMM*%
%LPD*%
G01*
G04 APERTURE LIST*
G04 Aperture macros list*
%AMRotRect*
0 Rectangle, with rotation*
0 The origin of the aperture is its center*
0 $1 length*
0 $2 width*
0 $3 Rotation angle, in degrees counterclockwise*
0 Add horizontal line*
21,1,$1,$2,0,0,$3*%
G04 Aperture macros list end*
%TA.AperFunction,ComponentPad*%
%ADD10C,5.600000*%
%TD*%
%TA.AperFunction,ComponentPad*%
%ADD11R,1.000000X1.000000*%
%TD*%
%TA.AperFunction,ComponentPad*%
%ADD12O,1.000000X1.000000*%
%TD*%
%TA.AperFunction,ComponentPad*%
%ADD13O,2.100000X1.000000*%
%TD*%
%TA.AperFunction,ComponentPad*%
%ADD14O,1.600000X1.000000*%
%TD*%
%TA.AperFunction,SMDPad,CuDef*%
%ADD15R,4.000000X1.000000*%
%TD*%
%TA.AperFunction,ComponentPad*%
%ADD16R,1.700000X1.700000*%
%TD*%
%TA.AperFunction,ComponentPad*%
%ADD17O,1.700000X1.700000*%
%TD*%
%TA.AperFunction,SMDPad,CuDef*%
%ADD18RotRect,0.400000X1.500000X45.000000*%
%TD*%
%TA.AperFunction,SMDPad,CuDef*%
%ADD19RotRect,2.000000X3.000000X45.000000*%
%TD*%
%TA.AperFunction,SMDPad,CuDef*%
%ADD20RotRect,0.400000X1.500000X225.000000*%
%TD*%
%TA.AperFunction,SMDPad,CuDef*%
%ADD21RotRect,2.000000X3.000000X225.000000*%
%TD*%
%TA.AperFunction,ViaPad*%
%ADD22C,0.800000*%
%TD*%
%TA.AperFunction,Conductor*%
%ADD23C,0.250000*%
%TD*%
G04 APERTURE END LIST*
D10*
%TO.P,H104,1,1*%
%TO.N,GND*%
X145075000Y-83875000D03*
%TD*%
D11*
%TO.P,J201,1,NC*%
%TO.N,unconnected-(J201-NC-Pad1)*%
X116275000Y-85475000D03*
D12*
%TO.P,J201,2,NC*%
%TO.N,unconnected-(J201-NC-Pad2)*%
X116275000Y-84205000D03*
%TO.P,J201,3,VCC*%
%TO.N,+3V3*%
X117545000Y-85475000D03*
%TO.P,J201,4,JTMS/SWDIO*%
%TO.N,/mcu/SDIO*%
X117545000Y-84205000D03*
%TO.P,J201,5,GND*%
%TO.N,GND*%
X118815000Y-85475000D03*
%TO.P,J201,6,JCLK/SWCLK*%
%TO.N,/mcu/SWCLK*%
X118815000Y-84205000D03*
%TO.P,J201,7,GND*%
%TO.N,GND*%
X120085000Y-85475000D03*
%TO.P,J201,8,JTDO/SWO*%
%TO.N,unconnected-(J201-JTDO{slash}SWO-Pad8)*%
X120085000Y-84205000D03*
%TO.P,J201,9,JRCLK/NC*%
%TO.N,unconnected-(J201-JRCLK{slash}NC-Pad9)*%
X121355000Y-85475000D03*
%TO.P,J201,10,JTDI/NC*%
%TO.N,unconnected-(J201-JTDI{slash}NC-Pad10)*%
X121355000Y-84205000D03*
%TO.P,J201,11,GNDDetect*%
%TO.N,GND*%
X122625000Y-85475000D03*
%TO.P,J201,12,~{RST}*%
%TO.N,/mcu/RESET*%
X122625000Y-84205000D03*
%TO.P,J201,13,VCP_RX*%
%TO.N,/UART_TX*%
X123895000Y-85475000D03*
%TO.P,J201,14,VCP_TX*%
%TO.N,/UART_RX*%
X123895000Y-84205000D03*
%TD*%
D10*
%TO.P,H101,1,1*%
%TO.N,GND*%
X144950000Y-50650000D03*
%TD*%
D13*
%TO.P,J601,S1,SHIELD*%
%TO.N,GND*%
X141845000Y-76020000D03*
D14*
X146025000Y-76020000D03*
D13*
X141845000Y-67380000D03*
D14*
X146025000Y-67380000D03*
%TD*%
D10*
%TO.P,H102,1,1*%
%TO.N,GND*%
X111600000Y-50625000D03*
%TD*%
%TO.P,H103,1,1*%
%TO.N,GND*%
X111800000Y-83800000D03*
%TD*%
D15*
%TO.P,J104,6,Pin_6*%
%TO.N,/CAN_H*%
X110833200Y-64002800D03*
%TO.P,J104,7,Pin_7*%
%TO.N,/CAN_L*%
X110833200Y-62002800D03*
%TO.P,J104,8,Pin_8*%
%TO.N,Vmot*%
X110833200Y-60002800D03*
%TO.P,J104,9,Pin_9*%
X110833200Y-58002800D03*
%TO.P,J104,10,Pin_10*%
%TO.N,GND*%
X110833200Y-56002800D03*
%TD*%
D16*
%TO.P,J101,1,Pin_1*%
%TO.N,/I2C_SCL*%
X116985000Y-49135000D03*
D17*
%TO.P,J101,2,Pin_2*%
%TO.N,/I2C_SDA*%
X119525000Y-49135000D03*
%TO.P,J101,3,Pin_3*%
%TO.N,Vmot*%
X116985000Y-51675000D03*
%TO.P,J101,4,Pin_4*%
%TO.N,GND*%
X119525000Y-51675000D03*
%TD*%
D16*
%TO.P,J102,1,Pin_1*%
%TO.N,/UART_TX*%
X116985000Y-55425000D03*
D17*
%TO.P,J102,2,Pin_2*%
%TO.N,/UART_RX*%
X119525000Y-55425000D03*
%TO.P,J102,3,Pin_3*%
%TO.N,Vmot*%
X116985000Y-57965000D03*
%TO.P,J102,4,Pin_4*%
%TO.N,GND*%
X119525000Y-57965000D03*
%TD*%
D18*
%TO.P,J109,1,Pin_1*%
%TO.N,/motor driver/MOT_U*%
X142707107Y-80117893D03*
%TO.P,J109,2,Pin_2*%
%TO.N,/motor driver/MOT_V*%
X142000000Y-80825000D03*
%TO.P,J109,3,Pin_3*%
%TO.N,/motor driver/MOT_W*%
X141292893Y-81532107D03*
D19*
%TO.P,J109,4*%
%TO.N,N/C*%
X138296882Y-81538471D03*
%TO.P,J109,5*%
X142713471Y-77121882D03*
%TD*%
D20*
%TO.P,J110,1,Pin_1*%
%TO.N,/motor driver/MOT_W*%
X138310102Y-78546134D03*
%TO.P,J110,2,Pin_2*%
%TO.N,/motor driver/MOT_V*%
X139017209Y-77839027D03*
%TO.P,J110,3,Pin_3*%
%TO.N,/motor driver/MOT_U*%
X139724316Y-77131920D03*
D21*
%TO.P,J110,4*%
%TO.N,N/C*%
X142720327Y-77125556D03*
%TO.P,J110,5*%
X138303738Y-81542145D03*
%TD*%
D15*
%TO.P,J103,1,Pin_1*%
%TO.N,/CAN_H*%
X145825000Y-64000000D03*
%TO.P,J103,2,Pin_2*%
%TO.N,/CAN_L*%
X145825000Y-62000000D03*
%TO.P,J103,3,Pin_3*%
%TO.N,Vmot*%
X145825000Y-60000000D03*
%TO.P,J103,4,Pin_4*%
X145825000Y-58000000D03*
%TO.P,J103,5,Pin_5*%
%TO.N,GND*%
X145825000Y-56000000D03*
%TD*%
D22*
%TO.N,+3V3*%
X134750000Y-65775000D03*
X133200000Y-65775000D03*
X130112569Y-74793509D03*
X119138314Y-72762394D03*
X130650000Y-65725000D03*
X132175000Y-65750000D03*
X135054575Y-71783425D03*
X125700000Y-84950000D03*
X119600000Y-63425000D03*
X126200000Y-52975000D03*
X122054039Y-77769620D03*
X125850000Y-68650000D03*
X140195511Y-76025138D03*
X120693201Y-69677750D03*
%TO.N,GND*%
X130725000Y-52450000D03*
X136050000Y-67825000D03*
X145350000Y-55975000D03*
X110200000Y-66450000D03*
X146300000Y-56000000D03*
X132325000Y-56625000D03*
X112225000Y-56000000D03*
X132325000Y-57925000D03*
X132325000Y-59125000D03*
X147300000Y-65750000D03*
X139350000Y-86100000D03*
X110250000Y-56000000D03*
X128800000Y-52475000D03*
X128700000Y-85875000D03*
X135800000Y-61275500D03*
X147625000Y-54350000D03*
X109675000Y-74125000D03*
X109675000Y-75975000D03*
X109100000Y-80925000D03*
X114650000Y-86525000D03*
X147275000Y-56000000D03*
X147650000Y-69775000D03*
X111250000Y-55975000D03*
X113812299Y-72162299D03*
X145800000Y-54450000D03*
X124450000Y-73950000D03*
X112325000Y-66475000D03*
X125939193Y-80294416D03*
X146000000Y-80050000D03*
X118288178Y-72236777D03*
X142200000Y-47925000D03*
X128700000Y-82325000D03*
X109250000Y-56000000D03*
X123846221Y-59400129D03*
X126475000Y-73900000D03*
X137687000Y-71750000D03*
X144350000Y-55975000D03*
X131225000Y-83150000D03*
X135819322Y-75914749D03*
X129702122Y-79156515D03*
X146000000Y-78100000D03*
X110550000Y-69900000D03*
X142350000Y-86600000D03*
X121600500Y-68925000D03*
X127675000Y-63925000D03*
X122500000Y-73925000D03*
X142150000Y-53425000D03*
X117400000Y-80125000D03*
X147650000Y-71625000D03*
X114275000Y-47950000D03*
X124500000Y-71975000D03*
X124475000Y-75950000D03*
X108975000Y-54150000D03*
X147675000Y-73600000D03*
X113700000Y-73625000D03*
X133925000Y-79600000D03*
X111750000Y-80100000D03*
%TO.N,/mcu/RESET*%
X120250000Y-80250000D03*
%TO.N,/mcu/~{MOT_SHDN}*%
X135114000Y-74650000D03*
X130484010Y-73865588D03*
%TO.N,Vmot*%
X138300000Y-55650000D03*
X145350000Y-60025000D03*
X138300000Y-53175000D03*
X139357513Y-83457513D03*
X147300000Y-60000000D03*
X109275000Y-60000000D03*
X147300000Y-58000000D03*
X142250000Y-56875000D03*
X146300000Y-58000000D03*
X111250000Y-58000000D03*
X112250000Y-60000000D03*
X109275000Y-57975000D03*
X145350000Y-58000000D03*
X144325000Y-60000000D03*
X111250000Y-60000000D03*
X142250000Y-57825000D03*
X134875000Y-82950000D03*
X110275000Y-58000000D03*
X146300000Y-60025000D03*
X138300000Y-58050000D03*
X112250000Y-58000000D03*
X110275000Y-60000000D03*
X144350000Y-57975000D03*
%TO.N,+5V*%
X135050535Y-70275381D03*
X135625000Y-66750000D03*
%TO.N,/I2C_SCL*%
X122451000Y-63325000D03*
%TO.N,/I2C_SDA*%
X120464674Y-71260326D03*
%TO.N,/UART_TX*%
X122961089Y-79365735D03*
X114200000Y-70275000D03*
%TO.N,/UART_RX*%
X122014225Y-79045650D03*
X115175000Y-69200000D03*
%TO.N,/CAN_H*%
X115675000Y-62400000D03*
X109300000Y-64000000D03*
X129000500Y-60916764D03*
X147300000Y-64000000D03*
%TO.N,/CAN_L*%
X129000500Y-59850000D03*
X147325000Y-62000000D03*
X109275000Y-62000000D03*
%TO.N,/display/TFT_COPI*%
X124650000Y-63300000D03*
X119842851Y-70404319D03*
%TO.N,/motor driver/MOT_U*%
X140700000Y-83650000D03*
%TO.N,/motor driver/MOT_V*%
X140600000Y-78225000D03*
%TO.N,/motor driver/MOT_W*%
X138412015Y-79388386D03*
%TO.N,/mcu/SDIO*%
X125348302Y-65155479D03*
%TO.N,/mcu/SWCLK*%
X124580381Y-66055613D03*
%TO.N,/display/TFT_BL*%
X119159225Y-74424217D03*
X120864410Y-60864410D03*
%TO.N,/encoder/~{ENC_CS}*%
X123450906Y-80253546D03*
X131375000Y-67300000D03*
%TO.N,/display/~{TFT_CS}*%
X129000500Y-57650000D03*
X121855327Y-70212166D03*
%TO.N,/display/TFT_DC*%
X116282131Y-71820445D03*
X128225000Y-56425000D03*
%TO.N,/display/TFT_RESET*%
X125837701Y-63300500D03*
X116964504Y-74144476D03*
%TO.N,/encoder/ENC_SCK*%
X124450000Y-80225000D03*
X132650000Y-67325000D03*
%TO.N,/encoder/ENC_CIPO*%
X133880698Y-67355698D03*
X125260589Y-79560589D03*
%TO.N,/mcu/TIM1_CH3N*%
X132724500Y-76188045D03*
X135389500Y-78399500D03*
%TO.N,/mcu/TIM1_CH1*%
X132427500Y-78025000D03*
X132922955Y-74675000D03*
%TO.N,/mcu/TIM1_CH3*%
X136925000Y-79100500D03*
X134389500Y-73725000D03*
%TD*%
D23*
%TO.N,/mcu/RESET*%
X120250000Y-80250000D02*
X120500000Y-80250000D01*
X122650000Y-84180000D02*
X122625000Y-84205000D01*
X122650000Y-82400000D02*
X122650000Y-84180000D01*
X120500000Y-80250000D02*
X122650000Y-82400000D01*
%TO.N,/mcu/~{MOT_SHDN}*%
X134689805Y-73000000D02*
X135114000Y-73424195D01*
X131349598Y-73000000D02*
X134689805Y-73000000D01*
X130484010Y-73865588D02*
X131349598Y-73000000D01*
X135114000Y-73424195D02*
X135114000Y-74650000D01*
%TO.N,+5V*%
X135050535Y-70275381D02*
X135050535Y-67324465D01*
X135050535Y-67324465D02*
X135625000Y-66750000D01*
%TO.N,/I2C_SCL*%
X122451000Y-62076000D02*
X122050000Y-61675000D01*
X120910000Y-47960000D02*
X118160000Y-47960000D01*
X122050000Y-49100000D02*
X120910000Y-47960000D01*
X122451000Y-63325000D02*
X122451000Y-62076000D01*
X122050000Y-61675000D02*
X122050000Y-49100000D01*
X118160000Y-47960000D02*
X116985000Y-49135000D01*
%TO.N,/I2C_SDA*%
X115450000Y-70936396D02*
X121600000Y-64786396D01*
X119250306Y-73675000D02*
X118825000Y-73675000D01*
X120735000Y-49135000D02*
X119525000Y-49135000D01*
X118825000Y-73675000D02*
X117475000Y-75025000D01*
X120464674Y-71260326D02*
X120464674Y-72460632D01*
X117475000Y-75025000D02*
X116525000Y-75025000D01*
X115450000Y-73950000D02*
X115450000Y-70936396D01*
X116525000Y-75025000D02*
X115450000Y-73950000D01*
X121600000Y-64786396D02*
X121600000Y-50000000D01*
X120464674Y-72460632D02*
X119250306Y-73675000D01*
X121600000Y-50000000D02*
X120735000Y-49135000D01*
%TO.N,/UART_TX*%
X122200000Y-80677208D02*
X124725000Y-83202208D01*
X119871701Y-56650000D02*
X118210000Y-56650000D01*
X114200000Y-65150000D02*
X120700000Y-58650000D01*
X122961089Y-79365735D02*
X122200000Y-80126824D01*
X122200000Y-80126824D02*
X122200000Y-80677208D01*
X124725000Y-83202208D02*
X124725000Y-84645000D01*
X124725000Y-84645000D02*
X123895000Y-85475000D01*
X118210000Y-56650000D02*
X116985000Y-55425000D01*
X120700000Y-57478299D02*
X119871701Y-56650000D01*
X114200000Y-70275000D02*
X114200000Y-65150000D01*
X120700000Y-58650000D02*
X120700000Y-57478299D01*
%TO.N,/UART_RX*%
X115175000Y-69200000D02*
X115175000Y-64811396D01*
X121750000Y-79309875D02*
X121750000Y-80863604D01*
X122014225Y-79045650D02*
X121750000Y-79309875D01*
X115175000Y-64811396D02*
X121150000Y-58836396D01*
X121150000Y-58836396D02*
X121150000Y-57050000D01*
X121750000Y-80863604D02*
X123895000Y-83008604D01*
X121150000Y-57050000D02*
X119525000Y-55425000D01*
X123895000Y-83008604D02*
X123895000Y-84205000D01*
%TO.N,/CAN_H*%
X129000500Y-60916764D02*
X129066764Y-60916764D01*
X114072200Y-64002800D02*
X115675000Y-62400000D01*
X144675000Y-64000000D02*
X145825000Y-64000000D01*
X110833200Y-64002800D02*
X114072200Y-64002800D01*
X141150000Y-60475000D02*
X144675000Y-64000000D01*
X129066764Y-60916764D02*
X129508528Y-60475000D01*
X129508528Y-60475000D02*
X141150000Y-60475000D01*
%TO.N,/CAN_L*%
X143900000Y-62000000D02*
X145825000Y-62000000D01*
X129000500Y-59850000D02*
X141750000Y-59850000D01*
X141750000Y-59850000D02*
X143900000Y-62000000D01*
%TO.N,/display/TFT_COPI*%
X119842851Y-68452733D02*
X119842851Y-70404319D01*
X124650000Y-63300000D02*
X124650000Y-63645584D01*
X124650000Y-63645584D02*
X119842851Y-68452733D01*
%TO.N,/motor driver/MOT_U*%
X139724316Y-77131920D02*
X140656920Y-77131920D01*
X141816422Y-82528858D02*
X142996751Y-81348529D01*
X140656920Y-77131920D02*
X142707107Y-79182107D01*
X141816422Y-82533578D02*
X141816422Y-82528858D01*
X140700000Y-83650000D02*
X141816422Y-82533578D01*
X142996751Y-80407537D02*
X142707107Y-80117893D01*
X142707107Y-79182107D02*
X142707107Y-80117893D01*
X142996751Y-81348529D02*
X142996751Y-80407537D01*
%TO.N,/motor driver/MOT_V*%
X140600000Y-78225000D02*
X139403182Y-78225000D01*
X139403182Y-78225000D02*
X139017209Y-77839027D01*
X140600000Y-78225000D02*
X140600000Y-79425000D01*
X140600000Y-79425000D02*
X142000000Y-80825000D01*
%TO.N,/motor driver/MOT_W*%
X138310102Y-78546134D02*
X138310102Y-78549316D01*
X138310102Y-78549316D02*
X141292893Y-81532107D01*
X138412015Y-79388386D02*
X138782184Y-79018216D01*
X138782184Y-79018216D02*
X138310102Y-78546134D01*
%TO.N,/mcu/SDIO*%
X125348302Y-65155479D02*
X124455917Y-65155479D01*
X122775000Y-70875000D02*
X119950000Y-73700000D01*
X119950000Y-78663299D02*
X117545000Y-81068299D01*
X119950000Y-73700000D02*
X119950000Y-78663299D01*
X124455917Y-65155479D02*
X122775000Y-66836396D01*
X122775000Y-66836396D02*
X122775000Y-70875000D01*
X117545000Y-81068299D02*
X117545000Y-84205000D01*
%TO.N,/mcu/SWCLK*%
X124580381Y-66055613D02*
X123225000Y-67410994D01*
X120400000Y-73900000D02*
X120400000Y-78849695D01*
X120400000Y-78849695D02*
X118815000Y-80434695D01*
X123225000Y-71075000D02*
X120400000Y-73900000D01*
X123225000Y-67410994D02*
X123225000Y-71075000D01*
X118815000Y-80434695D02*
X118815000Y-84205000D01*
%TO.N,/display/TFT_BL*%
X114850000Y-70900000D02*
X114850000Y-73986396D01*
X114850000Y-73986396D02*
X116338604Y-75475000D01*
X120875500Y-64874500D02*
X114850000Y-70900000D01*
X118108442Y-75475000D02*
X119159225Y-74424217D01*
X120864410Y-60864410D02*
X120875500Y-60875500D01*
X120875500Y-60875500D02*
X120875500Y-64874500D01*
X116338604Y-75475000D02*
X118108442Y-75475000D01*
%TO.N,/encoder/~{ENC_CS}*%
X123450906Y-80149094D02*
X124000000Y-79600000D01*
X124000000Y-78052208D02*
X132175000Y-69877208D01*
X124000000Y-79600000D02*
X124000000Y-78052208D01*
X123450906Y-80253546D02*
X123450906Y-80149094D01*
X132175000Y-69877208D02*
X132175000Y-68100000D01*
X132175000Y-68100000D02*
X131375000Y-67300000D01*
%TO.N,/display/~{TFT_CS}*%
X128275000Y-62025000D02*
X128275000Y-58375500D01*
X122325000Y-66650000D02*
X124950000Y-64025000D01*
X124950000Y-64025000D02*
X126275000Y-64025000D01*
X126275000Y-64025000D02*
X128275000Y-62025000D01*
X128275000Y-58375500D02*
X129000500Y-57650000D01*
X121855327Y-70212166D02*
X122325000Y-69742493D01*
X122325000Y-69742493D02*
X122325000Y-66650000D01*
%TO.N,/display/TFT_DC*%
X122500000Y-57400000D02*
X123475000Y-56425000D01*
X123200000Y-63822792D02*
X123200000Y-61825000D01*
X116282131Y-70740661D02*
X123200000Y-63822792D01*
X122500000Y-61125000D02*
X122500000Y-57400000D01*
X116282131Y-71820445D02*
X116282131Y-70740661D01*
X123200000Y-61825000D02*
X122500000Y-61125000D01*
X123475000Y-56425000D02*
X128225000Y-56425000D01*
%TO.N,/display/TFT_RESET*%
X117200000Y-73908980D02*
X117200000Y-70459188D01*
X123750000Y-62600000D02*
X124150000Y-62200000D01*
X123750000Y-63909188D02*
X123750000Y-62600000D01*
X116964504Y-74144476D02*
X117200000Y-73908980D01*
X117200000Y-70459188D02*
X123750000Y-63909188D01*
X125837701Y-62662701D02*
X125837701Y-63300500D01*
X125375000Y-62200000D02*
X125837701Y-62662701D01*
X124150000Y-62200000D02*
X125375000Y-62200000D01*
%TO.N,/encoder/ENC_SCK*%
X132975000Y-67650000D02*
X132975000Y-69713604D01*
X124450000Y-78238604D02*
X124450000Y-80225000D01*
X132975000Y-69713604D02*
X124450000Y-78238604D01*
X132650000Y-67325000D02*
X132975000Y-67650000D01*
%TO.N,/encoder/ENC_CIPO*%
X125260589Y-78064411D02*
X125260589Y-79560589D01*
X133880698Y-67355698D02*
X133880698Y-69444302D01*
X133880698Y-69444302D02*
X125260589Y-78064411D01*
%TO.N,/mcu/TIM1_CH3N*%
X135389500Y-78399500D02*
X135389500Y-77425896D01*
X134688604Y-76725000D02*
X133261455Y-76725000D01*
X135389500Y-77425896D02*
X134688604Y-76725000D01*
X133261455Y-76725000D02*
X132724500Y-76188045D01*
%TO.N,/mcu/TIM1_CH1*%
X132922955Y-74964285D02*
X132000000Y-75887240D01*
X132000000Y-77597500D02*
X132427500Y-78025000D01*
X132922955Y-74675000D02*
X132922955Y-74964285D01*
X132000000Y-75887240D02*
X132000000Y-77597500D01*
%TO.N,/mcu/TIM1_CH3*%
X136925000Y-78325000D02*
X134389500Y-75789500D01*
X134389500Y-75789500D02*
X134389500Y-73725000D01*
X136925000Y-79100500D02*
X136925000Y-78325000D01*
%TD*%
%TA.AperFunction,Conductor*%
%TO.N,GND*%
G36*
X132549873Y-73645185D02*
G01*
X132595628Y-73697989D01*
X132605572Y-73767147D01*
X132576547Y-73830703D01*
X132533270Y-73862779D01*
X132470225Y-73890848D01*
X132470220Y-73890851D01*
X132317084Y-74002111D01*
X132190421Y-74142785D01*
X132095776Y-74306715D01*
X132095773Y-74306722D01*
X132045405Y-74461740D01*
X132037281Y-74486744D01*
X132020123Y-74650000D01*
X132017495Y-74675000D01*
X132037281Y-74863256D01*
X132037281Y-74863257D01*
X132038842Y-74868059D01*
X132040836Y-74937901D01*
X132008591Y-74994056D01*
X131616208Y-75386439D01*
X131603951Y-75396260D01*
X131604134Y-75396481D01*
X131598122Y-75401454D01*
X131551432Y-75451172D01*
X131550079Y-75452569D01*
X131529889Y-75472759D01*
X131529877Y-75472772D01*
X131525621Y-75478257D01*
X131521837Y-75482687D01*
X131489937Y-75516658D01*
X131489936Y-75516660D01*
X131480284Y-75534216D01*
X131469610Y-75550466D01*
X131457329Y-75566301D01*
X131457324Y-75566308D01*
X131438815Y-75609078D01*
X131436245Y-75614324D01*
X131413803Y-75655146D01*
X131408822Y-75674547D01*
X131402521Y-75692950D01*
X131394562Y-75711342D01*
X131394561Y-75711345D01*
X131387271Y-75757367D01*
X131386087Y-75763086D01*
X131374501Y-75808212D01*
X131374500Y-75808222D01*
X131374500Y-75828256D01*
X131372973Y-75847653D01*
X131369840Y-75867436D01*
X131372794Y-75898689D01*
X131374225Y-75913823D01*
X131374500Y-75919661D01*
X131374500Y-77514754D01*
X131372775Y-77530372D01*
X131373061Y-77530399D01*
X131372326Y-77538166D01*
X131374468Y-77606345D01*
X131374499Y-77608290D01*
X131374499Y-77636851D01*
X131375368Y-77643732D01*
X131375826Y-77649551D01*
X131377290Y-77696124D01*
X131377291Y-77696127D01*
X131382880Y-77715367D01*
X131386824Y-77734411D01*
X131389336Y-77754292D01*
X131399234Y-77779292D01*
X131406490Y-77797619D01*
X131408382Y-77803147D01*
X131418948Y-77839515D01*
X131421382Y-77847890D01*
X131427312Y-77857918D01*
X131431580Y-77865134D01*
X131440138Y-77882603D01*
X131447514Y-77901232D01*
X131474898Y-77938923D01*
X131478106Y-77943807D01*
X131505800Y-77990633D01*
X131503500Y-77991992D01*
X131523905Y-78042747D01*
X131541826Y-78213256D01*
X131541827Y-78213259D01*
X131600318Y-78393277D01*
X131600321Y-78393284D01*
X131694967Y-78557216D01*
X131737644Y-78604613D01*
X131821629Y-78697888D01*
X131974765Y-78809148D01*
X131974770Y-78809151D01*
X132147692Y-78886142D01*
X132147697Y-78886144D01*
X132332854Y-78925500D01*
X132332855Y-78925500D01*
X132522144Y-78925500D01*
X132522146Y-78925500D01*
X132707303Y-78886144D01*
X132880230Y-78809151D01*
X133033371Y-78697888D01*
X133160033Y-78557216D01*
X133254679Y-78393284D01*
X133313174Y-78213256D01*
X133332960Y-78025000D01*
X133313174Y-77836744D01*
X133254679Y-77656716D01*
X133185485Y-77536869D01*
X133169013Y-77468971D01*
X133191866Y-77402944D01*
X133246787Y-77359753D01*
X133281207Y-77351421D01*
X133288042Y-77350775D01*
X133293878Y-77350500D01*
X134378152Y-77350500D01*
X134445191Y-77370185D01*
X134465833Y-77386819D01*
X134710844Y-77631830D01*
X134744329Y-77693153D01*
X134739345Y-77762845D01*
X134715314Y-77802482D01*
X134656966Y-77867285D01*
X134562321Y-78031215D01*
X134562318Y-78031222D01*
X134503827Y-78211240D01*
X134503826Y-78211244D01*
X134484040Y-78399500D01*
X134503826Y-78587756D01*
X134503827Y-78587759D01*
X134562318Y-78767777D01*
X134562321Y-78767784D01*
X134656967Y-78931716D01*
X134697456Y-78976683D01*
X134783629Y-79072388D01*
X134936765Y-79183648D01*
X134936770Y-79183651D01*
X135109692Y-79260642D01*
X135109697Y-79260644D01*
X135294854Y-79300000D01*
X135294855Y-79300000D01*
X135484144Y-79300000D01*
X135484146Y-79300000D01*
X135669303Y-79260644D01*
X135842230Y-79183651D01*
X135842233Y-79183648D01*
X135847863Y-79180399D01*
X135848619Y-79181709D01*
X135907115Y-79160830D01*
X135975171Y-79176647D01*
X136023872Y-79226747D01*
X136037529Y-79271663D01*
X136039325Y-79288753D01*
X136039326Y-79288757D01*
X136097818Y-79468777D01*
X136097821Y-79468784D01*
X136192467Y-79632716D01*
X136269063Y-79717784D01*
X136319129Y-79773388D01*
X136472265Y-79884648D01*
X136472270Y-79884651D01*
X136645191Y-79961642D01*
X136645193Y-79961642D01*
X136645197Y-79961644D01*
X136751180Y-79984171D01*
X136812658Y-80017362D01*
X136846435Y-80078524D01*
X136841783Y-80148239D01*
X136813077Y-80193141D01*
X136141361Y-80864858D01*
X136141352Y-80864868D01*
X136103737Y-80911543D01*
X136043950Y-81042457D01*
X136043949Y-81042461D01*
X136023469Y-81184917D01*
X136043949Y-81327373D01*
X136043950Y-81327377D01*
X136103736Y-81458288D01*
X136103739Y-81458293D01*
X136141353Y-81504968D01*
X136141359Y-81504975D01*
X138330376Y-83693991D01*
X138330386Y-83694000D01*
X138377059Y-83731613D01*
X138377114Y-83731646D01*
X138383863Y-83735254D01*
X138383912Y-83735284D01*
X138383918Y-83735289D01*
X138475740Y-83777223D01*
X138528544Y-83822978D01*
X138531615Y-83828017D01*
X138624979Y-83989727D01*
X138624978Y-83989727D01*
X138751642Y-84130401D01*
X138904778Y-84241661D01*
X138904783Y-84241664D01*
X139077705Y-84318655D01*
X139077710Y-84318657D01*
X139262867Y-84358013D01*
X139262868Y-84358013D01*
X139452157Y-84358013D01*
X139452159Y-84358013D01*
X139637316Y-84318657D01*
X139810243Y-84241664D01*
X139847320Y-84214725D01*
X139913125Y-84191245D01*
X139981180Y-84207070D01*
X140012355Y-84232070D01*
X140094128Y-84322887D01*
X140094129Y-84322888D01*
X140247265Y-84434148D01*
X140247270Y-84434151D01*
X140420192Y-84511142D01*
X140420197Y-84511144D01*
X140605354Y-84550500D01*
X140605355Y-84550500D01*
X140794644Y-84550500D01*
X140794646Y-84550500D01*
X140979803Y-84511144D01*
X141152730Y-84434151D01*
X141305871Y-84322888D01*
X141432533Y-84182216D01*
X141527179Y-84018284D01*
X141536354Y-83990044D01*
X141575789Y-83932371D01*
X141640147Y-83905171D01*
X141708993Y-83917083D01*
X141760470Y-83964326D01*
X141778103Y-84021648D01*
X141789526Y-84232315D01*
X141789527Y-84232331D01*
X141847415Y-84585431D01*
X141847421Y-84585457D01*
X141943147Y-84930232D01*
X141943149Y-84930239D01*
X142075597Y-85262659D01*
X142075606Y-85262677D01*
X142243218Y-85578827D01*
X142444033Y-85875007D01*
X142571441Y-86025003D01*
X142571442Y-86025004D01*
X143777266Y-84819179D01*
X143940130Y-85009870D01*
X144130818Y-85172732D01*
X142922255Y-86381295D01*
X142922256Y-86381296D01*
X142935485Y-86393828D01*
X142935486Y-86393829D01*
X143220367Y-86610388D01*
X143220370Y-86610390D01*
X143526990Y-86794876D01*
X143813444Y-86927404D01*
X143866022Y-86973418D01*
X143885376Y-87040554D01*
X143865362Y-87107495D01*
X143812333Y-87152990D01*
X143761032Y-87163943D01*
X113135759Y-87078541D01*
X113068775Y-87058669D01*
X113023167Y-87005738D01*
X113013417Y-86936552D01*
X113042619Y-86873077D01*
X113084039Y-86842002D01*
X113348009Y-86719876D01*
X113654629Y-86535390D01*
X113654632Y-86535388D01*
X113939504Y-86318836D01*
X113952742Y-86306294D01*
X112744180Y-85097733D01*
X112934870Y-84934870D01*
X113097733Y-84744180D01*
X114303556Y-85950003D01*
X114430964Y-85800008D01*
X114430975Y-85799994D01*
X114631781Y-85503827D01*
X114799393Y-85187677D01*
X114799402Y-85187659D01*
X114931850Y-84855239D01*
X114931852Y-84855232D01*
X115027578Y-84510457D01*
X115027581Y-84510446D01*
X115044900Y-84404804D01*
X115075171Y-84341832D01*
X115134682Y-84305222D01*
X115204538Y-84306598D01*
X115262561Y-84345522D01*
X115286434Y-84395536D01*
X115287208Y-84395302D01*
X115288752Y-84400393D01*
X115288884Y-84400669D01*
X115288975Y-84401127D01*
X115288975Y-84401129D01*
X115288976Y-84401132D01*
X115322348Y-84511144D01*
X115346187Y-84589729D01*
X115347321Y-84591850D01*
X115347580Y-84593094D01*
X115348518Y-84595359D01*
X115348088Y-84595536D01*
X115361564Y-84660253D01*
X115337233Y-84724614D01*
X115331205Y-84732666D01*
X115331202Y-84732671D01*
X115280908Y-84867517D01*
X115274501Y-84927116D01*
X115274500Y-84927135D01*
X115274500Y-86022870D01*
X115274501Y-86022876D01*
X115280908Y-86082483D01*
X115331202Y-86217328D01*
X115331206Y-86217335D01*
X115417452Y-86332544D01*
X115417455Y-86332547D01*
X115532664Y-86418793D01*
X115532671Y-86418797D01*
X115667517Y-86469091D01*
X115667516Y-86469091D01*
X115674444Y-86469835D01*
X115727127Y-86475500D01*
X116822872Y-86475499D01*
X116882483Y-86469091D01*
X117017331Y-86418796D01*
X117025379Y-86412770D01*
X117090842Y-86388351D01*
X117154474Y-86401895D01*
X117154645Y-86401483D01*
X117156875Y-86402406D01*
X117158146Y-86402677D01*
X117160273Y-86403814D01*
X117348868Y-86461024D01*
X117545000Y-86480341D01*
X117741132Y-86461024D01*
X117929727Y-86403814D01*
X118103538Y-86310910D01*
X118103544Y-86310904D01*
X118108607Y-86307523D01*
X118109624Y-86309045D01*
X118166021Y-86285084D01*
X118234890Y-86296866D01*
X118251424Y-86307489D01*
X118251678Y-86307110D01*
X118256738Y-86310491D01*
X118430465Y-86403349D01*
X118565000Y-86444159D01*
X119064999Y-86444159D01*
X119199538Y-86403348D01*
X119373258Y-86310493D01*
X119378328Y-86307106D01*
X119379369Y-86308665D01*
X119435616Y-86284762D01*
X119504487Y-86296538D01*
X119521457Y-86307440D01*
X119521678Y-86307110D01*
X119526738Y-86310491D01*
X119700465Y-86403349D01*
X119835000Y-86444159D01*
X119835000Y-85725000D01*
X119065000Y-85725000D01*
X119064999Y-86444159D01*
X118565000Y-86444159D01*
X118564999Y-85682672D01*
X118602871Y-85727805D01*
X118702129Y-85785112D01*
X118786564Y-85800000D01*
X118843436Y-85800000D01*
X118927871Y-85785112D01*
X119027129Y-85727805D01*
X119100801Y-85640007D01*
X119140000Y-85532306D01*
X119140000Y-85417694D01*
X119100801Y-85309993D01*
X119029483Y-85225000D01*
X119870517Y-85225000D01*
X119799199Y-85309993D01*
X119760000Y-85417694D01*
X119760000Y-85532306D01*
X119799199Y-85640007D01*
X119872871Y-85727805D01*
X119972129Y-85785112D01*
X120056564Y-85800000D01*
X120113436Y-85800000D01*
X120197871Y-85785112D01*
X120297129Y-85727805D01*
X120334999Y-85682672D01*
X120335000Y-86444159D01*
X120469534Y-86403349D01*
X120643259Y-86310492D01*
X120648320Y-86307111D01*
X120649444Y-86308793D01*
X120705203Y-86285086D01*
X120774075Y-86296851D01*
X120791186Y-86307843D01*
X120791399Y-86307526D01*
X120796457Y-86310906D01*
X120796462Y-86310910D01*
X120928143Y-86381295D01*
X120968147Y-86402678D01*
X120970273Y-86403814D01*
X121158868Y-86461024D01*
X121355000Y-86480341D01*
X121551132Y-86461024D01*
X121739727Y-86403814D01*
X121913538Y-86310910D01*
X121913544Y-86310904D01*
X121918607Y-86307523D01*
X121919624Y-86309045D01*
X121976021Y-86285084D01*
X122044890Y-86296866D01*
X122061424Y-86307489D01*
X122061678Y-86307110D01*
X122066738Y-86310491D01*
X122240465Y-86403349D01*
X122375000Y-86444159D01*
X122375000Y-85682672D01*
X122412871Y-85727805D01*
X122512129Y-85785112D01*
X122596564Y-85800000D01*
X122653436Y-85800000D01*
X122737871Y-85785112D01*
X122837129Y-85727805D01*
X122874999Y-85682672D01*
X122874999Y-86444159D01*
X123009534Y-86403349D01*
X123183259Y-86310492D01*
X123188320Y-86307111D01*
X123189444Y-86308793D01*
X123245203Y-86285086D01*
X123314075Y-86296851D01*
X123331186Y-86307843D01*
X123331399Y-86307526D01*
X123336457Y-86310906D01*
X123336462Y-86310910D01*
X123468143Y-86381295D01*
X123508147Y-86402678D01*
X123510273Y-86403814D01*
X123698868Y-86461024D01*
X123895000Y-86480341D01*
X124091132Y-86461024D01*
X124279727Y-86403814D01*
X124281853Y-86402678D01*
X124413060Y-86332546D01*
X124453538Y-86310910D01*
X124605883Y-86185883D01*
X124730910Y-86033538D01*
X124823814Y-85859727D01*
X124881024Y-85671132D01*
X124881024Y-85671128D01*
X124881889Y-85668278D01*
X124920187Y-85609839D01*
X124983999Y-85581383D01*
X125053066Y-85591943D01*
X125089169Y-85618685D01*
X125089300Y-85618540D01*
X125090817Y-85619906D01*
X125092699Y-85621300D01*
X125094128Y-85622887D01*
X125094129Y-85622888D01*
X125247265Y-85734148D01*
X125247270Y-85734151D01*
X125420192Y-85811142D01*
X125420197Y-85811144D01*
X125605354Y-85850500D01*
X125605355Y-85850500D01*
X125794644Y-85850500D01*
X125794646Y-85850500D01*
X125979803Y-85811144D01*
X126152730Y-85734151D01*
X126305871Y-85622888D01*
X126432533Y-85482216D01*
X126527179Y-85318284D01*
X126585674Y-85138256D01*
X126605460Y-84950000D01*
X126585674Y-84761744D01*
X126527179Y-84581716D01*
X126432533Y-84417784D01*
X126305871Y-84277112D01*
X126257081Y-84241664D01*
X126152734Y-84165851D01*
X126152729Y-84165848D01*
X125979807Y-84088857D01*
X125979802Y-84088855D01*
X125834001Y-84057865D01*
X125794646Y-84049500D01*
X125605354Y-84049500D01*
X125500280Y-84071834D01*
X125430613Y-84066517D01*
X125374880Y-84024379D01*
X125350775Y-83958799D01*
X125350500Y-83950543D01*
X125350500Y-83284945D01*
X125352224Y-83269331D01*
X125351938Y-83269304D01*
X125352672Y-83261541D01*
X125350531Y-83193379D01*
X125350500Y-83191432D01*
X125350500Y-83162859D01*
X125350500Y-83162858D01*
X125349629Y-83155967D01*
X125349172Y-83150153D01*
X125348798Y-83138259D01*
X125347709Y-83103581D01*
X125343637Y-83089568D01*
X125342122Y-83084352D01*
X125338174Y-83065292D01*
X125335664Y-83045416D01*
X125318507Y-83002083D01*
X125316619Y-82996567D01*
X125303619Y-82951820D01*
X125302543Y-82950000D01*
X133969540Y-82950000D01*
X133989326Y-83138256D01*
X133989327Y-83138259D01*
X134047818Y-83318277D01*
X134047821Y-83318284D01*
X134142467Y-83482216D01*
X134153183Y-83494117D01*
X134269129Y-83622888D01*
X134422265Y-83734148D01*
X134422270Y-83734151D01*
X134595192Y-83811142D01*
X134595197Y-83811144D01*
X134780354Y-83850500D01*
X134780355Y-83850500D01*
X134969644Y-83850500D01*
X134969646Y-83850500D01*
X135154803Y-83811144D01*
X135327730Y-83734151D01*
X135480871Y-83622888D01*
X135607533Y-83482216D01*
X135702179Y-83318284D01*
X135760674Y-83138256D01*
X135780460Y-82950000D01*
X135760674Y-82761744D01*
X135702179Y-82581716D01*
X135607533Y-82417784D01*
X135480871Y-82277112D01*
X135476043Y-82273604D01*
X135327734Y-82165851D01*
X135327729Y-82165848D01*
X135154807Y-82088857D01*
X135154802Y-82088855D01*
X135009000Y-82057865D01*
X134969646Y-82049500D01*
X134780354Y-82049500D01*
X134747897Y-82056398D01*
X134595197Y-82088855D01*
X134595192Y-82088857D01*
X134422270Y-82165848D01*
X134422265Y-82165851D01*
X134269129Y-82277111D01*
X134142466Y-82417785D01*
X134047821Y-82581715D01*
X134047818Y-82581722D01*
X133989327Y-82761740D01*
X133989326Y-82761744D01*
X133969540Y-82950000D01*
X125302543Y-82950000D01*
X125293418Y-82934571D01*
X125284860Y-82917102D01*
X125277486Y-82898476D01*
X125277483Y-82898472D01*
X125277483Y-82898471D01*
X125250098Y-82860779D01*
X125246890Y-82855895D01*
X125223172Y-82815790D01*
X125223163Y-82815779D01*
X125209005Y-82801621D01*
X125196370Y-82786828D01*
X125184593Y-82770620D01*
X125148693Y-82740921D01*
X125144381Y-82736998D01*
X123713923Y-81306541D01*
X123680439Y-81245218D01*
X123685423Y-81175526D01*
X123727295Y-81119593D01*
X123751169Y-81105581D01*
X123809951Y-81079408D01*
X123903636Y-81037697D01*
X123905649Y-81036234D01*
X123907016Y-81035746D01*
X123909265Y-81034448D01*
X123909502Y-81034859D01*
X123971451Y-81012750D01*
X124028976Y-81023267D01*
X124170197Y-81086144D01*
X124355354Y-81125500D01*
X124355355Y-81125500D01*
X124544644Y-81125500D01*
X124544646Y-81125500D01*
X124729803Y-81086144D01*
X124902730Y-81009151D01*
X125055871Y-80897888D01*
X125182533Y-80757216D01*
X125277179Y-80593284D01*
X125295405Y-80537189D01*
X125334840Y-80479517D01*
X125387554Y-80454219D01*
X125540392Y-80421733D01*
X125713319Y-80344740D01*
X125866460Y-80233477D01*
X125993122Y-80092805D01*
X126087768Y-79928873D01*
X126146263Y-79748845D01*
X126166049Y-79560589D01*
X126146263Y-79372333D01*
X126087768Y-79192305D01*
X125993122Y-79028373D01*
X125937740Y-78966866D01*
X125917938Y-78944873D01*
X125887708Y-78881882D01*
X125886088Y-78861901D01*
X125886088Y-78617835D01*
X125886088Y-78374859D01*
X125905773Y-78307824D01*
X125922402Y-78287187D01*
X129084620Y-75124969D01*
X129145941Y-75091486D01*
X129215633Y-75096470D01*
X129271566Y-75138342D01*
X129282056Y-75156213D01*
X129282141Y-75156165D01*
X129285389Y-75161791D01*
X129285390Y-75161793D01*
X129380036Y-75325725D01*
X129490779Y-75448717D01*
X129506698Y-75466397D01*
X129659834Y-75577657D01*
X129659839Y-75577660D01*
X129832761Y-75654651D01*
X129832766Y-75654653D01*
X130017923Y-75694009D01*
X130017924Y-75694009D01*
X130207213Y-75694009D01*
X130207215Y-75694009D01*
X130392372Y-75654653D01*
X130565299Y-75577660D01*
X130718440Y-75466397D01*
X130845102Y-75325725D01*
X130939748Y-75161793D01*
X130998243Y-74981765D01*
X131018029Y-74793509D01*
X131005706Y-74676265D01*
X131018275Y-74607538D01*
X131056142Y-74562988D01*
X131089881Y-74538476D01*
X131216543Y-74397804D01*
X131311189Y-74233872D01*
X131369684Y-74053844D01*
X131387331Y-73885932D01*
X131413914Y-73821322D01*
X131422951Y-73811236D01*
X131572371Y-73661816D01*
X131633694Y-73628334D01*
X131660051Y-73625500D01*
X132482834Y-73625500D01*
X132549873Y-73645185D01*
G37*
%TD.AperFunction*%
%TA.AperFunction,Conductor*%
G36*
X113626979Y-64647985D02*
G01*
X113672734Y-64700789D01*
X113682678Y-64769947D01*
X113660614Y-64821951D01*
X113661296Y-64822354D01*
X113658282Y-64827449D01*
X113657924Y-64828294D01*
X113657329Y-64829060D01*
X113657324Y-64829068D01*
X113638815Y-64871838D01*
X113636245Y-64877084D01*
X113613803Y-64917906D01*
X113608822Y-64937307D01*
X113602521Y-64955710D01*
X113594562Y-64974102D01*
X113594561Y-64974105D01*
X113587271Y-65020127D01*
X113586087Y-65025846D01*
X113574501Y-65070972D01*
X113574500Y-65070982D01*
X113574500Y-65091016D01*
X113572973Y-65110415D01*
X113569840Y-65130194D01*
X113569840Y-65130195D01*
X113574225Y-65176583D01*
X113574500Y-65182421D01*
X113574500Y-69576312D01*
X113554815Y-69643351D01*
X113542650Y-69659284D01*
X113467466Y-69742784D01*
X113372821Y-69906715D01*
X113372818Y-69906722D01*
X113314327Y-70086740D01*
X113314326Y-70086744D01*
X113294540Y-70275000D01*
X113314326Y-70463256D01*
X113314327Y-70463259D01*
X113372818Y-70643277D01*
X113372821Y-70643284D01*
X113467467Y-70807216D01*
X113571914Y-70923216D01*
X113594129Y-70947888D01*
X113747265Y-71059148D01*
X113747270Y-71059151D01*
X113920192Y-71136142D01*
X113920197Y-71136144D01*
X114105354Y-71175500D01*
X114105355Y-71175500D01*
X114111822Y-71176180D01*
X114111552Y-71178745D01*
X114167539Y-71195185D01*
X114213294Y-71247989D01*
X114224500Y-71299500D01*
X114224499Y-73903651D01*
X114222776Y-73919268D01*
X114223061Y-73919295D01*
X114222326Y-73927062D01*
X114224469Y-73995242D01*
X114224500Y-73997189D01*
X114224500Y-74025739D01*
X114224501Y-74025756D01*
X114225368Y-74032627D01*
X114225826Y-74038446D01*
X114227290Y-74085020D01*
X114227291Y-74085023D01*
X114232880Y-74104263D01*
X114236824Y-74123307D01*
X114239285Y-74142784D01*
X114239336Y-74143187D01*
X114256490Y-74186515D01*
X114258382Y-74192043D01*
X114271381Y-74236784D01*
X114281580Y-74254030D01*
X114290138Y-74271499D01*
X114297514Y-74290128D01*
X114324898Y-74327819D01*
X114328106Y-74332703D01*
X114351827Y-74372812D01*
X114351833Y-74372820D01*
X114365990Y-74386976D01*
X114378628Y-74401772D01*
X114390405Y-74417982D01*
X114390406Y-74417983D01*
X114426309Y-74447684D01*
X114430620Y-74451606D01*
X115490155Y-75511142D01*
X115837801Y-75858788D01*
X115847626Y-75871051D01*
X115847847Y-75870869D01*
X115852815Y-75876874D01*
X115902536Y-75923566D01*
X115903936Y-75924923D01*
X115924127Y-75945115D01*
X115924131Y-75945118D01*
X115924133Y-75945120D01*
X115929615Y-75949373D01*
X115934047Y-75953157D01*
X115968022Y-75985062D01*
X115985580Y-75994714D01*
X116001837Y-76005393D01*
X116017668Y-76017673D01*
X116037341Y-76026186D01*
X116060437Y-76036182D01*
X116065681Y-76038750D01*
X116106512Y-76061197D01*
X116119127Y-76064435D01*
X116125909Y-76066177D01*
X116144323Y-76072481D01*
X116162708Y-76080438D01*
X116208761Y-76087732D01*
X116214430Y-76088906D01*
X116259585Y-76100500D01*
X116279620Y-76100500D01*
X116299017Y-76102026D01*
X116318800Y-76105160D01*
X116365187Y-76100775D01*
X116371026Y-76100500D01*
X118025699Y-76100500D01*
X118041319Y-76102224D01*
X118041346Y-76101939D01*
X118049108Y-76102673D01*
X118049108Y-76102672D01*
X118049109Y-76102673D01*
X118052441Y-76102568D01*
X118117289Y-76100531D01*
X118119236Y-76100500D01*
X118147789Y-76100500D01*
X118147792Y-76100500D01*
X118154670Y-76099630D01*
X118160483Y-76099172D01*
X118207069Y-76097709D01*
X118226311Y-76092117D01*
X118245354Y-76088174D01*
X118265234Y-76085664D01*
X118308564Y-76068507D01*
X118314088Y-76066617D01*
X118317838Y-76065527D01*
X118358832Y-76053618D01*
X118376071Y-76043422D01*
X118393545Y-76034862D01*
X118412169Y-76027488D01*
X118412169Y-76027487D01*
X118412174Y-76027486D01*
X118449891Y-76000082D01*
X118454747Y-75996892D01*
X118494862Y-75973170D01*
X118509031Y-75958999D01*
X118523821Y-75946368D01*
X118540029Y-75934594D01*
X118569741Y-75898676D01*
X118573654Y-75894376D01*
X119106995Y-75361036D01*
X119168319Y-75327551D01*
X119194677Y-75324717D01*
X119200500Y-75324717D01*
X119267539Y-75344402D01*
X119313294Y-75397206D01*
X119324500Y-75448717D01*
X119324500Y-78352845D01*
X119304815Y-78419884D01*
X119288181Y-78440526D01*
X117161208Y-80567498D01*
X117148951Y-80577319D01*
X117149134Y-80577540D01*
X117143122Y-80582513D01*
X117096432Y-80632231D01*
X117095079Y-80633628D01*
X117074889Y-80653818D01*
X117074877Y-80653831D01*
X117070621Y-80659316D01*
X117066837Y-80663746D01*
X117034937Y-80697717D01*
X117034936Y-80697719D01*
X117025284Y-80715275D01*
X117014610Y-80731525D01*
X117002329Y-80747360D01*
X117002324Y-80747367D01*
X116983815Y-80790137D01*
X116981245Y-80795383D01*
X116958803Y-80836205D01*
X116953822Y-80855606D01*
X116947521Y-80874009D01*
X116939562Y-80892401D01*
X116939561Y-80892404D01*
X116932271Y-80938426D01*
X116931087Y-80944145D01*
X116919501Y-80989271D01*
X116919500Y-80989281D01*
X116919500Y-81009315D01*
X116917973Y-81028715D01*
X116914839Y-81048493D01*
X116919224Y-81094879D01*
X116919499Y-81100716D01*
X116919499Y-83208156D01*
X116899814Y-83275195D01*
X116847010Y-83320950D01*
X116777852Y-83330894D01*
X116737048Y-83317515D01*
X116697551Y-83296403D01*
X116659730Y-83276187D01*
X116471129Y-83218975D01*
X116275000Y-83199659D01*
X116078870Y-83218975D01*
X115890266Y-83276188D01*
X115716467Y-83369086D01*
X115716460Y-83369090D01*
X115564116Y-83494116D01*
X115439090Y-83646460D01*
X115439086Y-83646467D01*
X115346185Y-83820273D01*
X115343856Y-83825897D01*
X115342291Y-83825248D01*
X115308415Y-83876912D01*
X115244595Y-83905351D01*
X115175530Y-83894772D01*
X115123149Y-83848533D01*
X115104259Y-83789169D01*
X115085473Y-83442685D01*
X115085472Y-83442668D01*
X115027584Y-83089568D01*
X115027578Y-83089542D01*
X114931852Y-82744767D01*
X114931850Y-82744760D01*
X114799402Y-82412340D01*
X114799393Y-82412322D01*
X114631781Y-82096172D01*
X114430966Y-81799992D01*
X114303557Y-81649995D01*
X114303556Y-81649994D01*
X113097732Y-82855818D01*
X112934870Y-82665130D01*
X112744180Y-82502266D01*
X113952743Y-81293703D01*
X113952742Y-81293702D01*
X113939514Y-81281171D01*
X113939513Y-81281170D01*
X113654632Y-81064611D01*
X113654629Y-81064609D01*
X113348009Y-80880123D01*
X113023260Y-80729877D01*
X113023255Y-80729876D01*
X112684144Y-80615616D01*
X112334660Y-80538688D01*
X111978924Y-80500000D01*
X111621075Y-80500000D01*
X111265339Y-80538688D01*
X110915855Y-80615616D01*
X110576744Y-80729876D01*
X110576739Y-80729877D01*
X110251990Y-80880123D01*
X109945370Y-81064609D01*
X109945367Y-81064611D01*
X109660491Y-81281166D01*
X109647256Y-81293703D01*
X109647255Y-81293703D01*
X110855819Y-82502266D01*
X110665130Y-82665130D01*
X110502266Y-82855819D01*
X109296442Y-81649994D01*
X109296441Y-81649995D01*
X109169040Y-81799983D01*
X109169033Y-81799993D01*
X108968218Y-82096172D01*
X108800606Y-82412322D01*
X108800597Y-82412341D01*
X108734335Y-82578646D01*
X108691234Y-82633638D01*
X108625245Y-82656599D01*
X108557318Y-82640238D01*
X108509020Y-82589750D01*
X108495148Y-82533948D01*
X108439517Y-76779522D01*
X108325637Y-64999999D01*
X108325637Y-64995765D01*
X108345322Y-64928726D01*
X108398126Y-64882971D01*
X108467284Y-64873027D01*
X108523947Y-64896498D01*
X108552547Y-64917908D01*
X108590868Y-64946595D01*
X108590871Y-64946597D01*
X108725717Y-64996891D01*
X108725716Y-64996891D01*
X108732644Y-64997635D01*
X108785327Y-65003300D01*
X112881072Y-65003299D01*
X112940683Y-64996891D01*
X113075531Y-64946596D01*
X113190746Y-64860346D01*
X113276996Y-64745131D01*
X113290484Y-64708966D01*
X113332357Y-64653033D01*
X113397821Y-64628616D01*
X113406667Y-64628300D01*
X113559940Y-64628300D01*
X113626979Y-64647985D01*
G37*
%TD.AperFunction*%
%TA.AperFunction,Conductor*%
G36*
X140906587Y-61120185D02*
G01*
X140927229Y-61136819D01*
X143288181Y-63497771D01*
X143321666Y-63559094D01*
X143324500Y-63585452D01*
X143324500Y-64547870D01*
X143324501Y-64547876D01*
X143330908Y-64607483D01*
X143381202Y-64742328D01*
X143381206Y-64742335D01*
X143467452Y-64857544D01*
X143467455Y-64857547D01*
X143582664Y-64943793D01*
X143582671Y-64943797D01*
X143717517Y-64994091D01*
X143717516Y-64994091D01*
X143724444Y-64994835D01*
X143777127Y-65000500D01*
X147872872Y-65000499D01*
X147932483Y-64994091D01*
X148067331Y-64943796D01*
X148101916Y-64917906D01*
X148126052Y-64899838D01*
X148191516Y-64875420D01*
X148259789Y-64890271D01*
X148309195Y-64939676D01*
X148324363Y-64999104D01*
X148324363Y-64999986D01*
X148348025Y-82527690D01*
X148328431Y-82594756D01*
X148275689Y-82640582D01*
X148206544Y-82650619D01*
X148142949Y-82621679D01*
X148108832Y-82573753D01*
X148074405Y-82487346D01*
X148074393Y-82487322D01*
X147906781Y-82171172D01*
X147705966Y-81874992D01*
X147578557Y-81724995D01*
X147578556Y-81724994D01*
X146372732Y-82930818D01*
X146209870Y-82740130D01*
X146019179Y-82577266D01*
X147227743Y-81368703D01*
X147227742Y-81368702D01*
X147214514Y-81356171D01*
X147214513Y-81356170D01*
X146929632Y-81139611D01*
X146929629Y-81139609D01*
X146623009Y-80955123D01*
X146298260Y-80804877D01*
X146298255Y-80804876D01*
X145959144Y-80690616D01*
X145609660Y-80613688D01*
X145253924Y-80575000D01*
X144896075Y-80575000D01*
X144540339Y-80613688D01*
X144190855Y-80690616D01*
X144032151Y-80744089D01*
X143962335Y-80746841D01*
X143902115Y-80711410D01*
X143870610Y-80649047D01*
X143869820Y-80608938D01*
X143884505Y-80506802D01*
X143864023Y-80364344D01*
X143804235Y-80233429D01*
X143804232Y-80233424D01*
X143766619Y-80186748D01*
X143766612Y-80186740D01*
X143368926Y-79789054D01*
X143335441Y-79727731D01*
X143332607Y-79701373D01*
X143332607Y-79389829D01*
X143352292Y-79322790D01*
X143378799Y-79293279D01*
X143393936Y-79281081D01*
X144875851Y-77799165D01*
X144913471Y-77752483D01*
X144973259Y-77621567D01*
X144993740Y-77479109D01*
X144973259Y-77336652D01*
X144963703Y-77315728D01*
X144913472Y-77205738D01*
X144913469Y-77205733D01*
X144875855Y-77159058D01*
X144875849Y-77159051D01*
X144139750Y-76422952D01*
X143986798Y-76270000D01*
X144751634Y-76270000D01*
X144751931Y-76271946D01*
X144751933Y-76271952D01*
X144822562Y-76462657D01*
X144822565Y-76462664D01*
X144930149Y-76635267D01*
X145070264Y-76782668D01*
X145070266Y-76782669D01*
X145237195Y-76898856D01*
X145424092Y-76979059D01*
X145623310Y-77020000D01*
X145775000Y-77020000D01*
X145775000Y-76320000D01*
X146275000Y-76320000D01*
X146275000Y-77020000D01*
X146375713Y-77020000D01*
X146527338Y-77004581D01*
X146721381Y-76943700D01*
X146721391Y-76943695D01*
X146899215Y-76844994D01*
X146899216Y-76844994D01*
X147053530Y-76712521D01*
X147053531Y-76712520D01*
X147178018Y-76551695D01*
X147267588Y-76369093D01*
X147293246Y-76270000D01*
X146491111Y-76270000D01*
X146530610Y-76245543D01*
X146598201Y-76156038D01*
X146628895Y-76048160D01*
X146618546Y-75936479D01*
X146568552Y-75836078D01*
X146496069Y-75770000D01*
X147298366Y-75770000D01*
X147298068Y-75768053D01*
X147298066Y-75768047D01*
X147227437Y-75577342D01*
X147227434Y-75577335D01*
X147119850Y-75404732D01*
X146979735Y-75257331D01*
X146979733Y-75257330D01*
X146812804Y-75141143D01*
X146625907Y-75060940D01*
X146426690Y-75020000D01*
X146275000Y-75020000D01*
X146275000Y-75720000D01*
X145775000Y-75720000D01*
X145775000Y-75020000D01*
X145674287Y-75020000D01*
X145522661Y-75035418D01*
X145328618Y-75096299D01*
X145328608Y-75096304D01*
X145150784Y-75195005D01*
X145150783Y-75195005D01*
X144996469Y-75327478D01*
X144996468Y-75327479D01*
X144871981Y-75488304D01*
X144782411Y-75670906D01*
X144756754Y-75770000D01*
X145558889Y-75770000D01*
X145519390Y-75794457D01*
X145451799Y-75883962D01*
X145421105Y-75991840D01*
X145431454Y-76103521D01*
X145481448Y-76203922D01*
X145553931Y-76270000D01*
X144751634Y-76270000D01*
X143986798Y-76270000D01*
X143312939Y-75596142D01*
X143295390Y-75574055D01*
X143189850Y-75404732D01*
X143049735Y-75257331D01*
X143049733Y-75257330D01*
X142882804Y-75141143D01*
X142874924Y-75137762D01*
X142821080Y-75093235D01*
X142799857Y-75026666D01*
X142817992Y-74959192D01*
X142825443Y-74948332D01*
X142877698Y-74880233D01*
X142935687Y-74740236D01*
X142955466Y-74590000D01*
X142935687Y-74439764D01*
X142877698Y-74299767D01*
X142785451Y-74179549D01*
X142665233Y-74087302D01*
X142665229Y-74087300D01*
X142584466Y-74053847D01*
X142525236Y-74029313D01*
X142511171Y-74027461D01*
X142412727Y-74014500D01*
X142412720Y-74014500D01*
X142337280Y-74014500D01*
X142337272Y-74014500D01*
X142224764Y-74029313D01*
X142224763Y-74029313D01*
X142084770Y-74087300D01*
X142084767Y-74087301D01*
X142084767Y-74087302D01*
X141964549Y-74179549D01*
X141879699Y-74290128D01*
X141872300Y-74299770D01*
X141814313Y-74439763D01*
X141814312Y-74439765D01*
X141794534Y-74589999D01*
X141794534Y-74590000D01*
X141814312Y-74740234D01*
X141814313Y-74740236D01*
X141859177Y-74848547D01*
X141866646Y-74918017D01*
X141835371Y-74980496D01*
X141775282Y-75016148D01*
X141744616Y-75020000D01*
X141244287Y-75020000D01*
X141092661Y-75035418D01*
X140898618Y-75096299D01*
X140898608Y-75096304D01*
X140720781Y-75195006D01*
X140720264Y-75195451D01*
X140719920Y-75195605D01*
X140715623Y-75198597D01*
X140715065Y-75197795D01*
X140656573Y-75224179D01*
X140589064Y-75214639D01*
X140475318Y-75163995D01*
X140475313Y-75163993D01*
X140329512Y-75133003D01*
X140290157Y-75124638D01*
X140100865Y-75124638D01*
X140068408Y-75131536D01*
X139915708Y-75163993D01*
X139915703Y-75163995D01*
X139742781Y-75240986D01*
X139742776Y-75240989D01*
X139589640Y-75352249D01*
X139462977Y-75492923D01*
X139368332Y-75656853D01*
X139368329Y-75656860D01*
X139309838Y-75836877D01*
X139309836Y-75836887D01*
X139306983Y-75864028D01*
X139280397Y-75928642D01*
X139223099Y-75968625D01*
X139201316Y-75973800D01*
X139192957Y-75975002D01*
X139192948Y-75975004D01*
X139062035Y-76034790D01*
X139015348Y-76072413D01*
X139015346Y-76072415D01*
X138664811Y-76422952D01*
X138664802Y-76422962D01*
X138627187Y-76469637D01*
X138563716Y-76608621D01*
X138562038Y-76607855D01*
X138530186Y-76657414D01*
X138493469Y-76677463D01*
X138493910Y-76678427D01*
X138354928Y-76741897D01*
X138308241Y-76779520D01*
X138308239Y-76779522D01*
X137957704Y-77130059D01*
X137957695Y-77130069D01*
X137920080Y-77176744D01*
X137856609Y-77315728D01*
X137854931Y-77314962D01*
X137823079Y-77364521D01*
X137786362Y-77384570D01*
X137786803Y-77385534D01*
X137647821Y-77449004D01*
X137601128Y-77486632D01*
X137373857Y-77713904D01*
X137312534Y-77747389D01*
X137242842Y-77742405D01*
X137198495Y-77713904D01*
X135227002Y-75742411D01*
X135193517Y-75681088D01*
X135198501Y-75611396D01*
X135240373Y-75555463D01*
X135288896Y-75533442D01*
X135393803Y-75511144D01*
X135566730Y-75434151D01*
X135719871Y-75322888D01*
X135846533Y-75182216D01*
X135941179Y-75018284D01*
X135999674Y-74838256D01*
X136019460Y-74650000D01*
X135999674Y-74461744D01*
X135941179Y-74281716D01*
X135846533Y-74117784D01*
X135788964Y-74053847D01*
X135771350Y-74034284D01*
X135741120Y-73971292D01*
X135739500Y-73951312D01*
X135739500Y-73506932D01*
X135741224Y-73491318D01*
X135740938Y-73491291D01*
X135741672Y-73483528D01*
X135739531Y-73415366D01*
X135739500Y-73413419D01*
X135739500Y-73384846D01*
X135739500Y-73384845D01*
X135738629Y-73377954D01*
X135738172Y-73372140D01*
X135737801Y-73360323D01*
X135736709Y-73325568D01*
X135731121Y-73306334D01*
X135727174Y-73287276D01*
X135724664Y-73267403D01*
X135707507Y-73224070D01*
X135705614Y-73218541D01*
X135692618Y-73173809D01*
X135692617Y-73173805D01*
X135682420Y-73156563D01*
X135673863Y-73139097D01*
X135666486Y-73120463D01*
X135639083Y-73082745D01*
X135635900Y-73077900D01*
X135612170Y-73037774D01*
X135612165Y-73037768D01*
X135598005Y-73023608D01*
X135585370Y-73008815D01*
X135573593Y-72992607D01*
X135537693Y-72962908D01*
X135533381Y-72958985D01*
X135382096Y-72807700D01*
X135348611Y-72746377D01*
X135353595Y-72676685D01*
X135395467Y-72620752D01*
X135419334Y-72606743D01*
X135507305Y-72567576D01*
X135660446Y-72456313D01*
X135787108Y-72315641D01*
X135881754Y-72151709D01*
X135940249Y-71971681D01*
X135960035Y-71783425D01*
X135940249Y-71595169D01*
X135881754Y-71415141D01*
X135787108Y-71251209D01*
X135660446Y-71110537D01*
X135660444Y-71110536D01*
X135660080Y-71110131D01*
X135629850Y-71047140D01*
X135638475Y-70977805D01*
X135660077Y-70944191D01*
X135783068Y-70807597D01*
X135877714Y-70643665D01*
X135936209Y-70463637D01*
X135955995Y-70275381D01*
X135936209Y-70087125D01*
X135877714Y-69907097D01*
X135783068Y-69743165D01*
X135782725Y-69742784D01*
X135707885Y-69659665D01*
X135677655Y-69596673D01*
X135676035Y-69576693D01*
X135676035Y-67760182D01*
X135695720Y-67693143D01*
X135748524Y-67647388D01*
X135774241Y-67638895D01*
X135816090Y-67630000D01*
X140321634Y-67630000D01*
X140321931Y-67631946D01*
X140321933Y-67631952D01*
X140392562Y-67822657D01*
X140392565Y-67822664D01*
X140500149Y-67995267D01*
X140640264Y-68142668D01*
X140640266Y-68142669D01*
X140807195Y-68258856D01*
X140994092Y-68339059D01*
X141193310Y-68380000D01*
X141744616Y-68380000D01*
X141811655Y-68399685D01*
X141857410Y-68452489D01*
X141867354Y-68521647D01*
X141859177Y-68551453D01*
X141814313Y-68659763D01*
X141814312Y-68659765D01*
X141794534Y-68809999D01*
X141794534Y-68810000D01*
X141814312Y-68960234D01*
X141814313Y-68960236D01*
X141838354Y-69018277D01*
X141872302Y-69100233D01*
X141964549Y-69220451D01*
X142084767Y-69312698D01*
X142224764Y-69370687D01*
X142337280Y-69385500D01*
X142337287Y-69385500D01*
X142412713Y-69385500D01*
X142412720Y-69385500D01*
X142525236Y-69370687D01*
X142665233Y-69312698D01*
X142785451Y-69220451D01*
X142877698Y-69100233D01*
X142935687Y-68960236D01*
X142955466Y-68810000D01*
X142935687Y-68659764D01*
X142877698Y-68519767D01*
X142877697Y-68519765D01*
X142833172Y-68461740D01*
X142823199Y-68448743D01*
X142798005Y-68383576D01*
X142812043Y-68315131D01*
X142860856Y-68265141D01*
X142861398Y-68264839D01*
X142969211Y-68204997D01*
X142969216Y-68204994D01*
X143123530Y-68072521D01*
X143123531Y-68072520D01*
X143248018Y-67911695D01*
X143337588Y-67729093D01*
X143363246Y-67630000D01*
X144751634Y-67630000D01*
X144751931Y-67631946D01*
X144751933Y-67631952D01*
X144822562Y-67822657D01*
X144822565Y-67822664D01*
X144930149Y-67995267D01*
X145070264Y-68142668D01*
X145070266Y-68142669D01*
X145237195Y-68258856D01*
X145424092Y-68339059D01*
X145623310Y-68380000D01*
X145775000Y-68380000D01*
X145775000Y-67680000D01*
X146275000Y-67680000D01*
X146275000Y-68380000D01*
X146375713Y-68380000D01*
X146527338Y-68364581D01*
X146721381Y-68303700D01*
X146721391Y-68303695D01*
X146899215Y-68204994D01*
X146899216Y-68204994D01*
X147053530Y-68072521D01*
X147053531Y-68072520D01*
X147178018Y-67911695D01*
X147267588Y-67729093D01*
X147293246Y-67630000D01*
X146491111Y-67630000D01*
X146530610Y-67605543D01*
X146598201Y-67516038D01*
X146628895Y-67408160D01*
X146618546Y-67296479D01*
X146568552Y-67196078D01*
X146496069Y-67130000D01*
X147298366Y-67130000D01*
X147298068Y-67128053D01*
X147298066Y-67128047D01*
X147227437Y-66937342D01*
X147227434Y-66937335D01*
X147119850Y-66764732D01*
X146979735Y-66617331D01*
X146979733Y-66617330D01*
X146812804Y-66501143D01*
X146625907Y-66420940D01*
X146426690Y-66380000D01*
X146275000Y-66380000D01*
X146275000Y-67080000D01*
X145775000Y-67080000D01*
X145775000Y-66380000D01*
X145674287Y-66380000D01*
X145522661Y-66395418D01*
X145328618Y-66456299D01*
X145328608Y-66456304D01*
X145150784Y-66555005D01*
X145150783Y-66555005D01*
X144996469Y-66687478D01*
X144996468Y-66687479D01*
X144871981Y-66848304D01*
X144782411Y-67030906D01*
X144756754Y-67130000D01*
X145558889Y-67130000D01*
X145519390Y-67154457D01*
X145451799Y-67243962D01*
X145421105Y-67351840D01*
X145431454Y-67463521D01*
X145481448Y-67563922D01*
X145553931Y-67630000D01*
X144751634Y-67630000D01*
X143363246Y-67630000D01*
X142561111Y-67630000D01*
X142600610Y-67605543D01*
X142668201Y-67516038D01*
X142698895Y-67408160D01*
X142688546Y-67296479D01*
X142638552Y-67196078D01*
X142566069Y-67130000D01*
X143368366Y-67130000D01*
X143368068Y-67128053D01*
X143368066Y-67128047D01*
X143297437Y-66937342D01*
X143297434Y-66937335D01*
X143189850Y-66764732D01*
X143049735Y-66617331D01*
X143049733Y-66617330D01*
X142882804Y-66501143D01*
X142695907Y-66420940D01*
X142496690Y-66380000D01*
X142095000Y-66380000D01*
X142095000Y-67080000D01*
X141595000Y-67080000D01*
X141595000Y-66380000D01*
X141244287Y-66380000D01*
X141092661Y-66395418D01*
X140898618Y-66456299D01*
X140898608Y-66456304D01*
X140720784Y-66555005D01*
X140720783Y-66555005D01*
X140566469Y-66687478D01*
X140566468Y-66687479D01*
X140441981Y-66848304D01*
X140352411Y-67030906D01*
X140326754Y-67130000D01*
X141128889Y-67130000D01*
X141089390Y-67154457D01*
X141021799Y-67243962D01*
X140991105Y-67351840D01*
X141001454Y-67463521D01*
X141051448Y-67563922D01*
X141123931Y-67630000D01*
X140321634Y-67630000D01*
X135816090Y-67630000D01*
X135904803Y-67611144D01*
X135904807Y-67611142D01*
X135904808Y-67611142D01*
X136010864Y-67563922D01*
X136077730Y-67534151D01*
X136230871Y-67422888D01*
X136357533Y-67282216D01*
X136452179Y-67118284D01*
X136510674Y-66938256D01*
X136530460Y-66750000D01*
X136510674Y-66561744D01*
X136452179Y-66381716D01*
X136357533Y-66217784D01*
X136230871Y-66077112D01*
X136223345Y-66071644D01*
X136077734Y-65965851D01*
X136077729Y-65965848D01*
X135904807Y-65888857D01*
X135904802Y-65888855D01*
X135750125Y-65855978D01*
X135688643Y-65822786D01*
X135654867Y-65761623D01*
X135652585Y-65747649D01*
X135635674Y-65586744D01*
X135577179Y-65406716D01*
X135482533Y-65242784D01*
X135355871Y-65102112D01*
X135340599Y-65091016D01*
X135202734Y-64990851D01*
X135202729Y-64990848D01*
X135029807Y-64913857D01*
X135029802Y-64913855D01*
X134884000Y-64882865D01*
X134844646Y-64874500D01*
X134655354Y-64874500D01*
X134622897Y-64881398D01*
X134470197Y-64913855D01*
X134470192Y-64913857D01*
X134297270Y-64990848D01*
X134297265Y-64990851D01*
X134144132Y-65102109D01*
X134144129Y-65102111D01*
X134144129Y-65102112D01*
X134071819Y-65182421D01*
X134067150Y-65187606D01*
X134007663Y-65224254D01*
X133937806Y-65222923D01*
X133882850Y-65187606D01*
X133805871Y-65102112D01*
X133790599Y-65091016D01*
X133652734Y-64990851D01*
X133652729Y-64990848D01*
X133479807Y-64913857D01*
X133479802Y-64913855D01*
X133334001Y-64882865D01*
X133294646Y-64874500D01*
X133105354Y-64874500D01*
X133065501Y-64882971D01*
X132920199Y-64913855D01*
X132759888Y-64985231D01*
X132690638Y-64994515D01*
X132636566Y-64972269D01*
X132627729Y-64965848D01*
X132454807Y-64888857D01*
X132454802Y-64888855D01*
X132307490Y-64857544D01*
X132269646Y-64849500D01*
X132080354Y-64849500D01*
X132047897Y-64856398D01*
X131895197Y-64888855D01*
X131895192Y-64888857D01*
X131722270Y-64965848D01*
X131722265Y-64965851D01*
X131569129Y-65077111D01*
X131515905Y-65136223D01*
X131456418Y-65172872D01*
X131386561Y-65171541D01*
X131331605Y-65136223D01*
X131326176Y-65130194D01*
X131255871Y-65052112D01*
X131219719Y-65025846D01*
X131102734Y-64940851D01*
X131102729Y-64940848D01*
X130929807Y-64863857D01*
X130929802Y-64863855D01*
X130784000Y-64832865D01*
X130744646Y-64824500D01*
X130555354Y-64824500D01*
X130533901Y-64829060D01*
X130370197Y-64863855D01*
X130370192Y-64863857D01*
X130197270Y-64940848D01*
X130197265Y-64940851D01*
X130044129Y-65052111D01*
X129917466Y-65192785D01*
X129822821Y-65356715D01*
X129822818Y-65356722D01*
X129764327Y-65536740D01*
X129764326Y-65536744D01*
X129744540Y-65725000D01*
X129764326Y-65913256D01*
X129764327Y-65913259D01*
X129822818Y-66093277D01*
X129822821Y-66093284D01*
X129917467Y-66257216D01*
X130028023Y-66380000D01*
X130044129Y-66397888D01*
X130197265Y-66509148D01*
X130197270Y-66509151D01*
X130370192Y-66586142D01*
X130370197Y-66586144D01*
X130539171Y-66622060D01*
X130600653Y-66655252D01*
X130634429Y-66716415D01*
X130629777Y-66786130D01*
X130620778Y-66805349D01*
X130547820Y-66931718D01*
X130547818Y-66931722D01*
X130489327Y-67111740D01*
X130489326Y-67111744D01*
X130469540Y-67300000D01*
X130489326Y-67488256D01*
X130489327Y-67488259D01*
X130547818Y-67668277D01*
X130547821Y-67668284D01*
X130642467Y-67832216D01*
X130769128Y-67972887D01*
X130769129Y-67972888D01*
X130922265Y-68084148D01*
X130922270Y-68084151D01*
X131095192Y-68161142D01*
X131095197Y-68161144D01*
X131280354Y-68200500D01*
X131339546Y-68200500D01*
X131406585Y-68220185D01*
X131427227Y-68236818D01*
X131513181Y-68322771D01*
X131546666Y-68384094D01*
X131549500Y-68410453D01*
X131549500Y-69566754D01*
X131529815Y-69633793D01*
X131513181Y-69654435D01*
X123616208Y-77551407D01*
X123603951Y-77561228D01*
X123604134Y-77561449D01*
X123598122Y-77566422D01*
X123551432Y-77616140D01*
X123550079Y-77617537D01*
X123529889Y-77637727D01*
X123529877Y-77637740D01*
X123525621Y-77643225D01*
X123521837Y-77647655D01*
X123489937Y-77681626D01*
X123489936Y-77681628D01*
X123480284Y-77699184D01*
X123469610Y-77715434D01*
X123457329Y-77731269D01*
X123457324Y-77731276D01*
X123438815Y-77774046D01*
X123436245Y-77779292D01*
X123413803Y-77820114D01*
X123408822Y-77839515D01*
X123402521Y-77857918D01*
X123394562Y-77876310D01*
X123394561Y-77876313D01*
X123387271Y-77922335D01*
X123386087Y-77928054D01*
X123374501Y-77973180D01*
X123374500Y-77973190D01*
X123374500Y-77993224D01*
X123372973Y-78012624D01*
X123369839Y-78032402D01*
X123374224Y-78078788D01*
X123374499Y-78084625D01*
X123374499Y-78379863D01*
X123354814Y-78446902D01*
X123302010Y-78492657D01*
X123232852Y-78502601D01*
X123224718Y-78501153D01*
X123157770Y-78486923D01*
X123055735Y-78465235D01*
X122907008Y-78465235D01*
X122839969Y-78445550D01*
X122794214Y-78392746D01*
X122784270Y-78323588D01*
X122799621Y-78279235D01*
X122837712Y-78213259D01*
X122881218Y-78137904D01*
X122939713Y-77957876D01*
X122959499Y-77769620D01*
X122939713Y-77581364D01*
X122884282Y-77410766D01*
X122881220Y-77401342D01*
X122881219Y-77401341D01*
X122881218Y-77401336D01*
X122786572Y-77237404D01*
X122659910Y-77096732D01*
X122647367Y-77087619D01*
X122506773Y-76985471D01*
X122506768Y-76985468D01*
X122333846Y-76908477D01*
X122333841Y-76908475D01*
X122188039Y-76877485D01*
X122148685Y-76869120D01*
X121959393Y-76869120D01*
X121926936Y-76876018D01*
X121774236Y-76908475D01*
X121774231Y-76908477D01*
X121601309Y-76985468D01*
X121601304Y-76985471D01*
X121448168Y-77096731D01*
X121321504Y-77237405D01*
X121256886Y-77349328D01*
X121206319Y-77397544D01*
X121137712Y-77410766D01*
X121072847Y-77384798D01*
X121032319Y-77327884D01*
X121025499Y-77287331D01*
X121025499Y-74210451D01*
X121045184Y-74143413D01*
X121061818Y-74122771D01*
X122233939Y-72950650D01*
X123608788Y-71575801D01*
X123621042Y-71565986D01*
X123620859Y-71565764D01*
X123626868Y-71560791D01*
X123626877Y-71560786D01*
X123673607Y-71511022D01*
X123674846Y-71509743D01*
X123695120Y-71489471D01*
X123699379Y-71483978D01*
X123703152Y-71479561D01*
X123735062Y-71445582D01*
X123744713Y-71428024D01*
X123755396Y-71411761D01*
X123767673Y-71395936D01*
X123786185Y-71353153D01*
X123788738Y-71347941D01*
X123811197Y-71307092D01*
X123816180Y-71287680D01*
X123822481Y-71269280D01*
X123830437Y-71250896D01*
X123837729Y-71204852D01*
X123838906Y-71199171D01*
X123850500Y-71154019D01*
X123850500Y-71133983D01*
X123852027Y-71114582D01*
X123855160Y-71094803D01*
X123855160Y-71094800D01*
X123853855Y-71080999D01*
X123850772Y-71048394D01*
X123850499Y-71042599D01*
X123850499Y-68650000D01*
X124944540Y-68650000D01*
X124964326Y-68838256D01*
X124964327Y-68838259D01*
X125022818Y-69018277D01*
X125022821Y-69018284D01*
X125117467Y-69182216D01*
X125179085Y-69250649D01*
X125244129Y-69322888D01*
X125397265Y-69434148D01*
X125397270Y-69434151D01*
X125570192Y-69511142D01*
X125570197Y-69511144D01*
X125755354Y-69550500D01*
X125755355Y-69550500D01*
X125944644Y-69550500D01*
X125944646Y-69550500D01*
X126129803Y-69511144D01*
X126302730Y-69434151D01*
X126455871Y-69322888D01*
X126582533Y-69182216D01*
X126677179Y-69018284D01*
X126735674Y-68838256D01*
X126755460Y-68650000D01*
X126735674Y-68461744D01*
X126677179Y-68281716D01*
X126582533Y-68117784D01*
X126455871Y-67977112D01*
X126455870Y-67977111D01*
X126302734Y-67865851D01*
X126302729Y-67865848D01*
X126129807Y-67788857D01*
X126129802Y-67788855D01*
X125984000Y-67757865D01*
X125944646Y-67749500D01*
X125755354Y-67749500D01*
X125722897Y-67756398D01*
X125570197Y-67788855D01*
X125570192Y-67788857D01*
X125397270Y-67865848D01*
X125397265Y-67865851D01*
X125244129Y-67977111D01*
X125117466Y-68117785D01*
X125022821Y-68281715D01*
X125022818Y-68281722D01*
X124967333Y-68452489D01*
X124964326Y-68461744D01*
X124944540Y-68650000D01*
X123850499Y-68650000D01*
X123850499Y-67721445D01*
X123870184Y-67654407D01*
X123886818Y-67633765D01*
X124032325Y-67488259D01*
X124528152Y-66992432D01*
X124589476Y-66958947D01*
X124615834Y-66956113D01*
X124675025Y-66956113D01*
X124675027Y-66956113D01*
X124860184Y-66916757D01*
X125033111Y-66839764D01*
X125186252Y-66728501D01*
X125312914Y-66587829D01*
X125407560Y-66423897D01*
X125466055Y-66243869D01*
X125477365Y-66136255D01*
X125503948Y-66071644D01*
X125561245Y-66031659D01*
X125574879Y-66027936D01*
X125628105Y-66016623D01*
X125628109Y-66016621D01*
X125628110Y-66016621D01*
X125742139Y-65965851D01*
X125801032Y-65939630D01*
X125954173Y-65828367D01*
X126080835Y-65687695D01*
X126175481Y-65523763D01*
X126233976Y-65343735D01*
X126253762Y-65155479D01*
X126233976Y-64967223D01*
X126200390Y-64863856D01*
X126183807Y-64812818D01*
X126181812Y-64742977D01*
X126217892Y-64683144D01*
X126280593Y-64652316D01*
X126301738Y-64650500D01*
X126314347Y-64650500D01*
X126314350Y-64650500D01*
X126321228Y-64649630D01*
X126327041Y-64649172D01*
X126373627Y-64647709D01*
X126392869Y-64642117D01*
X126411912Y-64638174D01*
X126431792Y-64635664D01*
X126475122Y-64618507D01*
X126480646Y-64616617D01*
X126484804Y-64615409D01*
X126525390Y-64603618D01*
X126542629Y-64593422D01*
X126560103Y-64584862D01*
X126578727Y-64577488D01*
X126578727Y-64577487D01*
X126578732Y-64577486D01*
X126616449Y-64550082D01*
X126621305Y-64546892D01*
X126661420Y-64523170D01*
X126675589Y-64508999D01*
X126690379Y-64496368D01*
X126706587Y-64484594D01*
X126736299Y-64448676D01*
X126740212Y-64444376D01*
X128658788Y-62525801D01*
X128671042Y-62515986D01*
X128670859Y-62515764D01*
X128676868Y-62510791D01*
X128676877Y-62510786D01*
X128723607Y-62461022D01*
X128724846Y-62459743D01*
X128745120Y-62439471D01*
X128749379Y-62433978D01*
X128753152Y-62429561D01*
X128785062Y-62395582D01*
X128794713Y-62378024D01*
X128805396Y-62361761D01*
X128817673Y-62345936D01*
X128836185Y-62303153D01*
X128838738Y-62297941D01*
X128861197Y-62257092D01*
X128866180Y-62237680D01*
X128872481Y-62219280D01*
X128880437Y-62200896D01*
X128887725Y-62154877D01*
X128888906Y-62149171D01*
X128900500Y-62104019D01*
X128900499Y-62083986D01*
X128902027Y-62064583D01*
X128905159Y-62044808D01*
X128905160Y-62044806D01*
X128900775Y-61998415D01*
X128900500Y-61992577D01*
X128900500Y-61941264D01*
X128920185Y-61874225D01*
X128972989Y-61828470D01*
X129024500Y-61817264D01*
X129095144Y-61817264D01*
X129095146Y-61817264D01*
X129280303Y-61777908D01*
X129453230Y-61700915D01*
X129606371Y-61589652D01*
X129733033Y-61448980D01*
X129827679Y-61285048D01*
X129859802Y-61186182D01*
X129899241Y-61128506D01*
X129963599Y-61101308D01*
X129977734Y-61100500D01*
X140839548Y-61100500D01*
X140906587Y-61120185D01*
G37*
%TD.AperFunction*%
%TA.AperFunction,Conductor*%
G36*
X119136685Y-69509607D02*
G01*
X119192618Y-69551479D01*
X119217035Y-69616943D01*
X119217351Y-69625789D01*
X119217351Y-69705631D01*
X119197666Y-69772670D01*
X119185501Y-69788603D01*
X119110317Y-69872103D01*
X119015672Y-70036034D01*
X119015669Y-70036041D01*
X118957178Y-70216059D01*
X118957177Y-70216063D01*
X118937391Y-70404319D01*
X118957177Y-70592575D01*
X118957178Y-70592578D01*
X119015669Y-70772596D01*
X119015672Y-70772603D01*
X119110318Y-70936535D01*
X119211057Y-71048417D01*
X119236980Y-71077207D01*
X119390116Y-71188467D01*
X119390117Y-71188467D01*
X119390121Y-71188470D01*
X119484977Y-71230703D01*
X119494190Y-71234805D01*
X119547427Y-71280055D01*
X119567075Y-71335122D01*
X119579000Y-71448582D01*
X119579001Y-71448585D01*
X119637492Y-71628603D01*
X119637497Y-71628615D01*
X119734452Y-71796547D01*
X119750925Y-71864447D01*
X119728072Y-71930474D01*
X119673151Y-71973664D01*
X119603597Y-71980305D01*
X119576629Y-71971825D01*
X119418121Y-71901251D01*
X119418116Y-71901249D01*
X119272314Y-71870259D01*
X119232960Y-71861894D01*
X119043668Y-71861894D01*
X119011211Y-71868792D01*
X118858511Y-71901249D01*
X118858506Y-71901251D01*
X118685584Y-71978242D01*
X118685579Y-71978245D01*
X118532443Y-72089505D01*
X118405780Y-72230179D01*
X118311135Y-72394109D01*
X118311132Y-72394116D01*
X118254773Y-72567573D01*
X118252640Y-72574138D01*
X118232854Y-72762394D01*
X118252640Y-72950650D01*
X118252641Y-72950653D01*
X118311134Y-73130677D01*
X118327101Y-73158333D01*
X118343573Y-73226233D01*
X118320720Y-73292260D01*
X118307394Y-73308013D01*
X118037181Y-73578227D01*
X117975858Y-73611712D01*
X117906167Y-73606728D01*
X117850233Y-73564857D01*
X117825816Y-73499392D01*
X117825500Y-73490546D01*
X117825500Y-70769640D01*
X117845185Y-70702601D01*
X117861819Y-70681959D01*
X119005670Y-69538108D01*
X119066993Y-69504623D01*
X119136685Y-69509607D01*
G37*
%TD.AperFunction*%
%TA.AperFunction,Conductor*%
G36*
X121618834Y-67663854D02*
G01*
X121674767Y-67705726D01*
X121699184Y-67771190D01*
X121699500Y-67780036D01*
X121699499Y-69156936D01*
X121679814Y-69223976D01*
X121627010Y-69269730D01*
X121557852Y-69279674D01*
X121494296Y-69250649D01*
X121468114Y-69218939D01*
X121425734Y-69145534D01*
X121299072Y-69004862D01*
X121299071Y-69004861D01*
X121145935Y-68893601D01*
X121145930Y-68893598D01*
X120973008Y-68816607D01*
X120973003Y-68816605D01*
X120827201Y-68785615D01*
X120787847Y-68777250D01*
X120702286Y-68777250D01*
X120635247Y-68757565D01*
X120589492Y-68704761D01*
X120579548Y-68635603D01*
X120608573Y-68572047D01*
X120614605Y-68565569D01*
X121487819Y-67692355D01*
X121549142Y-67658870D01*
X121618834Y-67663854D01*
G37*
%TD.AperFunction*%
%TA.AperFunction,Conductor*%
G36*
X117572495Y-47363831D02*
G01*
X117639488Y-47383666D01*
X117685124Y-47436572D01*
X117694913Y-47505753D01*
X117665746Y-47569243D01*
X117659896Y-47575512D01*
X117487227Y-47748181D01*
X117425904Y-47781666D01*
X117399546Y-47784500D01*
X116087129Y-47784500D01*
X116087123Y-47784501D01*
X116027516Y-47790908D01*
X115892671Y-47841202D01*
X115892664Y-47841206D01*
X115777455Y-47927452D01*
X115777452Y-47927455D01*
X115691206Y-48042664D01*
X115691202Y-48042671D01*
X115640908Y-48177517D01*
X115634501Y-48237116D01*
X115634500Y-48237135D01*
X115634500Y-50032870D01*
X115634501Y-50032876D01*
X115640908Y-50092483D01*
X115691202Y-50227328D01*
X115691206Y-50227335D01*
X115777452Y-50342544D01*
X115777455Y-50342547D01*
X115892664Y-50428793D01*
X115892671Y-50428797D01*
X116024081Y-50477810D01*
X116080015Y-50519681D01*
X116104432Y-50585145D01*
X116089580Y-50653418D01*
X116068430Y-50681673D01*
X115946503Y-50803600D01*
X115810965Y-50997169D01*
X115810964Y-50997171D01*
X115711098Y-51211335D01*
X115711094Y-51211344D01*
X115649938Y-51439586D01*
X115649936Y-51439596D01*
X115629341Y-51674999D01*
X115629341Y-51675000D01*
X115649936Y-51910403D01*
X115649938Y-51910413D01*
X115711094Y-52138655D01*
X115711096Y-52138659D01*
X115711097Y-52138663D01*
X115792791Y-52313855D01*
X115810965Y-52352830D01*
X115810967Y-52352834D01*
X115873952Y-52442785D01*
X115946505Y-52546401D01*
X116113599Y-52713495D01*
X116201443Y-52775004D01*
X116307165Y-52849032D01*
X116307167Y-52849033D01*
X116307170Y-52849035D01*
X116521337Y-52948903D01*
X116749592Y-53010063D01*
X116937918Y-53026539D01*
X116984999Y-53030659D01*
X116985000Y-53030659D01*
X116985001Y-53030659D01*
X117024234Y-53027226D01*
X117220408Y-53010063D01*
X117448663Y-52948903D01*
X117662830Y-52849035D01*
X117856401Y-52713495D01*
X118023495Y-52546401D01*
X118153730Y-52360405D01*
X118208307Y-52316781D01*
X118277805Y-52309587D01*
X118340160Y-52341110D01*
X118356879Y-52360405D01*
X118486890Y-52546078D01*
X118653917Y-52713105D01*
X118847421Y-52848600D01*
X119061507Y-52948429D01*
X119061516Y-52948433D01*
X119274998Y-53005635D01*
X119274999Y-53005634D01*
X119274999Y-52110501D01*
X119382685Y-52159680D01*
X119489237Y-52175000D01*
X119560763Y-52175000D01*
X119667315Y-52159680D01*
X119775000Y-52110501D01*
X119775000Y-53005633D01*
X119988483Y-52948433D01*
X119988492Y-52948429D01*
X120202578Y-52848600D01*
X120396082Y-52713105D01*
X120563105Y-52546082D01*
X120698600Y-52352577D01*
X120698601Y-52352575D01*
X120738118Y-52267832D01*
X120784290Y-52215392D01*
X120851483Y-52196240D01*
X120918365Y-52216455D01*
X120963699Y-52269621D01*
X120974500Y-52320236D01*
X120974500Y-54778579D01*
X120954815Y-54845618D01*
X120902011Y-54891373D01*
X120832853Y-54901317D01*
X120769297Y-54872292D01*
X120738118Y-54830984D01*
X120699035Y-54747171D01*
X120699034Y-54747169D01*
X120563494Y-54553597D01*
X120396402Y-54386506D01*
X120396395Y-54386501D01*
X120202834Y-54250967D01*
X120202830Y-54250965D01*
X120202828Y-54250964D01*
X119988663Y-54151097D01*
X119988659Y-54151096D01*
X119988655Y-54151094D01*
X119760413Y-54089938D01*
X119760403Y-54089936D01*
X119525001Y-54069341D01*
X119524999Y-54069341D01*
X119289596Y-54089936D01*
X119289586Y-54089938D01*
X119061344Y-54151094D01*
X119061335Y-54151098D01*
X118847171Y-54250964D01*
X118847169Y-54250965D01*
X118653600Y-54386503D01*
X118531673Y-54508430D01*
X118470350Y-54541914D01*
X118400658Y-54536930D01*
X118344725Y-54495058D01*
X118327810Y-54464081D01*
X118278797Y-54332671D01*
X118278793Y-54332664D01*
X118192547Y-54217455D01*
X118192544Y-54217452D01*
X118077335Y-54131206D01*
X118077328Y-54131202D01*
X117942482Y-54080908D01*
X117942483Y-54080908D01*
X117882883Y-54074501D01*
X117882881Y-54074500D01*
X117882873Y-54074500D01*
X117882864Y-54074500D01*
X116087129Y-54074500D01*
X116087123Y-54074501D01*
X116027516Y-54080908D01*
X115892671Y-54131202D01*
X115892664Y-54131206D01*
X115777455Y-54217452D01*
X115777452Y-54217455D01*
X115691206Y-54332664D01*
X115691202Y-54332671D01*
X115640908Y-54467517D01*
X115634501Y-54527116D01*
X115634500Y-54527135D01*
X115634500Y-56322870D01*
X115634501Y-56322876D01*
X115640908Y-56382483D01*
X115691202Y-56517328D01*
X115691206Y-56517335D01*
X115777452Y-56632544D01*
X115777455Y-56632547D01*
X115892664Y-56718793D01*
X115892671Y-56718797D01*
X116024081Y-56767810D01*
X116080015Y-56809681D01*
X116104432Y-56875145D01*
X116089580Y-56943418D01*
X116068430Y-56971673D01*
X115946503Y-57093600D01*
X115810965Y-57287169D01*
X115810964Y-57287171D01*
X115711098Y-57501335D01*
X115711094Y-57501344D01*
X115649938Y-57729586D01*
X115649936Y-57729596D01*
X115629341Y-57964999D01*
X115629341Y-57965000D01*
X115649936Y-58200403D01*
X115649938Y-58200413D01*
X115711094Y-58428655D01*
X115711096Y-58428659D01*
X115711097Y-58428663D01*
X115794155Y-58606781D01*
X115810965Y-58642830D01*
X115810967Y-58642834D01*
X115867022Y-58722888D01*
X115946505Y-58836401D01*
X116113599Y-59003495D01*
X116188875Y-59056204D01*
X116307165Y-59139032D01*
X116307167Y-59139033D01*
X116307170Y-59139035D01*
X116521337Y-59238903D01*
X116749592Y-59300063D01*
X116937918Y-59316539D01*
X116984999Y-59320659D01*
X116985000Y-59320659D01*
X116985001Y-59320659D01*
X117024234Y-59317226D01*
X117220408Y-59300063D01*
X117448663Y-59238903D01*
X117662830Y-59139035D01*
X117856401Y-59003495D01*
X118023495Y-58836401D01*
X118153730Y-58650405D01*
X118208307Y-58606781D01*
X118277805Y-58599587D01*
X118340160Y-58631110D01*
X118356879Y-58650405D01*
X118486890Y-58836078D01*
X118653917Y-59003105D01*
X118847422Y-59138600D01*
X118847424Y-59138601D01*
X119013857Y-59216210D01*
X119066297Y-59262382D01*
X119085449Y-59329575D01*
X119065233Y-59396457D01*
X119049134Y-59416273D01*
X116589994Y-61875413D01*
X116528671Y-61908898D01*
X116458979Y-61903914D01*
X116410163Y-61870705D01*
X116362044Y-61817264D01*
X116280871Y-61727112D01*
X116273601Y-61721830D01*
X116127734Y-61615851D01*
X116127729Y-61615848D01*
X115954807Y-61538857D01*
X115954802Y-61538855D01*
X115809000Y-61507865D01*
X115769646Y-61499500D01*
X115580354Y-61499500D01*
X115547897Y-61506398D01*
X115395197Y-61538855D01*
X115395192Y-61538857D01*
X115222270Y-61615848D01*
X115222265Y-61615851D01*
X115069129Y-61727111D01*
X114942466Y-61867785D01*
X114847821Y-62031715D01*
X114847818Y-62031722D01*
X114789327Y-62211740D01*
X114789326Y-62211744D01*
X114773852Y-62358971D01*
X114771679Y-62379649D01*
X114745094Y-62444263D01*
X114736039Y-62454368D01*
X113849428Y-63340981D01*
X113788105Y-63374466D01*
X113761747Y-63377300D01*
X113406667Y-63377300D01*
X113339628Y-63357615D01*
X113293873Y-63304811D01*
X113290485Y-63296634D01*
X113276996Y-63260469D01*
X113276993Y-63260464D01*
X113190747Y-63145256D01*
X113190748Y-63145256D01*
X113190746Y-63145254D01*
X113133054Y-63102065D01*
X113091184Y-63046133D01*
X113086200Y-62976441D01*
X113119685Y-62915118D01*
X113133050Y-62903536D01*
X113190746Y-62860346D01*
X113276996Y-62745131D01*
X113327291Y-62610283D01*
X113333700Y-62550673D01*
X113333699Y-61454928D01*
X113327291Y-61395317D01*
X113326580Y-61393412D01*
X113276997Y-61260471D01*
X113276993Y-61260464D01*
X113190747Y-61145256D01*
X113190748Y-61145256D01*
X113190746Y-61145254D01*
X113133054Y-61102065D01*
X113091184Y-61046133D01*
X113086200Y-60976441D01*
X113119685Y-60915118D01*
X113133050Y-60903536D01*
X113190746Y-60860346D01*
X113276996Y-60745131D01*
X113327291Y-60610283D01*
X113333700Y-60550673D01*
X113333699Y-59454928D01*
X113327878Y-59400773D01*
X113327291Y-59395316D01*
X113276997Y-59260471D01*
X113276993Y-59260464D01*
X113225323Y-59191443D01*
X113190746Y-59145254D01*
X113133054Y-59102065D01*
X113091184Y-59046133D01*
X113086200Y-58976441D01*
X113119685Y-58915118D01*
X113133050Y-58903536D01*
X113190746Y-58860346D01*
X113276996Y-58745131D01*
X113327291Y-58610283D01*
X113333700Y-58550673D01*
X113333699Y-57454928D01*
X113327291Y-57395317D01*
X113326246Y-57392516D01*
X113276997Y-57260471D01*
X113276993Y-57260464D01*
X113190747Y-57145255D01*
X113187005Y-57142454D01*
X113173109Y-57132051D01*
X113132637Y-57101753D01*
X113090767Y-57045819D01*
X113085783Y-56976127D01*
X113119269Y-56914804D01*
X113132639Y-56903220D01*
X113190389Y-56859988D01*
X113190390Y-56859987D01*
X113276550Y-56744893D01*
X113276554Y-56744886D01*
X113326796Y-56610179D01*
X113326798Y-56610172D01*
X113333199Y-56550644D01*
X113333200Y-56550627D01*
X113333200Y-56252800D01*
X110707200Y-56252800D01*
X110640161Y-56233115D01*
X110594406Y-56180311D01*
X110583200Y-56128800D01*
X110583200Y-55752799D01*
X111083199Y-55752799D01*
X111083200Y-55752800D01*
X113333200Y-55752800D01*
X113333200Y-55454972D01*
X113333199Y-55454955D01*
X113326798Y-55395427D01*
X113326796Y-55395420D01*
X113276554Y-55260713D01*
X113276550Y-55260706D01*
X113190390Y-55145612D01*
X113190387Y-55145609D01*
X113075293Y-55059449D01*
X113075286Y-55059445D01*
X112940579Y-55009203D01*
X112940572Y-55009201D01*
X112881044Y-55002800D01*
X111083200Y-55002800D01*
X111083199Y-55752799D01*
X110583200Y-55752799D01*
X110583200Y-55002800D01*
X108785355Y-55002800D01*
X108725827Y-55009201D01*
X108725820Y-55009203D01*
X108591113Y-55059445D01*
X108591111Y-55059446D01*
X108524010Y-55109679D01*
X108458546Y-55134096D01*
X108390273Y-55119245D01*
X108340867Y-55069840D01*
X108325701Y-55011129D01*
X108325637Y-55000097D01*
X108325638Y-55000096D01*
X108307866Y-51924894D01*
X108327163Y-51857744D01*
X108379702Y-51811685D01*
X108448801Y-51801342D01*
X108512524Y-51829999D01*
X108547057Y-51878283D01*
X108600597Y-52012658D01*
X108600606Y-52012677D01*
X108768218Y-52328827D01*
X108969033Y-52625007D01*
X109096441Y-52775003D01*
X109096442Y-52775004D01*
X110302266Y-51569179D01*
X110465130Y-51759870D01*
X110655818Y-51922732D01*
X109447255Y-53131295D01*
X109447256Y-53131296D01*
X109460485Y-53143828D01*
X109460486Y-53143829D01*
X109745367Y-53360388D01*
X109745370Y-53360390D01*
X110051990Y-53544876D01*
X110376739Y-53695122D01*
X110376744Y-53695123D01*
X110715855Y-53809383D01*
X111065339Y-53886311D01*
X111421075Y-53924999D01*
X111421085Y-53925000D01*
X111778915Y-53925000D01*
X111778924Y-53924999D01*
X112134660Y-53886311D01*
X112484144Y-53809383D01*
X112823255Y-53695123D01*
X112823260Y-53695122D01*
X113148009Y-53544876D01*
X113454629Y-53360390D01*
X113454632Y-53360388D01*
X113739504Y-53143836D01*
X113752742Y-53131294D01*
X112544180Y-51922733D01*
X112734870Y-51759870D01*
X112897733Y-51569180D01*
X114103556Y-52775003D01*
X114230964Y-52625008D01*
X114230975Y-52624994D01*
X114431781Y-52328827D01*
X114599393Y-52012677D01*
X114599402Y-52012659D01*
X114731850Y-51680239D01*
X114731852Y-51680232D01*
X114827578Y-51335457D01*
X114827584Y-51335431D01*
X114885472Y-50982331D01*
X114885473Y-50982314D01*
X114904847Y-50625002D01*
X114904847Y-50624997D01*
X114885473Y-50267685D01*
X114885472Y-50267668D01*
X114827584Y-49914568D01*
X114827578Y-49914542D01*
X114731852Y-49569767D01*
X114731850Y-49569760D01*
X114599402Y-49237340D01*
X114599393Y-49237322D01*
X114431781Y-48921172D01*
X114230966Y-48624992D01*
X114103557Y-48474995D01*
X114103556Y-48474994D01*
X112897732Y-49680818D01*
X112734870Y-49490130D01*
X112544179Y-49327266D01*
X113752743Y-48118703D01*
X113752742Y-48118702D01*
X113739514Y-48106171D01*
X113739513Y-48106170D01*
X113454632Y-47889611D01*
X113454629Y-47889609D01*
X113148012Y-47705125D01*
X112899229Y-47590025D01*
X112846652Y-47544011D01*
X112827298Y-47476875D01*
X112847312Y-47409933D01*
X112900341Y-47364439D01*
X112951570Y-47353486D01*
X117572495Y-47363831D01*
G37*
%TD.AperFunction*%
%TA.AperFunction,Conductor*%
G36*
X127588291Y-57070185D02*
G01*
X127613400Y-57091526D01*
X127619126Y-57097885D01*
X127619130Y-57097889D01*
X127772265Y-57209148D01*
X127772270Y-57209151D01*
X127945191Y-57286142D01*
X127945193Y-57286142D01*
X127945197Y-57286144D01*
X128022534Y-57302582D01*
X128084012Y-57335772D01*
X128117789Y-57396935D01*
X128115019Y-57455136D01*
X128116178Y-57455383D01*
X128114827Y-57461737D01*
X128114827Y-57461740D01*
X128114826Y-57461744D01*
X128097902Y-57622771D01*
X128097179Y-57629649D01*
X128070594Y-57694263D01*
X128061539Y-57704368D01*
X127891208Y-57874699D01*
X127878951Y-57884520D01*
X127879134Y-57884741D01*
X127873122Y-57889714D01*
X127826432Y-57939432D01*
X127825079Y-57940829D01*
X127804889Y-57961019D01*
X127804877Y-57961032D01*
X127800621Y-57966517D01*
X127796837Y-57970947D01*
X127764937Y-58004918D01*
X127764936Y-58004920D01*
X127755284Y-58022476D01*
X127744610Y-58038726D01*
X127732329Y-58054561D01*
X127732324Y-58054568D01*
X127713815Y-58097338D01*
X127711245Y-58102584D01*
X127688803Y-58143406D01*
X127683822Y-58162807D01*
X127677521Y-58181210D01*
X127669562Y-58199602D01*
X127669561Y-58199605D01*
X127662271Y-58245627D01*
X127661087Y-58251346D01*
X127649501Y-58296472D01*
X127649500Y-58296482D01*
X127649500Y-58316516D01*
X127647973Y-58335913D01*
X127644840Y-58355696D01*
X127644984Y-58357216D01*
X127649225Y-58402083D01*
X127649500Y-58407921D01*
X127649500Y-61714546D01*
X127629815Y-61781585D01*
X127613181Y-61802227D01*
X126699060Y-62716347D01*
X126637737Y-62749832D01*
X126568045Y-62744848D01*
X126519229Y-62711638D01*
X126493449Y-62683006D01*
X126463221Y-62620015D01*
X126461662Y-62603929D01*
X126460410Y-62564073D01*
X126454823Y-62544845D01*
X126450875Y-62525785D01*
X126450713Y-62524500D01*
X126448365Y-62505909D01*
X126448364Y-62505907D01*
X126448364Y-62505905D01*
X126431213Y-62462588D01*
X126429320Y-62457059D01*
X126416319Y-62412310D01*
X126416317Y-62412307D01*
X126406124Y-62395072D01*
X126397562Y-62377595D01*
X126390188Y-62358971D01*
X126390187Y-62358969D01*
X126362780Y-62321246D01*
X126359589Y-62316387D01*
X126335873Y-62276284D01*
X126335866Y-62276275D01*
X126321707Y-62262116D01*
X126309069Y-62247320D01*
X126302072Y-62237689D01*
X126297295Y-62231114D01*
X126282980Y-62219272D01*
X126261389Y-62201410D01*
X126257077Y-62197487D01*
X125875805Y-61816215D01*
X125865981Y-61803952D01*
X125865760Y-61804136D01*
X125860784Y-61798121D01*
X125811066Y-61751432D01*
X125809666Y-61750075D01*
X125789476Y-61729884D01*
X125783986Y-61725625D01*
X125779561Y-61721847D01*
X125745582Y-61689938D01*
X125745580Y-61689936D01*
X125745577Y-61689935D01*
X125728029Y-61680288D01*
X125711763Y-61669604D01*
X125695936Y-61657327D01*
X125695935Y-61657326D01*
X125695933Y-61657325D01*
X125653168Y-61638818D01*
X125647922Y-61636248D01*
X125607093Y-61613803D01*
X125607092Y-61613802D01*
X125587693Y-61608822D01*
X125569281Y-61602518D01*
X125550898Y-61594562D01*
X125550892Y-61594560D01*
X125504874Y-61587272D01*
X125499152Y-61586087D01*
X125454021Y-61574500D01*
X125454019Y-61574500D01*
X125433984Y-61574500D01*
X125414586Y-61572973D01*
X125407162Y-61571797D01*
X125394805Y-61569840D01*
X125394804Y-61569840D01*
X125348416Y-61574225D01*
X125342578Y-61574500D01*
X124232737Y-61574500D01*
X124217120Y-61572776D01*
X124217093Y-61573062D01*
X124209331Y-61572327D01*
X124141171Y-61574469D01*
X124139224Y-61574500D01*
X124110650Y-61574500D01*
X124109929Y-61574590D01*
X124103757Y-61575369D01*
X124097945Y-61575826D01*
X124051372Y-61577290D01*
X124051369Y-61577291D01*
X124032126Y-61582881D01*
X124013083Y-61586825D01*
X123993204Y-61589336D01*
X123993203Y-61589337D01*
X123949878Y-61606490D01*
X123944352Y-61608382D01*
X123912333Y-61617686D01*
X123842463Y-61617489D01*
X123783792Y-61579549D01*
X123770998Y-61561727D01*
X123768418Y-61557364D01*
X123759860Y-61539893D01*
X123758308Y-61535975D01*
X123752486Y-61521268D01*
X123752486Y-61521267D01*
X123742474Y-61507488D01*
X123725083Y-61483550D01*
X123721900Y-61478705D01*
X123698170Y-61438579D01*
X123698165Y-61438573D01*
X123684005Y-61424413D01*
X123671370Y-61409620D01*
X123660977Y-61395317D01*
X123659594Y-61393413D01*
X123623693Y-61363713D01*
X123619381Y-61359790D01*
X123161819Y-60902228D01*
X123128334Y-60840905D01*
X123125500Y-60814547D01*
X123125500Y-57710452D01*
X123145185Y-57643413D01*
X123161819Y-57622771D01*
X123697772Y-57086819D01*
X123759095Y-57053334D01*
X123785453Y-57050500D01*
X127521252Y-57050500D01*
X127588291Y-57070185D01*
G37*
%TD.AperFunction*%
%TA.AperFunction,Conductor*%
G36*
X143505170Y-47421888D02*
G01*
X143572165Y-47441723D01*
X143617801Y-47494629D01*
X143627590Y-47563810D01*
X143598423Y-47627300D01*
X143556959Y-47658427D01*
X143401987Y-47730125D01*
X143095370Y-47914609D01*
X143095367Y-47914611D01*
X142810491Y-48131166D01*
X142797256Y-48143703D01*
X142797255Y-48143703D01*
X144005819Y-49352266D01*
X143815130Y-49515130D01*
X143652267Y-49705818D01*
X142446442Y-48499994D01*
X142446441Y-48499995D01*
X142319040Y-48649983D01*
X142319033Y-48649993D01*
X142118218Y-48946172D01*
X141950606Y-49262322D01*
X141950597Y-49262340D01*
X141818149Y-49594760D01*
X141818147Y-49594767D01*
X141722421Y-49939542D01*
X141722415Y-49939568D01*
X141664527Y-50292668D01*
X141664526Y-50292685D01*
X141645153Y-50649997D01*
X141645153Y-50650002D01*
X141664526Y-51007314D01*
X141664527Y-51007331D01*
X141722415Y-51360431D01*
X141722421Y-51360457D01*
X141818147Y-51705232D01*
X141818149Y-51705239D01*
X141950597Y-52037659D01*
X141950606Y-52037677D01*
X142118218Y-52353827D01*
X142319033Y-52650007D01*
X142446441Y-52800003D01*
X142446442Y-52800004D01*
X143652266Y-51594180D01*
X143815130Y-51784870D01*
X144005818Y-51947732D01*
X142797255Y-53156295D01*
X142797256Y-53156296D01*
X142810485Y-53168828D01*
X142810486Y-53168829D01*
X143095367Y-53385388D01*
X143095370Y-53385390D01*
X143401990Y-53569876D01*
X143726739Y-53720122D01*
X143726744Y-53720123D01*
X144065855Y-53834383D01*
X144415339Y-53911311D01*
X144771075Y-53949999D01*
X144771085Y-53950000D01*
X145128915Y-53950000D01*
X145128924Y-53949999D01*
X145484660Y-53911311D01*
X145834144Y-53834383D01*
X146173255Y-53720123D01*
X146173260Y-53720122D01*
X146498009Y-53569876D01*
X146804629Y-53385390D01*
X146804632Y-53385388D01*
X147089504Y-53168836D01*
X147102742Y-53156294D01*
X145894180Y-51947733D01*
X146084870Y-51784870D01*
X146247733Y-51594180D01*
X147453556Y-52800003D01*
X147580964Y-52650008D01*
X147580975Y-52649994D01*
X147781781Y-52353827D01*
X147949393Y-52037677D01*
X147949402Y-52037659D01*
X148043551Y-51801363D01*
X148086651Y-51746371D01*
X148152640Y-51723410D01*
X148220567Y-51739771D01*
X148268866Y-51790259D01*
X148282733Y-51845624D01*
X148292778Y-52606722D01*
X148324361Y-54999901D01*
X148324363Y-55000013D01*
X148324363Y-55001520D01*
X148304678Y-55068559D01*
X148251874Y-55114314D01*
X148182716Y-55124258D01*
X148126052Y-55100786D01*
X148067093Y-55056649D01*
X148067086Y-55056645D01*
X147932379Y-55006403D01*
X147932372Y-55006401D01*
X147872844Y-55000000D01*
X146075000Y-55000000D01*
X146075000Y-56126000D01*
X146055315Y-56193039D01*
X146002511Y-56238794D01*
X145951000Y-56250000D01*
X143325000Y-56250000D01*
X143325000Y-56486524D01*
X143305315Y-56553563D01*
X143252511Y-56599318D01*
X143183353Y-56609262D01*
X143119797Y-56580237D01*
X143083069Y-56524843D01*
X143077180Y-56506719D01*
X143077179Y-56506718D01*
X143077179Y-56506716D01*
X142982533Y-56342784D01*
X142855871Y-56202112D01*
X142843383Y-56193039D01*
X142702734Y-56090851D01*
X142702729Y-56090848D01*
X142529807Y-56013857D01*
X142529802Y-56013855D01*
X142384001Y-55982865D01*
X142344646Y-55974500D01*
X142155354Y-55974500D01*
X142122897Y-55981398D01*
X141970197Y-56013855D01*
X141970192Y-56013857D01*
X141797270Y-56090848D01*
X141797265Y-56090851D01*
X141644129Y-56202111D01*
X141517466Y-56342785D01*
X141422821Y-56506715D01*
X141422818Y-56506722D01*
X141364327Y-56686740D01*
X141364326Y-56686744D01*
X141344540Y-56875000D01*
X141364326Y-57063256D01*
X141364327Y-57063259D01*
X141422821Y-57243285D01*
X141448637Y-57288000D01*
X141465110Y-57355900D01*
X141448637Y-57412000D01*
X141422821Y-57456714D01*
X141390805Y-57555250D01*
X141364326Y-57636744D01*
X141344540Y-57825000D01*
X141364326Y-58013256D01*
X141364327Y-58013259D01*
X141422818Y-58193277D01*
X141422819Y-58193279D01*
X141422821Y-58193284D01*
X141517467Y-58357216D01*
X141644128Y-58497888D01*
X141644129Y-58497888D01*
X141797265Y-58609148D01*
X141797270Y-58609151D01*
X141970192Y-58686142D01*
X141970197Y-58686144D01*
X142155354Y-58725500D01*
X142155355Y-58725500D01*
X142344644Y-58725500D01*
X142344646Y-58725500D01*
X142529803Y-58686144D01*
X142702730Y-58609151D01*
X142855871Y-58497888D01*
X142982533Y-58357216D01*
X143077179Y-58193284D01*
X143082568Y-58176695D01*
X143122004Y-58119021D01*
X143186361Y-58091821D01*
X143255208Y-58103733D01*
X143306685Y-58150976D01*
X143324500Y-58215012D01*
X143324500Y-58547869D01*
X143324501Y-58547876D01*
X143330908Y-58607483D01*
X143381202Y-58742328D01*
X143381206Y-58742335D01*
X143467452Y-58857544D01*
X143467453Y-58857544D01*
X143467454Y-58857546D01*
X143493456Y-58877011D01*
X143525145Y-58900734D01*
X143567015Y-58956668D01*
X143571999Y-59026360D01*
X143538513Y-59087683D01*
X143525145Y-59099266D01*
X143467452Y-59142455D01*
X143381206Y-59257664D01*
X143381202Y-59257671D01*
X143330908Y-59392517D01*
X143324501Y-59452116D01*
X143324500Y-59452135D01*
X143324500Y-60240547D01*
X143304815Y-60307586D01*
X143252011Y-60353341D01*
X143182853Y-60363285D01*
X143119297Y-60334260D01*
X143112819Y-60328228D01*
X142250803Y-59466212D01*
X142240980Y-59453950D01*
X142240759Y-59454134D01*
X142235786Y-59448122D01*
X142186066Y-59401432D01*
X142184666Y-59400075D01*
X142164476Y-59379884D01*
X142158986Y-59375625D01*
X142154561Y-59371847D01*
X142120582Y-59339938D01*
X142120580Y-59339936D01*
X142120577Y-59339935D01*
X142103029Y-59330288D01*
X142086763Y-59319604D01*
X142070933Y-59307325D01*
X142028168Y-59288818D01*
X142022922Y-59286248D01*
X141982093Y-59263803D01*
X141982092Y-59263802D01*
X141962693Y-59258822D01*
X141944281Y-59252518D01*
X141925898Y-59244562D01*
X141925892Y-59244560D01*
X141879874Y-59237272D01*
X141874152Y-59236087D01*
X141829021Y-59224500D01*
X141829019Y-59224500D01*
X141808984Y-59224500D01*
X141789586Y-59222973D01*
X141782162Y-59221797D01*
X141769805Y-59219840D01*
X141769804Y-59219840D01*
X141723416Y-59224225D01*
X141717578Y-59224500D01*
X129704248Y-59224500D01*
X129637209Y-59204815D01*
X129612100Y-59183474D01*
X129606373Y-59177114D01*
X129606369Y-59177110D01*
X129453234Y-59065851D01*
X129453229Y-59065848D01*
X129280307Y-58988857D01*
X129280302Y-58988855D01*
X129128869Y-58956668D01*
X129095146Y-58949500D01*
X129024500Y-58949500D01*
X128957461Y-58929815D01*
X128911706Y-58877011D01*
X128900500Y-58825501D01*
X128900499Y-58685954D01*
X128920183Y-58618914D01*
X128936822Y-58598268D01*
X128948276Y-58586815D01*
X129009600Y-58553333D01*
X129035953Y-58550500D01*
X129095144Y-58550500D01*
X129095146Y-58550500D01*
X129280303Y-58511144D01*
X129453230Y-58434151D01*
X129606371Y-58322888D01*
X129733033Y-58182216D01*
X129809368Y-58050000D01*
X137394540Y-58050000D01*
X137414326Y-58238256D01*
X137414327Y-58238259D01*
X137472818Y-58418277D01*
X137472821Y-58418284D01*
X137567467Y-58582216D01*
X137694128Y-58722887D01*
X137694129Y-58722888D01*
X137847265Y-58834148D01*
X137847270Y-58834151D01*
X138020192Y-58911142D01*
X138020197Y-58911144D01*
X138205354Y-58950500D01*
X138205355Y-58950500D01*
X138394644Y-58950500D01*
X138394646Y-58950500D01*
X138579803Y-58911144D01*
X138752730Y-58834151D01*
X138905871Y-58722888D01*
X139032533Y-58582216D01*
X139127179Y-58418284D01*
X139185674Y-58238256D01*
X139205460Y-58050000D01*
X139185674Y-57861744D01*
X139127179Y-57681716D01*
X139032533Y-57517784D01*
X138905871Y-57377112D01*
X138905870Y-57377111D01*
X138752734Y-57265851D01*
X138752729Y-57265848D01*
X138579807Y-57188857D01*
X138579802Y-57188855D01*
X138434001Y-57157865D01*
X138394646Y-57149500D01*
X138205354Y-57149500D01*
X138172897Y-57156398D01*
X138020197Y-57188855D01*
X138020192Y-57188857D01*
X137847270Y-57265848D01*
X137847265Y-57265851D01*
X137694129Y-57377111D01*
X137567466Y-57517785D01*
X137472821Y-57681715D01*
X137472818Y-57681722D01*
X137414327Y-57861740D01*
X137414326Y-57861744D01*
X137394540Y-58050000D01*
X129809368Y-58050000D01*
X129827679Y-58018284D01*
X129886174Y-57838256D01*
X129905960Y-57650000D01*
X129886174Y-57461744D01*
X129829721Y-57288000D01*
X129827681Y-57281722D01*
X129827680Y-57281721D01*
X129827679Y-57281716D01*
X129733033Y-57117784D01*
X129606371Y-56977112D01*
X129606370Y-56977111D01*
X129453234Y-56865851D01*
X129453229Y-56865848D01*
X129280307Y-56788857D01*
X129280302Y-56788855D01*
X129202968Y-56772418D01*
X129141486Y-56739226D01*
X129107710Y-56678063D01*
X129110485Y-56619864D01*
X129109322Y-56619617D01*
X129110672Y-56613261D01*
X129110674Y-56613256D01*
X129130460Y-56425000D01*
X129110674Y-56236744D01*
X129052179Y-56056716D01*
X128957533Y-55892784D01*
X128830871Y-55752112D01*
X128830870Y-55752111D01*
X128690326Y-55650000D01*
X137394540Y-55650000D01*
X137414326Y-55838256D01*
X137414327Y-55838259D01*
X137472818Y-56018277D01*
X137472821Y-56018284D01*
X137567467Y-56182216D01*
X137694113Y-56322870D01*
X137694129Y-56322888D01*
X137847265Y-56434148D01*
X137847270Y-56434151D01*
X138020192Y-56511142D01*
X138020197Y-56511144D01*
X138205354Y-56550500D01*
X138205355Y-56550500D01*
X138394644Y-56550500D01*
X138394646Y-56550500D01*
X138579803Y-56511144D01*
X138752730Y-56434151D01*
X138905871Y-56322888D01*
X139032533Y-56182216D01*
X139127179Y-56018284D01*
X139185674Y-55838256D01*
X139194950Y-55750000D01*
X143325000Y-55750000D01*
X145575000Y-55750000D01*
X145575000Y-55000000D01*
X143777155Y-55000000D01*
X143717627Y-55006401D01*
X143717620Y-55006403D01*
X143582913Y-55056645D01*
X143582906Y-55056649D01*
X143467812Y-55142809D01*
X143467809Y-55142812D01*
X143381649Y-55257906D01*
X143381645Y-55257913D01*
X143331403Y-55392620D01*
X143331401Y-55392627D01*
X143325000Y-55452155D01*
X143325000Y-55750000D01*
X139194950Y-55750000D01*
X139205460Y-55650000D01*
X139185674Y-55461744D01*
X139127179Y-55281716D01*
X139032533Y-55117784D01*
X138905871Y-54977112D01*
X138905870Y-54977111D01*
X138752734Y-54865851D01*
X138752729Y-54865848D01*
X138579807Y-54788857D01*
X138579802Y-54788855D01*
X138434001Y-54757865D01*
X138394646Y-54749500D01*
X138205354Y-54749500D01*
X138172897Y-54756398D01*
X138020197Y-54788855D01*
X138020192Y-54788857D01*
X137847270Y-54865848D01*
X137847265Y-54865851D01*
X137694129Y-54977111D01*
X137567466Y-55117785D01*
X137472821Y-55281715D01*
X137472818Y-55281722D01*
X137416532Y-55454955D01*
X137414326Y-55461744D01*
X137394540Y-55650000D01*
X128690326Y-55650000D01*
X128677734Y-55640851D01*
X128677729Y-55640848D01*
X128504807Y-55563857D01*
X128504802Y-55563855D01*
X128359001Y-55532865D01*
X128319646Y-55524500D01*
X128130354Y-55524500D01*
X128097897Y-55531398D01*
X127945197Y-55563855D01*
X127945192Y-55563857D01*
X127772270Y-55640848D01*
X127772265Y-55640851D01*
X127619130Y-55752110D01*
X127619126Y-55752114D01*
X127613400Y-55758474D01*
X127553913Y-55795121D01*
X127521252Y-55799500D01*
X123557737Y-55799500D01*
X123542120Y-55797776D01*
X123542093Y-55798062D01*
X123534331Y-55797327D01*
X123466171Y-55799469D01*
X123464224Y-55799500D01*
X123435650Y-55799500D01*
X123434929Y-55799590D01*
X123428757Y-55800369D01*
X123422945Y-55800826D01*
X123376373Y-55802290D01*
X123376372Y-55802290D01*
X123357129Y-55807881D01*
X123338079Y-55811825D01*
X123318211Y-55814334D01*
X123318209Y-55814335D01*
X123274884Y-55831488D01*
X123269357Y-55833380D01*
X123224610Y-55846381D01*
X123224609Y-55846382D01*
X123207367Y-55856579D01*
X123189899Y-55865137D01*
X123171269Y-55872513D01*
X123171267Y-55872514D01*
X123133576Y-55899898D01*
X123128694Y-55903105D01*
X123088579Y-55926830D01*
X123074408Y-55941000D01*
X123059623Y-55953628D01*
X123043412Y-55965407D01*
X123013709Y-56001310D01*
X123009777Y-56005630D01*
X122974862Y-56040546D01*
X122887179Y-56128228D01*
X122825859Y-56161712D01*
X122756167Y-56156728D01*
X122700233Y-56114857D01*
X122675816Y-56049393D01*
X122675500Y-56040546D01*
X122675500Y-52975000D01*
X125294540Y-52975000D01*
X125314326Y-53163256D01*
X125314327Y-53163259D01*
X125372818Y-53343277D01*
X125372821Y-53343284D01*
X125467467Y-53507216D01*
X125594129Y-53647888D01*
X125747265Y-53759148D01*
X125747270Y-53759151D01*
X125920192Y-53836142D01*
X125920197Y-53836144D01*
X126105354Y-53875500D01*
X126105355Y-53875500D01*
X126294644Y-53875500D01*
X126294646Y-53875500D01*
X126479803Y-53836144D01*
X126652730Y-53759151D01*
X126805871Y-53647888D01*
X126932533Y-53507216D01*
X127027179Y-53343284D01*
X127081858Y-53175000D01*
X137394540Y-53175000D01*
X137414326Y-53363256D01*
X137414327Y-53363259D01*
X137472818Y-53543277D01*
X137472821Y-53543284D01*
X137567467Y-53707216D01*
X137579088Y-53720122D01*
X137694129Y-53847888D01*
X137847265Y-53959148D01*
X137847270Y-53959151D01*
X138020192Y-54036142D01*
X138020197Y-54036144D01*
X138205354Y-54075500D01*
X138205355Y-54075500D01*
X138394644Y-54075500D01*
X138394646Y-54075500D01*
X138579803Y-54036144D01*
X138752730Y-53959151D01*
X138905871Y-53847888D01*
X139032533Y-53707216D01*
X139127179Y-53543284D01*
X139185674Y-53363256D01*
X139205460Y-53175000D01*
X139185674Y-52986744D01*
X139127179Y-52806716D01*
X139032533Y-52642784D01*
X138905871Y-52502112D01*
X138905870Y-52502111D01*
X138752734Y-52390851D01*
X138752729Y-52390848D01*
X138579807Y-52313857D01*
X138579802Y-52313855D01*
X138434000Y-52282865D01*
X138394646Y-52274500D01*
X138205354Y-52274500D01*
X138172897Y-52281398D01*
X138020197Y-52313855D01*
X138020192Y-52313857D01*
X137847270Y-52390848D01*
X137847265Y-52390851D01*
X137694129Y-52502111D01*
X137567466Y-52642785D01*
X137472821Y-52806715D01*
X137472818Y-52806722D01*
X137418142Y-52975000D01*
X137414326Y-52986744D01*
X137399133Y-53131296D01*
X137395189Y-53168829D01*
X137394540Y-53175000D01*
X127081858Y-53175000D01*
X127085674Y-53163256D01*
X127105460Y-52975000D01*
X127085674Y-52786744D01*
X127027179Y-52606716D01*
X126932533Y-52442784D01*
X126805871Y-52302112D01*
X126805870Y-52302111D01*
X126652734Y-52190851D01*
X126652729Y-52190848D01*
X126479807Y-52113857D01*
X126479802Y-52113855D01*
X126320611Y-52080019D01*
X126294646Y-52074500D01*
X126105354Y-52074500D01*
X126079389Y-52080019D01*
X125920197Y-52113855D01*
X125920192Y-52113857D01*
X125747270Y-52190848D01*
X125747265Y-52190851D01*
X125594129Y-52302111D01*
X125467466Y-52442785D01*
X125372821Y-52606715D01*
X125372818Y-52606722D01*
X125314327Y-52786740D01*
X125314326Y-52786744D01*
X125294540Y-52975000D01*
X122675500Y-52975000D01*
X122675500Y-49182737D01*
X122677224Y-49167124D01*
X122676938Y-49167097D01*
X122677672Y-49159334D01*
X122675530Y-49091169D01*
X122675499Y-49089219D01*
X122675500Y-49060650D01*
X122674629Y-49053758D01*
X122674172Y-49047946D01*
X122673916Y-49039812D01*
X122672709Y-49001372D01*
X122667120Y-48982137D01*
X122663174Y-48963084D01*
X122661038Y-48946172D01*
X122660664Y-48943208D01*
X122643501Y-48899859D01*
X122641614Y-48894346D01*
X122628617Y-48849610D01*
X122628616Y-48849608D01*
X122618421Y-48832369D01*
X122609860Y-48814893D01*
X122602486Y-48796269D01*
X122602486Y-48796267D01*
X122592474Y-48782488D01*
X122575083Y-48758550D01*
X122571900Y-48753705D01*
X122548170Y-48713579D01*
X122548165Y-48713573D01*
X122534005Y-48699413D01*
X122521370Y-48684620D01*
X122509593Y-48668412D01*
X122473693Y-48638713D01*
X122469381Y-48634790D01*
X121418912Y-47584321D01*
X121385427Y-47522998D01*
X121390411Y-47453306D01*
X121432283Y-47397373D01*
X121497747Y-47372956D01*
X121506869Y-47372640D01*
X143505170Y-47421888D01*
G37*
%TD.AperFunction*%
%TD*%
M02*
