%TF.GenerationSoftware,KiCad,Pcbnew,7.0.5-0*%
%TF.CreationDate,2023-07-12T10:20:26-04:00*%
%TF.ProjectId,stm32g431-mt6701-stspin233,73746d33-3267-4343-9331-2d6d74363730,rev?*%
%TF.SameCoordinates,Original*%
%TF.FileFunction,Legend,Bot*%
%TF.FilePolarity,Positive*%
%FSLAX46Y46*%
G04 Gerber Fmt 4.6, Leading zero omitted, Abs format (unit mm)*
G04 Created by KiCad (PCBNEW 7.0.5-0) date 2023-07-12 10:20:26*
%MOMM*%
%LPD*%
G01*
G04 APERTURE LIST*
%ADD10C,0.254000*%
G04 APERTURE END LIST*
D10*
%TO.C,J109*%
X135175005Y-80556299D02*
X135732912Y-81114207D01*
X135175005Y-80556299D02*
X141737663Y-73993641D01*
X136093537Y-81466346D02*
X135737155Y-81109964D01*
X136307790Y-81252092D02*
X136093537Y-81466346D01*
X140619727Y-81397756D02*
X140255567Y-81761916D01*
X141326834Y-80690650D02*
X141158543Y-80858941D01*
X142033941Y-79983543D02*
X141865650Y-80151834D01*
X142572756Y-79444727D02*
X142936916Y-79080567D01*
X140724379Y-76835503D02*
X138010503Y-79549379D01*
X141731299Y-74000005D02*
X142289207Y-74557912D01*
X142289207Y-74557912D02*
X142645588Y-74914294D01*
X142645588Y-74914294D02*
X142427092Y-75132790D01*
X143295140Y-79747369D02*
G75*
G03*
X143295140Y-79747369I-127000J0D01*
G01*
%TO.C,J110*%
X145842204Y-78107728D02*
X145284297Y-77549820D01*
X145842204Y-78107728D02*
X139279546Y-84670386D01*
X144923672Y-77197681D02*
X145280054Y-77554063D01*
X144709419Y-77411935D02*
X144923672Y-77197681D01*
X140397482Y-77266271D02*
X140761642Y-76902111D01*
X139690375Y-77973377D02*
X139858666Y-77805086D01*
X138983268Y-78680484D02*
X139151559Y-78512193D01*
X138444453Y-79219300D02*
X138080293Y-79583460D01*
X140292830Y-81828524D02*
X143006706Y-79114648D01*
X139285910Y-84664022D02*
X138728002Y-84106115D01*
X138728002Y-84106115D02*
X138371621Y-83749733D01*
X138371621Y-83749733D02*
X138590117Y-83531237D01*
X137976069Y-78916658D02*
G75*
G03*
X137976069Y-78916658I-127000J0D01*
G01*
%TO.C,G\u002A\u002A\u002A*%
G36*
X123339408Y-60040538D02*
G01*
X123406773Y-60078493D01*
X123557984Y-60203191D01*
X123586488Y-60344085D01*
X123489252Y-60531209D01*
X123263242Y-60794602D01*
X123076062Y-61015437D01*
X122905811Y-61262105D01*
X122818403Y-61448853D01*
X122761984Y-61642846D01*
X122684975Y-61837167D01*
X122669246Y-61863852D01*
X122525918Y-61968894D01*
X122358923Y-61965550D01*
X122243058Y-61851409D01*
X122240734Y-61845275D01*
X122191414Y-61507384D01*
X122279823Y-61109874D01*
X122509166Y-60638122D01*
X122669893Y-60374123D01*
X122853287Y-60122886D01*
X123009472Y-59995442D01*
X123163246Y-59973942D01*
X123339408Y-60040538D01*
G37*
G36*
X142730921Y-70303811D02*
G01*
X142557848Y-70582849D01*
X142554957Y-70585722D01*
X142304906Y-70744614D01*
X142017966Y-70800384D01*
X141750493Y-70752123D01*
X141558841Y-70598925D01*
X141558689Y-70598693D01*
X141399773Y-70255385D01*
X141382064Y-70102967D01*
X141749666Y-70102967D01*
X141767987Y-70200167D01*
X141876666Y-70367334D01*
X141906105Y-70390780D01*
X141985130Y-70415345D01*
X142003666Y-70293034D01*
X142025256Y-70184318D01*
X142109500Y-70112037D01*
X142157221Y-70097128D01*
X142088333Y-70028667D01*
X141952650Y-69961910D01*
X141804549Y-69969011D01*
X141749666Y-70102967D01*
X141382064Y-70102967D01*
X141360912Y-69920909D01*
X141447802Y-69644226D01*
X141451834Y-69638116D01*
X141567402Y-69510594D01*
X141729766Y-69450840D01*
X141999473Y-69436000D01*
X142000138Y-69436000D01*
X142274789Y-69452368D01*
X142449096Y-69518279D01*
X142590188Y-69659085D01*
X142607269Y-69681489D01*
X142747805Y-69991643D01*
X142742100Y-70097128D01*
X142730921Y-70303811D01*
G37*
G36*
X142857641Y-79821887D02*
G01*
X142682312Y-80176538D01*
X142456233Y-80385692D01*
X142429430Y-80399139D01*
X142190225Y-80460876D01*
X141887158Y-80426086D01*
X141802443Y-80406604D01*
X141613677Y-80359056D01*
X141534317Y-80332194D01*
X141512328Y-80293129D01*
X141426292Y-80142116D01*
X141299068Y-79919590D01*
X141160509Y-79619081D01*
X141149031Y-79553667D01*
X142003666Y-79553667D01*
X142046000Y-79596000D01*
X142088333Y-79553667D01*
X142046000Y-79511334D01*
X142003666Y-79553667D01*
X141149031Y-79553667D01*
X141074182Y-79127105D01*
X141150846Y-78601458D01*
X141229358Y-78327701D01*
X140909114Y-78340250D01*
X140618926Y-78300384D01*
X140295840Y-78121275D01*
X140036858Y-77824527D01*
X139864761Y-77437948D01*
X139802333Y-76989344D01*
X139842201Y-76825585D01*
X140013680Y-76598404D01*
X140282559Y-76401111D01*
X140607347Y-76261992D01*
X140946549Y-76209334D01*
X141048090Y-76223357D01*
X141303821Y-76350457D01*
X141543807Y-76574601D01*
X141716177Y-76852441D01*
X141757248Y-76974677D01*
X141785257Y-77225128D01*
X141751899Y-77548898D01*
X141654943Y-77987334D01*
X141662445Y-78055170D01*
X141771136Y-78110235D01*
X142018955Y-78139899D01*
X142093466Y-78145595D01*
X142328311Y-78190710D01*
X142515476Y-78299777D01*
X142726938Y-78510473D01*
X142870872Y-78676065D01*
X142977422Y-78844499D01*
X143007218Y-79016537D01*
X142984553Y-79263150D01*
X142973493Y-79340278D01*
X142922162Y-79553667D01*
X142857641Y-79821887D01*
G37*
G36*
X121100940Y-61074653D02*
G01*
X120830054Y-61511850D01*
X120611971Y-61927202D01*
X120466553Y-62285773D01*
X120413666Y-62552628D01*
X120419231Y-62639317D01*
X120460667Y-62891904D01*
X120530451Y-63197910D01*
X120614087Y-63502302D01*
X120697076Y-63750043D01*
X120764922Y-63886100D01*
X120799900Y-63944408D01*
X120837000Y-64118934D01*
X120825875Y-64205748D01*
X120748037Y-64280200D01*
X120616638Y-64244250D01*
X120456350Y-64119508D01*
X120291844Y-63927584D01*
X120147794Y-63690088D01*
X120048871Y-63428629D01*
X120003701Y-63276632D01*
X119904886Y-63036786D01*
X119808938Y-62896169D01*
X119744229Y-62807304D01*
X119648705Y-62585650D01*
X119566628Y-62302736D01*
X119520505Y-62069308D01*
X119518752Y-62033110D01*
X119857134Y-62033110D01*
X119874481Y-62093920D01*
X119953444Y-62222783D01*
X120050169Y-62183911D01*
X120162857Y-61977631D01*
X120258026Y-61784496D01*
X120416978Y-61503778D01*
X120600880Y-61205939D01*
X120619232Y-61177402D01*
X120771171Y-60928174D01*
X120869746Y-60742889D01*
X120894383Y-60659828D01*
X120810520Y-60678066D01*
X120651888Y-60796893D01*
X120452673Y-60986151D01*
X120245889Y-61214397D01*
X120064549Y-61450189D01*
X119974135Y-61589862D01*
X119861199Y-61837765D01*
X119857134Y-62033110D01*
X119518752Y-62033110D01*
X119507786Y-61806723D01*
X119568693Y-61571751D01*
X119718424Y-61315104D01*
X119972177Y-60987493D01*
X120109467Y-60840139D01*
X120367743Y-60609965D01*
X120674251Y-60370408D01*
X120993939Y-60145741D01*
X121291757Y-59960235D01*
X121532653Y-59838161D01*
X121681576Y-59803792D01*
X121718239Y-59814123D01*
X121822135Y-59925783D01*
X121812459Y-60106860D01*
X121688566Y-60310436D01*
X121404761Y-60650549D01*
X121398114Y-60659828D01*
X121100940Y-61074653D01*
G37*
G36*
X140127483Y-73701668D02*
G01*
X140012080Y-74123604D01*
X139998824Y-74156990D01*
X139995383Y-74245120D01*
X140114889Y-74227954D01*
X140272928Y-74226389D01*
X140490985Y-74341241D01*
X140684835Y-74555615D01*
X140813502Y-74833968D01*
X140841783Y-74969582D01*
X140816648Y-75246521D01*
X140689861Y-75427431D01*
X140650865Y-75483074D01*
X140330262Y-75704781D01*
X140199870Y-75780214D01*
X139904975Y-75963529D01*
X139613640Y-76157138D01*
X139305699Y-76326131D01*
X138944364Y-76397179D01*
X138626934Y-76311193D01*
X138362372Y-76073768D01*
X138159643Y-75690501D01*
X138027711Y-75166988D01*
X138026582Y-75153910D01*
X138722966Y-75153910D01*
X138781990Y-75391840D01*
X138901505Y-75639140D01*
X139057343Y-75739974D01*
X139242449Y-75674352D01*
X139307423Y-75603514D01*
X139333447Y-75427431D01*
X139234952Y-75245266D01*
X139029556Y-75104203D01*
X138905418Y-75058341D01*
X138759451Y-75048156D01*
X138722966Y-75153910D01*
X138026582Y-75153910D01*
X138004543Y-74898499D01*
X138063513Y-74595591D01*
X138243381Y-74399426D01*
X138553500Y-74294485D01*
X138611928Y-74283262D01*
X138796578Y-74226573D01*
X138871000Y-74166512D01*
X138868999Y-74150360D01*
X138788507Y-74092667D01*
X138752152Y-74086235D01*
X138638163Y-73971231D01*
X138553021Y-73747711D01*
X138502471Y-73462106D01*
X138500885Y-73415334D01*
X139040333Y-73415334D01*
X139042793Y-73435571D01*
X139125000Y-73500000D01*
X139145237Y-73497540D01*
X139209666Y-73415334D01*
X139207206Y-73395096D01*
X139125000Y-73330667D01*
X139104762Y-73333127D01*
X139040333Y-73415334D01*
X138500885Y-73415334D01*
X138492258Y-73160847D01*
X138528128Y-72890362D01*
X138615825Y-72697083D01*
X138653114Y-72657038D01*
X138893304Y-72532698D01*
X139190984Y-72537251D01*
X139510347Y-72664407D01*
X139815587Y-72907874D01*
X139892118Y-72993554D01*
X140088842Y-73333312D01*
X140097446Y-73415334D01*
X140127483Y-73701668D01*
G37*
G36*
X144862621Y-71391416D02*
G01*
X144915807Y-71679853D01*
X144884531Y-71887228D01*
X144878637Y-71898947D01*
X144821256Y-72103112D01*
X144797666Y-72357947D01*
X144783718Y-72484000D01*
X144781336Y-72505529D01*
X144635372Y-72815022D01*
X144449796Y-72987003D01*
X144361103Y-73069198D01*
X143986661Y-73237546D01*
X143806435Y-73284245D01*
X143542450Y-73322769D01*
X143319054Y-73291314D01*
X143059869Y-73185599D01*
X143034866Y-73173886D01*
X142818898Y-73104449D01*
X142685486Y-73149466D01*
X142617455Y-73326274D01*
X142597630Y-73652210D01*
X142594792Y-73720332D01*
X142496243Y-74059364D01*
X142279594Y-74318196D01*
X141975501Y-74457165D01*
X141908424Y-74469995D01*
X141694461Y-74498140D01*
X141527947Y-74476402D01*
X141313787Y-74395990D01*
X141059692Y-74261209D01*
X140807562Y-74015087D01*
X140609896Y-73647788D01*
X140517124Y-73385167D01*
X140477716Y-73039330D01*
X141157000Y-73039330D01*
X141159201Y-73047780D01*
X141241666Y-73076667D01*
X141264873Y-73073221D01*
X141326333Y-72987003D01*
X141319685Y-72956380D01*
X141241666Y-72949667D01*
X141216329Y-72967044D01*
X141157000Y-73039330D01*
X140477716Y-73039330D01*
X140477083Y-73033775D01*
X140575478Y-72734534D01*
X140818577Y-72451519D01*
X141009578Y-72308553D01*
X141368562Y-72167637D01*
X141724898Y-72167359D01*
X142044035Y-72304775D01*
X142291422Y-72576945D01*
X142296620Y-72585718D01*
X142415409Y-72763584D01*
X142467642Y-72787141D01*
X142452679Y-72658014D01*
X142388243Y-72439965D01*
X144138422Y-72439965D01*
X144148555Y-72540445D01*
X144174022Y-72553690D01*
X144205000Y-72484000D01*
X144198890Y-72439178D01*
X144148555Y-72427556D01*
X144138422Y-72439965D01*
X142388243Y-72439965D01*
X142369880Y-72377826D01*
X142313396Y-72176408D01*
X142289511Y-71835810D01*
X142396525Y-71575784D01*
X142641401Y-71370502D01*
X142701978Y-71332671D01*
X142868506Y-71200902D01*
X142887955Y-71171655D01*
X143645629Y-71171655D01*
X143729340Y-71214000D01*
X143786528Y-71206387D01*
X143908666Y-71129334D01*
X143917704Y-71087012D01*
X143833993Y-71044667D01*
X143776805Y-71052280D01*
X143654666Y-71129334D01*
X143645629Y-71171655D01*
X142887955Y-71171655D01*
X142935734Y-71099804D01*
X142956015Y-71043815D01*
X143065279Y-70883897D01*
X143237400Y-70684834D01*
X143456684Y-70495515D01*
X143779933Y-70362541D01*
X144104184Y-70397854D01*
X144424008Y-70601834D01*
X144578809Y-70783337D01*
X144743959Y-71074912D01*
X144748495Y-71087012D01*
X144862621Y-71391416D01*
G37*
G36*
X127508674Y-60500694D02*
G01*
X127621898Y-60771384D01*
X127679152Y-61114245D01*
X127695000Y-61576788D01*
X127665496Y-61906330D01*
X127655502Y-62017959D01*
X127506856Y-62429103D01*
X127249769Y-62713562D01*
X126886374Y-62867932D01*
X126716036Y-62882141D01*
X126521230Y-62823314D01*
X126270620Y-62663766D01*
X126143399Y-62573402D01*
X125988209Y-62480599D01*
X125908146Y-62477784D01*
X125865859Y-62554912D01*
X125836953Y-62637994D01*
X125784832Y-62787802D01*
X125648423Y-63061047D01*
X125447486Y-63329132D01*
X125394902Y-63388644D01*
X125200203Y-63572313D01*
X125034905Y-63681304D01*
X124822840Y-63741635D01*
X124476537Y-63729655D01*
X124075478Y-63583743D01*
X123943525Y-63512681D01*
X123581909Y-63206104D01*
X123581732Y-63205784D01*
X124399895Y-63205784D01*
X124480079Y-63243751D01*
X124656425Y-63296973D01*
X124801115Y-63302102D01*
X125041674Y-63200600D01*
X125247962Y-62996050D01*
X125372657Y-62726167D01*
X125388851Y-62637994D01*
X125365316Y-62515358D01*
X125241986Y-62508455D01*
X125002629Y-62612289D01*
X124905686Y-62670750D01*
X124716258Y-62816596D01*
X124541924Y-62980864D01*
X124423024Y-63123833D01*
X124399895Y-63205784D01*
X123581732Y-63205784D01*
X123359822Y-62804544D01*
X123280764Y-62313598D01*
X123281460Y-62304658D01*
X123649606Y-62304658D01*
X123653621Y-62579913D01*
X123689108Y-62735859D01*
X123705791Y-62761266D01*
X123820570Y-62864972D01*
X123958480Y-62837480D01*
X124155111Y-62674071D01*
X124239729Y-62585308D01*
X124327219Y-62435520D01*
X124299348Y-62303329D01*
X124282666Y-62249477D01*
X126509666Y-62249477D01*
X126545611Y-62310767D01*
X126679566Y-62408970D01*
X126761770Y-62443260D01*
X126894685Y-62425796D01*
X127060566Y-62288797D01*
X127074839Y-62274134D01*
X127214322Y-62080795D01*
X127271666Y-61906330D01*
X127263593Y-61812902D01*
X127202272Y-61777228D01*
X127038833Y-61834187D01*
X127004316Y-61849386D01*
X126760887Y-61984665D01*
X126580316Y-62130341D01*
X126509666Y-62249477D01*
X124282666Y-62249477D01*
X124256872Y-62166209D01*
X124271077Y-61884216D01*
X124370763Y-61574377D01*
X124541093Y-61298373D01*
X124547715Y-61289893D01*
X125833720Y-61289893D01*
X125939415Y-61639981D01*
X126030939Y-61783150D01*
X126131841Y-61873872D01*
X126251673Y-61856799D01*
X126354897Y-61740821D01*
X126365601Y-61590391D01*
X126356368Y-61534893D01*
X126379281Y-61333263D01*
X126447070Y-61070965D01*
X126540890Y-60804809D01*
X126641897Y-60591600D01*
X126731245Y-60488147D01*
X126785038Y-60463474D01*
X126848453Y-60384015D01*
X126769471Y-60318955D01*
X126567840Y-60292000D01*
X126477949Y-60298069D01*
X126191216Y-60411011D01*
X125976808Y-60638541D01*
X125851914Y-60943791D01*
X125847215Y-61033176D01*
X125833720Y-61289893D01*
X124547715Y-61289893D01*
X124637388Y-61175066D01*
X124701675Y-61033176D01*
X124625980Y-60981029D01*
X124405744Y-61008868D01*
X124168190Y-61087303D01*
X123917778Y-61279724D01*
X123757009Y-61586861D01*
X123669854Y-62030977D01*
X123649606Y-62304658D01*
X123281460Y-62304658D01*
X123326100Y-61731638D01*
X123475962Y-61260997D01*
X123725109Y-60915718D01*
X124068210Y-60703156D01*
X124499936Y-60630667D01*
X124599008Y-60634080D01*
X124894350Y-60680279D01*
X125111922Y-60764965D01*
X125284167Y-60842895D01*
X125435790Y-60822215D01*
X125493666Y-60682091D01*
X125522153Y-60607221D01*
X125640439Y-60433052D01*
X125819328Y-60221421D01*
X125950520Y-60084216D01*
X126124903Y-59942692D01*
X126302815Y-59881730D01*
X126552104Y-59868667D01*
X126669483Y-59870526D01*
X126889632Y-59902397D01*
X127065901Y-60000205D01*
X127272278Y-60197760D01*
X127324917Y-60254664D01*
X127421528Y-60384015D01*
X127508674Y-60500694D01*
G37*
G36*
X128826558Y-54627504D02*
G01*
X128747336Y-55137048D01*
X128517692Y-55647985D01*
X128290107Y-56012961D01*
X127967719Y-56491263D01*
X127694782Y-56845359D01*
X127482107Y-57060505D01*
X127319250Y-57157885D01*
X127018023Y-57291988D01*
X126651319Y-57428471D01*
X126273399Y-57548848D01*
X125938526Y-57634631D01*
X125700963Y-57667334D01*
X125563019Y-57677647D01*
X125500874Y-57718095D01*
X125547240Y-57795443D01*
X125711259Y-57916292D01*
X126002077Y-58087247D01*
X126428835Y-58314908D01*
X127000677Y-58605879D01*
X127301508Y-58763606D01*
X127654919Y-58966253D01*
X127940697Y-59149332D01*
X128115998Y-59286691D01*
X128169221Y-59338297D01*
X128330614Y-59475118D01*
X128430250Y-59530000D01*
X128436562Y-59530262D01*
X128478907Y-59546550D01*
X128542641Y-59601878D01*
X128644023Y-59715367D01*
X128799311Y-59906139D01*
X129024763Y-60193316D01*
X129336637Y-60596021D01*
X129418156Y-60699582D01*
X129654495Y-60980311D01*
X129866986Y-61207205D01*
X130017622Y-61338806D01*
X130160811Y-61475302D01*
X130235000Y-61676193D01*
X130248445Y-61762368D01*
X130370567Y-61981092D01*
X130575396Y-62172117D01*
X130808126Y-62277904D01*
X130977665Y-62335749D01*
X131286826Y-62514555D01*
X131625828Y-62772423D01*
X131953778Y-63073970D01*
X132229782Y-63383810D01*
X132412948Y-63666558D01*
X132490027Y-63815589D01*
X132579721Y-63903573D01*
X132723990Y-63922845D01*
X132979445Y-63896370D01*
X133076358Y-63881188D01*
X133400239Y-63810669D01*
X133793056Y-63706391D01*
X134190406Y-63584917D01*
X134531363Y-63468805D01*
X134792514Y-63362004D01*
X134974674Y-63251479D01*
X135121616Y-63110067D01*
X135277117Y-62910605D01*
X135424779Y-62720943D01*
X135573237Y-62556576D01*
X135660145Y-62493334D01*
X135722234Y-62469379D01*
X135890922Y-62365915D01*
X136110098Y-62208441D01*
X136414160Y-62001700D01*
X137077850Y-61666810D01*
X137852141Y-61396988D01*
X138703661Y-61202880D01*
X139599041Y-61095135D01*
X140336203Y-61077162D01*
X141194594Y-61157700D01*
X141949976Y-61359071D01*
X142614623Y-61684830D01*
X143200810Y-62138532D01*
X143504562Y-62465187D01*
X143877391Y-63050902D01*
X144117279Y-63725446D01*
X144198073Y-64294529D01*
X144226856Y-64497268D01*
X144208756Y-65374821D01*
X144170342Y-65770808D01*
X144126882Y-66048360D01*
X144063205Y-66256334D01*
X143964064Y-66444498D01*
X143814211Y-66662624D01*
X143769032Y-66723404D01*
X143529961Y-67016106D01*
X143233955Y-67347868D01*
X142934641Y-67658000D01*
X142825775Y-67763989D01*
X142548899Y-68011372D01*
X142287941Y-68194412D01*
X141983507Y-68350703D01*
X141576206Y-68517836D01*
X141384086Y-68590788D01*
X140988791Y-68733636D01*
X140632337Y-68853813D01*
X140373833Y-68931006D01*
X140234633Y-68969202D01*
X140045728Y-69031354D01*
X139971666Y-69071915D01*
X139991102Y-69114413D01*
X140083268Y-69264918D01*
X140225666Y-69478334D01*
X140320107Y-69632975D01*
X140466763Y-70038256D01*
X140467908Y-70072805D01*
X140479720Y-70429140D01*
X140366438Y-70775792D01*
X140134375Y-71048375D01*
X139790990Y-71217054D01*
X139441277Y-71270375D01*
X139057927Y-71200372D01*
X138715543Y-70972963D01*
X138654962Y-70908477D01*
X138469855Y-70610941D01*
X138324969Y-70236582D01*
X138242855Y-69854518D01*
X138243483Y-69791650D01*
X139270327Y-69791650D01*
X139386692Y-69976976D01*
X139405348Y-69998069D01*
X139551035Y-70139947D01*
X139648268Y-70198000D01*
X139696811Y-70180330D01*
X139717484Y-70072805D01*
X139658116Y-69914833D01*
X139533248Y-69761583D01*
X139373809Y-69661864D01*
X139272952Y-69676443D01*
X139270327Y-69791650D01*
X138243483Y-69791650D01*
X138246060Y-69533865D01*
X138256327Y-69479510D01*
X138262405Y-69360829D01*
X138212673Y-69281978D01*
X138078909Y-69229348D01*
X137832889Y-69189332D01*
X137446390Y-69148324D01*
X137138825Y-69100161D01*
X136733920Y-68999744D01*
X136337130Y-68869366D01*
X136001648Y-68726855D01*
X135780666Y-68590039D01*
X135605143Y-68489748D01*
X135417793Y-68509015D01*
X135283846Y-68664697D01*
X135231630Y-68938800D01*
X135205352Y-69106673D01*
X135069705Y-69277201D01*
X135060575Y-69288679D01*
X134798231Y-69351490D01*
X134559656Y-69361175D01*
X134198030Y-69402439D01*
X133869216Y-69465934D01*
X133641475Y-69540506D01*
X133571740Y-69569866D01*
X133392839Y-69582290D01*
X133157847Y-69496266D01*
X133102093Y-69471258D01*
X132918923Y-69414031D01*
X132824063Y-69425111D01*
X132791169Y-69500244D01*
X132723300Y-69721936D01*
X132643940Y-70032679D01*
X132562122Y-70390321D01*
X132486877Y-70752709D01*
X132427236Y-71077692D01*
X132392231Y-71323118D01*
X132390893Y-71446834D01*
X132391154Y-71447505D01*
X132489180Y-71506979D01*
X132733003Y-71541508D01*
X133133689Y-71552667D01*
X133190783Y-71552755D01*
X133541261Y-71561575D01*
X133782788Y-71592734D01*
X133968473Y-71657406D01*
X134151427Y-71766762D01*
X134243977Y-71832940D01*
X134478086Y-72056066D01*
X134596046Y-72271213D01*
X134624814Y-72323682D01*
X134700712Y-72675983D01*
X134711621Y-72916756D01*
X134722333Y-73153167D01*
X134722333Y-73830743D01*
X135123246Y-74008086D01*
X135243029Y-74058352D01*
X135573578Y-74178261D01*
X135864080Y-74261545D01*
X136093839Y-74341173D01*
X136361836Y-74526549D01*
X136527385Y-74763548D01*
X136548410Y-74939334D01*
X136557629Y-75016410D01*
X136538260Y-75098765D01*
X136461214Y-75363772D01*
X136346212Y-75722786D01*
X136208018Y-76133208D01*
X136061399Y-76552439D01*
X135921119Y-76937881D01*
X135801943Y-77246934D01*
X135718636Y-77437000D01*
X135618034Y-77672782D01*
X135556680Y-77896453D01*
X135550692Y-77985353D01*
X135607767Y-78098863D01*
X135791656Y-78171403D01*
X135935574Y-78232226D01*
X136204915Y-78417725D01*
X136485358Y-78673462D01*
X136729396Y-78954274D01*
X136889517Y-79215000D01*
X136936263Y-79305707D01*
X137098824Y-79548160D01*
X137299311Y-79790012D01*
X137402093Y-79903962D01*
X137577567Y-80116653D01*
X137684567Y-80271279D01*
X137761093Y-80538311D01*
X137767014Y-80558972D01*
X137728141Y-80906490D01*
X137612156Y-81121123D01*
X137558666Y-81220107D01*
X137524578Y-81262135D01*
X137506422Y-81289334D01*
X137398154Y-81451525D01*
X137395474Y-81458667D01*
X137347000Y-81587854D01*
X137339185Y-81620809D01*
X137239563Y-81760520D01*
X137061998Y-81921431D01*
X136961371Y-81998248D01*
X136871350Y-82054610D01*
X136767950Y-82089759D01*
X136625325Y-82104358D01*
X136417630Y-82099067D01*
X136119019Y-82074548D01*
X135703647Y-82031462D01*
X135145666Y-81970471D01*
X134740389Y-81923474D01*
X134092570Y-81832368D01*
X133604869Y-81738544D01*
X133271239Y-81640941D01*
X133072443Y-81537793D01*
X132968577Y-81458667D01*
X135992333Y-81458667D01*
X136024086Y-81507877D01*
X136161666Y-81543334D01*
X136260087Y-81527457D01*
X136331000Y-81458667D01*
X136299247Y-81409456D01*
X136161666Y-81374000D01*
X136063246Y-81389877D01*
X135992333Y-81458667D01*
X132968577Y-81458667D01*
X132777423Y-81313044D01*
X132754494Y-81289334D01*
X134341333Y-81289334D01*
X134358635Y-81312214D01*
X134478327Y-81374000D01*
X134506796Y-81367477D01*
X134510666Y-81289334D01*
X134493364Y-81266453D01*
X134373673Y-81204667D01*
X134345203Y-81211190D01*
X134341333Y-81289334D01*
X132754494Y-81289334D01*
X132618710Y-81148923D01*
X133367666Y-81148923D01*
X133418320Y-81185788D01*
X133566666Y-81222343D01*
X133732043Y-81238296D01*
X133831343Y-81220768D01*
X133872215Y-81121123D01*
X133859651Y-80945125D01*
X133784515Y-80819659D01*
X133704979Y-80827681D01*
X133560956Y-80914871D01*
X133426832Y-81039081D01*
X133367666Y-81148923D01*
X132618710Y-81148923D01*
X132518483Y-81045281D01*
X132355194Y-80789850D01*
X132333450Y-80741643D01*
X132190837Y-80571871D01*
X131945520Y-80485869D01*
X131579243Y-80382287D01*
X131270673Y-80220963D01*
X131087155Y-80029589D01*
X131044193Y-79929468D01*
X131038315Y-79836908D01*
X131054030Y-79756284D01*
X131074137Y-79538028D01*
X131088276Y-79319278D01*
X131652107Y-79319278D01*
X131662227Y-79599715D01*
X131698668Y-79744167D01*
X131780988Y-79824837D01*
X131886033Y-79828468D01*
X131928333Y-79683646D01*
X131947992Y-79562170D01*
X132068105Y-79434355D01*
X132271658Y-79425743D01*
X132528719Y-79543332D01*
X132610520Y-79593251D01*
X132909317Y-79736830D01*
X133223030Y-79847439D01*
X133361197Y-79893630D01*
X133697722Y-80050781D01*
X133999419Y-80241696D01*
X134129947Y-80333872D01*
X134447479Y-80520058D01*
X134740487Y-80650486D01*
X134835372Y-80678501D01*
X135186244Y-80741464D01*
X135530431Y-80757616D01*
X135763489Y-80747306D01*
X136144894Y-80730501D01*
X136521500Y-80713965D01*
X136812343Y-80693407D01*
X137021498Y-80641356D01*
X137080982Y-80538311D01*
X137000516Y-80361616D01*
X136789820Y-80088617D01*
X136657016Y-79918171D01*
X136422900Y-79584561D01*
X136217773Y-79257334D01*
X136153152Y-79148184D01*
X135990539Y-78917402D01*
X135832604Y-78786604D01*
X135634271Y-78713801D01*
X135416828Y-78675227D01*
X135279085Y-78715448D01*
X135144870Y-78858115D01*
X134985049Y-79004467D01*
X134846218Y-79032756D01*
X134794838Y-78992818D01*
X134732945Y-78815392D01*
X134729716Y-78548354D01*
X134783254Y-78237693D01*
X134891666Y-77929398D01*
X134938269Y-77828151D01*
X135091573Y-77489389D01*
X135236880Y-77161834D01*
X135296034Y-77028566D01*
X135423213Y-76752599D01*
X135523437Y-76548000D01*
X135614224Y-76331216D01*
X135692396Y-76063693D01*
X135750678Y-75791053D01*
X135003672Y-75852026D01*
X134411863Y-75891669D01*
X133776299Y-75906256D01*
X133299370Y-75878726D01*
X132983779Y-75809137D01*
X132755284Y-75732811D01*
X132478666Y-75662355D01*
X132358977Y-75645350D01*
X132221335Y-75684432D01*
X132124248Y-75847561D01*
X132115999Y-75867590D01*
X132036363Y-76129726D01*
X131956201Y-76501695D01*
X131878869Y-76952770D01*
X131807722Y-77452223D01*
X131746116Y-77969328D01*
X131697408Y-78473357D01*
X131664953Y-78933582D01*
X131652107Y-79319278D01*
X131088276Y-79319278D01*
X131094830Y-79217883D01*
X131113485Y-78830942D01*
X131117907Y-78726980D01*
X131167166Y-77876519D01*
X131234373Y-77133263D01*
X131317502Y-76512673D01*
X131414528Y-76030210D01*
X131523425Y-75701334D01*
X131562673Y-75608869D01*
X131675222Y-75255633D01*
X131695263Y-75151000D01*
X134299000Y-75151000D01*
X134308552Y-75209424D01*
X134383666Y-75278000D01*
X134422616Y-75263672D01*
X134468333Y-75151000D01*
X134458781Y-75092577D01*
X134383666Y-75024000D01*
X134344717Y-75038328D01*
X134299000Y-75151000D01*
X131695263Y-75151000D01*
X131740251Y-74916122D01*
X131745269Y-74875834D01*
X132367785Y-74875834D01*
X132382039Y-74981149D01*
X132521000Y-75024000D01*
X132644763Y-74995845D01*
X132674215Y-74875834D01*
X132641513Y-74800281D01*
X134637666Y-74800281D01*
X134644084Y-74875834D01*
X134658923Y-75050505D01*
X134692205Y-75151000D01*
X134712860Y-75213366D01*
X134783692Y-75260376D01*
X134855633Y-75165113D01*
X134884315Y-74980150D01*
X134878096Y-74897000D01*
X135145666Y-74897000D01*
X135146398Y-74935890D01*
X135153163Y-74980150D01*
X135174371Y-75118905D01*
X135230333Y-75193334D01*
X135241445Y-75190774D01*
X135293734Y-75092868D01*
X135315000Y-74897000D01*
X135314527Y-74871825D01*
X135501744Y-74871825D01*
X135503368Y-74897000D01*
X135512927Y-75045167D01*
X135542326Y-75059529D01*
X135555631Y-74939334D01*
X135551169Y-74895298D01*
X135925756Y-74895298D01*
X135930197Y-74939334D01*
X135935889Y-74995778D01*
X135961355Y-75009024D01*
X135992333Y-74939334D01*
X135986223Y-74894511D01*
X135935889Y-74882889D01*
X135925756Y-74895298D01*
X135551169Y-74895298D01*
X135543829Y-74822864D01*
X135512927Y-74833500D01*
X135501744Y-74871825D01*
X135314527Y-74871825D01*
X135314269Y-74858110D01*
X135286295Y-74675096D01*
X135230333Y-74600667D01*
X135219222Y-74603226D01*
X135166932Y-74701133D01*
X135145666Y-74897000D01*
X134878096Y-74897000D01*
X134867214Y-74751505D01*
X134814806Y-74551740D01*
X134738565Y-74450855D01*
X134713774Y-74448910D01*
X134656469Y-74544326D01*
X134637666Y-74800281D01*
X132641513Y-74800281D01*
X132640548Y-74798051D01*
X132521000Y-74727667D01*
X132451270Y-74749875D01*
X132367785Y-74875834D01*
X131745269Y-74875834D01*
X131748971Y-74846105D01*
X131854712Y-74525625D01*
X132077107Y-74289117D01*
X132441537Y-74107312D01*
X132566510Y-74025991D01*
X132643511Y-73814941D01*
X132643637Y-73812004D01*
X132635742Y-73688904D01*
X132579719Y-73604477D01*
X132445433Y-73545312D01*
X132202747Y-73497998D01*
X131821528Y-73449123D01*
X131641256Y-73430355D01*
X131422622Y-73428479D01*
X131275486Y-73476464D01*
X131139373Y-73586486D01*
X131119031Y-73605596D01*
X130895254Y-73787167D01*
X130644443Y-73957675D01*
X130477063Y-74061377D01*
X130187753Y-74246102D01*
X129890801Y-74440354D01*
X129804465Y-74495268D01*
X129459176Y-74686020D01*
X129052682Y-74878981D01*
X128626882Y-75057361D01*
X128223679Y-75204372D01*
X127884973Y-75303224D01*
X127652666Y-75337129D01*
X127558023Y-75339707D01*
X127278698Y-75371832D01*
X126975333Y-75429591D01*
X126866973Y-75453466D01*
X126607313Y-75501315D01*
X126487552Y-75523384D01*
X126132605Y-75572858D01*
X125989766Y-75592207D01*
X125757468Y-75643979D01*
X125628838Y-75701629D01*
X125592593Y-75726865D01*
X125383775Y-75774491D01*
X125048522Y-75778516D01*
X124614631Y-75739723D01*
X124109899Y-75658893D01*
X124025506Y-75643169D01*
X123718847Y-75593650D01*
X123488865Y-75568310D01*
X123380090Y-75572424D01*
X123372876Y-75577943D01*
X123294740Y-75693361D01*
X123202331Y-75890017D01*
X123190576Y-75918588D01*
X123101465Y-76108781D01*
X123035531Y-76209334D01*
X122996383Y-76251248D01*
X122877054Y-76402107D01*
X122719872Y-76615027D01*
X122633819Y-76722581D01*
X122368268Y-76979849D01*
X122092481Y-77171941D01*
X121903788Y-77278676D01*
X121776687Y-77394959D01*
X121713047Y-77559931D01*
X121706589Y-77606334D01*
X121674950Y-77833687D01*
X121670845Y-77870794D01*
X121623715Y-78191004D01*
X121564910Y-78362245D01*
X121554947Y-78391258D01*
X121440203Y-78516703D01*
X121255149Y-78612487D01*
X121166668Y-78657147D01*
X120930494Y-78812311D01*
X120689336Y-79006293D01*
X120580859Y-79103056D01*
X120437745Y-79224972D01*
X120295098Y-79333127D01*
X120116526Y-79452780D01*
X119865633Y-79609192D01*
X119506027Y-79827624D01*
X119480714Y-79843019D01*
X119221834Y-80009709D01*
X119029692Y-80149580D01*
X118944258Y-80233734D01*
X118936300Y-80301682D01*
X118946664Y-80504940D01*
X118980747Y-80774197D01*
X119013476Y-81000221D01*
X119054107Y-81516699D01*
X119027267Y-81981541D01*
X118930713Y-82470788D01*
X118858280Y-82746824D01*
X118792624Y-82972995D01*
X118751982Y-83084621D01*
X118747559Y-83090846D01*
X118615300Y-83143210D01*
X118381748Y-83146161D01*
X118101970Y-83103598D01*
X117831034Y-83019419D01*
X117729752Y-82982785D01*
X117409893Y-82903736D01*
X117079861Y-82859582D01*
X116936494Y-82846433D01*
X116644168Y-82797370D01*
X116432224Y-82733256D01*
X116346534Y-82677140D01*
X116145305Y-82473278D01*
X115950976Y-82220667D01*
X116646000Y-82220667D01*
X116676181Y-82253733D01*
X116820330Y-82305334D01*
X116874119Y-82296606D01*
X116942333Y-82220667D01*
X116908274Y-82170544D01*
X116768003Y-82136000D01*
X116671923Y-82154026D01*
X116646000Y-82220667D01*
X115950976Y-82220667D01*
X115915664Y-82174765D01*
X115684294Y-81820812D01*
X115576783Y-81628000D01*
X116222666Y-81628000D01*
X116244874Y-81697730D01*
X116370833Y-81781215D01*
X116476148Y-81766961D01*
X116519000Y-81628000D01*
X116490845Y-81504237D01*
X116370833Y-81474785D01*
X116293051Y-81508452D01*
X116222666Y-81628000D01*
X115576783Y-81628000D01*
X115477881Y-81450629D01*
X115323106Y-81103429D01*
X115310084Y-81069122D01*
X115784339Y-81069122D01*
X115821848Y-81141559D01*
X115939171Y-81197004D01*
X116086344Y-81088900D01*
X116137187Y-80994171D01*
X116072704Y-80882077D01*
X116053298Y-80867677D01*
X115905189Y-80840746D01*
X115793680Y-80922071D01*
X115784339Y-81069122D01*
X115310084Y-81069122D01*
X115256958Y-80929162D01*
X115137606Y-80628099D01*
X115041229Y-80400334D01*
X114895644Y-80061612D01*
X114887756Y-80038965D01*
X115434959Y-80038965D01*
X115436767Y-80121577D01*
X115516590Y-80311683D01*
X115531527Y-80342963D01*
X115636182Y-80492607D01*
X115721643Y-80518135D01*
X115757000Y-80407258D01*
X115745654Y-80285134D01*
X115666258Y-80094579D01*
X115536275Y-80019334D01*
X115514150Y-80019539D01*
X115434959Y-80038965D01*
X114887756Y-80038965D01*
X114684334Y-79454939D01*
X114616319Y-79098398D01*
X115093667Y-79098398D01*
X115111101Y-79286385D01*
X115173068Y-79428066D01*
X115291649Y-79542073D01*
X115333800Y-79554795D01*
X115387681Y-79520453D01*
X115366116Y-79360911D01*
X115311765Y-79187931D01*
X115239480Y-79051311D01*
X115236161Y-79047745D01*
X115141655Y-79007314D01*
X115093667Y-79098398D01*
X114616319Y-79098398D01*
X114590400Y-78962529D01*
X114613776Y-78579206D01*
X114660103Y-78487155D01*
X115199384Y-78487155D01*
X115210282Y-78585850D01*
X115245106Y-78620394D01*
X115391364Y-78664667D01*
X115400683Y-78664603D01*
X115477800Y-78638371D01*
X115419107Y-78538599D01*
X115399751Y-78517756D01*
X115283921Y-78459619D01*
X115199384Y-78487155D01*
X114660103Y-78487155D01*
X114754396Y-78299798D01*
X114841050Y-78239070D01*
X115929814Y-78239070D01*
X115954152Y-78304733D01*
X116045054Y-78248204D01*
X116212988Y-78173904D01*
X116367493Y-78245868D01*
X116472370Y-78466024D01*
X116488799Y-78546794D01*
X116476945Y-78638371D01*
X116466145Y-78721802D01*
X116319615Y-78887245D01*
X116314519Y-78891614D01*
X116136820Y-79028150D01*
X116004291Y-79104348D01*
X115997133Y-79108001D01*
X115982819Y-79211129D01*
X116037048Y-79418100D01*
X116077005Y-79520453D01*
X116143844Y-79691669D01*
X116287232Y-79994591D01*
X116451236Y-80289622D01*
X116530624Y-80407258D01*
X116619881Y-80539517D01*
X116691157Y-80633971D01*
X116810503Y-80804136D01*
X116857666Y-80890843D01*
X116894622Y-80985588D01*
X116899971Y-80994171D01*
X117015001Y-81178748D01*
X117187503Y-81418989D01*
X117351800Y-81628000D01*
X117379481Y-81663215D01*
X117558289Y-81868332D01*
X117691278Y-81991243D01*
X117897451Y-82123150D01*
X118065312Y-82220667D01*
X118148833Y-82269188D01*
X118297323Y-82342056D01*
X118368361Y-82335881D01*
X118381666Y-82227838D01*
X118397087Y-82127809D01*
X118477039Y-82002383D01*
X118495346Y-81984178D01*
X118529023Y-81852591D01*
X118528606Y-81596119D01*
X118493554Y-81201215D01*
X118423327Y-80654334D01*
X118400710Y-80528429D01*
X118337479Y-80246182D01*
X118252553Y-79904955D01*
X118160581Y-79560808D01*
X118076210Y-79269802D01*
X118014086Y-79088000D01*
X117998172Y-79010011D01*
X118041479Y-78834000D01*
X118115132Y-78767186D01*
X118258036Y-78789401D01*
X118421011Y-78952291D01*
X118586660Y-79242813D01*
X118638965Y-79348666D01*
X118748159Y-79525943D01*
X118826312Y-79596000D01*
X118914703Y-79560415D01*
X119115947Y-79448537D01*
X119392192Y-79280695D01*
X119709183Y-79077769D01*
X120032666Y-78860640D01*
X120048729Y-78849629D01*
X120246251Y-78718194D01*
X120477166Y-78568950D01*
X120621492Y-78473416D01*
X120729017Y-78362245D01*
X120706012Y-78245571D01*
X120561833Y-78068037D01*
X120498691Y-77993386D01*
X120305786Y-77708455D01*
X120255750Y-77606334D01*
X121091000Y-77606334D01*
X121133333Y-77648667D01*
X121175666Y-77606334D01*
X121133333Y-77564000D01*
X121091000Y-77606334D01*
X120255750Y-77606334D01*
X120127301Y-77344173D01*
X119954678Y-76878334D01*
X119779362Y-76288733D01*
X119592796Y-75553167D01*
X119544882Y-75434137D01*
X119459073Y-75362667D01*
X119456000Y-75363029D01*
X119358961Y-75429506D01*
X119173717Y-75594351D01*
X118925652Y-75833944D01*
X118640149Y-76124667D01*
X118410826Y-76357493D01*
X118105645Y-76642473D01*
X117875605Y-76823367D01*
X117736721Y-76886667D01*
X117635850Y-76909236D01*
X117416509Y-77009153D01*
X117166980Y-77161834D01*
X117028962Y-77254651D01*
X116686552Y-77470141D01*
X116369298Y-77653712D01*
X116139192Y-77794195D01*
X115995225Y-77941409D01*
X115940299Y-78114555D01*
X115929814Y-78239070D01*
X114841050Y-78239070D01*
X115012195Y-78119130D01*
X115212382Y-77992504D01*
X115379854Y-77720780D01*
X115421618Y-77611981D01*
X115504188Y-77483046D01*
X115641815Y-77370443D01*
X115868819Y-77248441D01*
X116219523Y-77091312D01*
X116298010Y-77055181D01*
X116602261Y-76889950D01*
X116888393Y-76704809D01*
X116997176Y-76631158D01*
X117216524Y-76510839D01*
X117370359Y-76463334D01*
X117396715Y-76458363D01*
X117550744Y-76372614D01*
X117772954Y-76202418D01*
X118024733Y-75976500D01*
X118043831Y-75958133D01*
X118410705Y-75610899D01*
X118766677Y-75283537D01*
X118948550Y-75121292D01*
X119988907Y-75121292D01*
X120018310Y-75221425D01*
X120048208Y-75314990D01*
X120075000Y-75454258D01*
X120089274Y-75489959D01*
X120202000Y-75532000D01*
X120309795Y-75501315D01*
X120298898Y-75396362D01*
X120145310Y-75227622D01*
X120033145Y-75132827D01*
X119988907Y-75121292D01*
X118948550Y-75121292D01*
X119089512Y-74995543D01*
X119356977Y-74766415D01*
X119546840Y-74615649D01*
X119636866Y-74562744D01*
X119658974Y-74564531D01*
X120059735Y-74639671D01*
X120349285Y-74801701D01*
X120572164Y-75075018D01*
X120593346Y-75109628D01*
X120743903Y-75320139D01*
X120884830Y-75418900D01*
X121068112Y-75444657D01*
X121254948Y-75423321D01*
X121384289Y-75326539D01*
X121512612Y-75112040D01*
X121639693Y-74830284D01*
X121664178Y-74636181D01*
X121576200Y-74477071D01*
X121366166Y-74299751D01*
X121310163Y-74256906D01*
X121031372Y-74020840D01*
X120782153Y-73780508D01*
X120725273Y-73720995D01*
X120567290Y-73581969D01*
X120438706Y-73545183D01*
X120279226Y-73587496D01*
X120172841Y-73621405D01*
X120000347Y-73616284D01*
X119804557Y-73501231D01*
X119735435Y-73452777D01*
X119557733Y-73376146D01*
X119402884Y-73412541D01*
X119185025Y-73490009D01*
X118930343Y-73449478D01*
X118704891Y-73243221D01*
X118619831Y-73137819D01*
X118471486Y-73032086D01*
X118296496Y-73034444D01*
X118132460Y-73031843D01*
X117913442Y-72905711D01*
X117741466Y-72662872D01*
X117645444Y-72334411D01*
X117622183Y-72160988D01*
X120161549Y-72160988D01*
X120175887Y-72287164D01*
X120235428Y-72499655D01*
X120238482Y-72507118D01*
X120321741Y-72646942D01*
X120467814Y-72846432D01*
X120649138Y-73073191D01*
X120838148Y-73294815D01*
X121007283Y-73478907D01*
X121128977Y-73593063D01*
X121175666Y-73604885D01*
X121131031Y-73508305D01*
X121009109Y-73317724D01*
X120837000Y-73076667D01*
X120670088Y-72841482D01*
X120544973Y-72642085D01*
X120496451Y-72532209D01*
X120496434Y-72531599D01*
X120446115Y-72405420D01*
X120329000Y-72230000D01*
X120263141Y-72149929D01*
X120184221Y-72089928D01*
X120161549Y-72160988D01*
X117622183Y-72160988D01*
X117600435Y-71998844D01*
X116844593Y-71941786D01*
X116702204Y-71931493D01*
X116371001Y-71915625D01*
X116149398Y-71925720D01*
X115993491Y-71966225D01*
X115859375Y-72041587D01*
X115798479Y-72079457D01*
X115538618Y-72205269D01*
X115249000Y-72309950D01*
X115179448Y-72331087D01*
X114830027Y-72451790D01*
X114502003Y-72583058D01*
X114373189Y-72638188D01*
X113700215Y-72864782D01*
X112995325Y-72991587D01*
X112198987Y-73030159D01*
X111931704Y-73027268D01*
X111477300Y-73000451D01*
X111128133Y-72932529D01*
X110841492Y-72807761D01*
X110574669Y-72610404D01*
X110284955Y-72324719D01*
X110224267Y-72259611D01*
X110018946Y-72017913D01*
X109877084Y-71790221D01*
X109766902Y-71516430D01*
X109656618Y-71136438D01*
X109532566Y-70545493D01*
X109499117Y-69931332D01*
X110084333Y-69931332D01*
X110085911Y-69992124D01*
X110126119Y-70320478D01*
X110203614Y-70639541D01*
X110226520Y-70710965D01*
X110315380Y-71016358D01*
X110379952Y-71278765D01*
X110431403Y-71418775D01*
X110591373Y-71680432D01*
X110816095Y-71950844D01*
X111195181Y-72346493D01*
X112142591Y-72375194D01*
X112266223Y-72378784D01*
X112662577Y-72384673D01*
X112959552Y-72371653D01*
X113212694Y-72331924D01*
X113477550Y-72257689D01*
X113809666Y-72141148D01*
X113932542Y-72096741D01*
X114291640Y-71971631D01*
X114605755Y-71868446D01*
X114818136Y-71806041D01*
X115082023Y-71709350D01*
X115326615Y-71571268D01*
X115407575Y-71522568D01*
X115489265Y-71491404D01*
X120430182Y-71491404D01*
X120442113Y-71565017D01*
X120523163Y-71721354D01*
X120682521Y-71991541D01*
X120870319Y-72298441D01*
X121279045Y-72901528D01*
X121678786Y-73384310D01*
X121915474Y-73604885D01*
X122098609Y-73775553D01*
X122567581Y-74104020D01*
X123114768Y-74398476D01*
X123323460Y-74494759D01*
X123668483Y-74636366D01*
X123957063Y-74733766D01*
X124142305Y-74770000D01*
X124143520Y-74770001D01*
X124406399Y-74804596D01*
X124678821Y-74887151D01*
X124693532Y-74893158D01*
X125044441Y-74989082D01*
X125480368Y-75046946D01*
X125923995Y-75060281D01*
X126298000Y-75022619D01*
X126377758Y-75006646D01*
X126666121Y-74953064D01*
X127037073Y-74887778D01*
X127430439Y-74821476D01*
X127611395Y-74789535D01*
X127962735Y-74715014D01*
X128243096Y-74639251D01*
X128404105Y-74574515D01*
X128574774Y-74486346D01*
X128822359Y-74399393D01*
X128974284Y-74336614D01*
X129235977Y-74197833D01*
X129564755Y-74005365D01*
X129923026Y-73780351D01*
X130169289Y-73616551D01*
X130564018Y-73327477D01*
X130843248Y-73075835D01*
X131032802Y-72839738D01*
X131105281Y-72723324D01*
X131111899Y-72710885D01*
X131844765Y-72710885D01*
X131914608Y-72801216D01*
X132059317Y-72893743D01*
X132221132Y-72950562D01*
X132443818Y-72987559D01*
X132619209Y-72976983D01*
X132690333Y-72916756D01*
X132686884Y-72904773D01*
X132585692Y-72840314D01*
X132387987Y-72784792D01*
X132361698Y-72779773D01*
X132126972Y-72728166D01*
X131964654Y-72681644D01*
X131867664Y-72662809D01*
X131844765Y-72710885D01*
X131111899Y-72710885D01*
X131366003Y-72233296D01*
X131379606Y-72202546D01*
X132908724Y-72202546D01*
X133022213Y-72252757D01*
X133031169Y-72255072D01*
X133155243Y-72271213D01*
X133133271Y-72215738D01*
X133086125Y-72182000D01*
X132932758Y-72163303D01*
X132908724Y-72202546D01*
X131379606Y-72202546D01*
X131617667Y-71664404D01*
X131831753Y-71085180D01*
X131979744Y-70564155D01*
X132075036Y-70136719D01*
X132165091Y-69720239D01*
X132221420Y-69439213D01*
X132247273Y-69277201D01*
X132245900Y-69217765D01*
X132167001Y-69215818D01*
X131990925Y-69241854D01*
X131811344Y-69318383D01*
X131710140Y-69509544D01*
X131704997Y-69526407D01*
X131584236Y-69922384D01*
X131365398Y-70336379D01*
X131036825Y-70765271D01*
X130578077Y-71240308D01*
X130312768Y-71500542D01*
X130036435Y-71784988D01*
X129820432Y-72022050D01*
X129696642Y-72177815D01*
X129604537Y-72302004D01*
X129453912Y-72505099D01*
X129109040Y-72863448D01*
X128742661Y-73152343D01*
X128389093Y-73345447D01*
X128082651Y-73416426D01*
X127905641Y-73435336D01*
X127608495Y-73496683D01*
X127285788Y-73585604D01*
X127011060Y-73659901D01*
X126739969Y-73708958D01*
X126566122Y-73711842D01*
X126562552Y-73711034D01*
X126346469Y-73671663D01*
X126086333Y-73635472D01*
X125869218Y-73606414D01*
X125555726Y-73538510D01*
X125275426Y-73428300D01*
X124974952Y-73252518D01*
X124600934Y-72987899D01*
X124553042Y-72952750D01*
X124136662Y-72671282D01*
X123795583Y-72485756D01*
X123545332Y-72403375D01*
X123401434Y-72431343D01*
X123367189Y-72432934D01*
X123229551Y-72365220D01*
X123035471Y-72227734D01*
X122933769Y-72152145D01*
X122725982Y-72025889D01*
X122582453Y-71976000D01*
X122483012Y-71934976D01*
X122299354Y-71796847D01*
X122088740Y-71595000D01*
X121941321Y-71447711D01*
X121702887Y-71269426D01*
X121500266Y-71214000D01*
X121325124Y-71235782D01*
X121213954Y-71330301D01*
X121233161Y-71503886D01*
X121384785Y-71761113D01*
X121670866Y-72106560D01*
X122093445Y-72544802D01*
X122129007Y-72579720D01*
X122354072Y-72788743D01*
X122533614Y-72936180D01*
X122631499Y-72992000D01*
X122696347Y-73013001D01*
X122873933Y-73107482D01*
X123103032Y-73252231D01*
X123373052Y-73409016D01*
X123666143Y-73505074D01*
X124044695Y-73553104D01*
X124181324Y-73566456D01*
X124569721Y-73636858D01*
X124926712Y-73743348D01*
X125206435Y-73870307D01*
X125363029Y-74002115D01*
X125380191Y-74070399D01*
X125326016Y-74217639D01*
X125312357Y-74233245D01*
X125223998Y-74287486D01*
X125081088Y-74281450D01*
X124831894Y-74214846D01*
X124679038Y-74176191D01*
X124312086Y-74117214D01*
X123952361Y-74093583D01*
X123851457Y-74092470D01*
X123652392Y-74077371D01*
X123470156Y-74031684D01*
X123265538Y-73939245D01*
X122999328Y-73783892D01*
X122632316Y-73549464D01*
X122348730Y-73361455D01*
X122019987Y-73121046D01*
X121755491Y-72884548D01*
X121505110Y-72605422D01*
X121218716Y-72237131D01*
X121005986Y-71963368D01*
X120789260Y-71706538D01*
X120621655Y-71532228D01*
X120527928Y-71468000D01*
X120478179Y-71469391D01*
X120430182Y-71491404D01*
X115489265Y-71491404D01*
X115670518Y-71422257D01*
X115969146Y-71360113D01*
X116111389Y-71341584D01*
X116449372Y-71290517D01*
X116859046Y-71222872D01*
X117215354Y-71159856D01*
X122231756Y-71159856D01*
X122276333Y-71298667D01*
X122349209Y-71401853D01*
X122451624Y-71468000D01*
X122490244Y-71437478D01*
X122445666Y-71298667D01*
X122372790Y-71195480D01*
X122270375Y-71129334D01*
X122231756Y-71159856D01*
X117215354Y-71159856D01*
X117281000Y-71148246D01*
X117467313Y-71113736D01*
X117471283Y-71112927D01*
X122745746Y-71112927D01*
X122817502Y-71280945D01*
X122920806Y-71437478D01*
X122982583Y-71531086D01*
X123255719Y-71766478D01*
X123555222Y-71859584D01*
X123753372Y-71869154D01*
X123950470Y-71880750D01*
X124022890Y-71907493D01*
X124215505Y-72023772D01*
X124478216Y-72210257D01*
X124775970Y-72443070D01*
X125082036Y-72680026D01*
X125514867Y-72961859D01*
X125868867Y-73120403D01*
X126306102Y-73216132D01*
X126825022Y-73222032D01*
X127263982Y-73093767D01*
X127409018Y-73006378D01*
X127559450Y-72832630D01*
X127598062Y-72732368D01*
X128014596Y-72732368D01*
X128019085Y-72864753D01*
X128076000Y-72960948D01*
X128147030Y-72962529D01*
X128340226Y-72892687D01*
X128576495Y-72758276D01*
X128806429Y-72592734D01*
X128980623Y-72429497D01*
X129049666Y-72302004D01*
X128988958Y-72278176D01*
X128832488Y-72316762D01*
X128654614Y-72368950D01*
X128430321Y-72400630D01*
X128300871Y-72411544D01*
X128100129Y-72513487D01*
X128014596Y-72732368D01*
X127598062Y-72732368D01*
X127667013Y-72553323D01*
X127675081Y-72525421D01*
X127746097Y-72312165D01*
X127833925Y-72190911D01*
X127988326Y-72120011D01*
X128259062Y-72057817D01*
X128517942Y-71986347D01*
X128900354Y-71842462D01*
X129253031Y-71673789D01*
X129480250Y-71535674D01*
X129880924Y-71240408D01*
X130277009Y-70893312D01*
X130641024Y-70523205D01*
X130945489Y-70158906D01*
X131162923Y-69829231D01*
X131265846Y-69563000D01*
X131270694Y-69526407D01*
X131251608Y-69441936D01*
X131145685Y-69411614D01*
X130912333Y-69418895D01*
X130793067Y-69429676D01*
X130622677Y-69469545D01*
X130464904Y-69558813D01*
X130333832Y-69675030D01*
X130278779Y-69723843D01*
X130023333Y-69991001D01*
X129894925Y-70126277D01*
X129320423Y-70653851D01*
X128780437Y-71017605D01*
X128276035Y-71216790D01*
X128071681Y-71276637D01*
X127852655Y-71401550D01*
X127687402Y-71607294D01*
X127598138Y-71741732D01*
X127351116Y-71999776D01*
X127066463Y-72117049D01*
X126704787Y-72113860D01*
X126499394Y-72072601D01*
X126195091Y-71963782D01*
X125845616Y-71782318D01*
X125424653Y-71514031D01*
X124905882Y-71144743D01*
X124275765Y-70680704D01*
X123652167Y-70777653D01*
X123627906Y-70781471D01*
X123300424Y-70841706D01*
X123026630Y-70906646D01*
X122863622Y-70962879D01*
X122773428Y-71021205D01*
X122745746Y-71112927D01*
X117471283Y-71112927D01*
X117809229Y-71044054D01*
X118045477Y-70976441D01*
X118219135Y-70892305D01*
X118373283Y-70773050D01*
X118551000Y-70600083D01*
X118598325Y-70549836D01*
X120159666Y-70549836D01*
X120177572Y-70582702D01*
X120306630Y-70613358D01*
X120452728Y-70600739D01*
X124896604Y-70600739D01*
X124908055Y-70646870D01*
X125015998Y-70721528D01*
X125269132Y-70884739D01*
X125566197Y-71067075D01*
X125860661Y-71240767D01*
X126105994Y-71378044D01*
X126255666Y-71451137D01*
X126301644Y-71467669D01*
X126699585Y-71574064D01*
X127005655Y-71586755D01*
X127202225Y-71507693D01*
X127271666Y-71338825D01*
X127328349Y-71201931D01*
X127511986Y-71029497D01*
X127782776Y-70870213D01*
X128099355Y-70753340D01*
X128127282Y-70745717D01*
X128598789Y-70553233D01*
X129071348Y-70257540D01*
X129473000Y-69903176D01*
X129684666Y-69675030D01*
X129346000Y-69736921D01*
X129297600Y-69747494D01*
X128998933Y-69864239D01*
X128734254Y-70036320D01*
X128628355Y-70125228D01*
X128516063Y-70196243D01*
X128381164Y-70237642D01*
X128186998Y-70255493D01*
X127896905Y-70255862D01*
X127474224Y-70244816D01*
X127453035Y-70244207D01*
X126812348Y-70243288D01*
X126261489Y-70283964D01*
X125727033Y-70371561D01*
X125600343Y-70397831D01*
X125225686Y-70481955D01*
X124996794Y-70547679D01*
X124896604Y-70600739D01*
X120452728Y-70600739D01*
X120512711Y-70595558D01*
X120738986Y-70531136D01*
X120881994Y-70489216D01*
X121000931Y-70490995D01*
X121009243Y-70494723D01*
X121143159Y-70495343D01*
X121352945Y-70455199D01*
X121553617Y-70414628D01*
X121875567Y-70367593D01*
X122222370Y-70330476D01*
X122526213Y-70298255D01*
X122766460Y-70261197D01*
X122889857Y-70227443D01*
X122925133Y-70211283D01*
X123127293Y-70153858D01*
X123473108Y-70078118D01*
X123945062Y-69987497D01*
X124525643Y-69885426D01*
X125197333Y-69775336D01*
X125768475Y-69683763D01*
X126531215Y-69558774D01*
X127257525Y-69436819D01*
X127925589Y-69321725D01*
X128513591Y-69217322D01*
X128999716Y-69127435D01*
X129362146Y-69055894D01*
X129579068Y-69006526D01*
X129631074Y-68992945D01*
X129962616Y-68920398D01*
X130272394Y-68870620D01*
X130320658Y-68864394D01*
X130575402Y-68813619D01*
X130758510Y-68750366D01*
X130780370Y-68740715D01*
X130965104Y-68695024D01*
X131254662Y-68650627D01*
X131596630Y-68615931D01*
X132282362Y-68563051D01*
X132229241Y-68301025D01*
X132181895Y-68069450D01*
X132127170Y-67805391D01*
X132123217Y-67785188D01*
X132139728Y-67531288D01*
X132293446Y-67373549D01*
X132577549Y-67319334D01*
X132791889Y-67354965D01*
X133075615Y-67534793D01*
X133343123Y-67874644D01*
X133344472Y-67876805D01*
X133406266Y-67958738D01*
X133422738Y-67913297D01*
X133401303Y-67720885D01*
X133389915Y-67620401D01*
X133403116Y-67436144D01*
X133489536Y-67351920D01*
X133740002Y-67333474D01*
X134001979Y-67448637D01*
X134213318Y-67676685D01*
X134315564Y-67820656D01*
X134394315Y-67848648D01*
X134447164Y-67727184D01*
X134485860Y-67446334D01*
X134508481Y-67335422D01*
X134616168Y-67188224D01*
X134775007Y-67159163D01*
X134949464Y-67237157D01*
X135104005Y-67411126D01*
X135203098Y-67669990D01*
X135241826Y-67811520D01*
X135329179Y-67883845D01*
X135516440Y-67868540D01*
X135591151Y-67861001D01*
X135917084Y-67899565D01*
X136352166Y-68031581D01*
X136923666Y-68241650D01*
X136923666Y-67770744D01*
X136924261Y-67733092D01*
X137530366Y-67733092D01*
X137537504Y-67875923D01*
X137614759Y-68006962D01*
X137742664Y-68065663D01*
X137945418Y-68045683D01*
X138094895Y-67866812D01*
X138132996Y-67772270D01*
X138134674Y-67655683D01*
X138023248Y-67591713D01*
X137770607Y-67553173D01*
X137741873Y-67550649D01*
X137590279Y-67582157D01*
X137530366Y-67733092D01*
X136924261Y-67733092D01*
X136926441Y-67595106D01*
X136956401Y-67371896D01*
X137041652Y-67208387D01*
X137209423Y-67034419D01*
X137349595Y-66892293D01*
X137376673Y-66846640D01*
X139573028Y-66846640D01*
X139675333Y-66980667D01*
X139767696Y-67066310D01*
X139948524Y-67148258D01*
X140086240Y-67108143D01*
X140141000Y-66948700D01*
X140167367Y-66805886D01*
X140271588Y-66639022D01*
X140335293Y-66563015D01*
X140326168Y-66454635D01*
X140263832Y-66421168D01*
X140075500Y-66426127D01*
X139855121Y-66508773D01*
X139668442Y-66649615D01*
X139589256Y-66745363D01*
X139573028Y-66846640D01*
X137376673Y-66846640D01*
X137440801Y-66738524D01*
X137427040Y-66599667D01*
X137420928Y-66583269D01*
X137375003Y-66371996D01*
X137356822Y-66157720D01*
X138034153Y-66157720D01*
X138081414Y-66374899D01*
X138146643Y-66466012D01*
X138252673Y-66537848D01*
X138308240Y-66454932D01*
X138302282Y-66224783D01*
X138286665Y-66064239D01*
X138308038Y-65904233D01*
X138397545Y-65828940D01*
X138512463Y-65822807D01*
X138685587Y-65907782D01*
X138733191Y-65944187D01*
X138887752Y-65985513D01*
X138993249Y-65921266D01*
X138994741Y-65775039D01*
X138962434Y-65716937D01*
X138791930Y-65605396D01*
X138556917Y-65589094D01*
X138319298Y-65677016D01*
X138279962Y-65705272D01*
X138107611Y-65913168D01*
X138034153Y-66157720D01*
X137356822Y-66157720D01*
X137352951Y-66112100D01*
X137413451Y-65806237D01*
X137580214Y-65472089D01*
X137814879Y-65170990D01*
X138019088Y-65010713D01*
X140487124Y-65010713D01*
X140568049Y-65183119D01*
X140702106Y-65359143D01*
X140880152Y-65438610D01*
X141052929Y-65357538D01*
X141142156Y-65223632D01*
X141114838Y-65056832D01*
X140930151Y-64867184D01*
X140783036Y-64762376D01*
X140675752Y-64742362D01*
X140571123Y-64820924D01*
X140502427Y-64901382D01*
X140487124Y-65010713D01*
X138019088Y-65010713D01*
X138079076Y-64963630D01*
X138225123Y-64849045D01*
X138233141Y-64709630D01*
X138200782Y-64590024D01*
X138156236Y-64341377D01*
X138142525Y-64237543D01*
X138723184Y-64237543D01*
X138865434Y-64353021D01*
X138887969Y-64365063D01*
X139033748Y-64428597D01*
X139125654Y-64394431D01*
X139236738Y-64240410D01*
X139305460Y-64101637D01*
X139296326Y-63956197D01*
X139168136Y-63909638D01*
X138943072Y-63981513D01*
X138926684Y-63990096D01*
X138742732Y-64120721D01*
X138723184Y-64237543D01*
X138142525Y-64237543D01*
X138116217Y-64038320D01*
X138094807Y-63895330D01*
X140056333Y-63895330D01*
X140058534Y-63903780D01*
X140141000Y-63932667D01*
X140164206Y-63929221D01*
X140225666Y-63843003D01*
X140219019Y-63812380D01*
X140141000Y-63805667D01*
X140115662Y-63823044D01*
X140056333Y-63895330D01*
X138094807Y-63895330D01*
X138078493Y-63786370D01*
X138018761Y-63541229D01*
X137956420Y-63407554D01*
X137943511Y-63392070D01*
X137880601Y-63224711D01*
X137865528Y-63086000D01*
X139209666Y-63086000D01*
X139213112Y-63109206D01*
X139299330Y-63170667D01*
X139329954Y-63164019D01*
X139336666Y-63086000D01*
X139319289Y-63060662D01*
X139247003Y-63001334D01*
X139238553Y-63003535D01*
X139209666Y-63086000D01*
X137865528Y-63086000D01*
X137855000Y-62989121D01*
X137860790Y-62921664D01*
X138447666Y-62921664D01*
X138450090Y-62940566D01*
X138532333Y-63001334D01*
X138572795Y-62985179D01*
X138582785Y-62959000D01*
X139971666Y-62959000D01*
X140014000Y-63001334D01*
X140056333Y-62959000D01*
X140014000Y-62916667D01*
X139971666Y-62959000D01*
X138582785Y-62959000D01*
X138617000Y-62869337D01*
X138604816Y-62808861D01*
X138532333Y-62789667D01*
X138509211Y-62806996D01*
X138447666Y-62921664D01*
X137860790Y-62921664D01*
X137868062Y-62836939D01*
X137995409Y-62523438D01*
X138230748Y-62298320D01*
X138539903Y-62178098D01*
X138888698Y-62179290D01*
X139242954Y-62318410D01*
X139375368Y-62393969D01*
X139557945Y-62452048D01*
X139708696Y-62413468D01*
X139772376Y-62383070D01*
X140118378Y-62321913D01*
X140481665Y-62405841D01*
X140830080Y-62622510D01*
X141050779Y-62869337D01*
X141130950Y-62959000D01*
X141131468Y-62959579D01*
X141206458Y-63086000D01*
X141249828Y-63159115D01*
X141313611Y-63388184D01*
X141306590Y-63685018D01*
X141300045Y-63758425D01*
X141299510Y-63843003D01*
X141298542Y-63995934D01*
X141336913Y-64101637D01*
X141357153Y-64157394D01*
X141498087Y-64315986D01*
X141613887Y-64448408D01*
X141767028Y-64797022D01*
X141767944Y-65200029D01*
X141759763Y-65223632D01*
X141615168Y-65640797D01*
X141538754Y-65775039D01*
X141524847Y-65799471D01*
X141388124Y-65979330D01*
X141282574Y-66049334D01*
X141184583Y-66073196D01*
X141176691Y-66171557D01*
X141309135Y-66330103D01*
X141378209Y-66407498D01*
X141428938Y-66538332D01*
X141430401Y-66563015D01*
X141441188Y-66744990D01*
X141421917Y-67073331D01*
X141420225Y-67085917D01*
X141349943Y-67246925D01*
X141213139Y-67438594D01*
X141064977Y-67574328D01*
X140846582Y-67672675D01*
X140517966Y-67736346D01*
X140274197Y-67757683D01*
X139883021Y-67745044D01*
X139554988Y-67678513D01*
X139340900Y-67565465D01*
X139285038Y-67520244D01*
X139168609Y-67503803D01*
X139121559Y-67636834D01*
X139117820Y-67655683D01*
X139111726Y-67686404D01*
X139021240Y-67868163D01*
X138867559Y-68078135D01*
X138795711Y-68165127D01*
X138667699Y-68339709D01*
X138617000Y-68440885D01*
X138634738Y-68466745D01*
X138778176Y-68486016D01*
X139043116Y-68461835D01*
X139402463Y-68399322D01*
X139829123Y-68303595D01*
X140296000Y-68179774D01*
X140776000Y-68032977D01*
X141201409Y-67890199D01*
X141557476Y-67756044D01*
X141828651Y-67625611D01*
X142055769Y-67475536D01*
X142279665Y-67282453D01*
X142541171Y-67023000D01*
X142685748Y-66874865D01*
X142975384Y-66568151D01*
X143173550Y-66324807D01*
X143300221Y-66104208D01*
X143375374Y-65865727D01*
X143418986Y-65568738D01*
X143451032Y-65172614D01*
X143460586Y-65022663D01*
X143464176Y-64294529D01*
X143385491Y-63704352D01*
X143223462Y-63243062D01*
X143006899Y-62934923D01*
X142672361Y-62603961D01*
X142267578Y-62294296D01*
X141837703Y-62044970D01*
X141611754Y-61939532D01*
X141415889Y-61864871D01*
X141217034Y-61818500D01*
X140973607Y-61793827D01*
X140644025Y-61784257D01*
X140186703Y-61783198D01*
X140021059Y-61784635D01*
X139219425Y-61825638D01*
X138503751Y-61919715D01*
X137900251Y-62062424D01*
X137435140Y-62249324D01*
X137376640Y-62279973D01*
X137181288Y-62371735D01*
X137067438Y-62408667D01*
X137045233Y-62413828D01*
X136909549Y-62487388D01*
X136719526Y-62620334D01*
X136657760Y-62665991D01*
X136474365Y-62784495D01*
X136361230Y-62832000D01*
X136328665Y-62842298D01*
X136187120Y-62941433D01*
X135988347Y-63115884D01*
X135770852Y-63328711D01*
X135573146Y-63542973D01*
X135433735Y-63721732D01*
X135348997Y-63807717D01*
X135129266Y-63934690D01*
X134783215Y-64073029D01*
X134736268Y-64087901D01*
X134302587Y-64225285D01*
X133679125Y-64394006D01*
X132904571Y-64581742D01*
X131970666Y-64791044D01*
X131830617Y-64823096D01*
X131550919Y-64895680D01*
X131352849Y-64958201D01*
X131134785Y-65010706D01*
X130871528Y-65033334D01*
X130608546Y-65059355D01*
X130346345Y-65127717D01*
X130336821Y-65131417D01*
X130078029Y-65204816D01*
X129791992Y-65252205D01*
X129756386Y-65256143D01*
X129497470Y-65298426D01*
X129152332Y-65368747D01*
X128785527Y-65454155D01*
X128696389Y-65475913D01*
X128351286Y-65552618D01*
X128058581Y-65606759D01*
X127873868Y-65627750D01*
X127819461Y-65630150D01*
X127692040Y-65644459D01*
X127503021Y-65674568D01*
X127235090Y-65723835D01*
X126870935Y-65795618D01*
X126393243Y-65893273D01*
X125784702Y-66020159D01*
X125028000Y-66179632D01*
X124959130Y-66194518D01*
X124684976Y-66261000D01*
X124613936Y-66278227D01*
X124320389Y-66363132D01*
X124135864Y-66432942D01*
X124123110Y-66439184D01*
X123921796Y-66512198D01*
X123620321Y-66596713D01*
X123278867Y-66675682D01*
X122984522Y-66738053D01*
X122671805Y-66812498D01*
X122481391Y-66874027D01*
X122386661Y-66931914D01*
X122361000Y-66995431D01*
X122325695Y-67033776D01*
X122191666Y-67023000D01*
X122064574Y-67011853D01*
X122022333Y-67114808D01*
X122016674Y-67150406D01*
X121949979Y-67329768D01*
X121919027Y-67395039D01*
X121824047Y-67595329D01*
X121658877Y-67903680D01*
X121616443Y-67979306D01*
X121390884Y-68392756D01*
X121147418Y-68853414D01*
X120931831Y-69274925D01*
X120851242Y-69432473D01*
X120665035Y-69772686D01*
X120492922Y-70058526D01*
X120363954Y-70240594D01*
X120334828Y-70275219D01*
X120210237Y-70444019D01*
X120159666Y-70549836D01*
X118598325Y-70549836D01*
X118761114Y-70376995D01*
X119051685Y-70046427D01*
X119313000Y-69728218D01*
X119528049Y-69458982D01*
X119726514Y-69219970D01*
X119864955Y-69063528D01*
X119950326Y-68963309D01*
X120059622Y-68804007D01*
X120198325Y-68569840D01*
X120381564Y-68235123D01*
X120624469Y-67774172D01*
X120678434Y-67657879D01*
X120745258Y-67395039D01*
X120717130Y-67204293D01*
X120603462Y-67113488D01*
X120413666Y-67150472D01*
X120404882Y-67154319D01*
X120246031Y-67192727D01*
X119977301Y-67233850D01*
X119651666Y-67269418D01*
X119288737Y-67312767D01*
X118918611Y-67375941D01*
X118635666Y-67443789D01*
X118476675Y-67489851D01*
X117860695Y-67626019D01*
X117098975Y-67738299D01*
X116180333Y-67828443D01*
X115774708Y-67861243D01*
X115273580Y-67904449D01*
X114875795Y-67943584D01*
X114541797Y-67983031D01*
X114232028Y-68027174D01*
X113906931Y-68080398D01*
X113614130Y-68121010D01*
X113174420Y-68161456D01*
X112763931Y-68180125D01*
X112345950Y-68202716D01*
X111851212Y-68267228D01*
X111389852Y-68363592D01*
X111007183Y-68482077D01*
X110748515Y-68612952D01*
X110527726Y-68835561D01*
X110304919Y-69186644D01*
X110145360Y-69575247D01*
X110084333Y-69931332D01*
X109499117Y-69931332D01*
X109494756Y-69851269D01*
X109599402Y-69239337D01*
X109848024Y-68702165D01*
X110242139Y-68232220D01*
X110251736Y-68223224D01*
X110408609Y-68083667D01*
X110563566Y-67970319D01*
X110737936Y-67878111D01*
X110953051Y-67801971D01*
X111230239Y-67736830D01*
X111590832Y-67677617D01*
X112056158Y-67619263D01*
X112647549Y-67556698D01*
X113386333Y-67484851D01*
X113563407Y-67467892D01*
X114105964Y-67415082D01*
X114595983Y-67366158D01*
X115004450Y-67324094D01*
X115302349Y-67291860D01*
X115460666Y-67272427D01*
X115550746Y-67260426D01*
X115815976Y-67230879D01*
X116169978Y-67195591D01*
X116561333Y-67159823D01*
X116794286Y-67137804D01*
X117140903Y-67098313D01*
X117406577Y-67059635D01*
X117547349Y-67027662D01*
X117595735Y-66994012D01*
X117646208Y-66874999D01*
X117652165Y-66660448D01*
X117613257Y-66327843D01*
X117529133Y-65854666D01*
X117499181Y-65660278D01*
X117464033Y-65287033D01*
X117458002Y-65125056D01*
X117878887Y-65125056D01*
X117893960Y-65312981D01*
X117939487Y-65627955D01*
X118003909Y-65964667D01*
X118123710Y-66515000D01*
X118088279Y-65880000D01*
X118080395Y-65743671D01*
X118053409Y-65370058D01*
X118023101Y-65125065D01*
X117984481Y-64977126D01*
X117932562Y-64894673D01*
X117924032Y-64889175D01*
X117889983Y-64949898D01*
X117878887Y-65125056D01*
X117458002Y-65125056D01*
X117450333Y-64919099D01*
X117440426Y-64667605D01*
X117408083Y-64427521D01*
X117361061Y-64300595D01*
X117289586Y-64164506D01*
X117238757Y-63950313D01*
X117231598Y-63899841D01*
X117200743Y-63737170D01*
X117793879Y-63737170D01*
X117795689Y-63767640D01*
X117822273Y-63972972D01*
X117868809Y-64229000D01*
X117938860Y-64567667D01*
X117948597Y-64128164D01*
X117946234Y-63963263D01*
X117919988Y-63744203D01*
X117873666Y-63636334D01*
X117826090Y-63634140D01*
X117793879Y-63737170D01*
X117200743Y-63737170D01*
X117179286Y-63624044D01*
X117108898Y-63329720D01*
X117091369Y-63256653D01*
X117052576Y-62963667D01*
X117061959Y-62720706D01*
X117069370Y-62525459D01*
X116948602Y-62207138D01*
X116753408Y-61818878D01*
X116551690Y-61152353D01*
X116430378Y-60337697D01*
X116348655Y-59694379D01*
X116233363Y-59203440D01*
X116081487Y-58852667D01*
X116023272Y-58743250D01*
X115912248Y-58516280D01*
X115782583Y-58238834D01*
X115668516Y-58008037D01*
X115577387Y-57855030D01*
X116265000Y-57855030D01*
X116266505Y-57879220D01*
X116329869Y-58075675D01*
X116457640Y-58294342D01*
X116556134Y-58443859D01*
X116730133Y-58779044D01*
X116887526Y-59162714D01*
X117016016Y-59555120D01*
X117103306Y-59916515D01*
X117137102Y-60207151D01*
X117105106Y-60387282D01*
X117081371Y-60440817D01*
X117087320Y-60575104D01*
X117102361Y-60612856D01*
X117139173Y-60791498D01*
X117168695Y-61041495D01*
X117225571Y-61367784D01*
X117339785Y-61713986D01*
X117489101Y-62019371D01*
X117652719Y-62241838D01*
X117809841Y-62339287D01*
X117903435Y-62362613D01*
X117974989Y-62451612D01*
X117977827Y-62651510D01*
X118012614Y-62946959D01*
X118171475Y-63323921D01*
X118212135Y-63399298D01*
X118331825Y-63703584D01*
X118336429Y-63945888D01*
X118327137Y-64027856D01*
X118327567Y-64128164D01*
X118328227Y-64281869D01*
X118350890Y-64625738D01*
X118392470Y-65009091D01*
X118415444Y-65198151D01*
X118455140Y-65600645D01*
X118478822Y-65955537D01*
X118481997Y-66202888D01*
X118478881Y-66394123D01*
X118499359Y-66515000D01*
X118517810Y-66623907D01*
X118628081Y-66731228D01*
X118826363Y-66742191D01*
X118906008Y-66730145D01*
X119017335Y-66669089D01*
X119014613Y-66530524D01*
X118946888Y-66220012D01*
X118859619Y-65759250D01*
X118771576Y-65243094D01*
X118692953Y-64731681D01*
X118633947Y-64285148D01*
X118620719Y-64176136D01*
X118574844Y-63854254D01*
X118529736Y-63608402D01*
X118493507Y-63484805D01*
X118472147Y-63411507D01*
X118437574Y-63193404D01*
X118401359Y-62875381D01*
X118368549Y-62497323D01*
X118348456Y-62201226D01*
X118347653Y-62176894D01*
X118815480Y-62176894D01*
X118819153Y-62354460D01*
X118834891Y-62682077D01*
X118858731Y-62926103D01*
X118887130Y-63043667D01*
X118895896Y-63059934D01*
X118941277Y-63214390D01*
X118996638Y-63478436D01*
X119051943Y-63805667D01*
X119087164Y-64031241D01*
X119150707Y-64419328D01*
X119224897Y-64857715D01*
X119303360Y-65310174D01*
X119379720Y-65740476D01*
X119447602Y-66112395D01*
X119500632Y-66389701D01*
X119532434Y-66536167D01*
X119609947Y-66595295D01*
X119796319Y-66631093D01*
X120023080Y-66629581D01*
X120223166Y-66585927D01*
X120237706Y-66579137D01*
X120308004Y-66486216D01*
X120319309Y-66299870D01*
X120312981Y-66261000D01*
X120837000Y-66261000D01*
X120879333Y-66303334D01*
X120921666Y-66261000D01*
X120879333Y-66218667D01*
X120837000Y-66261000D01*
X120312981Y-66261000D01*
X120270302Y-65998840D01*
X120159666Y-65561870D01*
X120084595Y-65267860D01*
X120003988Y-64795525D01*
X120012946Y-64465323D01*
X120111429Y-64276234D01*
X120141266Y-64255127D01*
X120257867Y-64260104D01*
X120356744Y-64424792D01*
X120441087Y-64753812D01*
X120497011Y-64919947D01*
X120633920Y-65191123D01*
X120812846Y-65471604D01*
X120962675Y-65674713D01*
X121074633Y-65800660D01*
X121133378Y-65814009D01*
X121160291Y-65730704D01*
X121160543Y-65728972D01*
X121260641Y-65511587D01*
X121449783Y-65382168D01*
X121675685Y-65348570D01*
X121886065Y-65418648D01*
X122028640Y-65600254D01*
X122075531Y-65764846D01*
X122107000Y-66012512D01*
X122108953Y-66097607D01*
X122135589Y-66180490D01*
X122221930Y-66207608D01*
X122403138Y-66185141D01*
X122714374Y-66119270D01*
X123007393Y-66048068D01*
X123227872Y-65965700D01*
X123296056Y-65876485D01*
X123220744Y-65765545D01*
X123010733Y-65618000D01*
X122759054Y-65433334D01*
X122515309Y-65197290D01*
X122342185Y-64967327D01*
X122276333Y-64785016D01*
X122247349Y-64682827D01*
X122158756Y-64470896D01*
X122031347Y-64204523D01*
X122007462Y-64157757D01*
X121838280Y-63873460D01*
X121664562Y-63693255D01*
X121438680Y-63565812D01*
X121370281Y-63533603D01*
X121159211Y-63389206D01*
X121089722Y-63248407D01*
X121173180Y-63129870D01*
X121175555Y-63128507D01*
X121304620Y-63131105D01*
X121495137Y-63203074D01*
X121641378Y-63268059D01*
X121800083Y-63276941D01*
X122005624Y-63195958D01*
X122039166Y-63179144D01*
X122207705Y-63073164D01*
X122276333Y-62990758D01*
X122276515Y-62985695D01*
X122342944Y-62923056D01*
X122471401Y-62932688D01*
X122577641Y-63009383D01*
X122583317Y-63022578D01*
X122560159Y-63160025D01*
X122455638Y-63344621D01*
X122436153Y-63371431D01*
X122322665Y-63549971D01*
X122276333Y-63664179D01*
X122310391Y-63754740D01*
X122438523Y-63945226D01*
X122629887Y-64181721D01*
X122850293Y-64424903D01*
X123065547Y-64635455D01*
X123241460Y-64774055D01*
X123463456Y-64882873D01*
X123851775Y-64992742D01*
X124273645Y-65043278D01*
X124681511Y-65033247D01*
X125027822Y-64961415D01*
X125265022Y-64826549D01*
X125299502Y-64798544D01*
X125475131Y-64689105D01*
X125744669Y-64542044D01*
X126065407Y-64381129D01*
X126291615Y-64267133D01*
X126807557Y-63957331D01*
X127189745Y-63646141D01*
X127427148Y-63343658D01*
X127508733Y-63059981D01*
X127524692Y-62863714D01*
X127599933Y-62621788D01*
X127714016Y-62467797D01*
X127841353Y-62419001D01*
X127956358Y-62492660D01*
X128033445Y-62706034D01*
X128080082Y-62859860D01*
X128199358Y-62977733D01*
X128436264Y-63072868D01*
X128675924Y-63185742D01*
X128793360Y-63329038D01*
X128776781Y-63470333D01*
X128641500Y-63585483D01*
X128402831Y-63650344D01*
X128076086Y-63640772D01*
X127867661Y-63618245D01*
X127720121Y-63645873D01*
X127579126Y-63750642D01*
X127387269Y-63959082D01*
X127368013Y-63980743D01*
X127072908Y-64269819D01*
X126732266Y-64544223D01*
X126397717Y-64765748D01*
X126120891Y-64896190D01*
X126111203Y-64899444D01*
X125929203Y-65005989D01*
X125739891Y-65175346D01*
X125647470Y-65282033D01*
X125610017Y-65355933D01*
X125686953Y-65344812D01*
X125831884Y-65306743D01*
X126093291Y-65252924D01*
X126406620Y-65197412D01*
X126782034Y-65135067D01*
X127231530Y-65059107D01*
X127652666Y-64986824D01*
X127702126Y-64978247D01*
X128069804Y-64914588D01*
X128404925Y-64856725D01*
X128640350Y-64816252D01*
X128703737Y-64803994D01*
X128908367Y-64719989D01*
X128999452Y-64568924D01*
X129029951Y-64479208D01*
X129144278Y-64339794D01*
X129277306Y-64336017D01*
X129386396Y-64477906D01*
X129484263Y-64625327D01*
X129639005Y-64635402D01*
X129747747Y-64597622D01*
X129851068Y-64530077D01*
X129851772Y-64528722D01*
X129826489Y-64427312D01*
X129730982Y-64226666D01*
X129585152Y-63968797D01*
X129519150Y-63855429D01*
X129334848Y-63473238D01*
X129241082Y-63154922D01*
X129242611Y-62923520D01*
X129344194Y-62802076D01*
X129411325Y-62780760D01*
X129522096Y-62785505D01*
X129625847Y-62872398D01*
X129746295Y-63066295D01*
X129907159Y-63392053D01*
X129930669Y-63440850D01*
X130159697Y-63838404D01*
X130408906Y-64155011D01*
X130653829Y-64364070D01*
X130870000Y-64438979D01*
X131057564Y-64412472D01*
X131210900Y-64293334D01*
X131223318Y-64087901D01*
X131188757Y-64003997D01*
X131062481Y-63786012D01*
X130874336Y-63501639D01*
X130652891Y-63190532D01*
X130426716Y-62892343D01*
X130224380Y-62646726D01*
X130074453Y-62493334D01*
X130052875Y-62474029D01*
X129911723Y-62321595D01*
X129714853Y-62084987D01*
X129497886Y-61806630D01*
X129444065Y-61736846D01*
X129209022Y-61453400D01*
X128921926Y-61130644D01*
X128606216Y-60792333D01*
X128285328Y-60462228D01*
X127982699Y-60164085D01*
X127721767Y-59921664D01*
X127525970Y-59758722D01*
X127418743Y-59699017D01*
X127391128Y-59695078D01*
X127229415Y-59631444D01*
X127017666Y-59514773D01*
X127003519Y-59506090D01*
X126824858Y-59417285D01*
X126614830Y-59361685D01*
X126327517Y-59331046D01*
X125917000Y-59317120D01*
X125754454Y-59316077D01*
X125393274Y-59327183D01*
X125115296Y-59354793D01*
X124963454Y-59395383D01*
X124804339Y-59435043D01*
X124591971Y-59369944D01*
X124413367Y-59211117D01*
X124323382Y-58993043D01*
X124320259Y-58961229D01*
X124358173Y-58708861D01*
X124524934Y-58561738D01*
X124826700Y-58514000D01*
X124999884Y-58501509D01*
X125135528Y-58444533D01*
X125117080Y-58357343D01*
X124936957Y-58257576D01*
X124769767Y-58176088D01*
X124592243Y-58048005D01*
X124582319Y-58038244D01*
X124443721Y-57945359D01*
X124285986Y-57944040D01*
X124074721Y-58042798D01*
X123775534Y-58250146D01*
X123558323Y-58405915D01*
X123286412Y-58586132D01*
X123080666Y-58706181D01*
X123074239Y-58709380D01*
X122748792Y-58841277D01*
X122330631Y-58971023D01*
X122144876Y-59017401D01*
X121882071Y-59083016D01*
X121465426Y-59161654D01*
X121143009Y-59191334D01*
X120991646Y-59199649D01*
X120533693Y-59328139D01*
X120071820Y-59615538D01*
X119597891Y-60066453D01*
X119523639Y-60150168D01*
X119178485Y-60607676D01*
X118958430Y-61062838D01*
X118843940Y-61568347D01*
X118815480Y-62176894D01*
X118347653Y-62176894D01*
X118336739Y-61846146D01*
X118352314Y-61563688D01*
X118399561Y-61295887D01*
X118482861Y-60984778D01*
X118493369Y-60948981D01*
X118583820Y-60670247D01*
X118684032Y-60448491D01*
X118822278Y-60240335D01*
X119026832Y-60002401D01*
X119325970Y-59691312D01*
X119988208Y-59017401D01*
X119756437Y-58916539D01*
X119654899Y-58865356D01*
X119410927Y-58717318D01*
X119152658Y-58537838D01*
X118999949Y-58429613D01*
X118800812Y-58307514D01*
X118682433Y-58260000D01*
X118591199Y-58286337D01*
X118411945Y-58425479D01*
X118233901Y-58638764D01*
X118097457Y-58874370D01*
X118043000Y-59080473D01*
X118024959Y-59222302D01*
X117930514Y-59379062D01*
X117789989Y-59414699D01*
X117643067Y-59306759D01*
X117623858Y-59279384D01*
X117545845Y-59090171D01*
X117571291Y-58872329D01*
X117704333Y-58576553D01*
X117737984Y-58510476D01*
X117834759Y-58273194D01*
X117873666Y-58095760D01*
X117873840Y-58089251D01*
X117949879Y-57931276D01*
X118127666Y-57780865D01*
X118158248Y-57761748D01*
X118325185Y-57600427D01*
X118389713Y-57431402D01*
X118346738Y-57297823D01*
X118191166Y-57242844D01*
X118055368Y-57233801D01*
X117810166Y-57190636D01*
X117809443Y-57190442D01*
X117684064Y-57175045D01*
X117630779Y-57247550D01*
X117619666Y-57448449D01*
X117610696Y-57578131D01*
X117532276Y-57770009D01*
X117388119Y-57817670D01*
X117196506Y-57709823D01*
X117195913Y-57709288D01*
X117006622Y-57616766D01*
X116764196Y-57593604D01*
X116523324Y-57631278D01*
X116338696Y-57721261D01*
X116265000Y-57855030D01*
X115577387Y-57855030D01*
X115558289Y-57822965D01*
X115489138Y-57752000D01*
X115441439Y-57730370D01*
X115418659Y-57613842D01*
X115464103Y-57452343D01*
X115566500Y-57310225D01*
X115658165Y-57252878D01*
X115893140Y-57156403D01*
X115992614Y-57127807D01*
X125493666Y-57127807D01*
X125497161Y-57137068D01*
X125598665Y-57158041D01*
X125803118Y-57144403D01*
X126059851Y-57101803D01*
X126318194Y-57035889D01*
X126348148Y-57025848D01*
X126656672Y-56869401D01*
X127012474Y-56618455D01*
X127369700Y-56311959D01*
X127682499Y-55988858D01*
X127905015Y-55688098D01*
X127974769Y-55560093D01*
X128151903Y-55049266D01*
X128168937Y-54551101D01*
X128027460Y-54083850D01*
X127729059Y-53665762D01*
X127680598Y-53617299D01*
X127370343Y-53375897D01*
X127089292Y-53275044D01*
X126856395Y-53322200D01*
X126733388Y-53431582D01*
X126543544Y-53709134D01*
X126355961Y-54093363D01*
X126185521Y-54547916D01*
X126047107Y-55036440D01*
X125955602Y-55522581D01*
X125951826Y-55547526D01*
X125900764Y-55777613D01*
X125813565Y-56096656D01*
X125706738Y-56443555D01*
X125676042Y-56537919D01*
X125667587Y-56564326D01*
X125583078Y-56828269D01*
X125518108Y-57038315D01*
X125493666Y-57127807D01*
X115992614Y-57127807D01*
X116180333Y-57073843D01*
X116341141Y-57031886D01*
X116710421Y-56909763D01*
X117029628Y-56774708D01*
X117132859Y-56726988D01*
X117477372Y-56602188D01*
X117801229Y-56524422D01*
X118189201Y-56466242D01*
X118149604Y-55835112D01*
X118143217Y-55689445D01*
X118150472Y-55264483D01*
X118189523Y-54843715D01*
X118253928Y-54468400D01*
X118337250Y-54179795D01*
X118348640Y-54160695D01*
X120100580Y-54160695D01*
X120117263Y-54451817D01*
X120187545Y-54851860D01*
X120294983Y-55239979D01*
X120513187Y-55753567D01*
X120786722Y-56181861D01*
X121092343Y-56482957D01*
X121278770Y-56600641D01*
X121412078Y-56639110D01*
X121433179Y-56564326D01*
X121341122Y-56384666D01*
X121134952Y-56108505D01*
X120951852Y-55861998D01*
X120628516Y-55244190D01*
X120416040Y-54514976D01*
X120366206Y-54302480D01*
X120296709Y-54084400D01*
X120238039Y-53980443D01*
X120224100Y-53972763D01*
X120136519Y-53995380D01*
X120100580Y-54160695D01*
X118348640Y-54160695D01*
X118433047Y-54019158D01*
X118492061Y-53956569D01*
X118551000Y-53820474D01*
X118556634Y-53782507D01*
X118661365Y-53616506D01*
X118860017Y-53439422D01*
X119102177Y-53290463D01*
X119337431Y-53208838D01*
X119436398Y-53189029D01*
X119622767Y-53097371D01*
X119633330Y-53078958D01*
X121683666Y-53078958D01*
X121736448Y-53169841D01*
X121876579Y-53344975D01*
X122073461Y-53565791D01*
X122095801Y-53590287D01*
X122329497Y-53891134D01*
X122571198Y-54266216D01*
X122771961Y-54640250D01*
X122829884Y-54761515D01*
X122967734Y-55034998D01*
X123074232Y-55225100D01*
X123130055Y-55296416D01*
X123156697Y-55293813D01*
X123233913Y-55205819D01*
X123228344Y-55013271D01*
X123152804Y-54743992D01*
X123020106Y-54425806D01*
X122843063Y-54086537D01*
X122634491Y-53754009D01*
X122407203Y-53456046D01*
X122174012Y-53220470D01*
X122093443Y-53157449D01*
X121891594Y-53041118D01*
X121742099Y-53011231D01*
X121683666Y-53078958D01*
X119633330Y-53078958D01*
X119727632Y-52914566D01*
X119822239Y-52730814D01*
X119937590Y-52621946D01*
X119952198Y-52615510D01*
X120024823Y-52509592D01*
X120015437Y-52285896D01*
X120007279Y-52122050D01*
X120077775Y-51957033D01*
X120230160Y-51930774D01*
X120439141Y-52056943D01*
X120511117Y-52110208D01*
X120752960Y-52231526D01*
X121037790Y-52325464D01*
X121086627Y-52337138D01*
X121329942Y-52381920D01*
X121479914Y-52368879D01*
X121594790Y-52294810D01*
X121803336Y-52194584D01*
X122124568Y-52183297D01*
X122502846Y-52276275D01*
X122591193Y-52316852D01*
X122867974Y-52499684D01*
X123209509Y-52779845D01*
X123589030Y-53130735D01*
X123979766Y-53525754D01*
X124354949Y-53938300D01*
X124687809Y-54341774D01*
X124951578Y-54709575D01*
X124961356Y-54724708D01*
X125177836Y-55054053D01*
X125286812Y-55205819D01*
X125323534Y-55256960D01*
X125415291Y-55350846D01*
X125469950Y-55353129D01*
X125504354Y-55281225D01*
X125570901Y-55054949D01*
X125779734Y-54398102D01*
X125970114Y-53890102D01*
X126147795Y-53516696D01*
X126318526Y-53263634D01*
X126564586Y-53037919D01*
X126924146Y-52886049D01*
X127326472Y-52897377D01*
X127772195Y-53071947D01*
X128261945Y-53409810D01*
X128545014Y-53711296D01*
X128758177Y-54144028D01*
X128815752Y-54551101D01*
X128826558Y-54627504D01*
G37*
%TD*%
M02*
