M48
; DRILL file {KiCad 7.0.5-0} date 2023 July 12, Wednesday 10:20:29
; FORMAT={-:-/ absolute / inch / decimal}
; #@! TF.CreationDate,2023-07-12T10:20:29-04:00
; #@! TF.GenerationSoftware,Kicad,Pcbnew,7.0.5-0
; #@! TF.FileFunction,Plated,1,4,PTH
FMAT,2
INCH
; #@! TA.AperFunction,Plated,PTH,ViaDrill
T1C0.0157
; #@! TA.AperFunction,Plated,PTH,ComponentDrill
T2C0.0236
; #@! TA.AperFunction,Plated,PTH,ComponentDrill
T3C0.0256
; #@! TA.AperFunction,Plated,PTH,ComponentDrill
T4C0.0394
; #@! TA.AperFunction,Plated,PTH,ComponentDrill
T5C0.1260
%
G90
G05
T1
X4.2904Y-2.1319
X4.2953Y-3.186
X4.3012Y-2.2047
X4.3022Y-2.2825
X4.3022Y-2.3622
X4.3022Y-2.4409
X4.3031Y-2.5197
X4.3179Y-2.9183
X4.3179Y-2.9911
X4.3386Y-2.6161
X4.3406Y-2.2047
X4.3415Y-2.2835
X4.3415Y-2.3622
X4.3524Y-2.752
X4.3799Y-2.2037
X4.3799Y-2.2835
X4.3799Y-2.3622
X4.3996Y-3.1535
X4.4183Y-2.2047
X4.4193Y-2.2835
X4.4193Y-2.3622
X4.4222Y-2.6171
X4.4764Y-2.8986
X4.4808Y-2.841
X4.4961Y-2.7667
X4.499Y-1.8878
X4.5138Y-3.4065
X4.5344Y-2.7244
X4.5541Y-2.4567
X4.578Y-2.8276
X4.6049Y-2.9191
X4.622Y-3.1545
X4.657Y-2.844
X4.6905Y-2.8647
X4.6913Y-2.9301
X4.7087Y-2.497
X4.7182Y-2.7718
X4.7343Y-3.1594
X4.7427Y-2.8055
X4.7517Y-2.7432
X4.7584Y-2.3962
X4.7874Y-2.7136
X4.7975Y-2.7643
X4.8037Y-3.112
X4.8053Y-3.0618
X4.8209Y-2.4931
X4.8228Y-2.9104
X4.841Y-3.1246
X4.8603Y-3.1596
X4.8758Y-2.3386
X4.8996Y-2.9114
X4.8996Y-3.1585
X4.9006Y-2.9902
X4.9016Y-2.8337
X4.9047Y-2.6006
X4.9075Y-2.4921
X4.9315Y-3.1323
X4.935Y-2.5652
X4.9488Y-3.3445
X4.9542Y-2.4921
X4.9547Y-2.7028
X4.9582Y-3.1612
X4.9685Y-2.0856
X4.9793Y-2.9094
X5.0266Y-2.5167
X5.0482Y-2.2215
X5.0669Y-3.2411
X5.0669Y-3.3809
X5.0709Y-2.0659
X5.0788Y-2.2697
X5.0788Y-2.3563
X5.0788Y-2.3983
X5.1064Y-3.1164
X5.1225Y-2.9446
X5.1372Y-2.9081
X5.1437Y-2.5876
X5.1467Y-2.065
X5.1663Y-3.2736
X5.1722Y-2.6496
X5.2037Y-2.5886
X5.2096Y-2.2293
X5.2096Y-2.2805
X5.2096Y-2.3278
X5.2137Y-3.0719
X5.2224Y-2.6506
X5.2254Y-2.9995
X5.2332Y-2.94
X5.2441Y-2.5896
X5.2709Y-2.6518
X5.2726Y-3.1339
X5.2909Y-2.9026
X5.3051Y-2.5896
X5.31Y-3.2657
X5.317Y-2.7667
X5.3171Y-2.8261
X5.3194Y-2.939
X5.3303Y-3.0866
X5.3396Y-2.628
X5.3465Y-2.4124
X5.3472Y-2.9888
X5.3563Y-2.6703
X5.3907Y-3.1142
X5.4207Y-2.8248
X5.4449Y-2.0935
X5.4449Y-2.1909
X5.4449Y-2.2854
X5.4493Y-3.1255
X5.4862Y-3.3898
X5.4865Y-3.2857
X5.5195Y-2.9931
X5.5354Y-3.0797
X5.5394Y-3.2933
X5.5965Y-2.1033
X5.5984Y-1.8868
X5.6004Y-2.2392
X5.6004Y-2.2766
X5.6043Y-3.4094
X5.6821Y-2.3622
X5.6831Y-2.2037
X5.6831Y-2.2825
X5.7224Y-2.2037
X5.7224Y-2.2835
X5.7224Y-2.3632
X5.7402Y-2.1437
X5.748Y-3.0748
X5.748Y-3.1516
X5.7598Y-2.2047
X5.7598Y-2.2835
X5.7598Y-2.3632
X5.7982Y-2.2047
X5.7992Y-2.2835
X5.7992Y-2.3622
X5.7992Y-2.5197
X5.7992Y-2.5886
X5.8002Y-2.4409
X5.812Y-2.1398
X5.813Y-2.747
X5.813Y-2.8199
X5.814Y-2.8976
T3
X4.5778Y-3.3152
X4.5778Y-3.3652
X4.6278Y-3.3152
X4.6278Y-3.3652
X4.6778Y-3.3152
X4.6778Y-3.3652
X4.7278Y-3.3152
X4.7278Y-3.3652
X4.7778Y-3.3152
X4.7778Y-3.3652
X4.8278Y-3.3152
X4.8278Y-3.3652
X4.8778Y-3.3152
X4.8778Y-3.3652
T4
X4.6057Y-1.9344
X4.6057Y-2.0344
X4.6057Y-2.1821
X4.6057Y-2.2821
X4.7057Y-1.9344
X4.7057Y-2.0344
X4.7057Y-2.1821
X4.7057Y-2.2821
T5
X4.3937Y-1.9931
X4.4016Y-3.2992
X5.7067Y-1.9941
X5.7116Y-3.3022
T2
G00X5.5628Y-2.6528
M15
G01X5.6061Y-2.6528
M16
G05
G00X5.5628Y-2.9929
M15
G01X5.6061Y-2.9929
M16
G05
G00X5.7372Y-2.6528
M15
G01X5.7608Y-2.6528
M16
G05
G00X5.7372Y-2.9929
M15
G01X5.7608Y-2.9929
M16
G05
T0
M30
